<svg width="828" height="896" viewBox="0 0 828 896" fill="none" xmlns="http://www.w3.org/2000/svg">
<g clip-path="url(#clip0_341_1808)">
<rect width="414" height="896" transform="translate(414)" fill="#E76BC8"/>
<path d="M565.606 932.111L388.502 891.5L589.628 484.427H659.879L565.606 932.111Z" fill="#F20309"/>
<circle cx="629.224" cy="452.496" r="51.0915" fill="#F20309"/>
<path d="M412 761.5L401 635.498L596.779 451.696L637.073 509.243L412 761.5Z" fill="#F20309"/>
<path d="M835 772.5L835 621.5L688.263 490.337L647.968 547.883L835 772.5Z" fill="#F20309"/>
<path d="M403 459.5V361.5L596.011 426.952V497.203L403 459.5Z" fill="#F20309"/>
<path d="M840.502 466.5V377.5L626.647 434.892V505.143L840.502 466.5Z" fill="#F20309"/>
<path d="M413.502 495V585.5L597.503 526.448V456.197L413.502 495Z" fill="#F20309"/>
<path d="M831.502 504V582L630.618 530.419V460.168L831.502 504Z" fill="#F20309"/>
<path d="M409 327.998L409 234.5L622.516 388.918L582.221 446.464L409 327.998Z" fill="#F20309"/>
<path d="M844 340.499L833.001 253.499L620.264 388.916L660.558 446.462L844 340.499Z" fill="#F20309"/>
<path d="M547.739 -25.1816L364.618 -4.33853L571.761 422.503H642.012L547.739 -25.1816Z" fill="#F20309"/>
<path d="M710.995 -7.31445L906 -7.31445L686.974 440.37H616.723L710.995 -7.31445Z" fill="#F20309"/>
<path d="M683.204 928.691L866.326 907.848L659.183 481.007H588.932L683.204 928.691Z" fill="#F20309"/>
<ellipse cx="522.517" cy="368.001" rx="29.8148" ry="36.4403" transform="rotate(-35.8918 522.517 368.001)" fill="white"/>
<ellipse cx="29.8148" cy="36.4403" rx="29.8148" ry="36.4403" transform="matrix(-0.810126 -0.586256 -0.586256 0.810126 773.045 359.041)" fill="white"/>
<ellipse cx="628.188" cy="455.204" rx="139.532" ry="119.122" fill="white"/>
<path d="M660.391 460.045C660.448 466.679 644.921 475.315 628.393 478.22C611.817 475.601 596.143 467.234 596.086 460.6C596.029 453.966 601.081 444.1 626.978 446.519C652.454 444.377 660.333 453.411 660.391 460.045Z" fill="black"/>
<line x1="627.843" y1="476.301" x2="627.843" y2="483.843" stroke="black" stroke-width="3.4283"/>
<path d="M568.192 382.115L577.793 411.666L608.865 411.666L583.727 429.929L593.329 459.48L568.192 441.216L543.055 459.48L552.656 429.929L527.519 411.666L558.59 411.666L568.192 382.115Z" fill="#E76BC8"/>
<path d="M594.37 391.06L583.876 420.306L608.448 439.324L577.391 438.381L566.897 467.626L558.196 437.798L527.14 436.855L552.819 419.363L544.119 389.535L568.69 408.552L594.37 391.06Z" fill="#E76BC8"/>
</g>
<g clip-path="url(#clip1_341_1808)">
<rect width="414" height="896" fill="#F20309"/>
<path d="M151.606 932.111L-25.498 891.5L175.628 484.427H245.879L151.606 932.111Z" fill="#E76BC8"/>
<circle cx="215.224" cy="452.496" r="51.0915" fill="#E76BC8"/>
<path d="M-2 761.5L-13 635.498L182.779 451.696L223.073 509.243L-2 761.5Z" fill="#E76BC8"/>
<path d="M421 772.5L421 621.5L274.263 490.337L233.968 547.883L421 772.5Z" fill="#E76BC8"/>
<path d="M-11 459.5L-11 361.5L182.011 426.952V497.203L-11 459.5Z" fill="#E76BC8"/>
<path d="M426.502 466.5V377.5L212.647 434.892V505.143L426.502 466.5Z" fill="#E76BC8"/>
<path d="M-0.498047 495L-0.498047 585.5L183.503 526.448V456.197L-0.498047 495Z" fill="#E76BC8"/>
<path d="M417.502 504V582L216.618 530.419V460.168L417.502 504Z" fill="#E76BC8"/>
<path d="M-5.00024 327.998L-4.9996 234.5L208.516 388.918L168.221 446.464L-5.00024 327.998Z" fill="#E76BC8"/>
<path d="M430 340.499L419.001 253.499L206.264 388.916L246.558 446.462L430 340.499Z" fill="#E76BC8"/>
<path d="M133.739 -25.1816L-49.3824 -4.33853L157.761 422.503H228.012L133.739 -25.1816Z" fill="#E76BC8"/>
<path d="M300 -20.5L480.117 13.5287L272.974 440.37H202.723L300 -20.5Z" fill="#E76BC8"/>
<path d="M269.204 928.691L452.326 907.848L245.183 481.007H174.932L269.204 928.691Z" fill="#E76BC8"/>
<ellipse cx="108.517" cy="368.001" rx="29.8148" ry="36.4403" transform="rotate(-35.8918 108.517 368.001)" fill="white"/>
<ellipse cx="29.8148" cy="36.4403" rx="29.8148" ry="36.4403" transform="matrix(-0.810126 -0.586256 -0.586256 0.810126 359.045 359.041)" fill="white"/>
<ellipse cx="214.188" cy="455.204" rx="139.532" ry="119.122" fill="white"/>
<path d="M246.391 460.045C246.448 466.679 230.921 475.315 214.393 478.22C197.817 475.601 182.143 467.234 182.086 460.6C182.029 453.966 187.081 444.1 212.978 446.519C238.454 444.377 246.333 453.411 246.391 460.045Z" fill="black"/>
<line x1="213.843" y1="476.301" x2="213.843" y2="483.843" stroke="black" stroke-width="3.4283"/>
<path d="M154.192 382.115L163.793 411.666L194.865 411.666L169.727 429.929L179.329 459.48L154.192 441.216L129.055 459.48L138.656 429.929L113.519 411.666L144.59 411.666L154.192 382.115Z" fill="#E76BC8"/>
<path d="M180.37 391.06L169.876 420.306L194.448 439.324L163.391 438.381L152.897 467.626L144.196 437.798L113.14 436.855L138.819 419.363L130.119 389.535L154.69 408.552L180.37 391.06Z" fill="#E76BC8"/>
</g>
<defs>
<clipPath id="clip0_341_1808">
<rect width="414" height="896" fill="white" transform="translate(414)"/>
</clipPath>
<clipPath id="clip1_341_1808">
<rect width="414" height="896" fill="white"/>
</clipPath>
</defs>
</svg>
