<svg width="1280" height="944" viewBox="0 0 1280 944" fill="none" xmlns="http://www.w3.org/2000/svg">
<rect width="1280" height="944" fill="#00544B"/>
<circle cx="802" cy="477" r="450" fill="#F95500"/>
<path d="M866.898 152.651C848.479 143.441 770.968 142.674 735.666 152.651L790.921 412.812H815.479L866.898 152.651Z" fill="#CB4500"/>
<path d="M987.341 204.366C974.184 188.524 903.532 156.636 867.2 151.566L813.112 411.972L835.594 421.853L987.341 204.366Z" fill="white"/>
<path d="M1081.11 303.069C1075.22 283.336 1018.96 222.536 987.522 203.623L835.64 421.954L852.446 439.861L1081.11 303.069Z" fill="#003D37"/>
<path d="M1110.17 580.88C1121.45 563.65 1132.5 478.35 1126.67 442.131L861.869 466.929L859.029 491.322L1110.17 580.88Z" fill="white"/>
<path d="M1041.87 693.693C1059.38 682.85 1100.14 613.095 1110.17 577.811L856.92 491.09L844.641 509.508L1041.87 693.693Z" fill="#003D37"/>
<path d="M934.432 768.902C954.807 765.917 1018.63 721.306 1041.87 692.926L847.711 512.578L826.991 527.927L934.432 768.902Z" fill="#CB4500"/>
<path d="M807.037 795.763C826.985 800.875 902.8 785.342 935.199 768.135L827.141 525.185L802.102 531.345L807.037 795.763Z" fill="white"/>
<path d="M679.318 774.505C695.934 786.669 772.088 800.445 808.562 796.522L801.664 531.764L780.176 527.927L679.318 774.505Z" fill="#003D37"/>
<path d="M570.666 698.298C580.61 716.331 644.911 762.465 679.642 774.275L780.944 527.927L755.618 517.183L570.666 698.298Z" fill="#CB4500"/>
<path d="M495.458 575.508C497.325 596.016 542.831 674.304 569.899 699.065L757.154 515.648L741.037 491.09L495.458 575.508Z" fill="white"/>
<path d="M480.876 430.463C473.337 449.626 481.608 544.125 494.677 578.403L741.804 491.091L739.502 462.696L480.876 430.463Z" fill="#003D37"/>
<path d="M524.62 303.068C509.382 316.919 484.413 395.536 480.97 432.059L745.642 463.462L751.723 436.589L524.62 303.068Z" fill="#CB4500"/>
<path d="M618.348 203.709C598.689 209.839 542.885 270.585 524.356 302.246L751.076 442.372L767.927 420.573L618.348 203.709Z" fill="white"/>
<g filter="url(#filter0_i_252_4841)">
<path d="M735.664 153.418C715.214 150.998 646.541 183.482 616.712 204.836L767.897 421.253L791.417 413.127L735.664 153.418Z" fill="#003D37"/>
</g>
<path d="M1126.29 441.207C1129.15 420.814 1101.97 332.575 1081.27 302.291L852.271 437.555L859.991 466.532L1126.29 441.207Z" fill="#CB4500"/>
<circle cx="800.897" cy="468.835" r="69.0693" fill="#003D37"/>
<path d="M824.901 136.548L799.576 187.966C792.925 173.896 779.009 144.682 776.553 140.385C773.483 135.013 771.18 101.245 799.576 102.013C826.03 102.728 827.459 125.803 824.901 136.548Z" fill="white"/>
<path d="M746.512 477.762C744.128 477.762 742.093 477.205 741.118 476.579V473.204C741.901 473.795 743.502 474.422 745.224 474.422C747.834 474.422 749.434 473.256 749.434 470.594V470.455C748.582 472.682 747.051 473.413 745.155 473.413C742.04 473.413 740.266 471.36 740.266 468.524C740.266 465.549 742.11 463.357 745.259 463.357C747.312 463.357 748.651 464.261 749.434 466.314V463.826H754.845V471.151C754.845 475.413 751.731 477.762 746.512 477.762ZM747.66 470.211C748.756 470.211 749.434 469.533 749.434 468.541C749.434 467.532 748.773 466.871 747.677 466.871C746.599 466.871 745.903 467.55 745.903 468.559C745.903 469.55 746.599 470.211 747.66 470.211ZM756.348 474.126V463.826H761.654V467.184C762.141 464.644 763.22 463.548 765.134 463.548C765.899 463.548 766.543 463.774 766.856 463.931V468.611C766.525 468.419 765.864 468.211 764.977 468.211C762.959 468.211 761.776 469.22 761.776 471.777V474.126H756.348ZM767.816 474.126V465.062H773.244V474.126H767.816ZM770.565 464.575C768.825 464.575 767.607 463.774 767.607 462.661C767.607 461.565 768.825 460.764 770.565 460.764C772.27 460.764 773.453 461.565 773.453 462.661C773.453 463.774 772.27 464.575 770.565 464.575ZM774.451 474.126V470.873L779.827 467.289H774.573V463.826H786.752V467.236L781.463 470.681H787.082V474.126H774.451ZM787.873 474.126V470.873L793.249 467.289H787.995V463.826H800.174V467.236L794.885 470.681H800.504V474.126H787.873ZM801.626 474.126V461.6H807.054V474.126H801.626ZM810.106 477.205L812.298 473.169L807.757 463.826H813.446L815.308 468.611L817.326 463.826H822.997L816.212 477.205H810.106ZM829.442 474.509C824.64 474.509 822.344 471.969 822.344 468.872C822.344 465.758 824.78 463.357 829.512 463.357C831.652 463.357 833.148 463.792 834.227 464.383V467.915C833.548 467.532 832.469 467.184 831.252 467.184C829.181 467.184 828.068 467.915 828.068 468.924C828.068 469.881 829.025 470.699 831.234 470.699C832.417 470.699 833.496 470.368 834.244 470.02V473.447C832.956 474.126 831.286 474.509 829.442 474.509ZM839.713 474.491C836.912 474.491 835.485 472.908 835.485 470.107V463.826H840.913V468.907C840.913 470.142 841.296 470.803 842.357 470.803C843.419 470.803 843.906 470.142 843.906 468.872V463.826H849.317V474.126H843.906V471.742C843.28 473.5 841.87 474.491 839.713 474.491ZM856.709 474.474C854.447 474.474 852.255 473.935 850.602 472.978V469.742C851.751 470.664 854.238 471.325 856.048 471.325C856.709 471.325 857.005 471.134 857.005 470.89C857.005 470.646 856.866 470.455 856.048 470.298L854.325 469.951C851.611 469.429 850.724 468.437 850.724 466.888C850.724 464.714 853.09 463.339 856.779 463.339C859.058 463.339 860.971 463.844 862.05 464.435V467.48C860.919 466.923 859.319 466.506 857.753 466.506C856.639 466.506 856.291 466.697 856.291 466.975C856.291 467.236 856.552 467.358 857.266 467.463L858.884 467.689C861.337 467.985 862.642 468.785 862.642 470.925C862.642 473.03 860.641 474.474 856.709 474.474Z" fill="white"/>
<circle cx="831.911" cy="185.575" r="12.6063" fill="#00544B"/>
<circle cx="717.606" cy="191.606" r="12.6063" fill="#00544B"/>
<circle cx="659.606" cy="212.606" r="12.6063" fill="#00544B"/>
<circle cx="610.606" cy="246.606" r="12.6063" fill="#00544B"/>
<circle cx="563.606" cy="291.606" r="12.6063" fill="#00544B"/>
<circle cx="536.606" cy="346.606" r="12.6063" fill="#00544B"/>
<circle cx="515.606" cy="400.606" r="12.6063" fill="#00544B"/>
<circle cx="504.606" cy="473.606" r="12.6063" fill="#00544B"/>
<circle cx="515.606" cy="538.606" r="12.6063" fill="#00544B"/>
<circle cx="536.606" cy="607.606" r="12.6063" fill="#00544B"/>
<circle cx="615.606" cy="699.606" r="12.6063" fill="#00544B"/>
<circle cx="719.606" cy="757.606" r="12.6063" fill="#00544B"/>
<circle cx="780.606" cy="767.606" r="12.6063" fill="#00544B"/>
<circle cx="841.606" cy="767.606" r="12.6063" fill="#00544B"/>
<circle cx="898.606" cy="753.606" r="12.6063" fill="#00544B"/>
<circle cx="948.606" cy="732.606" r="12.6063" fill="#00544B"/>
<circle cx="1039.61" cy="651.606" r="12.6063" fill="#00544B"/>
<circle cx="1091.61" cy="538.606" r="12.6063" fill="#00544B"/>
<circle cx="1098.61" cy="474.606" r="12.6063" fill="#00544B"/>
<circle cx="1091.61" cy="409.606" r="12.6063" fill="#00544B"/>
<circle cx="1073.61" cy="346.606" r="12.6063" fill="#00544B"/>
<circle cx="1034.61" cy="290.606" r="12.6063" fill="#00544B"/>
<circle cx="996.606" cy="248.606" r="12.6063" fill="#00544B"/>
<circle cx="943.606" cy="212.606" r="12.6063" fill="#00544B"/>
<circle cx="887.606" cy="192.606" r="12.6063" fill="#00544B"/>
<circle cx="996.261" cy="696.361" r="12.6063" fill="#00544B"/>
<circle cx="1073.61" cy="595.606" r="12.6063" fill="#00544B"/>
<circle cx="663.606" cy="734.606" r="12.6063" fill="#00544B"/>
<circle cx="570.606" cy="653.606" r="12.6063" fill="#00544B"/>
<circle cx="770.282" cy="185.575" r="12.6063" fill="#00544B"/>
<path d="M720.322 497.463L716.933 488.429L706.248 489.701L704.447 503.532L696.51 505.867L704.447 459.644L713.535 460.66L728.753 494.953L720.322 497.463ZM709.092 468.846L707.08 482.996L714.528 482.11L709.273 468.824L709.092 468.846Z" fill="#CB4500"/>
<path d="M678.065 481.932L695.111 506.334L686.24 509.603L671.445 488.231L671.264 488.252L675.034 513.805L666.163 517.073L658.693 454.042L668.498 454.976L670.234 479.605L670.415 479.583L679.703 456.376L688.574 457.31L678.065 481.932Z" fill="#CB4500"/>
<path d="M629.745 451.707L643.752 453.212C650.769 452.377 656.652 461.295 658.394 475.922C660.124 490.455 656.25 500.534 648.983 501.399L643.64 502.035L646.087 524.076L637.683 527.344L629.745 451.707ZM639.489 467.166L642.09 489.012L645.689 488.584C649.221 488.164 650.849 484.094 650 476.969C649.158 469.891 646.62 466.317 643.134 466.732L639.489 467.166Z" fill="#CB4500"/>
<path d="M622.743 532.48L616.836 481.541L616.554 481.575L605.467 538.55L597.53 541.351L584.457 445.171L597.997 447.038L602.459 501.18L602.741 501.147L613.871 448.906L623.557 450.001L632.548 528.745L622.743 532.48Z" fill="#CB4500"/>
<path d="M591.459 543.22L579.787 547.422L577.07 526.733L534.863 531.757L523.759 438.168L538.7 439.568L546.396 513.483L567.131 511.015L558.776 441.903L572.783 443.77L580.61 509.41L587.239 508.621L591.459 543.22Z" fill="#CB4500"/>
<path d="M772.045 546.12L764.112 543.662L758.407 552.131L766.282 560.98L762.945 568.028L737.802 537.06L744.016 531.001L775.57 538.617L772.045 546.12ZM746.612 538.695L754.565 547.872L758.542 541.969L746.709 538.552L746.612 538.695Z" fill="white"/>
<path d="M736.139 568.407L762.392 569.302L759.091 577.539L736.18 576.657L736.083 576.8L754.969 587.983L751.668 596.22L706.201 567.303L712.8 560.677L729.843 572.837L729.939 572.693L720.557 553.286L726.585 547.339L736.139 568.407Z" fill="white"/>
<path d="M686.993 587.097L696.531 577.725C700.278 572.163 709.66 572.742 720.216 579.447C730.704 586.109 734.877 594.421 730.997 600.181L728.144 604.415L743.942 614.648L740.926 622.545L686.993 587.097ZM702.981 588.432L718.746 598.446L720.668 595.593C722.554 592.794 720.908 589.391 715.766 586.125C710.658 582.881 706.788 582.78 704.927 585.543L702.981 588.432Z" fill="white"/>
<path d="M735.128 636.216L698.463 612.752L698.312 612.975L728.508 652.095L725.475 659.398L655.072 616.491L664.559 607.656L702.42 633.917L702.57 633.694L675.474 597.122L682.104 590.671L738.697 627.045L735.128 636.216Z" fill="white"/>
<path d="M722.976 664.832L718.569 675.616L703.483 666.317L680.947 699.769L613.43 656.842L623.47 646.733L676.138 681.418L687.209 664.984L637.256 633.396L647.028 624.221L694.406 654.3L697.946 649.046L722.976 664.832Z" fill="white"/>
<path d="M834.29 547.328L827.096 551.6L829.446 562.035L841.298 562.405L844.213 570.014L804.376 566.879L804.142 557.79L831.168 539.248L834.29 547.328ZM811.561 561.349L823.706 561.895L822.068 554.622L811.521 561.172L811.561 561.349Z" fill="#003D37"/>
<path d="M826.287 590.693L844.774 571.351L848.586 579.789L832.379 596.596L832.419 596.773L853.464 590.44L857.276 598.877L805.145 612.689L804.756 602.899L825.267 598.672L825.228 598.495L804.592 591.677L804.314 582.811L826.287 590.693Z" fill="#003D37"/>
<path d="M806.651 641.549L806.24 627.547C804.696 620.694 811.494 613.968 823.59 610.756C835.609 607.564 844.553 610.366 846.151 617.463L847.326 622.68L865.575 618.015L869.332 625.991L806.651 641.549ZM818.49 630.339L836.556 625.541L835.765 622.025C834.988 618.577 831.369 617.382 825.477 618.947C819.624 620.502 816.921 623.375 817.688 626.78L818.49 630.339Z" fill="#003D37"/>
<path d="M875.442 640.238L833.296 651.271L833.358 651.547L882.617 656.7L885.925 664.262L806.578 686.992L806.527 673.415L851.54 663.484L851.478 663.209L806.196 657.529L805.957 647.842L871.125 630.925L875.442 640.238Z" fill="#003D37"/>
<path d="M888.222 670.073L893.156 681.185L876.077 685.98L885.36 727.198L807.957 747.717L807.345 732.803L868.605 717.658L864.045 697.409L806.904 712.715L806.797 698.676L861.08 684.246L859.622 677.772L888.222 670.073Z" fill="#003D37"/>
<path d="M885.288 504.841L883.598 513.035L892.893 518.328L901.151 509.818L908.738 512.79L879.585 540.119L872.71 534.169L877.213 501.705L885.288 504.841ZM880.338 531.084L888.924 522.476L882.445 518.787L880.181 530.994L880.338 531.084Z" fill="#CB4500"/>
<path d="M911.944 539.968L910.103 513.276L918.907 516.143L920.41 539.442L920.568 539.532L930.064 519.713L938.868 522.579L913.958 570.411L906.461 564.104L917.154 546.097L916.996 546.007L898.057 556.665L891.317 550.898L911.944 539.968Z" fill="#CB4500"/>
<path d="M936.3 588.74L925.675 579.612C919.57 576.136 919.178 566.581 924.953 555.477C930.69 544.444 938.786 539.723 945.108 543.322L949.755 545.968L958.601 529.338L967.026 531.935L936.3 588.74ZM935.99 572.439L944.614 555.854L941.483 554.072C938.411 552.322 935.09 554.192 932.278 559.601C929.483 564.974 929.786 568.907 932.819 570.634L935.99 572.439Z" fill="#CB4500"/>
<path d="M981.674 537.017L961.437 575.597L961.682 575.737L998.674 542.803L1006.49 545.452L969.838 619.406L959.769 610.298L982.753 570.341L982.507 570.201L947.806 599.841L940.485 593.492L971.883 533.934L981.674 537.017Z" fill="#CB4500"/>
<path d="M1012.33 547.669L1023.87 551.509L1015.91 567.361L1052.62 588.267L1015.64 659.294L1004.21 649.7L1034.28 594.223L1016.25 583.953L989.066 636.493L978.618 627.115L1004.52 577.276L998.754 573.993L1012.33 547.669Z" fill="#CB4500"/>
<path d="M881.1 429.894L886.157 436.559L896.259 433.046L895.289 421.228L902.52 417.472L903.904 457.408L894.9 458.667L873.424 433.908L881.1 429.894ZM897.598 450.894L896.769 438.764L889.727 441.214L897.427 450.954L897.598 450.894Z" fill="white"/>
<path d="M925.091 432.948L903.785 416.764L911.738 412.023L930.268 426.228L930.439 426.168L921.77 405.974L929.723 401.233L949.334 451.47L939.651 452.962L933.134 433.06L932.963 433.119L928.52 454.393L919.742 455.67L925.091 432.948Z" fill="white"/>
<path d="M977.839 446.714L963.974 448.705C957.339 451.012 949.888 445.018 945.33 433.362C940.801 421.781 942.575 412.578 949.446 410.188L954.497 408.431L947.8 390.825L955.301 386.192L977.839 446.714ZM965.364 436.218L958.556 418.809L955.153 419.992C951.814 421.154 951.035 424.884 953.256 430.562C955.462 436.202 958.622 438.563 961.918 437.417L965.364 436.218Z" fill="white"/>
<path d="M968.767 378.512L984.49 419.141L984.757 419.048L984.313 369.522L991.453 365.382L1023 441.653L1009.52 443.238L994.564 399.634L994.297 399.727L993.769 445.361L984.17 446.693L960.001 383.853L968.767 378.512Z" fill="white"/>
<path d="M996.966 362.443L1007.45 356.285L1014.14 372.714L1054.05 358.834L1083.18 433.424L1068.43 435.717L1046.46 376.559L1026.86 383.378L1048.52 438.424L1034.58 440.116L1014.11 387.811L1007.85 389.991L996.966 362.443Z" fill="white"/>
<path d="M821.765 387.049L830.105 387.711L834.207 377.833L824.741 370.691L826.751 362.795L857.478 388.342L852.424 395.901L819.652 395.449L821.765 387.049ZM848.419 388.713L838.815 381.259L835.956 388.144L848.349 388.881L848.419 388.713Z" fill="#003D37"/>
<path d="M853.321 356.25L827.062 361.379L828.817 352.288L851.752 347.913L851.821 347.746L830.979 340.775L832.734 331.684L883.281 350.485L877.95 358.704L858.758 350.321L858.688 350.489L871.608 367.964L866.719 375.365L853.321 356.25Z" fill="#003D37"/>
<path d="M898.706 326.046L890.962 337.719C888.269 344.207 878.836 345.777 867.102 341.421C855.445 337.093 849.757 329.643 852.547 322.925L854.598 317.986L837.001 311.266L838.535 302.584L898.706 326.046ZM882.569 328.37L865.044 321.864L863.663 325.192C862.307 328.457 864.573 331.521 870.289 333.642C875.966 335.75 879.831 334.963 881.17 331.74L882.569 328.37Z" fill="#003D37"/>
<path d="M841.766 287.422L882.553 302.73L882.662 302.469L845.404 269.837L847.066 261.752L924.986 288.973L917.194 300.091L874.7 282.228L874.592 282.489L908.298 313.256L902.903 321.306L839.917 297.519L841.766 287.422Z" fill="#003D37"/>
<path d="M848.542 255.681L850.925 243.758L867.641 249.697L883.843 210.677L958.9 238.581L950.794 251.116L892.022 228.136L884.063 247.305L939.563 267.777L931.549 279.304L878.888 259.767L876.344 265.896L848.542 255.681Z" fill="#003D37"/>
<path d="M755.058 393.927L761.065 388.577L756.907 379.453L745.636 381.46L741.469 375.045L779.703 370.037L781.611 378.343L759.508 400.733L755.058 393.927ZM773.939 376.541L762.358 378.444L765.256 384.804L774.01 376.696L773.939 376.541Z" fill="#CB4500"/>
<path d="M754.575 352.493L740.691 373.928L735.522 366.929L747.721 348.275L747.651 348.121L728.935 358.108L723.766 351.109L770.476 328.093L772.66 337.012L754.058 344.959L754.128 345.114L774.898 347.292L776.805 355.384L754.575 352.493Z" fill="#CB4500"/>
<path d="M763.698 301.871L766.686 314.656C769.416 320.648 764.239 328.175 753.402 333.522C742.635 338.836 733.662 338.032 730.834 331.827L728.755 327.265L712.373 335.167L707.342 328.582L763.698 301.871ZM754.59 314.517L738.404 322.504L739.804 325.577C741.179 328.593 744.821 328.974 750.099 326.369C755.343 323.781 757.364 320.605 756.008 317.629L754.59 314.517Z" fill="#CB4500"/>
<path d="M698.924 316.699L736.712 298.214L736.602 297.973L689.087 302.994L684.558 296.7L755.336 260.098L757.904 272.564L717.202 290.605L717.311 290.846L761.164 287.096L763.188 295.951L704.733 324.403L698.924 316.699Z" fill="#CB4500"/>
<path d="M681.306 291.815L674.581 282.58L689.834 274.791L673.411 238.754L742.762 204.568L746.108 218.152L691.017 244.202L699.085 261.906L750.253 236.525L752.959 249.404L704.33 273.415L706.91 279.075L681.306 291.815Z" fill="#CB4500"/>
<path d="M705.896 443.53L694.179 456.374L684.841 455.441L700.404 440.167C699.624 439.578 698.888 438.823 698.196 437.903C697.511 436.952 697.035 435.815 696.769 434.491C696.511 433.137 696.61 431.587 697.065 429.84C697.843 426.858 700.502 422.833 703.049 421.824C705.604 420.786 707.719 418.556 713.865 420.423L722.659 425.559L713.866 459.176L706.784 458.242L710.143 444.637L705.896 443.53ZM710.477 429.477C709.302 429.171 708.258 429.043 707.344 429.094C706.46 429.153 705.714 429.425 705.105 429.91C704.526 430.402 704.107 431.145 703.848 432.139C703.479 433.555 703.651 434.806 704.365 435.893C705.117 436.957 706.457 437.741 708.384 438.244L711.592 439.08L713.866 430.36L710.477 429.477Z" fill="white"/>
<path d="M661.674 453.106L661.674 418.199L661.494 418.152C661.367 418.762 661.176 419.677 660.922 420.898C660.669 422.118 660.391 423.429 660.09 424.83C659.797 426.201 659.505 427.444 659.214 428.558L654.024 452.172L647.02 451.238L661.027 387.74L669.898 392.876L668.125 438.795L668.261 438.831L689.508 405.482L696.045 409.218L682.972 455.441L676.435 454.507L681.287 434.025C681.554 433 681.876 431.83 682.251 430.512C682.657 429.203 683.028 427.965 683.365 426.798C683.739 425.609 684.02 424.717 684.207 424.122L684.026 424.075L667.564 453.573L661.674 453.106Z" fill="white"/>
<path d="M640.485 450.305L619.474 447.504L641.418 376.069L657.76 386.807L654.025 395.678L646.78 390.075L638.15 417.622L646.78 420.443L644.687 428.361L636.283 426.045L632.547 441.434L642.819 442.835L640.485 450.305Z" fill="white"/>
<path d="M621.791 364.442C627.388 368.074 629.091 373.489 630.675 378.287C632.319 383.027 632.214 388.956 630.358 396.072C629.52 399.287 628.422 402.29 627.065 405.078C625.725 407.798 624.057 410.14 622.06 412.104C620.122 414.01 617.868 415.322 615.295 416.04C612.723 416.757 609.793 416.688 606.506 415.83L602.397 414.759L594.728 444.702L584.456 443.768L606.4 354.591L621.791 364.442ZM615.751 381.411L611.389 380.274L605.716 402.032L608.876 402.856C610.688 403.329 612.346 403.359 613.848 402.947C615.351 402.535 616.675 401.601 617.819 400.146C618.964 398.691 619.875 396.663 620.553 394.063C621.499 390.436 621.583 387.609 620.807 385.579C620.049 383.482 618.364 382.092 615.751 381.411Z" fill="white"/>
<path d="M580.254 338.717C585.857 341.985 589.366 344.602 592.586 347.121C596.187 350.856 596.099 355.072 597.002 359.041C597.985 362.936 597.713 367.812 596.187 373.666C595.276 377.161 594.075 380.254 592.586 382.946C591.097 385.637 589.404 387.715 587.508 389.18C585.668 390.66 583.687 391.404 581.566 391.41L581.395 392.066C583.277 393.21 584.835 394.783 586.07 396.784C587.305 398.786 588.017 401.398 588.206 404.62C588.396 407.843 587.853 411.901 586.577 416.794C585.096 422.473 582.912 427.13 580.027 430.764C577.22 434.325 573.859 436.761 569.943 438.073C566.05 439.298 561.503 441.231 556.909 440.033L524.227 436.299L562.074 327.045L580.254 338.717ZM569.561 381.001C573.304 381.977 576.124 381.733 578.02 380.267C579.973 378.817 581.406 376.344 582.317 372.849C583.251 369.266 583.072 366.467 581.781 364.45C580.49 362.434 578.001 360.945 574.314 359.984L567.508 358.209L562.074 379.049L569.561 381.001ZM557.973 394.777L551.616 419.156L560.039 421.352C563.895 422.358 566.885 421.924 569.009 420.052C571.156 418.092 572.73 415.19 573.733 411.345C574.348 408.986 574.543 406.844 574.318 404.919C574.15 403.008 573.397 401.365 572.06 399.99C570.722 398.615 568.692 397.572 565.97 396.863L557.973 394.777Z" fill="white"/>
<path d="M730.596 520.563L733.271 537.743L726.695 544.438L724.535 522.739C723.588 522.978 722.539 523.079 721.387 523.042C720.217 522.981 719.033 522.639 717.834 522.018C716.617 521.371 715.47 520.323 714.393 518.873C712.556 516.4 711.084 511.805 711.892 509.188C712.683 506.546 712.269 503.501 717.575 499.879L727.086 496.24L747.785 524.15L742.622 529.085L734.119 517.946L730.596 520.563ZM722.51 508.191C721.536 508.915 720.782 509.649 720.25 510.393C719.742 511.119 719.487 511.872 719.483 512.65C719.504 513.409 719.821 514.201 720.434 515.026C721.306 516.2 722.39 516.85 723.684 516.974C724.985 517.054 726.435 516.501 728.034 515.313L730.695 513.336L725.321 506.102L722.51 508.191Z" fill="#003D37"/>
<path d="M710.367 561.034L683.154 539.172L683.004 539.283C683.4 539.764 683.994 540.486 684.787 541.448C685.579 542.411 686.427 543.448 687.331 544.56C688.216 545.647 689.002 546.653 689.689 547.578L704.847 566.414L699.733 571.288L659.004 520.6L668.564 516.901L703.251 547.042L703.363 546.959L690.673 509.509L697.679 506.752L725.525 545.894L720.704 550.405L707.775 533.794C707.144 532.944 706.432 531.96 705.641 530.843C704.874 529.706 704.141 528.641 703.442 527.648C702.75 526.612 702.23 525.834 701.884 525.316L701.734 525.427L714.42 556.735L710.367 561.034Z" fill="#003D37"/>
<path d="M694.912 575.8L679.569 590.425L637.624 528.577L656.23 522.563L660.806 531.031L651.901 533.17L667.971 557.15L675.575 552.189L680.436 558.78L673.367 563.882L683.024 576.432L690.55 569.301L694.912 575.8Z" fill="#003D37"/>
<path d="M616.266 536.595C622.603 534.507 627.891 536.572 632.624 538.341C637.349 540.028 641.904 543.823 646.29 549.727C648.271 552.395 649.924 555.131 651.248 557.935C652.529 560.683 653.31 563.45 653.59 566.237C653.863 568.941 653.474 571.521 652.422 573.976C651.37 576.431 649.481 578.671 646.754 580.696L643.346 583.229L661.885 607.961L654.724 615.384L598.947 542.424L616.266 536.595ZM625.712 551.932L622.094 554.62L635.503 572.671L638.125 570.723C639.628 569.606 640.689 568.333 641.309 566.904C641.929 565.474 642.03 563.858 641.613 562.054C641.195 560.25 640.185 558.27 638.583 556.113C636.348 553.104 634.196 551.267 632.128 550.601C630.018 549.878 627.879 550.322 625.712 551.932Z" fill="#003D37"/>
<path d="M570.197 552.865C576.254 550.544 580.492 549.447 584.473 548.515C589.64 548.047 592.871 550.756 596.53 552.538C600.183 554.211 603.813 557.476 607.421 562.333C609.575 565.233 611.235 568.106 612.4 570.952C613.566 573.799 614.126 576.42 614.08 578.816C614.082 581.177 613.421 583.187 612.097 584.845L612.501 585.389C614.572 584.638 616.774 584.408 619.108 584.699C621.441 584.99 623.924 586.071 626.554 587.942C629.185 589.812 632.008 592.777 635.024 596.836C638.524 601.548 640.786 606.167 641.812 610.692C642.83 615.11 642.625 619.256 641.195 623.131C639.711 626.933 638.371 631.688 634.559 634.519L611.179 657.659L549.712 559.727L570.197 552.865ZM596.463 587.684C599.569 585.377 601.144 583.026 601.19 580.63C601.282 578.199 600.251 575.534 598.097 572.634C595.89 569.662 593.595 568.048 591.215 567.792C588.834 567.535 586.114 568.543 583.056 570.815L577.41 575.009L590.253 592.298L596.463 587.684ZM599.946 605.346L614.969 625.57L621.956 620.38C625.156 618.003 626.691 615.401 626.561 612.572C626.377 609.671 625.101 606.626 622.732 603.437C621.278 601.479 619.73 599.986 618.088 598.955C616.494 597.89 614.742 597.448 612.832 597.629C610.922 597.81 608.838 598.74 606.58 600.418L599.946 605.346Z" fill="#003D37"/>
<path d="M790.751 555.496L801.258 566.052L801.306 575.831L788.683 561.592C788.306 562.471 787.802 563.325 787.172 564.155C786.518 564.98 785.708 565.612 784.743 566.049C783.754 566.482 782.591 566.57 781.252 566.312C778.968 565.872 775.757 563.612 774.802 561.099C773.824 558.582 771.994 556.667 772.896 550.076L776.023 540.345L801.777 545.332L801.645 552.775L791.238 550.964L790.751 555.496ZM779.913 552.474C779.779 553.728 779.767 554.824 779.878 555.764C779.992 556.672 780.254 557.411 780.664 557.982C781.077 558.521 781.664 558.863 782.426 559.01C783.51 559.219 784.429 558.887 785.182 558.015C785.915 557.107 786.392 555.624 786.613 553.568L786.981 550.145L780.302 548.859L779.913 552.474Z" fill="#CB4500"/>
<path d="M802.165 602.405L774.133 606.411L774.113 606.604C774.616 606.666 775.37 606.758 776.375 606.882C777.38 607.005 778.461 607.142 779.616 607.294C780.746 607.441 781.773 607.601 782.697 607.775L802.176 610.45L802.123 617.823L749.738 610.578L752.98 600.785L790.031 597.354L790.045 597.209L761.152 578.991L763.501 571.781L801.92 580.04L801.821 586.929L784.89 584.245C784.041 584.086 783.069 583.887 781.974 583.648C780.882 583.378 779.85 583.135 778.88 582.919C777.888 582.668 777.144 582.479 776.648 582.353L776.628 582.545L801.953 596.24L802.165 602.405Z" fill="#CB4500"/>
<path d="M803.367 624.733L802.766 651.516L738.899 635.116L746.79 612.953L754.808 616.256L750.58 626.213L775.223 632.747L776.919 621.486L783.968 622.879L782.691 633.778L796.363 636.067L796.684 622.969L803.367 624.733Z" fill="#CB4500"/>
<path d="M729.487 657.13C732.039 650.949 736.604 648.651 740.64 646.537C744.618 644.366 749.841 643.903 756.309 645.148C759.231 645.711 761.996 646.564 764.603 647.709C767.147 648.841 769.396 650.352 771.351 652.243C773.249 654.077 774.661 656.299 775.586 658.91C776.512 661.52 776.786 664.579 776.409 668.086L775.938 672.47L803.137 677.566L803.493 688.357L722.592 674.116L729.487 657.13ZM745.095 661.782L744.595 666.436L764.371 670.243L764.734 666.871C764.941 664.938 764.778 663.208 764.244 661.683C763.709 660.157 762.737 658.869 761.327 657.817C759.916 656.765 758.029 656.012 755.666 655.557C752.37 654.922 749.875 655.107 748.18 656.112C746.423 657.105 745.395 658.995 745.095 661.782Z" fill="#CB4500"/>
<path d="M711.635 702.89C713.866 696.737 715.764 692.828 717.609 689.23C720.48 685.118 724.196 684.802 727.58 683.477C730.892 682.077 735.209 681.888 740.529 682.913C743.706 683.524 746.563 684.476 749.099 685.767C751.635 687.058 753.656 688.621 755.161 690.455C756.673 692.228 757.553 694.22 757.802 696.43L758.398 696.544C759.188 694.473 760.392 692.697 762.01 691.217C763.628 689.738 765.842 688.743 768.653 688.235C771.463 687.726 775.092 687.899 779.54 688.755C784.702 689.749 789.045 691.574 792.57 694.229C796.021 696.808 798.548 700.074 800.15 704.027C801.672 707.964 803.893 712.514 803.366 717.416L803.828 751.824L703.458 722.957L711.635 702.89ZM750.028 709.942C750.457 705.948 749.919 703.034 748.413 701.2C746.915 699.306 744.577 698.053 741.4 697.441C738.144 696.814 735.704 697.271 734.079 698.811C732.455 700.351 731.431 703.088 731.009 707.022L730.228 714.283L749.169 717.93L750.028 709.942ZM763.464 720.682L785.622 724.948L786.587 715.961C787.029 711.846 786.306 708.773 784.416 706.742C782.448 704.695 779.716 703.335 776.222 702.663C774.077 702.25 772.172 702.254 770.506 702.674C768.846 703.034 767.488 703.977 766.433 705.503C765.377 707.029 764.693 709.245 764.381 712.149L763.464 720.682Z" fill="#CB4500"/>
<path d="M855.456 539.719L870.344 539.288L877.505 545.949L858.484 545.4C858.866 546.276 859.144 547.229 859.317 548.256C859.471 549.298 859.377 550.321 859.034 551.324C858.673 552.341 857.941 553.248 856.837 554.047C854.952 555.411 851.106 556.205 848.621 555.18C846.117 554.169 843.468 554.192 839.281 549.022L834.33 540.081L855.597 524.724L860.932 529.916L852.487 536.262L855.456 539.719ZM845.834 545.55C846.655 546.506 847.446 547.265 848.207 547.828C848.947 548.366 849.665 548.681 850.362 548.773C851.038 548.841 851.689 548.648 852.317 548.193C853.212 547.546 853.599 546.649 853.48 545.503C853.32 544.347 852.566 542.984 851.218 541.414L848.975 538.803L843.465 542.791L845.834 545.55Z" fill="white"/>
<path d="M897.46 563.517L881.188 586.691L881.315 586.837C881.704 586.513 882.288 586.027 883.066 585.379C883.845 584.73 884.684 584.037 885.586 583.299C886.466 582.576 887.286 581.937 888.045 581.382L903.332 569.016L908.67 574.104L867.523 607.324L862.605 598.256L885.471 568.903L885.376 568.793L852.315 577.379L848.668 570.73L880.992 548.382L885.945 553.172L872.397 563.675C871.7 564.184 870.889 564.756 869.965 565.391C869.02 566.002 868.137 566.587 867.316 567.147C866.453 567.698 865.806 568.111 865.375 568.386L865.502 568.533L892.823 559.45L897.46 563.517Z" fill="white"/>
<path d="M914.557 577.928L933.667 596.703L877.986 632.025L867.235 611.1L875.133 607.517L879.494 617.415L901.13 603.928L894.083 594.982L899.924 590.798L906.994 599.19L918.023 590.793L908.696 581.591L914.557 577.928Z" fill="white"/>
<path d="M887.589 653.956C884.83 647.864 886.281 642.964 887.503 638.575C888.645 634.188 891.883 630.065 897.219 626.203C899.63 624.458 902.145 623.027 904.763 621.911C907.331 620.832 909.973 620.227 912.689 620.097C915.325 619.969 917.911 620.462 920.448 621.575C922.984 622.687 925.401 624.582 927.7 627.257L930.572 630.602L952.908 614.267L961.017 621.395L895.248 670.611L887.589 653.956ZM901.666 645.765L904.715 649.315L921.03 637.508L918.82 634.935C917.553 633.46 916.181 632.395 914.703 631.74C913.225 631.085 911.62 630.911 909.888 631.219C908.156 631.527 906.315 632.387 904.366 633.798C901.646 635.766 900.073 637.711 899.645 639.634C899.165 641.594 899.839 643.638 901.666 645.765Z" fill="white"/>
<path d="M908.718 698.298C905.761 692.46 904.211 688.4 902.852 684.592C901.82 679.684 904.134 676.759 905.486 673.385C906.732 670.013 909.551 666.738 913.94 663.561C916.561 661.664 919.21 660.234 921.888 659.269C924.565 658.305 927.088 657.902 929.455 658.06C931.782 658.172 933.837 658.894 935.618 660.226L936.109 659.87C935.14 657.876 934.67 655.783 934.7 653.591C934.729 651.398 935.52 649.103 937.074 646.706C938.627 644.309 941.238 641.783 944.907 639.128C949.166 636.046 953.469 634.129 957.818 633.378C962.061 632.628 966.171 633.023 970.149 634.561C974.061 636.147 978.897 637.644 982.11 641.384L1007.51 664.605L917.745 717.997L908.718 698.298ZM940.144 675.144C937.526 672.096 935.034 670.494 932.667 670.335C930.26 670.13 927.746 670.976 925.126 672.873C922.439 674.817 921.101 676.908 921.112 679.147C921.122 681.386 922.416 684.005 924.994 687.006L929.752 692.547L945.378 681.238L940.144 675.144ZM957.171 672.703L975.451 659.474L969.562 652.618C966.865 649.478 964.13 647.902 961.356 647.888C958.516 647.922 955.655 648.982 952.772 651.068C951.003 652.348 949.701 653.739 948.867 655.242C947.993 656.698 947.751 658.333 948.14 660.148C948.53 661.962 949.676 663.977 951.58 666.193L957.171 672.703Z" fill="white"/>
<path d="M889.264 479.422L899.166 468.297L908.925 467.658L895.474 481.118C896.374 481.441 897.257 481.893 898.124 482.472C898.987 483.075 899.666 483.845 900.161 484.782C900.653 485.743 900.811 486.899 900.634 488.25C900.333 490.557 898.271 493.899 895.821 495.004C893.367 496.132 891.566 498.074 884.932 497.572L875.031 495.039L878.452 469.031L885.891 468.712L884.712 479.21L889.264 479.422ZM886.903 490.423C888.162 490.481 889.257 490.427 890.189 490.259C891.088 490.09 891.81 489.784 892.355 489.341C892.868 488.896 893.174 488.289 893.275 487.52C893.418 486.425 893.031 485.528 892.115 484.829C891.164 484.152 889.656 483.765 887.589 483.669L884.151 483.508L883.271 490.253L886.903 490.423Z" fill="#003D37"/>
<path d="M935.398 465.197L941.09 492.936L941.283 492.944C941.315 492.438 941.361 491.68 941.424 490.669C941.486 489.658 941.558 488.572 941.64 487.41C941.718 486.273 941.816 485.238 941.933 484.305L943.427 464.7L950.79 464.308L946.723 517.034L936.751 514.39L931.089 477.614L930.944 477.608L914.504 507.55L907.165 505.64L913.088 466.792L919.971 466.475L918.315 483.537C918.207 484.394 918.067 485.377 917.895 486.484C917.691 487.591 917.51 488.635 917.354 489.616C917.163 490.622 917.019 491.376 916.923 491.879L917.117 491.887L929.257 465.78L935.398 465.197Z" fill="#003D37"/>
<path d="M957.613 462.648L984.383 461.63L971.871 526.371L949.271 519.833L952.084 511.63L962.278 515.249L967.312 490.256L955.969 489.244L956.934 482.124L967.89 482.739L969.349 468.954L956.255 469.425L957.613 462.648Z" fill="#003D37"/>
<path d="M994.414 534.435C988.089 532.262 985.521 527.843 983.166 523.943C980.759 520.103 979.981 514.918 980.833 508.387C981.218 505.435 981.903 502.624 982.888 499.953C983.865 497.345 985.238 495.008 987.007 492.943C988.723 490.938 990.856 489.394 993.406 488.313C995.955 487.231 998.992 486.773 1002.52 486.937L1006.92 487.142L1010.36 459.686L1021.11 458.679L1011.79 540.292L994.414 534.435ZM998.115 518.574L1002.79 518.792L1005.4 498.823L1002.01 498.665C1000.07 498.574 998.349 498.842 996.858 499.467C995.368 500.093 994.14 501.141 993.176 502.612C992.211 504.084 991.573 506.013 991.262 508.399C990.828 511.727 991.163 514.207 992.268 515.838C993.365 517.532 995.314 518.444 998.115 518.574Z" fill="#003D37"/>
<path d="M1041.17 549.491C1034.89 547.636 1030.87 545.977 1027.17 544.353C1022.89 541.735 1022.35 538.046 1020.83 534.747C1019.23 531.526 1018.78 527.229 1019.48 521.856C1019.9 518.648 1020.68 515.739 1021.81 513.13C1022.95 510.52 1024.39 508.409 1026.13 506.795C1027.8 505.179 1029.74 504.18 1031.93 503.798L1032.01 503.197C1029.89 502.533 1028.05 501.439 1026.47 499.913C1024.9 498.387 1023.77 496.237 1023.09 493.462C1022.42 490.688 1022.37 487.055 1022.96 482.564C1023.64 477.351 1025.2 472.906 1027.63 469.227C1030 465.626 1033.11 462.907 1036.96 461.069C1040.79 459.311 1045.2 456.82 1050.13 457.05L1084.44 454.51L1061.69 556.441L1041.17 549.491ZM1045.89 510.742C1041.87 510.555 1039 511.268 1037.26 512.882C1035.46 514.492 1034.35 516.901 1033.93 520.109C1033.5 523.397 1034.1 525.805 1035.74 527.334C1037.38 528.862 1040.17 529.719 1044.12 529.903L1051.42 530.243L1053.91 511.116L1045.89 510.742ZM1055.8 496.681L1058.72 474.307L1049.69 473.886C1045.55 473.693 1042.53 474.601 1040.62 476.61C1038.69 478.698 1037.5 481.507 1037.04 485.036C1036.76 487.201 1036.88 489.103 1037.4 490.74C1037.86 492.376 1038.88 493.674 1040.47 494.635C1042.05 495.597 1044.31 496.146 1047.22 496.282L1055.8 496.681Z" fill="#003D37"/>
<path d="M867.418 404.27L864.905 389.98L870.424 382.41L872.558 400.78C873.363 400.323 874.257 399.959 875.24 399.688C876.238 399.434 877.253 399.421 878.284 399.649C879.331 399.894 880.323 400.507 881.261 401.489C882.862 403.166 884.179 406.788 883.524 409.285C882.886 411.798 883.28 414.347 878.803 418.902L870.74 424.575L852.709 405.655L857.046 399.992L864.448 407.48L867.418 404.27ZM874.482 412.944C875.303 412.057 875.936 411.218 876.38 410.428C876.803 409.661 877.011 408.938 877.004 408.258C876.975 407.601 876.694 406.993 876.16 406.434C875.401 405.638 874.468 405.356 873.362 405.588C872.252 405.859 871.022 406.723 869.675 408.179L867.431 410.604L872.112 415.505L874.482 412.944Z" fill="#CB4500"/>
<path d="M884.832 361.415L909.819 374.734L909.945 374.597C909.573 374.255 909.014 373.742 908.27 373.059C907.526 372.375 906.728 371.637 905.879 370.844C905.046 370.069 904.305 369.344 903.656 368.67L889.395 355.205L893.628 349.55L931.951 385.8L923.759 391.455L891.792 372.413L891.698 372.516L904.753 403.477L898.751 407.663L872.319 378.805L876.315 373.551L888.507 385.531C889.104 386.151 889.778 386.873 890.53 387.698C891.261 388.546 891.958 389.337 892.622 390.071C893.283 390.846 893.778 391.427 894.108 391.815L894.234 391.678L881.499 366.293L884.832 361.415Z" fill="#CB4500"/>
<path d="M896.547 343.494L912.254 323.192L954.677 373.223L935.688 385.695L931.069 378.454L940.154 373.251L923.902 353.787L916.129 361.479L911.209 356.278L918.438 348.621L908.662 338.853L900.958 348.766L896.547 343.494Z" fill="#CB4500"/>
<path d="M974.812 361.754C969.232 365.028 964.228 364.127 959.757 363.395C955.3 362.741 950.805 360.041 946.273 355.295C944.225 353.15 942.47 350.873 941.009 348.465C939.591 346.103 938.627 343.62 938.118 341.018C937.623 338.493 937.742 335.953 938.476 333.398C939.21 330.843 940.726 328.324 943.024 325.84L945.897 322.735L926.758 302.885L932.602 294.355L990.053 352.691L974.812 361.754ZM964.811 349.03L967.861 345.734L954.003 331.223L951.793 333.611C950.526 334.981 949.675 336.41 949.241 337.899C948.807 339.388 948.862 340.951 949.407 342.588C949.952 344.224 951.053 345.91 952.709 347.644C955.019 350.062 957.145 351.38 959.089 351.598C961.077 351.861 962.984 351.005 964.811 349.03Z" fill="#CB4500"/>
<path d="M1015.28 336.916C1009.98 340.355 1006.22 342.259 1002.68 343.953C998.017 345.444 994.827 343.512 991.332 342.552C987.853 341.694 984.249 339.313 980.521 335.408C978.294 333.077 976.521 330.671 975.2 328.191C973.879 325.711 973.13 323.323 972.953 321.028C972.736 318.775 973.155 316.724 974.209 314.874L973.791 314.437C971.974 315.572 969.99 316.237 967.838 316.431C965.686 316.625 963.327 316.095 960.76 314.842C958.194 313.59 955.353 311.332 952.236 308.068C948.619 304.28 946.137 300.331 944.79 296.22C943.46 292.211 943.269 288.213 944.217 284.228C945.222 280.3 946.009 275.492 949.221 272.02L968.402 245.215L1033.31 326.227L1015.28 336.916ZM988.187 309.005C985.569 311.833 984.349 314.396 984.526 316.691C984.664 319.029 985.846 321.364 988.072 323.695C990.354 326.084 992.59 327.16 994.782 326.923C996.973 326.687 999.358 325.175 1001.94 322.389L1006.69 317.246L993.422 303.347L988.187 309.005ZM983.405 292.857L967.878 276.598L961.988 282.963C959.292 285.877 958.131 288.671 958.507 291.343C958.939 294.074 960.379 296.722 962.828 299.286C964.331 300.859 965.876 301.971 967.465 302.623C969.015 303.317 970.651 303.384 972.373 302.825C974.096 302.266 975.909 300.958 977.813 298.901L983.405 292.857Z" fill="#CB4500"/>
<path d="M797.205 378.194L785.107 370.478L783.392 361.445L798.193 372.155C798.412 371.269 798.761 370.381 799.238 369.491C799.738 368.601 800.424 367.86 801.295 367.267C802.19 366.675 803.316 366.367 804.671 366.345C806.985 366.307 810.519 367.772 811.883 369.91C813.27 372.047 815.391 373.462 815.631 379.732L814.225 389.337L788.131 389.737L786.991 382.829L797.501 382.478L797.205 378.194ZM808.344 378.879C808.262 377.694 808.086 376.678 807.817 375.83C807.551 375.013 807.168 374.381 806.669 373.933C806.172 373.515 805.538 373.312 804.767 373.325C803.668 373.343 802.824 373.828 802.235 374.781C801.671 375.764 801.456 377.227 801.59 379.172L801.813 382.408L808.579 382.297L808.344 378.879Z" fill="white"/>
<path d="M778.02 337.042L804.813 327.884L804.8 327.702C804.296 327.743 803.542 327.804 802.535 327.885C801.529 327.967 800.446 328.05 799.288 328.134C798.156 328.219 797.122 328.27 796.186 328.29L776.637 329.606L775.432 322.778L828.014 319.285L826.506 328.971L790.775 339.351L790.785 339.488L822.212 350.711L821.139 357.835L782.073 357.673L780.996 351.284L798.049 350.471C798.908 350.454 799.895 350.449 801.009 350.456C802.125 350.494 803.178 350.518 804.166 350.528C805.181 350.568 805.943 350.598 806.45 350.618L806.437 350.436L779.278 342.701L778.02 337.042Z" fill="white"/>
<path d="M773.036 316.631L769.058 291.751L834.455 294.489L830.5 316.517L822.077 315.022L824.524 304.994L799.255 303.746L799.513 314.488L792.366 314.571L791.759 304.246L777.968 304.789L779.887 316.963L773.036 316.631Z" fill="white"/>
<path d="M839.926 272.303C838.48 278.515 834.396 281.527 830.801 284.267C827.272 287.048 822.232 288.493 815.68 288.6C812.719 288.648 809.864 288.397 807.114 287.846C804.427 287.294 801.964 286.334 799.725 284.966C797.553 283.64 795.79 281.859 794.438 279.626C793.086 277.392 792.295 274.617 792.067 271.301L791.781 267.156L764.253 267.737L762.064 257.828L843.789 255.256L839.926 272.303ZM823.834 271.038L823.531 266.638L803.498 266.965L803.718 270.153C803.844 271.982 804.299 273.549 805.083 274.855C805.867 276.162 807.039 277.164 808.601 277.862C810.163 278.56 812.141 278.89 814.535 278.851C817.873 278.796 820.288 278.14 821.778 276.881C823.331 275.621 824.016 273.674 823.834 271.038Z" fill="white"/>
<path d="M849.622 226.52C848.484 232.643 847.29 236.626 846.095 240.312C843.982 244.673 840.394 245.687 837.302 247.571C834.295 249.51 830.096 250.524 824.706 250.612C821.488 250.664 818.526 250.34 815.82 249.64C813.114 248.94 810.867 247.888 809.079 246.485C807.294 245.139 806.092 243.469 805.471 241.475L804.868 241.484C804.447 243.553 803.569 245.429 802.236 247.112C800.902 248.795 798.901 250.145 796.233 251.163C793.565 252.18 789.978 252.726 785.473 252.799C780.244 252.885 775.675 252.043 771.768 250.273C767.945 248.56 764.912 246.032 762.668 242.689C760.504 239.345 757.552 235.57 757.232 230.935L750.912 199.21L854.215 206.374L849.622 226.52ZM810.788 227.468C811.048 231.245 812.072 233.834 813.86 235.237C815.652 236.697 818.157 237.401 821.375 237.348C824.674 237.294 826.988 236.397 828.317 234.657C829.647 232.917 830.184 230.187 829.927 226.468L829.454 219.602L810.267 219.916L810.788 227.468ZM795.786 220.152L773.341 220.519L773.926 229.015C774.195 232.906 775.428 235.607 777.626 237.118C779.905 238.627 782.814 239.353 786.354 239.295C788.526 239.26 790.393 238.885 791.954 238.172C793.52 237.517 794.69 236.381 795.465 234.764C796.239 233.148 796.532 230.966 796.342 228.22L795.786 220.152Z" fill="white"/>
<path d="M728.64 408.644L714.749 412.242L706.969 407.343L724.892 403.806C724.393 403.042 723.981 402.182 723.654 401.227C723.343 400.254 723.268 399.247 723.428 398.205C723.605 397.146 724.146 396.113 725.054 395.106C726.603 393.386 730.082 391.798 732.576 392.256C735.086 392.696 737.567 392.108 742.319 396.204L748.392 403.778L730.907 423.15L725.073 419.278L731.977 411.347L728.64 408.644ZM736.73 400.957C735.807 400.21 734.944 399.646 734.14 399.265C733.36 398.904 732.636 398.754 731.968 398.813C731.324 398.892 730.744 399.218 730.228 399.792C729.492 400.608 729.272 401.556 729.568 402.637C729.903 403.719 730.828 404.874 732.343 406.101L734.864 408.142L739.393 403.114L736.73 400.957Z" fill="#003D37"/>
<path d="M685.447 394.648L696.999 368.797L696.856 368.683C696.543 369.079 696.074 369.673 695.448 370.465C694.822 371.258 694.145 372.106 693.418 373.012C692.708 373.898 692.041 374.69 691.418 375.388L679.062 390.594L673.243 386.824L706.512 345.956L712.575 353.659L695.828 386.886L695.935 386.971L725.562 371.614L730.046 377.253L703.31 405.738L697.9 402.174L708.923 389.138C709.496 388.497 710.165 387.771 710.929 386.961C711.718 386.169 712.452 385.415 713.133 384.699C713.854 383.983 714.394 383.446 714.755 383.088L714.612 382.974L690.446 397.583L685.447 394.648Z" fill="#003D37"/>
<path d="M667.111 384.391L646.189 370.351L692.75 324.347L706.179 342.25L699.346 347.397L693.673 338.773L675.543 356.42L683.582 363.549L678.774 368.838L670.802 362.247L661.803 372.712L672.022 379.601L667.111 384.391Z" fill="#003D37"/>
<path d="M680.237 305.227C683.798 310.518 683.221 315.56 682.777 320.058C682.409 324.536 680.032 329.21 675.646 334.079C673.664 336.279 671.535 338.198 669.258 339.835C667.023 341.426 664.643 342.575 662.116 343.281C659.665 343.968 657.161 344.045 654.605 343.513C652.048 342.981 649.479 341.669 646.896 339.577L643.667 336.962L625.336 357.508L616.592 352.359L670.391 290.785L680.237 305.227ZM668.347 316.144L664.92 313.368L651.51 328.255L653.994 330.267C655.418 331.42 656.875 332.155 658.365 332.471C659.856 332.788 661.389 332.612 662.964 331.944C664.539 331.277 666.127 330.054 667.73 328.275C669.965 325.794 671.129 323.579 671.223 321.631C671.359 319.636 670.4 317.807 668.347 316.144Z" fill="#003D37"/>
<path d="M653.331 266.937C657.038 271.941 659.141 275.529 661.024 278.915C662.776 283.433 661.074 286.751 660.347 290.297C659.717 293.82 657.599 297.584 653.991 301.589C651.837 303.981 649.581 305.928 647.225 307.432C644.868 308.935 642.568 309.863 640.322 310.216C638.122 310.606 636.08 310.348 634.197 309.443L633.793 309.892C635.021 311.609 635.796 313.53 636.119 315.653C636.443 317.776 636.068 320.16 634.994 322.806C633.921 325.453 631.877 328.45 628.861 331.797C625.361 335.683 621.632 338.454 617.675 340.108C613.816 341.739 609.899 342.237 605.923 341.602C602.001 340.907 597.226 340.496 593.616 337.572L566.088 320.584L641.715 249.849L653.331 266.937ZM627.567 296.009C630.509 298.391 633.102 299.406 635.347 299.053C637.637 298.736 639.859 297.382 642.013 294.99C644.22 292.539 645.141 290.234 644.773 288.075C644.405 285.916 642.773 283.664 639.876 281.318L634.527 276.986L621.684 291.244L627.567 296.009ZM611.991 302.005L596.966 318.684L603.585 324.045C606.616 326.499 609.433 327.436 612.036 326.857C614.694 326.217 617.207 324.582 619.577 321.952C621.031 320.338 622.029 318.716 622.571 317.087C623.158 315.495 623.123 313.864 622.467 312.196C621.812 310.528 620.414 308.827 618.275 307.095L611.991 302.005Z" fill="#003D37"/>
<defs>
<filter id="filter0_i_252_4841" x="616.711" y="153.29" width="174.705" height="271.698" filterUnits="userSpaceOnUse" color-interpolation-filters="sRGB">
<feFlood flood-opacity="0" result="BackgroundImageFix"/>
<feBlend mode="normal" in="SourceGraphic" in2="BackgroundImageFix" result="shape"/>
<feColorMatrix in="SourceAlpha" type="matrix" values="0 0 0 0 0 0 0 0 0 0 0 0 0 0 0 0 0 0 127 0" result="hardAlpha"/>
<feOffset dy="3.73519"/>
<feGaussianBlur stdDeviation="1.86759"/>
<feComposite in2="hardAlpha" operator="arithmetic" k2="-1" k3="1"/>
<feColorMatrix type="matrix" values="0 0 0 0 0 0 0 0 0 0 0 0 0 0 0 0 0 0 0.25 0"/>
<feBlend mode="normal" in2="shape" result="effect1_innerShadow_252_4841"/>
</filter>
</defs>
</svg>
