<svg width="414" height="896" viewBox="0 0 414 896" fill="none" xmlns="http://www.w3.org/2000/svg">
<g clip-path="url(#clip0_341_1713)">
<rect width="414" height="896" fill="#F20309"/>
<path d="M151.606 932.111L-25.498 891.5L175.628 484.427H245.879L151.606 932.111Z" fill="#E76BC8"/>
<circle cx="215.224" cy="452.496" r="51.0915" fill="#E76BC8"/>
<path d="M-2 761.5L-13 635.498L182.779 451.696L223.073 509.243L-2 761.5Z" fill="#E76BC8"/>
<path d="M421 772.5L421 621.5L274.263 490.337L233.968 547.883L421 772.5Z" fill="#E76BC8"/>
<path d="M-11 459.5L-11 361.5L182.011 426.952V497.203L-11 459.5Z" fill="#E76BC8"/>
<path d="M426.502 466.5V377.5L212.647 434.892V505.143L426.502 466.5Z" fill="#E76BC8"/>
<path d="M-0.498047 495L-0.498047 585.5L183.503 526.448V456.197L-0.498047 495Z" fill="#E76BC8"/>
<path d="M417.502 504V582L216.618 530.419V460.168L417.502 504Z" fill="#E76BC8"/>
<path d="M-5.00024 327.998L-4.9996 234.5L208.516 388.918L168.221 446.464L-5.00024 327.998Z" fill="#E76BC8"/>
<path d="M430 340.499L419.001 253.499L206.264 388.916L246.558 446.462L430 340.499Z" fill="#E76BC8"/>
<path d="M133.739 -25.1816L-49.3824 -4.33853L157.761 422.503H228.012L133.739 -25.1816Z" fill="#E76BC8"/>
<path d="M300 -20.5L480.117 13.5287L272.974 440.37H202.723L300 -20.5Z" fill="#E76BC8"/>
<path d="M269.204 928.691L452.326 907.848L245.183 481.007H174.932L269.204 928.691Z" fill="#E76BC8"/>
</g>
<defs>
<clipPath id="clip0_341_1713">
<rect width="414" height="896" fill="white"/>
</clipPath>
</defs>
</svg>
