<svg width="173" height="202" viewBox="0 0 173 202" fill="none" xmlns="http://www.w3.org/2000/svg">
<path d="M86.8789 39.3244C182.953 126.213 121.939 156.122 107.628 161.083C93.3175 166.044 28.8187 177.651 47.2042 53.0792C50.5762 37.8254 45.7207 28.7548 60.0313 23.7934C74.3419 18.8321 75.4854 30.6171 86.8789 39.3244Z" fill="white"/>
<path d="M60.9737 90.7017C56.8037 108.823 48.0059 122.266 41.3234 120.729C34.6408 119.191 28.1908 107.497 32.3608 89.3753C39.0088 71.0249 49.742 53.5681 56.4245 55.1059C63.107 56.6437 65.1438 72.5804 60.9737 90.7017Z" fill="white"/>
<path d="M100.47 167.467C104.056 184.401 104.091 182.58 94.966 187.552C88.5942 189.761 84.3328 190.097 78.2111 175.184C63.0123 150.285 77.5682 157.23 83.7147 155.099C89.8613 152.968 99.9732 154.506 100.47 167.467Z" fill="white"/>
<path d="M119.003 161.111C126.668 176.631 125.513 175.223 135.758 173.479C142.13 171.27 145.684 168.896 141.262 153.394C137.787 124.431 130.653 138.895 124.507 141.026C118.36 143.157 111.37 150.624 119.003 161.111Z" fill="white"/>
<ellipse cx="52.1357" cy="27.318" rx="2.42776" ry="2.96726" transform="rotate(-39.1974 52.1357 27.318)" fill="white"/>
<ellipse cx="2.42776" cy="2.96726" rx="2.42776" ry="2.96726" transform="matrix(-0.999861 -0.0166775 -0.0166775 0.999861 69.9072 19.0898)" fill="white"/>
<ellipse cx="59.0837" cy="33.5438" rx="1.16892" ry="1.52859" transform="rotate(-19.1209 59.0837 33.5438)" fill="#E76BC8"/>
<ellipse cx="66.9001" cy="30.8368" rx="1.16892" ry="1.52859" transform="rotate(-19.1209 66.9001 30.8368)" fill="#E76BC8"/>
<path d="M68.0605 33.9091C68.3279 34.6804 66.8568 36.2975 65.0438 37.2859C63.0081 37.6318 60.8517 37.2723 60.5843 36.501C60.3169 35.7297 60.5182 34.3807 63.6329 33.6451C66.5194 32.3941 67.7931 33.1378 68.0605 33.9091Z" fill="#E76BC8"/>
<path d="M98.6014 76.5467C114.003 88.9296 129.972 94.6357 134.269 89.2915C138.565 83.9474 135.906 70.3787 120.504 57.9957C102.976 46.9359 82.7902 39.1048 78.4936 44.449C74.1969 49.7931 83.1995 64.1637 98.6014 76.5467Z" fill="white"/>
<ellipse cx="90.9969" cy="81.7763" rx="1.43867" ry="2.24793" transform="rotate(-23.1606 90.9969 81.7763)" fill="white"/>
<ellipse cx="88.7281" cy="82.008" rx="0.539503" ry="1.52859" transform="rotate(-84.4272 88.7281 82.008)" fill="white"/>
<ellipse cx="89.1885" cy="82.6617" rx="0.539503" ry="1.52859" transform="rotate(-115.304 89.1885 82.6617)" fill="white"/>
<path d="M110.435 80.6475C105.3 83.9507 110.269 80.9907 105.3 83.9507C103.047 84.7315 102.578 84.6089 102.025 83.5634C101.841 82.485 102.304 82.039 104.556 81.2582C110.435 80.6475 104.133 81.4089 110.435 80.6475Z" fill="white"/>
<path d="M81.6788 83.3254C83.0894 85.272 81.9416 83.2756 83.0894 85.272C83.0941 86.4448 82.8326 86.8259 81.6963 87.705C80.6467 88.3463 80.3833 88.2416 80.3786 87.0689C81.6788 83.3254 80.383 87.2875 81.6788 83.3254Z" fill="white"/>
<path d="M85.8458 79.5793C87.2564 81.526 86.1086 79.5295 87.2564 81.526C87.2611 82.6987 86.9996 83.0798 85.8633 83.9589C84.8137 84.6002 84.5503 84.4955 84.5456 83.3228C85.8458 79.5793 84.55 83.5414 85.8458 79.5793Z" fill="white"/>
<path d="M82.531 83.6439C78.888 83.795 82.4892 83.4859 78.888 83.795C77.0747 84.3218 76.6042 84.6286 75.7593 85.6113C75.2426 86.4419 75.5231 86.5305 77.3364 86.0037C82.531 83.6439 76.9966 86.1001 82.531 83.6439Z" fill="white"/>
</svg>
