<svg width="190" height="177" viewBox="0 0 190 177" fill="none" xmlns="http://www.w3.org/2000/svg">
<path d="M103.185 133.862C-4.98586 60.5073 51.7875 22.0739 65.3911 15.1113C78.9947 8.14883 141.814 -12.4866 140.899 114.559C139.667 130.273 145.79 138.656 132.186 145.618C118.583 152.581 115.789 140.966 103.185 133.862Z" fill="white"/>
<path d="M121.87 78.8983C123.497 60.2076 130.404 45.5424 137.297 46.1425C144.189 46.7427 152.273 57.5235 150.645 76.2142C146.574 95.481 138.296 114.427 131.403 113.827C124.511 113.227 120.243 97.5889 121.87 78.8983Z" fill="white"/>
<path d="M71.6505 7.72963C65.694 -8.68738 65.9141 -6.86358 74.3352 -13.1101C80.3922 -16.2101 84.6031 -17.1423 92.8094 -3.09978C111.485 19.6489 95.9675 14.7495 90.1247 17.7399C84.2818 20.7304 73.9627 20.6104 71.6505 7.72963Z" fill="white"/>
<path d="M54.0219 16.6786C44.1889 2.24558 45.5396 3.49071 35.5477 6.66828C29.4908 9.7683 26.2719 12.6388 32.863 27.508C40.3934 55.9607 45.4943 40.5087 51.3371 37.5183C57.18 34.5278 63.1178 26.0874 54.0219 16.6786Z" fill="white"/>
<ellipse cx="139.582" cy="140.992" rx="2.4495" ry="2.99383" transform="rotate(132.82 139.582 140.992)" fill="white"/>
<ellipse cx="2.4495" cy="2.99383" rx="2.4495" ry="2.99383" transform="matrix(0.992487 -0.122346 -0.122346 -0.992487 122.98 151.703)" fill="white"/>
<ellipse cx="131.768" cy="135.745" rx="1.17939" ry="1.54228" transform="rotate(152.896 131.768 135.745)" fill="#E76BC8"/>
<ellipse cx="124.336" cy="139.547" rx="1.17939" ry="1.54228" transform="rotate(152.896 124.336 139.547)" fill="#E76BC8"/>
<path d="M122.748 136.64C122.373 135.907 123.616 134.085 125.289 132.843C127.275 132.212 129.48 132.27 129.855 133.003C130.23 133.736 130.218 135.112 127.209 136.284C124.5 137.938 123.123 137.373 122.748 136.64Z" fill="#E76BC8"/>
<path d="M86.257 98.3081C69.1327 88.0935 52.3775 84.6298 48.8333 90.5716C45.2891 96.5134 49.8477 109.698 66.9721 119.913C86.0354 128.507 107.302 133.504 110.846 127.562C114.39 121.62 103.381 108.523 86.257 98.3081Z" fill="white"/>
<ellipse cx="93.1208" cy="92.0205" rx="1.45155" ry="2.26805" transform="rotate(148.856 93.1208 92.0205)" fill="white"/>
<ellipse cx="95.356" cy="91.4759" rx="0.544333" ry="1.54228" transform="rotate(87.5897 95.356 91.4759)" fill="white"/>
<ellipse cx="94.8044" cy="90.8835" rx="0.544333" ry="1.54228" transform="rotate(56.7134 94.8044 90.8835)" fill="white"/>
<path d="M73.8595 95.8767C78.5282 91.8566 73.9777 95.5105 78.5282 91.8566C80.6691 90.7608 81.1557 90.8175 81.8546 91.7847C82.1891 92.8365 81.789 93.347 79.6481 94.4427C73.8595 95.8767 80.0501 94.2328 73.8595 95.8767Z" fill="white"/>
<path d="M102.215 89.1699C100.533 87.4225 101.96 89.2565 100.533 87.4225C100.364 86.2514 100.572 85.834 101.584 84.7964C102.543 84.0086 102.821 84.0762 102.99 85.2473C102.215 89.1699 102.955 85.0295 102.215 89.1699Z" fill="white"/>
<path d="M98.5765 93.4961C96.8942 91.7487 98.3209 93.5827 96.8942 91.7487C96.7252 90.5776 96.9331 90.1602 97.9453 89.1226C98.9042 88.3347 99.1821 88.4024 99.3511 89.5735C98.5765 93.4961 99.316 89.3557 98.5765 93.4961Z" fill="white"/>
<path d="M101.32 88.9716C104.939 88.3102 101.384 89.1236 104.939 88.3102C106.677 87.5297 107.104 87.1572 107.811 86.057C108.211 85.1547 107.918 85.1054 106.18 85.8859C101.32 88.9716 106.506 85.742 101.32 88.9716Z" fill="white"/>
</svg>
