<svg width="199" height="159" viewBox="0 0 199 159" fill="none" xmlns="http://www.w3.org/2000/svg">
<path d="M146.442 5.7804C149.625 141.248 83.0084 116.454 68.9427 109.161C54.877 101.868 -0.353929 61.2576 107.446 -14.4391C121.453 -22.8574 124.844 -33.0715 138.91 -25.7783C152.976 -18.4852 144.852 -9.13548 146.442 5.7804Z" fill="white"/>
<path d="M88.795 23.0902C72.0372 32.9663 55.4999 35.9628 51.8579 29.783C48.2159 23.6033 52.4515 10.2904 69.2093 0.414317C87.9245 -7.74563 108.901 -12.1612 112.543 -5.98147C116.185 0.198275 105.553 13.2141 88.795 23.0902Z" fill="white"/>
<path d="M58.9437 108.322C48.67 123.232 50.0772 121.948 39.7353 118.599C33.4726 115.352 30.1511 112.358 37.0662 96.9781C45.0295 67.5204 50.2333 83.5686 56.2746 86.701C62.3159 89.8335 68.4258 98.6169 58.9437 108.322Z" fill="white"/>
<path d="M77.1103 117.813C70.8447 134.801 71.0828 132.911 79.7794 139.434C86.0421 142.681 90.4028 143.67 98.9878 129.156C118.475 105.674 102.36 110.668 96.3187 107.536C90.2774 104.403 79.5782 104.471 77.1103 117.813Z" fill="white"/>
<path d="M126.621 41.4687C128.305 62.0728 135.466 78.3021 142.615 77.7177C149.764 77.1333 158.151 65.3489 156.467 44.7448C152.248 23.4787 143.665 2.51896 136.516 3.10335C129.367 3.68775 124.937 20.8645 126.621 41.4687Z" fill="white"/>
<ellipse cx="117.18" cy="39.4586" rx="1.50495" ry="2.35149" transform="rotate(23.3674 117.18 39.4586)" fill="white"/>
<ellipse cx="115.373" cy="37.9034" rx="0.564357" ry="1.59901" transform="rotate(-37.8991 115.373 37.9034)" fill="white"/>
<ellipse cx="115.206" cy="38.7227" rx="0.564358" ry="1.59901" transform="rotate(-68.7755 115.206 38.7227)" fill="white"/>
<path d="M132.028 53.3982C125.825 51.8767 131.648 53.5189 125.825 51.8767C123.611 50.729 123.366 50.284 123.762 49.1119C124.448 48.1965 125.12 48.2269 127.334 49.3747C132.028 53.3982 126.914 49.1617 132.028 53.3982Z" fill="white"/>
<path d="M109.298 33.502C108.836 35.9739 109.525 33.6657 108.836 35.9739C107.949 36.8215 107.471 36.8972 105.986 36.6672C104.744 36.332 104.634 36.0567 105.521 35.2091C109.298 33.502 105.358 35.3699 109.298 33.502Z" fill="white"/>
<path d="M115.142 33.9649C114.679 36.4368 115.369 34.1286 114.679 36.4368C113.792 37.2843 113.315 37.3601 111.83 37.1301C110.588 36.7949 110.477 36.5196 111.364 35.672C115.142 33.9649 111.202 35.8328 115.142 33.9649Z" fill="white"/>
<path d="M109.671 34.3744C106.934 31.7176 109.76 34.229 106.934 31.7176C105.229 30.7202 104.658 30.5838 103.304 30.6497C102.301 30.8552 102.436 31.1319 104.141 32.1293C109.671 34.3744 103.823 31.9408 109.671 34.3744Z" fill="white"/>
</svg>
