<svg width="1305" height="847" viewBox="0 0 1305 847" fill="none" xmlns="http://www.w3.org/2000/svg">
<path d="M139.839 63.518C142.867 192.368 79.5043 168.785 66.1258 161.848C52.7472 154.911 0.214391 116.285 102.748 44.2863C116.071 36.2792 119.297 26.5641 132.675 33.501C146.054 40.4379 138.327 49.3308 139.839 63.518Z" fill="white"/>
<path d="M85.007 79.9818C69.0679 89.3754 53.3384 92.2255 49.8744 86.3476C46.4103 80.4698 50.439 67.8073 66.3781 58.4136C84.179 50.6523 104.131 46.4525 107.595 52.3303C111.059 58.2082 100.946 70.5881 85.007 79.9818Z" fill="white"/>
<path d="M56.6146 161.05C46.8428 175.231 48.1812 174.01 38.3446 170.825C32.3878 167.736 29.2286 164.889 35.8058 150.26C43.3802 122.242 48.3297 137.506 54.0759 140.485C59.8221 143.465 65.6334 151.819 56.6146 161.05Z" fill="white"/>
<path d="M73.8939 170.081C67.9344 186.239 68.1609 184.441 76.4326 190.645C82.3893 193.734 86.537 194.675 94.7027 180.87C113.237 158.535 97.9101 163.285 92.1639 160.306C86.4178 157.326 76.2412 157.391 73.8939 170.081Z" fill="white"/>
<ellipse cx="124.726" cy="30.212" rx="2.41554" ry="2.95233" transform="rotate(7.33066 124.726 30.212)" fill="white"/>
<ellipse cx="2.41554" cy="2.95233" rx="2.41554" ry="2.95233" transform="matrix(-0.675801 -0.737084 -0.737084 0.675801 142.83 37.4102)" fill="white"/>
<ellipse cx="124.985" cy="39.491" rx="1.16304" ry="1.5209" transform="rotate(27.4071 124.985 39.491)" fill="#E76BC8"/>
<ellipse cx="132.293" cy="43.2801" rx="1.16304" ry="1.5209" transform="rotate(27.4071 132.293 43.2801)" fill="#E76BC8"/>
<path d="M130.868 46.2211C130.494 46.9422 128.319 46.987 126.364 46.3544C124.721 45.1214 123.504 43.3182 123.878 42.5972C124.252 41.8761 125.364 41.0981 128.027 42.8434C130.907 44.0713 131.241 45.5001 130.868 46.2211Z" fill="#E76BC8"/>
<path d="M120.985 97.4624C122.587 117.06 129.398 132.496 136.198 131.941C142.998 131.385 150.975 120.176 149.373 100.578C145.361 80.3513 137.197 60.4155 130.397 60.9713C123.597 61.5272 119.383 77.8648 120.985 97.4624Z" fill="white"/>
<ellipse cx="112.005" cy="95.5506" rx="1.43143" ry="2.23661" transform="rotate(23.3674 112.005 95.5506)" fill="white"/>
<ellipse cx="110.286" cy="94.0706" rx="0.536788" ry="1.5209" transform="rotate(-37.8991 110.286 94.0706)" fill="white"/>
<ellipse cx="110.128" cy="94.851" rx="0.536788" ry="1.5209" transform="rotate(-68.7755 110.128 94.851)" fill="white"/>
<path d="M126.128 108.812C120.227 107.365 125.766 108.927 120.227 107.365C118.122 106.273 117.889 105.85 118.265 104.735C118.918 103.865 119.557 103.894 121.663 104.985C126.128 108.812 121.264 104.783 126.128 108.812Z" fill="white"/>
<path d="M104.508 89.8832C104.068 92.2343 104.723 90.0389 104.068 92.2343C103.224 93.0405 102.77 93.1126 101.357 92.8938C100.176 92.575 100.071 92.3131 100.915 91.5069C104.508 89.8832 100.76 91.6598 104.508 89.8832Z" fill="white"/>
<path d="M110.066 90.3275C109.626 92.6787 110.282 90.4832 109.626 92.6787C108.783 93.4849 108.328 93.5569 106.916 93.3382C105.734 93.0193 105.63 92.7575 106.473 91.9513C110.066 90.3275 106.318 92.1042 110.066 90.3275Z" fill="white"/>
<path d="M104.862 90.7151C102.259 88.1881 104.947 90.5768 102.259 88.1881C100.637 87.2394 100.094 87.1097 98.8057 87.1723C97.8522 87.3678 97.9803 87.6309 99.6019 88.5796C104.862 90.7151 99.2998 88.4003 104.862 90.7151Z" fill="white"/>
<path d="M234.415 211.466C325.797 294.11 267.763 322.558 254.151 327.277C240.54 331.996 179.192 343.036 196.679 224.549C199.886 210.041 195.268 201.413 208.879 196.694C222.491 191.975 223.579 203.184 234.415 211.466Z" fill="white"/>
<path d="M209.776 260.334C205.81 277.57 197.442 290.357 191.086 288.894C184.73 287.431 178.595 276.308 182.561 259.072C188.884 241.618 199.093 225.014 205.449 226.477C211.805 227.94 213.743 243.098 209.776 260.334Z" fill="white"/>
<path d="M247.343 333.349C250.755 349.456 250.788 347.724 242.108 352.453C236.048 354.554 231.995 354.873 226.172 340.689C211.716 317.007 225.56 323.612 231.407 321.585C237.253 319.559 246.871 321.022 247.343 333.349Z" fill="white"/>
<path d="M264.972 327.303C272.262 342.064 271.164 340.725 280.908 339.067C286.969 336.966 290.349 334.707 286.143 319.963C282.838 292.414 276.053 306.172 270.206 308.199C264.36 310.226 257.712 317.328 264.972 327.303Z" fill="white"/>
<ellipse cx="201.37" cy="200.045" rx="2.30916" ry="2.82231" transform="rotate(-39.1974 201.37 200.045)" fill="white"/>
<ellipse cx="2.30916" cy="2.82231" rx="2.30916" ry="2.82231" transform="matrix(-0.999861 -0.0166775 -0.0166775 0.999861 218.271 192.22)" fill="white"/>
<ellipse cx="207.978" cy="205.968" rx="1.11182" ry="1.45392" transform="rotate(-19.1209 207.978 205.968)" fill="#E76BC8"/>
<ellipse cx="215.413" cy="203.391" rx="1.11182" ry="1.45392" transform="rotate(-19.1209 215.413 203.391)" fill="#E76BC8"/>
<path d="M216.517 206.313C216.771 207.047 215.372 208.585 213.647 209.525C211.711 209.854 209.66 209.512 209.406 208.778C209.152 208.045 209.343 206.762 212.306 206.062C215.051 204.872 216.262 205.58 216.517 206.313Z" fill="#E76BC8"/>
<path d="M245.566 246.871C260.215 258.649 275.404 264.076 279.49 258.993C283.577 253.91 281.047 241.004 266.398 229.226C249.726 218.706 230.527 211.258 226.44 216.341C222.353 221.424 230.916 235.093 245.566 246.871Z" fill="white"/>
<ellipse cx="238.333" cy="251.844" rx="1.36839" ry="2.13811" transform="rotate(-23.1606 238.333 251.844)" fill="white"/>
<ellipse cx="236.175" cy="252.063" rx="0.513147" ry="1.45392" transform="rotate(-84.4272 236.175 252.063)" fill="white"/>
<ellipse cx="236.613" cy="252.686" rx="0.513147" ry="1.45392" transform="rotate(-115.304 236.613 252.686)" fill="white"/>
<path d="M256.822 250.768C251.937 253.91 256.664 251.094 251.937 253.91C249.795 254.652 249.348 254.536 248.823 253.541C248.648 252.515 249.088 252.091 251.23 251.349C256.822 250.768 250.828 251.492 256.822 250.768Z" fill="white"/>
<path d="M229.471 253.316C230.813 255.168 229.721 253.269 230.813 255.168C230.817 256.283 230.568 256.646 229.488 257.482C228.489 258.092 228.239 257.992 228.234 256.877C229.471 253.316 228.239 257.085 229.471 253.316Z" fill="white"/>
<path d="M233.434 249.754C234.776 251.605 233.684 249.706 234.776 251.605C234.78 252.721 234.531 253.083 233.451 253.919C232.452 254.529 232.202 254.43 232.197 253.314C233.434 249.754 232.201 253.522 233.434 249.754Z" fill="white"/>
<path d="M230.28 253.618C226.815 253.762 230.241 253.468 226.815 253.762C225.091 254.263 224.643 254.555 223.84 255.49C223.348 256.28 223.615 256.364 225.34 255.863C230.28 253.618 225.016 255.955 230.28 253.618Z" fill="white"/>
<path d="M56.8784 440.761C39.3382 317.693 102.706 333.081 116.309 338.205C129.911 343.329 184.616 374.356 94.5889 454.967C82.7385 464.15 80.7528 473.822 67.1506 468.698C53.5484 463.574 59.9386 454.178 56.8784 440.761Z" fill="white"/>
<path d="M107.525 418.763C121.724 407.954 136.466 403.437 140.452 408.674C144.437 413.91 142.017 426.496 127.818 437.304C111.65 446.76 93.0173 453.05 89.0316 447.814C85.0458 442.578 93.3255 429.571 107.525 418.763Z" fill="white"/>
<path d="M125.508 337.889C133.256 323.196 132.113 324.517 141.897 326.451C147.953 328.732 151.302 331.1 146.665 345.859C142.594 373.556 136.118 359.498 130.276 357.297C124.434 355.097 117.919 347.755 125.508 337.889Z" fill="white"/>
<path d="M107.932 331.203C111.804 315.049 111.792 316.796 103.164 311.794C97.1077 309.513 93.0281 309.083 86.7756 323.233C71.5608 346.732 85.7015 340.44 91.5438 342.641C97.386 344.842 107.126 343.624 107.932 331.203Z" fill="white"/>
<ellipse cx="75.1359" cy="470.945" rx="2.32983" ry="2.84758" transform="rotate(-179.435 75.1359 470.945)" fill="white"/>
<ellipse cx="2.32983" cy="2.84758" rx="2.32983" ry="2.84758" transform="matrix(0.757925 0.652341 0.652341 -0.757925 56.9785 466.107)" fill="white"/>
<ellipse cx="73.8346" cy="462.086" rx="1.12177" ry="1.46693" transform="rotate(-159.358 73.8346 462.086)" fill="#E76BC8"/>
<ellipse cx="66.4049" cy="459.287" rx="1.12177" ry="1.46693" transform="rotate(-159.358 66.4049 459.287)" fill="#E76BC8"/>
<path d="M67.4346 456.31C67.7108 455.577 69.7886 455.287 71.7327 455.671C73.4468 456.665 74.8168 458.254 74.5407 458.987C74.2645 459.72 73.288 460.592 70.5387 459.223C67.6415 458.374 67.1585 457.043 67.4346 456.31Z" fill="#E76BC8"/>
<path d="M71.0785 406.108C67.3174 387.519 59.0398 373.508 52.5899 374.813C46.14 376.118 39.7733 387.76 43.5344 406.349C49.6761 425.266 59.7601 443.434 66.21 442.129C72.6598 440.823 74.8396 424.697 71.0785 406.108Z" fill="white"/>
<ellipse cx="79.8968" cy="406.917" rx="1.38064" ry="2.15725" transform="rotate(-163.398 79.8968 406.917)" fill="white"/>
<ellipse cx="81.7119" cy="408.141" rx="0.517741" ry="1.46693" transform="rotate(135.336 81.7119 408.141)" fill="white"/>
<ellipse cx="81.7745" cy="407.374" rx="0.517741" ry="1.46693" transform="rotate(104.459 81.7745 407.374)" fill="white"/>
<path d="M64.8644 395.821C70.6806 396.537 65.1978 395.67 70.6806 396.537C72.8213 397.343 73.0926 397.722 72.8586 398.833C72.3321 399.741 71.7168 399.786 69.5762 398.979C64.8644 395.821 69.9811 399.128 64.8644 395.821Z" fill="white"/>
<path d="M87.7211 411.495C87.8753 409.193 87.4967 411.371 87.8753 409.193C88.5917 408.325 89.0186 408.205 90.3964 408.254C91.5643 408.425 91.6944 408.664 90.978 409.532C87.7211 411.495 91.1089 409.368 87.7211 411.495Z" fill="white"/>
<path d="M82.3481 411.7C82.5023 409.398 82.1236 411.576 82.5023 409.398C83.2187 408.53 83.6455 408.41 85.0233 408.459C86.1912 408.63 86.3214 408.869 85.605 409.737C82.3481 411.7 85.7359 409.573 82.3481 411.7Z" fill="white"/>
<path d="M87.2883 410.738C90.0684 412.862 87.2221 410.88 90.0684 412.862C91.7294 413.587 92.2649 413.649 93.4913 413.443C94.3823 413.147 94.2298 412.91 92.5688 412.185C87.2883 410.738 92.8785 412.323 87.2883 410.738Z" fill="white"/>
<path d="M279.787 487.075C319.929 604.728 254.804 601.404 240.485 598.901C226.167 596.398 166.643 576.096 240.092 480.136C250.026 468.908 250.176 459.036 264.495 461.538C278.813 464.041 274.283 474.462 279.787 487.075Z" fill="white"/>
<path d="M234.121 518.116C222.181 531.379 208.538 538.561 203.647 534.158C198.756 529.755 198.791 516.939 210.731 503.676C224.856 491.376 241.992 481.728 246.883 486.13C251.774 490.533 246.06 504.854 234.121 518.116Z" fill="white"/>
<path d="M231.506 600.923C226.628 616.802 227.506 615.291 217.533 615.212C211.158 614.098 207.426 612.395 209.236 597.031C208.08 569.06 217.059 581.667 223.208 582.742C229.358 583.817 237.126 589.817 231.506 600.923Z" fill="white"/>
<path d="M250.018 604.221C249.22 620.813 248.907 619.094 258.315 622.403C264.69 623.517 268.779 623.181 272.288 608.114C282.863 582.194 270.141 591.007 263.991 589.932C257.841 588.857 248.498 591.867 250.018 604.221Z" fill="white"/>
<ellipse cx="256.229" cy="460.818" rx="2.32983" ry="2.84758" transform="rotate(-10.1621 256.229 460.818)" fill="white"/>
<ellipse cx="2.32983" cy="2.84758" rx="2.32983" ry="2.84758" transform="matrix(-0.866105 -0.499862 -0.499862 0.866105 274.971 462.189)" fill="white"/>
<ellipse cx="259.157" cy="469.278" rx="1.12177" ry="1.46693" transform="rotate(9.9144 259.157 469.278)" fill="#E76BC8"/>
<ellipse cx="266.977" cy="470.645" rx="1.12177" ry="1.46693" transform="rotate(9.9144 266.977 470.645)" fill="#E76BC8"/>
<path d="M266.52 473.762C266.386 474.534 264.398 475.206 262.416 475.191C260.547 474.533 258.905 473.227 259.04 472.455C259.175 471.683 259.972 470.645 262.928 471.479C265.933 471.773 266.655 472.991 266.52 473.762Z" fill="#E76BC8"/>
<path d="M272.285 523.766C279.44 541.33 290.181 553.555 296.276 551.073C302.37 548.59 306.458 535.966 299.303 518.403C289.747 500.959 276.458 484.986 270.364 487.469C264.269 489.952 265.13 506.203 272.285 523.766Z" fill="white"/>
<ellipse cx="263.469" cy="524.611" rx="1.38064" ry="2.15725" transform="rotate(5.87466 263.469 524.611)" fill="white"/>
<ellipse cx="261.458" cy="523.748" rx="0.517741" ry="1.46693" transform="rotate(-55.3919 261.458 523.748)" fill="white"/>
<ellipse cx="261.54" cy="524.511" rx="0.517741" ry="1.46693" transform="rotate(-86.2682 261.54 524.511)" fill="white"/>
<path d="M280.305 532.716C274.458 533.095 280.006 532.926 274.458 533.095C272.204 532.701 271.867 532.379 271.89 531.245C272.239 530.254 272.835 530.096 275.088 530.49C280.305 532.716 274.663 530.419 280.305 532.716Z" fill="white"/>
<path d="M254.931 521.57C255.208 523.86 255.175 521.65 255.208 523.86C254.666 524.846 254.269 525.044 252.906 525.253C251.727 525.302 251.555 525.091 252.097 524.105C254.931 521.57 251.999 524.291 254.931 521.57Z" fill="white"/>
<path d="M260.172 520.369C260.449 522.659 260.415 520.449 260.449 522.659C259.906 523.645 259.509 523.843 258.146 524.052C256.967 524.101 256.795 523.89 257.337 522.904C260.172 520.369 257.239 523.09 260.172 520.369Z" fill="white"/>
<path d="M255.497 522.234C252.37 520.664 255.536 522.082 252.37 520.664C250.603 520.261 250.066 520.299 248.899 520.73C248.079 521.187 248.273 521.392 250.04 521.794C255.497 522.234 249.71 521.717 255.497 522.234Z" fill="white"/>
<path d="M383.082 699.499C328.476 811.176 284.688 762.855 276.312 750.976C267.935 739.097 240.098 682.702 359.859 666.566C374.821 665.623 381.896 658.736 390.272 670.615C398.649 682.494 388.085 686.679 383.082 699.499Z" fill="white"/>
<path d="M328.821 689.256C311.003 690.224 296.268 685.682 295.911 679.111C295.554 672.54 304.625 663.486 322.444 662.518C341.132 663.774 360.081 669.034 360.438 675.605C360.795 682.176 346.64 688.288 328.821 689.256Z" fill="white"/>
<path d="M268.521 746.071C253.858 753.876 255.546 753.425 248.537 746.331C244.808 741.042 243.366 737.201 255.492 727.594C274.416 706.965 271.878 722.232 275.476 727.334C279.074 732.437 280.341 742.17 268.521 746.071Z" fill="white"/>
<path d="M279.307 761.473C267.031 772.664 268.023 771.225 272.352 780.21C276.081 785.499 279.215 788.146 292.335 779.95C318.122 769.052 302.888 766.315 299.29 761.213C295.693 756.111 286.95 751.649 279.307 761.473Z" fill="white"/>
<ellipse cx="384.925" cy="664.27" rx="2.32984" ry="2.84758" transform="rotate(34.7333 384.925 664.27)" fill="white"/>
<ellipse cx="2.32983" cy="2.84758" rx="2.32983" ry="2.84758" transform="matrix(-0.260735 -0.96541 -0.96541 0.260735 397.232 678.471)" fill="white"/>
<ellipse cx="381.028" cy="672.331" rx="1.12177" ry="1.46693" transform="rotate(54.8098 381.028 672.331)" fill="#E76BC8"/>
<ellipse cx="385.602" cy="678.819" rx="1.12177" ry="1.46693" transform="rotate(54.8098 385.602 678.819)" fill="#E76BC8"/>
<path d="M383.079 680.705C382.438 681.157 380.556 680.23 379.163 678.82C378.304 677.035 378.062 674.951 378.702 674.499C379.343 674.048 380.64 673.875 382.146 676.552C384.066 678.882 383.719 680.254 383.079 680.705Z" fill="#E76BC8"/>
<path d="M351.869 720.196C344.541 737.688 343.521 753.93 349.591 756.473C355.66 759.015 367.467 752.958 374.794 735.466C380.337 716.364 382.197 695.669 376.127 693.127C370.058 690.584 359.197 702.703 351.869 720.196Z" fill="white"/>
<ellipse cx="345.026" cy="714.572" rx="1.38064" ry="2.15725" transform="rotate(50.7701 345.026 714.572)" fill="white"/>
<ellipse cx="344.212" cy="712.541" rx="0.517741" ry="1.46693" transform="rotate(-10.4964 344.212 712.541)" fill="white"/>
<ellipse cx="343.731" cy="713.14" rx="0.517741" ry="1.46693" transform="rotate(-41.3728 343.731 713.14)" fill="white"/>
<path d="M351.234 732.197C346.824 728.338 350.874 732.135 346.824 728.338C345.506 726.469 345.494 726.003 346.311 725.216C347.257 724.76 347.791 725.068 349.11 726.938C351.234 732.197 348.858 726.587 351.234 732.197Z" fill="white"/>
<path d="M341.124 706.391C339.704 708.209 341.24 706.62 339.704 708.209C338.623 708.525 338.203 708.385 337.09 707.571C336.22 706.773 336.246 706.502 337.327 706.187C341.124 706.391 337.126 706.249 341.124 706.391Z" fill="white"/>
<path d="M345.685 709.239C344.264 711.057 345.8 709.468 344.264 711.057C343.184 711.373 342.763 711.233 341.651 710.418C340.78 709.621 340.807 709.35 341.887 709.034C345.685 709.239 341.687 709.096 345.685 709.239Z" fill="white"/>
<path d="M341.058 707.261C339.951 703.941 341.193 707.18 339.951 703.941C338.983 702.409 338.575 702.057 337.445 701.539C336.542 701.283 336.534 701.565 337.502 703.097C341.058 707.261 337.323 702.809 341.058 707.261Z" fill="white"/>
<path d="M455.444 654.217C523.39 758.318 459.46 771.175 444.967 772.285C430.474 773.395 367.78 768.416 415.264 657.294C422.119 643.961 419.828 634.357 434.321 633.247C448.813 632.137 446.997 643.354 455.444 654.217Z" fill="white"/>
<path d="M418.856 695.573C410.561 711.373 399.113 721.701 393.287 718.642C387.46 715.583 384.33 703.154 392.626 687.355C403.277 671.948 417.501 658.368 423.327 661.427C429.153 664.486 427.152 679.774 418.856 695.573Z" fill="white"/>
<path d="M436.764 776.463C435.958 793.054 436.435 791.373 426.751 793.759C420.299 794.253 416.262 793.524 414.222 778.189C406.197 751.369 418.01 761.369 424.235 760.893C430.46 760.416 439.468 764.313 436.764 776.463Z" fill="white"/>
<path d="M455.518 775.088C458.841 791.363 458.114 789.775 468.047 790.659C474.5 790.164 478.379 788.829 478.06 773.362C481.908 745.633 471.755 757.315 465.53 757.792C459.306 758.269 450.995 763.492 455.518 775.088Z" fill="white"/>
<ellipse cx="426.134" cy="634.589" rx="2.32983" ry="2.84758" transform="rotate(-24.4553 426.134 634.589)" fill="white"/>
<ellipse cx="2.32983" cy="2.84758" rx="2.32983" ry="2.84758" transform="matrix(-0.962703 -0.270561 -0.270561 0.962703 444.635 631.293)" fill="white"/>
<ellipse cx="431.061" cy="642.065" rx="1.12177" ry="1.46693" transform="rotate(-4.37881 431.061 642.065)" fill="#E76BC8"/>
<ellipse cx="438.977" cy="641.46" rx="1.12177" ry="1.46693" transform="rotate(-4.37881 438.977 641.46)" fill="#E76BC8"/>
<path d="M439.303 644.594C439.363 645.375 437.603 646.516 435.679 646.991C433.705 646.815 431.792 645.955 431.732 645.173C431.672 644.392 432.188 643.19 435.259 643.267C438.243 642.811 439.244 643.813 439.303 644.594Z" fill="#E76BC8"/>
<path d="M457.233 691.626C468.503 706.879 481.93 716.074 487.222 712.164C492.515 708.253 493.36 695.011 482.09 679.758C468.524 665.213 451.702 653.016 446.41 656.926C441.117 660.837 445.963 676.372 457.233 691.626Z" fill="white"/>
<ellipse cx="448.9" cy="694.621" rx="1.38064" ry="2.15725" transform="rotate(-8.41854 448.9 694.621)" fill="white"/>
<ellipse cx="446.739" cy="694.281" rx="0.517741" ry="1.46693" transform="rotate(-69.6851 446.739 694.281)" fill="white"/>
<ellipse cx="447.005" cy="695.001" rx="0.517741" ry="1.46693" transform="rotate(-100.561 447.005 695.001)" fill="white"/>
<path d="M467.216 698.319C461.643 700.13 466.978 698.597 461.643 700.13C459.362 700.305 458.956 700.077 458.698 698.971C458.791 697.926 459.33 697.625 461.611 697.45C467.216 698.319 461.181 697.487 467.216 698.319Z" fill="white"/>
<path d="M439.874 693.783C440.708 695.934 440.13 693.801 440.708 695.934C440.426 697.023 440.09 697.313 438.821 697.852C437.69 698.19 437.471 698.029 437.753 696.939C439.874 693.783 437.704 697.143 439.874 693.783Z" fill="white"/>
<path d="M444.655 691.324C445.489 693.475 444.911 691.342 445.489 693.475C445.207 694.564 444.871 694.854 443.602 695.393C442.471 695.731 442.252 695.57 442.534 694.48C444.655 691.324 442.485 694.685 444.655 691.324Z" fill="white"/>
<path d="M440.588 694.286C437.17 693.537 440.588 694.129 437.17 693.537C435.358 693.583 434.847 693.753 433.823 694.458C433.14 695.103 433.379 695.254 435.19 695.208C440.588 694.286 434.852 695.214 440.588 694.286Z" fill="white"/>
<path d="M390.79 528.854C458.735 632.955 394.806 645.812 380.313 646.922C365.82 648.032 303.126 643.053 350.61 531.931C357.465 518.598 355.173 508.994 369.666 507.884C384.159 506.774 382.342 517.991 390.79 528.854Z" fill="white"/>
<path d="M354.202 570.21C345.907 586.009 334.459 596.338 328.633 593.278C322.806 590.219 319.676 577.791 327.971 561.992C338.622 546.584 352.846 533.004 358.673 536.063C364.499 539.123 362.498 554.41 354.202 570.21Z" fill="white"/>
<path d="M372.11 651.099C371.303 667.691 371.78 666.01 362.097 668.396C355.644 668.89 351.607 668.161 349.568 652.826C341.543 626.006 353.356 636.006 359.58 635.529C365.805 635.053 374.814 638.949 372.11 651.099Z" fill="white"/>
<path d="M390.863 649.725C394.187 666 393.459 664.412 403.393 665.295C409.846 664.801 413.724 663.466 413.405 647.999C417.254 620.27 407.101 631.952 400.876 632.429C394.651 632.905 386.341 638.128 390.863 649.725Z" fill="white"/>
<ellipse cx="361.479" cy="509.226" rx="2.32983" ry="2.84758" transform="rotate(-24.4553 361.479 509.226)" fill="white"/>
<ellipse cx="2.32983" cy="2.84758" rx="2.32983" ry="2.84758" transform="matrix(-0.962703 -0.270561 -0.270561 0.962703 379.98 505.93)" fill="white"/>
<ellipse cx="366.406" cy="516.702" rx="1.12177" ry="1.46693" transform="rotate(-4.37881 366.406 516.702)" fill="#E76BC8"/>
<ellipse cx="374.322" cy="516.097" rx="1.12177" ry="1.46693" transform="rotate(-4.37881 374.322 516.097)" fill="#E76BC8"/>
<path d="M374.649 519.23C374.709 520.012 372.949 521.153 371.025 521.628C369.051 521.452 367.138 520.591 367.078 519.81C367.018 519.029 367.534 517.826 370.604 517.904C373.589 517.448 374.589 518.449 374.649 519.23Z" fill="#E76BC8"/>
<path d="M392.578 566.262C403.849 581.516 417.275 590.711 422.568 586.801C427.861 582.89 428.706 569.648 417.436 554.394C403.869 539.85 387.048 527.652 381.755 531.563C376.463 535.473 381.308 551.009 392.578 566.262Z" fill="white"/>
<ellipse cx="384.246" cy="569.258" rx="1.38064" ry="2.15725" transform="rotate(-8.41854 384.246 569.258)" fill="white"/>
<ellipse cx="382.085" cy="568.917" rx="0.517741" ry="1.46693" transform="rotate(-69.6851 382.085 568.917)" fill="white"/>
<ellipse cx="382.351" cy="569.638" rx="0.517741" ry="1.46693" transform="rotate(-100.561 382.351 569.638)" fill="white"/>
<path d="M402.562 572.956C396.989 574.767 402.324 573.234 396.989 574.767C394.708 574.942 394.302 574.713 394.044 573.608C394.137 572.562 394.676 572.261 396.957 572.087C402.562 572.956 396.527 572.123 402.562 572.956Z" fill="white"/>
<path d="M375.22 568.419C376.054 570.571 375.476 568.437 376.054 570.571C375.772 571.66 375.436 571.95 374.167 572.488C373.036 572.827 372.817 572.666 373.099 571.576C375.22 568.419 373.05 571.78 375.22 568.419Z" fill="white"/>
<path d="M380.001 565.96C380.835 568.112 380.257 565.978 380.835 568.112C380.553 569.201 380.217 569.491 378.948 570.029C377.817 570.368 377.598 570.207 377.88 569.117C380.001 565.96 377.831 569.321 380.001 565.96Z" fill="white"/>
<path d="M375.933 568.923C372.516 568.173 375.933 568.766 372.516 568.173C370.704 568.22 370.192 568.389 369.168 569.095C368.486 569.74 368.725 569.891 370.536 569.844C375.933 568.923 370.197 569.851 375.933 568.923Z" fill="white"/>
<path d="M645.118 698.569C590.191 810.088 546.542 761.641 538.2 749.738C529.858 737.835 502.184 681.36 621.99 665.569C636.955 664.67 644.049 657.803 652.392 669.706C660.734 681.609 650.158 685.764 645.118 698.569Z" fill="white"/>
<path d="M590.889 688.17C573.067 689.087 558.346 684.502 558.008 677.93C557.67 671.358 566.767 662.33 584.588 661.413C603.273 662.723 622.207 668.039 622.545 674.611C622.883 681.182 608.71 687.253 590.889 688.17Z" fill="white"/>
<path d="M530.425 744.81C515.74 752.574 517.429 752.127 510.44 745.013C506.726 739.713 505.296 735.868 517.449 726.297C536.432 705.721 533.851 720.982 537.434 726.094C541.017 731.207 542.256 740.944 530.425 744.81Z" fill="white"/>
<path d="M541.165 760.244C528.857 771.399 529.853 769.963 534.156 778.96C537.871 784.259 540.997 786.916 554.141 778.757C579.958 767.934 564.733 765.154 561.15 760.041C557.567 754.929 548.837 750.441 541.165 760.244Z" fill="white"/>
<ellipse cx="647.063" cy="663.346" rx="2.32983" ry="2.84758" transform="rotate(34.8986 647.063 663.346)" fill="white"/>
<ellipse cx="2.32983" cy="2.84758" rx="2.32983" ry="2.84758" transform="matrix(-0.257949 -0.966158 -0.966158 0.257949 659.33 677.582)" fill="white"/>
<ellipse cx="643.144" cy="671.395" rx="1.12177" ry="1.46693" transform="rotate(54.9751 643.144 671.395)" fill="#E76BC8"/>
<ellipse cx="647.698" cy="677.896" rx="1.12177" ry="1.46693" transform="rotate(54.9751 647.698 677.896)" fill="#E76BC8"/>
<path d="M645.169 679.775C644.528 680.225 642.648 679.292 641.259 677.879C640.405 676.091 640.169 674.007 640.811 673.557C641.453 673.107 642.75 672.938 644.249 675.62C646.162 677.955 645.811 679.326 645.169 679.775Z" fill="#E76BC8"/>
<path d="M613.845 719.175C606.467 736.647 605.4 752.885 611.462 755.445C617.524 758.005 629.348 751.983 636.726 734.511C642.324 715.426 644.244 694.737 638.181 692.176C632.119 689.616 621.224 701.704 613.845 719.175Z" fill="white"/>
<ellipse cx="607.021" cy="713.533" rx="1.38064" ry="2.15725" transform="rotate(50.9354 607.021 713.533)" fill="white"/>
<ellipse cx="606.212" cy="711.5" rx="0.517741" ry="1.46693" transform="rotate(-10.3312 606.212 711.5)" fill="white"/>
<ellipse cx="605.729" cy="712.096" rx="0.517741" ry="1.46693" transform="rotate(-41.2075 605.729 712.096)" fill="white"/>
<path d="M613.175 731.175C608.776 727.304 612.814 731.112 608.776 727.304C607.463 725.43 607.453 724.965 608.272 724.179C609.219 723.726 609.752 724.036 611.065 725.91C613.175 731.175 610.815 725.558 613.175 731.175Z" fill="white"/>
<path d="M603.14 705.341C601.715 707.155 603.255 705.57 601.715 707.155C600.633 707.467 600.213 707.326 599.103 706.509C598.235 705.709 598.262 705.438 599.343 705.125C603.14 705.341 599.143 705.187 603.14 705.341Z" fill="white"/>
<path d="M607.693 708.201C606.267 710.015 607.808 708.431 606.267 710.015C605.186 710.328 604.766 710.187 603.656 709.369C602.788 708.569 602.815 708.298 603.896 707.986C607.693 708.201 603.695 708.047 607.693 708.201Z" fill="white"/>
<path d="M603.071 706.209C601.974 702.887 603.206 706.129 601.974 702.887C601.011 701.352 600.604 700.998 599.475 700.477C598.572 700.218 598.564 700.5 599.527 702.035C603.071 706.209 599.349 701.747 603.071 706.209Z" fill="white"/>
<path d="M486.118 363.569C431.191 475.088 387.542 426.641 379.2 414.738C370.858 402.835 343.184 346.36 462.99 330.569C477.955 329.67 485.049 322.803 493.392 334.706C501.734 346.609 491.158 350.764 486.118 363.569Z" fill="white"/>
<path d="M431.889 353.17C414.067 354.087 399.346 349.502 399.008 342.93C398.67 336.358 407.767 327.33 425.588 326.413C444.273 327.723 463.207 333.039 463.545 339.611C463.883 346.182 449.71 352.253 431.889 353.17Z" fill="white"/>
<path d="M371.425 409.81C356.74 417.574 358.429 417.127 351.44 410.013C347.726 404.713 346.296 400.868 358.449 391.297C377.432 370.721 374.851 385.982 378.434 391.094C382.017 396.207 383.256 405.944 371.425 409.81Z" fill="white"/>
<path d="M382.165 425.244C369.857 436.399 370.853 434.963 375.156 443.96C378.871 449.259 381.997 451.916 395.141 443.757C420.958 432.934 405.733 430.154 402.15 425.041C398.567 419.929 389.837 415.441 382.165 425.244Z" fill="white"/>
<ellipse cx="488.063" cy="328.346" rx="2.32983" ry="2.84758" transform="rotate(34.8986 488.063 328.346)" fill="white"/>
<ellipse cx="2.32983" cy="2.84758" rx="2.32983" ry="2.84758" transform="matrix(-0.257949 -0.966158 -0.966158 0.257949 500.33 342.582)" fill="white"/>
<ellipse cx="484.144" cy="336.395" rx="1.12177" ry="1.46693" transform="rotate(54.9751 484.144 336.395)" fill="#E76BC8"/>
<ellipse cx="488.698" cy="342.896" rx="1.12177" ry="1.46693" transform="rotate(54.9751 488.698 342.896)" fill="#E76BC8"/>
<path d="M486.169 344.775C485.528 345.225 483.648 344.292 482.259 342.879C481.405 341.091 481.169 339.007 481.811 338.557C482.453 338.107 483.75 337.938 485.249 340.62C487.162 342.955 486.811 344.326 486.169 344.775Z" fill="#E76BC8"/>
<path d="M454.845 384.175C447.467 401.647 446.4 417.885 452.462 420.445C458.524 423.005 470.348 416.983 477.726 399.511C483.324 380.426 485.244 359.737 479.181 357.176C473.119 354.616 462.224 366.704 454.845 384.175Z" fill="white"/>
<ellipse cx="448.021" cy="378.533" rx="1.38064" ry="2.15725" transform="rotate(50.9354 448.021 378.533)" fill="white"/>
<ellipse cx="447.212" cy="376.5" rx="0.517741" ry="1.46693" transform="rotate(-10.3312 447.212 376.5)" fill="white"/>
<ellipse cx="446.729" cy="377.097" rx="0.517741" ry="1.46693" transform="rotate(-41.2075 446.729 377.097)" fill="white"/>
<path d="M454.175 396.175C449.776 392.304 453.814 396.112 449.776 392.304C448.463 390.43 448.453 389.965 449.272 389.179C450.219 388.726 450.752 389.036 452.065 390.91C454.175 396.175 451.815 390.558 454.175 396.175Z" fill="white"/>
<path d="M444.14 370.341C442.715 372.155 444.255 370.57 442.715 372.155C441.633 372.467 441.213 372.326 440.103 371.509C439.235 370.709 439.262 370.438 440.343 370.125C444.14 370.341 440.143 370.187 444.14 370.341Z" fill="white"/>
<path d="M448.693 373.201C447.267 375.015 448.808 373.431 447.267 375.015C446.186 375.328 445.766 375.187 444.656 374.369C443.788 373.569 443.815 373.298 444.896 372.986C448.693 373.201 444.695 373.047 448.693 373.201Z" fill="white"/>
<path d="M444.071 371.209C442.974 367.887 444.206 371.129 442.974 367.887C442.011 366.352 441.604 365.998 440.475 365.477C439.572 365.218 439.564 365.5 440.527 367.035C444.071 371.209 440.349 366.747 444.071 371.209Z" fill="white"/>
<path d="M330.774 185.342C227.888 115.571 281.888 79.0153 294.827 72.3929C307.766 65.7705 367.517 46.1431 366.646 166.982C365.475 181.929 371.298 189.902 358.359 196.524C345.42 203.147 342.763 192.099 330.774 185.342Z" fill="white"/>
<path d="M348.545 133.063C350.093 115.285 356.663 101.336 363.218 101.907C369.774 102.478 377.463 112.732 375.915 130.51C372.043 148.835 364.169 166.856 357.613 166.285C351.057 165.714 346.997 150.84 348.545 133.063Z" fill="white"/>
<path d="M300.78 65.371C295.114 49.756 295.324 51.4907 303.334 45.5494C309.095 42.6008 313.1 41.7141 320.905 55.0706C338.668 76.7079 323.909 72.0479 318.352 74.8923C312.794 77.7366 302.979 77.6225 300.78 65.371Z" fill="white"/>
<path d="M284.013 73.8828C274.66 60.1549 275.945 61.3392 266.441 64.3616C260.68 67.3102 257.618 70.0404 263.887 84.1832C271.05 111.246 275.902 96.5489 281.459 93.7045C287.016 90.8601 292.664 82.832 284.013 73.8828Z" fill="white"/>
<ellipse cx="365.392" cy="192.123" rx="2.32983" ry="2.84758" transform="rotate(132.82 365.392 192.123)" fill="white"/>
<ellipse cx="2.32983" cy="2.84758" rx="2.32983" ry="2.84758" transform="matrix(0.992487 -0.122346 -0.122346 -0.992487 349.602 202.312)" fill="white"/>
<ellipse cx="357.96" cy="187.131" rx="1.12177" ry="1.46693" transform="rotate(152.896 357.96 187.131)" fill="#E76BC8"/>
<ellipse cx="350.892" cy="190.748" rx="1.12177" ry="1.46693" transform="rotate(152.896 350.892 190.748)" fill="#E76BC8"/>
<path d="M349.38 187.984C349.023 187.286 350.205 185.553 351.797 184.372C353.685 183.772 355.782 183.827 356.139 184.524C356.496 185.221 356.485 186.53 353.623 187.645C351.046 189.218 349.737 188.681 349.38 187.984Z" fill="#E76BC8"/>
<path d="M314.673 151.529C298.386 141.813 282.449 138.518 279.078 144.17C275.707 149.822 280.043 162.362 296.331 172.078C314.463 180.253 334.69 185.005 338.061 179.353C341.432 173.702 330.961 161.244 314.673 151.529Z" fill="white"/>
<ellipse cx="321.203" cy="145.546" rx="1.38064" ry="2.15725" transform="rotate(148.856 321.203 145.546)" fill="white"/>
<ellipse cx="323.328" cy="145.026" rx="0.517741" ry="1.46693" transform="rotate(87.5897 323.328 145.026)" fill="white"/>
<ellipse cx="322.802" cy="144.464" rx="0.517741" ry="1.46693" transform="rotate(56.7134 322.802 144.464)" fill="white"/>
<path d="M302.88 149.213C307.321 145.389 302.992 148.864 307.321 145.389C309.357 144.347 309.82 144.4 310.485 145.32C310.803 146.321 310.422 146.806 308.386 147.849C302.88 149.213 308.768 147.649 302.88 149.213Z" fill="white"/>
<path d="M329.851 142.833C328.25 141.171 329.607 142.916 328.25 141.171C328.09 140.058 328.287 139.66 329.25 138.674C330.162 137.924 330.426 137.989 330.587 139.102C329.851 142.833 330.554 138.895 329.851 142.833Z" fill="white"/>
<path d="M326.392 146.949C324.791 145.287 326.148 147.031 324.791 145.287C324.631 144.173 324.828 143.776 325.791 142.789C326.703 142.039 326.967 142.104 327.128 143.218C326.392 146.949 327.095 143.01 326.392 146.949Z" fill="white"/>
<path d="M329 142.645C332.442 142.015 329.061 142.789 332.442 142.015C334.095 141.273 334.501 140.919 335.173 139.872C335.554 139.014 335.275 138.967 333.622 139.71C329 142.645 333.932 139.573 329 142.645Z" fill="white"/>
<path d="M510.774 676.342C407.888 606.571 461.888 570.015 474.827 563.393C487.766 556.77 547.517 537.143 546.646 657.982C545.475 672.929 551.298 680.902 538.359 687.524C525.42 694.147 522.763 683.099 510.774 676.342Z" fill="white"/>
<path d="M528.545 624.063C530.093 606.285 536.663 592.336 543.218 592.907C549.774 593.478 557.463 603.732 555.915 621.51C552.043 639.835 544.169 657.856 537.613 657.285C531.057 656.714 526.997 641.84 528.545 624.063Z" fill="white"/>
<path d="M480.78 556.371C475.114 540.756 475.324 542.491 483.334 536.549C489.095 533.601 493.1 532.714 500.905 546.071C518.668 567.708 503.909 563.048 498.352 565.892C492.794 568.737 482.979 568.623 480.78 556.371Z" fill="white"/>
<path d="M464.013 564.883C454.66 551.155 455.945 552.339 446.441 555.362C440.68 558.31 437.618 561.04 443.887 575.183C451.05 602.246 455.902 587.549 461.459 584.704C467.016 581.86 472.664 573.832 464.013 564.883Z" fill="white"/>
<ellipse cx="545.392" cy="683.123" rx="2.32983" ry="2.84758" transform="rotate(132.82 545.392 683.123)" fill="white"/>
<ellipse cx="2.32983" cy="2.84758" rx="2.32983" ry="2.84758" transform="matrix(0.992487 -0.122346 -0.122346 -0.992487 529.602 693.312)" fill="white"/>
<ellipse cx="537.96" cy="678.131" rx="1.12177" ry="1.46693" transform="rotate(152.896 537.96 678.131)" fill="#E76BC8"/>
<ellipse cx="530.892" cy="681.748" rx="1.12177" ry="1.46693" transform="rotate(152.896 530.892 681.748)" fill="#E76BC8"/>
<path d="M529.38 678.984C529.023 678.286 530.205 676.553 531.797 675.372C533.685 674.772 535.782 674.827 536.139 675.524C536.496 676.221 536.485 677.53 533.623 678.645C531.046 680.218 529.737 679.681 529.38 678.984Z" fill="#E76BC8"/>
<path d="M494.673 642.529C478.386 632.813 462.449 629.518 459.078 635.17C455.707 640.822 460.043 653.362 476.331 663.078C494.463 671.253 514.69 676.005 518.061 670.353C521.432 664.702 510.961 652.244 494.673 642.529Z" fill="white"/>
<ellipse cx="501.203" cy="636.546" rx="1.38064" ry="2.15725" transform="rotate(148.856 501.203 636.546)" fill="white"/>
<ellipse cx="503.328" cy="636.026" rx="0.517741" ry="1.46693" transform="rotate(87.5897 503.328 636.026)" fill="white"/>
<ellipse cx="502.802" cy="635.464" rx="0.517741" ry="1.46693" transform="rotate(56.7134 502.802 635.464)" fill="white"/>
<path d="M482.88 640.213C487.321 636.389 482.992 639.864 487.321 636.389C489.357 635.347 489.82 635.4 490.485 636.32C490.803 637.321 490.422 637.806 488.386 638.849C482.88 640.213 488.768 638.649 482.88 640.213Z" fill="white"/>
<path d="M509.851 633.833C508.25 632.171 509.607 633.916 508.25 632.171C508.09 631.058 508.287 630.66 509.25 629.674C510.162 628.924 510.426 628.989 510.587 630.102C509.851 633.833 510.554 629.895 509.851 633.833Z" fill="white"/>
<path d="M506.392 637.949C504.791 636.287 506.148 638.031 504.791 636.287C504.631 635.173 504.828 634.776 505.791 633.789C506.703 633.039 506.967 633.104 507.128 634.218C506.392 637.949 507.095 634.01 506.392 637.949Z" fill="white"/>
<path d="M509 633.645C512.442 633.015 509.061 633.789 512.442 633.015C514.095 632.273 514.501 631.919 515.173 630.872C515.554 630.014 515.275 629.967 513.622 630.71C509 633.645 513.932 630.573 509 633.645Z" fill="white"/>
<path d="M627.942 431.629C740.563 484.26 693.02 528.892 681.29 537.477C669.56 546.061 613.664 574.886 595.422 455.428C594.217 440.485 587.206 433.532 598.936 424.948C610.666 416.364 615.036 426.852 627.942 431.629Z" fill="white"/>
<path d="M618.657 486.061C619.938 503.859 615.656 518.671 609.093 519.144C602.529 519.616 593.317 510.706 592.035 492.908C592.962 474.2 597.888 455.161 604.452 454.689C611.015 454.216 617.375 468.262 618.657 486.061Z" fill="white"/>
<path d="M676.524 545.351C684.586 559.875 684.105 558.195 677.135 565.328C671.913 569.15 668.098 570.658 658.279 558.703C637.32 540.146 652.63 542.414 657.668 538.727C662.706 535.04 672.415 533.602 676.524 545.351Z" fill="white"/>
<path d="M691.734 534.296C703.139 546.373 701.683 545.407 710.59 540.92C715.813 537.098 718.404 533.918 709.978 520.944C698.628 495.354 696.161 510.633 691.123 514.32C686.085 518.007 681.777 526.827 691.734 534.296Z" fill="white"/>
<ellipse cx="592.687" cy="430.406" rx="2.32983" ry="2.84758" transform="rotate(-56.275 592.687 430.406)" fill="white"/>
<ellipse cx="2.32983" cy="2.84758" rx="2.32983" ry="2.84758" transform="matrix(-0.960672 0.277685 0.277685 0.960672 606.67 417.85)" fill="white"/>
<ellipse cx="600.815" cy="434.16" rx="1.12177" ry="1.46693" transform="rotate(-36.1985 600.815 434.16)" fill="#E76BC8"/>
<ellipse cx="607.223" cy="429.471" rx="1.12177" ry="1.46693" transform="rotate(-36.1985 607.223 429.471)" fill="#E76BC8"/>
<path d="M609.151 431.963C609.614 432.595 608.72 434.493 607.336 435.91C605.566 436.802 603.486 437.079 603.023 436.447C602.561 435.815 602.365 434.521 605.015 432.968C607.311 431.007 608.689 431.33 609.151 431.963Z" fill="#E76BC8"/>
<path d="M649.185 462.472C666.804 469.491 683.061 470.225 685.497 464.112C687.932 457.998 681.668 446.301 664.05 439.282C644.853 434.076 624.129 432.581 621.694 438.694C619.258 444.807 631.567 455.453 649.185 462.472Z" fill="white"/>
<ellipse cx="643.684" cy="469.411" rx="1.38064" ry="2.15725" transform="rotate(-40.2383 643.684 469.411)" fill="white"/>
<ellipse cx="641.668" cy="470.262" rx="0.517741" ry="1.46693" transform="rotate(-101.505 641.668 470.262)" fill="white"/>
<ellipse cx="642.274" cy="470.732" rx="0.517741" ry="1.46693" transform="rotate(-132.381 642.274 470.732)" fill="white"/>
<path d="M661.195 462.896C657.415 467.373 661.139 463.258 657.415 467.373C655.569 468.724 655.103 468.744 654.302 467.941C653.829 467.003 654.128 466.464 655.974 465.113C661.195 462.896 655.628 465.37 661.195 462.896Z" fill="white"/>
<path d="M635.573 473.458C637.415 474.846 635.8 473.338 637.415 474.846C637.75 475.92 637.618 476.344 636.823 477.47C636.041 478.354 635.77 478.333 635.435 477.258C635.573 473.458 635.501 477.457 635.573 473.458Z" fill="white"/>
<path d="M638.338 468.847C640.181 470.236 638.565 468.728 640.181 470.236C640.516 471.31 640.383 471.733 639.589 472.86C638.807 473.744 638.535 473.722 638.201 472.648C638.338 468.847 638.266 472.847 638.338 468.847Z" fill="white"/>
<path d="M636.442 473.51C633.143 474.675 636.359 473.377 633.143 474.675C631.628 475.669 631.283 476.083 630.785 477.223C630.545 478.131 630.827 478.133 632.342 477.138C636.442 473.51 632.057 477.323 636.442 473.51Z" fill="white"/>
<path d="M557.687 164.664C568.788 288.479 506.308 269.809 492.991 263.983C479.675 258.156 426.662 224.319 520.768 148.511C533.081 139.959 535.569 130.404 548.885 136.23C562.202 142.056 555.33 151.106 557.687 164.664Z" fill="white"/>
<path d="M505.963 183.993C491.22 194.046 476.262 197.789 472.555 192.352C468.848 186.915 471.92 174.472 486.664 164.419C503.303 155.818 522.238 150.508 525.946 155.945C529.653 161.382 520.706 173.94 505.963 183.993Z" fill="white"/>
<path d="M483.789 263.819C475.285 278.089 476.496 276.829 466.826 274.388C460.897 271.794 457.676 269.254 463.076 254.757C468.586 227.31 474.319 241.686 480.039 244.189C485.758 246.691 491.882 254.362 483.789 263.819Z" fill="white"/>
<path d="M500.99 271.412C496.281 287.342 496.385 285.598 504.74 291.043C510.669 293.637 514.721 294.279 521.703 280.474C538.122 257.8 523.672 263.346 517.953 260.844C512.233 258.341 502.443 259.05 500.99 271.412Z" fill="white"/>
<ellipse cx="541.028" cy="133.57" rx="2.32983" ry="2.84758" transform="rotate(3.5536 541.028 133.57)" fill="white"/>
<ellipse cx="2.32983" cy="2.84758" rx="2.32983" ry="2.84758" transform="matrix(-0.722888 -0.690965 -0.690965 0.722888 558.908 139.348)" fill="white"/>
<ellipse cx="541.865" cy="142.484" rx="1.12177" ry="1.46693" transform="rotate(23.6301 541.865 142.484)" fill="#E76BC8"/>
<ellipse cx="549.139" cy="145.667" rx="1.12177" ry="1.46693" transform="rotate(23.6301 549.139 145.667)" fill="#E76BC8"/>
<path d="M547.956 148.587C547.642 149.305 545.552 149.486 543.63 149.001C541.97 147.919 540.685 146.261 540.999 145.543C541.313 144.825 542.334 144.006 545.008 145.517C547.857 146.515 548.27 147.869 547.956 148.587Z" fill="#E76BC8"/>
<path d="M541.699 198.531C544.486 217.29 552.022 231.714 558.531 230.747C565.04 229.78 572.005 218.486 569.218 199.726C564.071 180.514 554.948 161.846 548.439 162.813C541.93 163.78 538.912 179.772 541.699 198.531Z" fill="white"/>
<ellipse cx="532.935" cy="197.262" rx="1.38064" ry="2.15725" transform="rotate(19.5904 532.935 197.262)" fill="white"/>
<ellipse cx="531.186" cy="195.946" rx="0.517741" ry="1.46693" transform="rotate(-41.6762 531.186 195.946)" fill="white"/>
<ellipse cx="531.084" cy="196.708" rx="0.517741" ry="1.46693" transform="rotate(-72.5525 531.084 196.708)" fill="white"/>
<path d="M547.37 209.128C541.599 208.11 547.029 209.261 541.599 208.11C539.503 207.193 539.252 206.8 539.544 205.703C540.117 204.824 540.734 204.811 542.829 205.728C547.37 209.128 542.433 205.558 547.37 209.128Z" fill="white"/>
<path d="M525.361 192.283C525.087 194.574 525.579 192.419 525.087 194.574C524.326 195.403 523.894 195.501 522.52 195.38C521.363 195.149 521.246 194.903 522.006 194.074C525.361 192.283 521.867 194.231 525.361 192.283Z" fill="white"/>
<path d="M530.738 192.358C530.464 194.649 530.956 192.494 530.464 194.649C529.703 195.478 529.271 195.576 527.897 195.456C526.74 195.224 526.622 194.979 527.383 194.149C530.738 192.358 527.244 194.306 530.738 192.358Z" fill="white"/>
<path d="M525.754 193.062C523.088 190.795 525.827 192.923 523.088 190.795C521.467 189.985 520.936 189.895 519.7 190.037C518.795 190.286 518.935 190.531 520.556 191.341C525.754 193.062 520.254 191.187 525.754 193.062Z" fill="white"/>
<path d="M839.444 513.209C836.068 637.476 776.184 611.665 763.636 604.329C751.087 596.994 702.37 557.22 804.655 492.872C817.879 485.81 821.461 476.609 834.009 483.945C846.558 491.28 838.681 499.469 839.444 513.209Z" fill="white"/>
<path d="M785.823 526.392C770.01 534.662 754.719 536.639 751.669 530.808C748.619 524.977 753.119 512.976 768.931 504.706C786.457 498.099 805.882 495.028 808.932 500.859C811.982 506.69 801.635 518.121 785.823 526.392Z" fill="white"/>
<path d="M754.512 603.096C744.407 616.28 745.756 615.169 736.436 611.62C730.849 608.354 727.944 605.457 734.995 591.687C743.659 565.067 747.681 580.012 753.071 583.163C758.461 586.314 763.651 594.645 754.512 603.096Z" fill="white"/>
<path d="M770.715 612.639C764.186 627.913 764.492 626.192 772.157 632.572C777.744 635.838 781.693 636.948 790.233 624.048C809.178 603.438 794.182 607.266 788.792 604.115C783.402 600.964 773.596 600.529 770.715 612.639Z" fill="white"/>
<ellipse cx="826.513" cy="480.389" rx="2.32984" ry="2.84758" transform="rotate(10.2329 826.513 480.389)" fill="white"/>
<ellipse cx="2.32983" cy="2.84758" rx="2.32983" ry="2.84758" transform="matrix(-0.637613 -0.770356 -0.770356 0.637613 843.602 488.207)" fill="white"/>
<ellipse cx="826.31" cy="489.339" rx="1.12177" ry="1.46693" transform="rotate(30.3094 826.31 489.339)" fill="#E76BC8"/>
<ellipse cx="833.164" cy="493.346" rx="1.12177" ry="1.46693" transform="rotate(30.3094 833.164 493.346)" fill="#E76BC8"/>
<path d="M831.647 496.11C831.252 496.786 829.155 496.723 827.303 496.018C825.78 494.75 824.697 492.954 825.092 492.277C825.487 491.601 826.596 490.906 829.077 492.717C831.79 494.041 832.043 495.433 831.647 496.11Z" fill="#E76BC8"/>
<path d="M819.625 544.987C820.211 563.943 826.018 579.146 832.596 578.942C839.173 578.739 847.404 568.331 846.818 549.375C843.941 529.695 837.051 510.092 830.473 510.296C823.896 510.499 819.039 526.031 819.625 544.987Z" fill="white"/>
<ellipse cx="811.068" cy="542.708" rx="1.38064" ry="2.15725" transform="rotate(26.2697 811.068 542.708)" fill="white"/>
<ellipse cx="809.484" cy="541.197" rx="0.517741" ry="1.46693" transform="rotate(-34.9969 809.484 541.197)" fill="white"/>
<ellipse cx="809.295" cy="541.942" rx="0.517741" ry="1.46693" transform="rotate(-65.8732 809.295 541.942)" fill="white"/>
<path d="M824.024 556.171C818.411 554.489 823.67 556.264 818.411 554.489C816.436 553.334 816.232 552.915 816.65 551.86C817.321 551.053 817.935 551.112 819.91 552.266C824.024 556.171 819.536 552.052 824.024 556.171Z" fill="white"/>
<path d="M804.124 536.881C803.586 539.124 804.325 537.041 803.586 539.124C802.734 539.859 802.293 539.907 800.943 539.627C799.82 539.262 799.732 539.005 800.584 538.269C804.124 536.881 800.427 538.409 804.124 536.881Z" fill="white"/>
<path d="M809.454 537.581C808.916 539.824 809.655 537.741 808.916 539.824C808.064 540.56 807.623 540.607 806.273 540.327C805.15 539.962 805.062 539.705 805.914 538.97C809.454 537.581 805.757 539.109 809.454 537.581Z" fill="white"/>
<path d="M804.423 537.7C802.039 535.139 804.512 537.571 802.039 535.139C800.523 534.146 800.006 533.994 798.762 533.992C797.834 534.133 797.944 534.393 799.46 535.386C804.423 537.7 799.178 535.199 804.423 537.7Z" fill="white"/>
<path d="M897.444 680.209C894.068 804.476 834.184 778.665 821.636 771.329C809.087 763.994 760.37 724.22 862.655 659.872C875.879 652.81 879.461 643.609 892.009 650.945C904.558 658.28 896.681 666.469 897.444 680.209Z" fill="white"/>
<path d="M843.823 693.392C828.01 701.662 812.719 703.639 809.669 697.808C806.619 691.977 811.119 679.976 826.931 671.706C844.457 665.099 863.882 662.028 866.932 667.859C869.982 673.69 859.635 685.121 843.823 693.392Z" fill="white"/>
<path d="M812.512 770.096C802.407 783.28 803.756 782.169 794.436 778.62C788.849 775.354 785.944 772.457 792.995 758.687C801.659 732.067 805.681 747.012 811.071 750.163C816.461 753.314 821.651 761.645 812.512 770.096Z" fill="white"/>
<path d="M828.715 779.639C822.186 794.913 822.492 793.192 830.157 799.572C835.744 802.838 839.693 803.948 848.233 791.048C867.178 770.438 852.182 774.266 846.792 771.115C841.402 767.964 831.596 767.529 828.715 779.639Z" fill="white"/>
<ellipse cx="884.513" cy="647.389" rx="2.32984" ry="2.84758" transform="rotate(10.2329 884.513 647.389)" fill="white"/>
<ellipse cx="2.32983" cy="2.84758" rx="2.32983" ry="2.84758" transform="matrix(-0.637613 -0.770356 -0.770356 0.637613 901.602 655.207)" fill="white"/>
<ellipse cx="884.31" cy="656.339" rx="1.12177" ry="1.46693" transform="rotate(30.3094 884.31 656.339)" fill="#E76BC8"/>
<ellipse cx="891.164" cy="660.346" rx="1.12177" ry="1.46693" transform="rotate(30.3094 891.164 660.346)" fill="#E76BC8"/>
<path d="M889.647 663.11C889.252 663.786 887.155 663.723 885.303 663.018C883.78 661.75 882.697 659.954 883.092 659.277C883.487 658.601 884.596 657.906 887.077 659.717C889.79 661.041 890.043 662.433 889.647 663.11Z" fill="#E76BC8"/>
<path d="M877.625 711.987C878.211 730.943 884.018 746.146 890.596 745.942C897.173 745.739 905.404 735.331 904.818 716.375C901.941 696.695 895.051 677.092 888.473 677.296C881.896 677.499 877.039 693.031 877.625 711.987Z" fill="white"/>
<ellipse cx="869.068" cy="709.708" rx="1.38064" ry="2.15725" transform="rotate(26.2697 869.068 709.708)" fill="white"/>
<ellipse cx="867.484" cy="708.197" rx="0.517741" ry="1.46693" transform="rotate(-34.9969 867.484 708.197)" fill="white"/>
<ellipse cx="867.295" cy="708.942" rx="0.517741" ry="1.46693" transform="rotate(-65.8732 867.295 708.942)" fill="white"/>
<path d="M882.024 723.171C876.411 721.489 881.67 723.264 876.411 721.489C874.436 720.334 874.232 719.915 874.65 718.86C875.321 718.053 875.935 718.112 877.91 719.266C882.024 723.171 877.536 719.052 882.024 723.171Z" fill="white"/>
<path d="M862.124 703.881C861.586 706.124 862.325 704.041 861.586 706.124C860.734 706.859 860.293 706.907 858.943 706.627C857.82 706.262 857.732 706.005 858.584 705.269C862.124 703.881 858.427 705.409 862.124 703.881Z" fill="white"/>
<path d="M867.454 704.581C866.916 706.824 867.655 704.741 866.916 706.824C866.064 707.56 865.623 707.607 864.273 707.327C863.15 706.962 863.062 706.705 863.914 705.97C867.454 704.581 863.757 706.109 867.454 704.581Z" fill="white"/>
<path d="M862.423 704.7C860.039 702.139 862.512 704.571 860.039 702.139C858.523 701.146 858.006 700.994 856.762 700.992C855.834 701.133 855.944 701.393 857.46 702.386C862.423 704.7 857.178 702.199 862.423 704.7Z" fill="white"/>
<path d="M944.424 662.616C1061.76 703.664 1018.95 752.847 1008.14 762.567C997.331 772.286 944.614 806.582 914.461 689.562C911.76 674.816 904.087 668.603 914.894 658.883C925.702 649.164 931.104 659.16 944.424 662.616Z" fill="white"/>
<path d="M940.655 717.705C943.719 735.285 940.947 750.452 934.464 751.581C927.981 752.711 917.92 744.772 914.856 727.192C913.899 708.486 916.887 689.049 923.37 687.919C929.853 686.789 937.592 700.125 940.655 717.705Z" fill="white"/>
<path d="M1004.19 770.88C1013.67 784.519 1013.02 782.897 1006.8 790.693C1001.99 795.021 998.347 796.905 987.377 785.998C964.658 769.64 980.119 770.359 984.761 766.184C989.403 762.009 998.919 759.602 1004.19 770.88Z" fill="white"/>
<path d="M1018.21 758.353C1030.77 769.222 1029.22 768.407 1037.63 763.048C1042.45 758.721 1044.71 755.297 1035.02 743.235C1021.15 718.915 1020.24 734.364 1015.59 738.539C1010.95 742.714 1007.55 751.922 1018.21 758.353Z" fill="white"/>
<ellipse cx="909.225" cy="664.941" rx="2.32983" ry="2.84758" transform="rotate(-62.0421 909.225 664.941)" fill="white"/>
<ellipse cx="2.32983" cy="2.84758" rx="2.32983" ry="2.84758" transform="matrix(-0.927907 0.372812 0.372812 0.927907 921.873 651.043)" fill="white"/>
<ellipse cx="917.688" cy="667.859" rx="1.12177" ry="1.46693" transform="rotate(-41.9657 917.688 667.859)" fill="#E76BC8"/>
<ellipse cx="923.592" cy="662.552" rx="1.12177" ry="1.46693" transform="rotate(-41.9657 923.592 662.552)" fill="#E76BC8"/>
<path d="M925.762 664.835C926.286 665.418 925.587 667.396 924.352 668.945C922.681 670.01 920.64 670.495 920.116 669.913C919.592 669.33 919.267 668.062 921.748 666.251C923.835 664.069 925.238 664.253 925.762 664.835Z" fill="#E76BC8"/>
<path d="M968.659 691.169C986.894 696.381 1003.14 695.478 1004.95 689.151C1006.76 682.824 999.353 671.815 981.118 666.602C961.496 663.351 940.726 663.946 938.918 670.273C937.109 676.601 950.425 685.956 968.659 691.169Z" fill="white"/>
<ellipse cx="963.882" cy="698.625" rx="1.38064" ry="2.15725" transform="rotate(-46.0054 963.882 698.625)" fill="white"/>
<ellipse cx="961.962" cy="699.674" rx="0.517741" ry="1.46693" transform="rotate(-107.272 961.962 699.674)" fill="white"/>
<ellipse cx="962.613" cy="700.081" rx="0.517741" ry="1.46693" transform="rotate(-138.148 962.613 700.081)" fill="white"/>
<path d="M980.651 690.383C977.34 695.218 980.632 690.748 977.34 695.218C975.639 696.747 975.178 696.814 974.299 696.095C973.735 695.21 973.978 694.643 975.679 693.113C980.651 690.383 975.361 693.404 980.651 690.383Z" fill="white"/>
<path d="M956.22 703.466C958.193 704.662 956.434 703.324 958.193 704.662C958.634 705.697 958.544 706.132 957.867 707.333C957.178 708.291 956.906 708.296 956.465 707.261C956.22 703.466 956.55 707.453 956.22 703.466Z" fill="white"/>
<path d="M958.509 698.601C960.482 699.797 958.723 698.459 960.482 699.797C960.923 700.832 960.833 701.266 960.156 702.467C959.467 703.425 959.195 703.431 958.754 702.396C958.509 698.601 958.839 702.587 958.509 698.601Z" fill="white"/>
<path d="M957.091 703.43C953.925 704.92 956.995 703.305 953.925 704.92C952.518 706.062 952.216 706.509 951.835 707.692C951.687 708.62 951.968 708.593 953.376 707.452C957.091 703.43 953.111 707.664 957.091 703.43Z" fill="white"/>
<path d="M930.852 523.498C1031.36 596.649 976.178 631.39 963.026 637.579C949.875 643.768 889.505 661.399 894.39 540.656C896.057 525.757 890.502 517.594 903.654 511.406C916.806 505.217 919.095 516.347 930.852 523.498Z" fill="white"/>
<path d="M911.352 575.158C909.215 592.874 902.185 606.597 895.652 605.809C889.119 605.02 881.776 594.516 883.913 576.8C888.392 558.613 896.86 540.864 903.394 541.652C909.927 542.441 913.49 557.442 911.352 575.158Z" fill="white"/>
<path d="M956.843 644.399C961.987 660.194 961.835 658.453 953.632 664.125C947.777 666.881 943.744 667.634 936.387 654.025C919.353 631.81 933.949 636.958 939.598 634.3C945.247 631.641 955.052 632.082 956.843 644.399Z" fill="white"/>
<path d="M973.885 636.45C982.776 650.481 981.531 649.254 991.13 646.549C996.986 643.794 1000.14 641.167 994.341 626.824C988.082 599.538 982.744 614.066 977.095 616.724C971.446 619.382 965.535 627.218 973.885 636.45Z" fill="white"/>
<ellipse cx="896.477" cy="515.57" rx="2.32984" ry="2.84758" transform="rotate(-45.2764 896.477 515.57)" fill="white"/>
<ellipse cx="2.32983" cy="2.84758" rx="2.32983" ry="2.84758" transform="matrix(-0.996005 0.0893012 0.0893012 0.996005 912.598 505.912)" fill="white"/>
<ellipse cx="903.739" cy="520.807" rx="1.12177" ry="1.46693" transform="rotate(-25.1999 903.739 520.807)" fill="#E76BC8"/>
<ellipse cx="910.923" cy="517.427" rx="1.12177" ry="1.46693" transform="rotate(-25.1999 910.923 517.427)" fill="#E76BC8"/>
<path d="M912.343 520.24C912.677 520.949 911.437 522.642 909.808 523.769C907.9 524.306 905.806 524.182 905.473 523.473C905.139 522.764 905.194 521.457 908.091 520.438C910.719 518.951 912.01 519.531 912.343 520.24Z" fill="#E76BC8"/>
<path d="M945.821 557.828C961.777 568.079 977.595 571.901 981.152 566.365C984.709 560.829 980.793 548.151 964.837 537.899C946.986 529.127 926.928 523.705 923.371 529.242C919.814 534.778 929.865 547.576 945.821 557.828Z" fill="white"/>
<ellipse cx="939.096" cy="563.59" rx="1.38064" ry="2.15725" transform="rotate(-29.2396 939.096 563.59)" fill="white"/>
<ellipse cx="936.954" cy="564.04" rx="0.517741" ry="1.46693" transform="rotate(-90.5062 936.954 564.04)" fill="white"/>
<ellipse cx="937.461" cy="564.617" rx="0.517741" ry="1.46693" transform="rotate(-121.383 937.461 564.617)" fill="white"/>
<path d="M957.529 560.535C952.964 564.209 957.405 560.879 952.964 564.209C950.894 565.183 950.433 565.114 949.799 564.172C949.514 563.162 949.911 562.689 951.981 561.715C957.529 560.535 951.592 561.902 957.529 560.535Z" fill="white"/>
<path d="M930.361 566.013C931.905 567.727 930.607 565.939 931.905 567.727C932.029 568.846 931.818 569.236 930.823 570.191C929.887 570.909 929.624 570.836 929.501 569.717C930.361 566.013 929.527 569.926 930.361 566.013Z" fill="white"/>
<path d="M933.957 562.016C935.501 563.73 934.203 561.942 935.501 563.73C935.624 564.849 935.414 565.239 934.419 566.193C933.482 566.912 933.22 566.839 933.096 565.72C933.957 562.016 933.123 565.929 933.957 562.016Z" fill="white"/>
<path d="M931.206 566.23C927.745 566.745 931.151 566.084 927.745 566.745C926.069 567.432 925.651 567.772 924.944 568.796C924.536 569.641 924.812 569.697 926.489 569.01C931.206 566.23 926.175 569.136 931.206 566.23Z" fill="white"/>
<path d="M809.645 239.873C832.605 362.047 768.619 349.473 754.804 344.955C740.988 340.437 684.966 311.857 771.343 227.347C782.777 217.65 784.333 207.9 798.148 212.418C811.964 216.936 805.995 226.605 809.645 239.873Z" fill="white"/>
<path d="M760.018 264.088C746.311 275.513 731.783 280.677 727.57 275.622C723.356 270.567 725.218 257.886 738.926 246.461C754.66 236.3 772.997 229.193 777.21 234.248C781.423 239.303 773.726 252.663 760.018 264.088Z" fill="white"/>
<path d="M745.626 345.677C738.535 360.698 739.619 359.327 729.759 357.828C723.608 355.816 720.157 353.598 724.138 338.649C726.982 310.8 734.072 324.557 740.005 326.498C745.939 328.439 752.773 335.485 745.626 345.677Z" fill="white"/>
<path d="M763.479 351.58C760.325 367.889 760.26 366.143 769.1 370.759C775.252 372.771 779.346 373.02 784.968 358.608C799.129 334.459 785.28 341.37 779.347 339.429C773.413 337.488 763.736 339.135 763.479 351.58Z" fill="white"/>
<ellipse cx="790.069" cy="210.526" rx="2.32983" ry="2.84758" transform="rotate(-1.96678 790.069 210.526)" fill="white"/>
<ellipse cx="2.32983" cy="2.84758" rx="2.32983" ry="2.84758" transform="matrix(-0.786006 -0.618219 -0.618219 0.786006 808.424 214.556)" fill="white"/>
<ellipse cx="791.763" cy="219.318" rx="1.12177" ry="1.46693" transform="rotate(18.1097 791.763 219.318)" fill="#E76BC8"/>
<ellipse cx="799.307" cy="221.786" rx="1.12177" ry="1.46693" transform="rotate(18.1097 799.307 221.786)" fill="#E76BC8"/>
<path d="M798.411 224.806C798.167 225.551 796.104 225.932 794.145 225.635C792.389 224.717 790.95 223.19 791.194 222.446C791.437 221.701 792.374 220.787 795.181 222.033C798.113 222.754 798.654 224.061 798.411 224.806Z" fill="#E76BC8"/>
<path d="M796.989 275.121C801.568 293.525 810.456 307.157 816.842 305.568C823.228 303.979 829.074 292.067 824.495 273.663C817.524 255.035 806.647 237.331 800.261 238.92C793.875 240.509 792.41 256.716 796.989 275.121Z" fill="white"/>
<ellipse cx="788.143" cy="274.701" rx="1.38064" ry="2.15725" transform="rotate(14.07 788.143 274.701)" fill="white"/>
<ellipse cx="786.276" cy="273.559" rx="0.517741" ry="1.46693" transform="rotate(-47.1966 786.276 273.559)" fill="white"/>
<ellipse cx="786.247" cy="274.327" rx="0.517741" ry="1.46693" transform="rotate(-78.0729 786.247 274.327)" fill="white"/>
<path d="M803.651 285.122C797.809 284.664 803.324 285.288 797.809 284.664C795.634 283.953 795.347 283.586 795.531 282.467C796.017 281.536 796.63 281.464 798.804 282.175C803.651 285.122 798.393 282.044 803.651 285.122Z" fill="white"/>
<path d="M780.124 270.474C780.071 272.78 780.353 270.588 780.071 272.78C779.394 273.679 778.973 273.818 777.594 273.83C776.42 273.711 776.279 273.478 776.957 272.579C780.124 270.474 776.833 272.749 780.124 270.474Z" fill="white"/>
<path d="M785.483 270.031C785.431 272.338 785.713 270.146 785.431 272.338C784.753 273.236 784.332 273.376 782.954 273.388C781.779 273.268 781.639 273.035 782.316 272.137C785.483 270.031 782.193 272.306 785.483 270.031Z" fill="white"/>
<path d="M780.59 271.21C777.719 269.21 780.65 271.065 777.719 269.21C776.027 268.56 775.49 268.521 774.273 268.782C773.396 269.116 773.559 269.347 775.251 269.997C780.59 271.21 774.935 269.874 780.59 271.21Z" fill="white"/>
<path d="M919.642 166.408C868.316 53.1861 933.458 50.1996 947.951 51.3065C962.444 52.4135 1023.65 66.8675 959.822 169.477C951.02 181.613 951.824 191.453 937.331 190.347C922.838 189.24 926.339 178.43 919.642 166.408Z" fill="white"/>
<path d="M962.095 131.097C972.697 116.743 985.582 108.276 990.875 112.185C996.169 116.095 997.373 128.855 986.771 143.209C973.901 156.817 957.777 168.076 952.484 164.167C947.191 160.257 951.494 145.452 962.095 131.097Z" fill="white"/>
<path d="M956.693 48.425C960.014 32.1491 959.286 33.7379 969.22 32.8523C975.673 33.3451 979.552 34.6799 979.236 50.1467C983.089 77.8747 972.934 66.1948 966.709 65.7194C960.485 65.244 952.173 60.0225 956.693 48.425Z" fill="white"/>
<path d="M937.95 46.9316C937.14 30.3404 937.618 32.0211 927.934 29.6372C921.481 29.1443 917.445 29.8746 915.408 45.2099C907.388 72.0311 919.199 62.0289 925.424 62.5043C931.649 62.9798 940.657 59.0811 937.95 46.9316Z" fill="white"/>
<ellipse cx="945.629" cy="190.265" rx="2.32984" ry="2.84758" transform="rotate(164.291 945.629 190.265)" fill="white"/>
<ellipse cx="2.32983" cy="2.84758" rx="2.32983" ry="2.84758" transform="matrix(0.910366 0.413805 0.413805 -0.910366 926.842 190.711)" fill="white"/>
<ellipse cx="941.896" cy="182.127" rx="1.12177" ry="1.46693" transform="rotate(-175.632 941.896 182.127)" fill="#E76BC8"/>
<ellipse cx="933.98" cy="181.522" rx="1.12177" ry="1.46693" transform="rotate(-175.632 933.98 181.522)" fill="#E76BC8"/>
<path d="M934.133 178.375C934.193 177.594 936.106 176.733 938.08 176.557C940.004 177.031 941.764 178.172 941.704 178.953C941.645 179.735 940.952 180.845 937.929 180.301C934.91 180.298 934.073 179.156 934.133 178.375Z" fill="#E76BC8"/>
<path d="M923.563 129.163C914.744 112.373 902.871 101.243 897.045 104.303C891.22 107.364 888.371 120.323 897.19 137.113C908.387 153.552 923.158 168.165 928.984 165.105C934.81 162.045 932.383 145.953 923.563 129.163Z" fill="white"/>
<ellipse cx="932.255" cy="127.47" rx="1.38064" ry="2.15725" transform="rotate(-179.672 932.255 127.47)" fill="white"/>
<ellipse cx="934.339" cy="128.136" rx="0.517741" ry="1.46693" transform="rotate(119.061 934.339 128.136)" fill="white"/>
<ellipse cx="934.185" cy="127.382" rx="0.517741" ry="1.46693" transform="rotate(88.185 934.185 127.382)" fill="white"/>
<path d="M914.716 121.031C920.499 120.088 914.993 120.792 920.499 120.088C922.78 120.262 923.147 120.549 923.233 121.681C922.982 122.7 922.404 122.916 920.123 122.742C914.716 121.031 920.554 122.771 914.716 121.031Z" fill="white"/>
<path d="M941.048 129.671C940.551 127.419 940.798 129.615 940.551 127.419C940.995 126.385 941.371 126.149 942.708 125.81C943.877 125.647 944.069 125.84 943.624 126.874C941.048 129.671 943.704 126.68 941.048 129.671Z" fill="white"/>
<path d="M935.948 131.374C935.451 129.121 935.698 131.317 935.451 129.121C935.896 128.087 936.272 127.851 937.608 127.512C938.777 127.349 938.969 127.542 938.525 128.576C935.948 131.374 938.604 128.382 935.948 131.374Z" fill="white"/>
<path d="M940.42 129.066C943.684 130.326 940.396 129.221 943.684 130.326C945.481 130.556 946.013 130.466 947.132 129.924C947.905 129.391 947.692 129.206 945.895 128.976C940.42 129.066 946.23 129.021 940.42 129.066Z" fill="white"/>
<path d="M655.532 39.8024C756.043 112.954 700.858 147.695 687.706 153.884C674.554 160.073 614.185 177.704 619.069 56.9602C620.737 42.0613 615.182 33.899 628.334 27.7102C641.486 21.5214 643.774 32.6512 655.532 39.8024Z" fill="white"/>
<path d="M636.032 91.4626C633.894 109.179 626.865 122.902 620.332 122.113C613.799 121.325 606.455 110.821 608.593 93.1048C613.072 74.9179 621.54 57.1687 628.073 57.957C634.607 58.7453 638.17 73.7463 636.032 91.4626Z" fill="white"/>
<path d="M681.523 160.704C686.666 176.499 686.515 174.758 678.312 180.43C672.456 183.186 668.424 183.939 661.067 170.33C644.032 148.115 658.628 153.262 664.277 150.604C669.926 147.946 679.732 148.386 681.523 160.704Z" fill="white"/>
<path d="M698.564 152.754C707.456 166.785 706.211 165.559 715.81 162.854C721.666 160.099 724.816 157.472 719.021 143.128C712.761 115.842 707.424 130.37 701.775 133.028C696.126 135.687 690.215 143.523 698.564 152.754Z" fill="white"/>
<ellipse cx="621.157" cy="31.8748" rx="2.32984" ry="2.84758" transform="rotate(-45.2764 621.157 31.8748)" fill="white"/>
<ellipse cx="2.32983" cy="2.84758" rx="2.32983" ry="2.84758" transform="matrix(-0.996005 0.0893012 0.0893012 0.996005 637.277 22.2168)" fill="white"/>
<ellipse cx="628.419" cy="37.1114" rx="1.12177" ry="1.46693" transform="rotate(-25.1999 628.419 37.1114)" fill="#E76BC8"/>
<ellipse cx="635.602" cy="33.7315" rx="1.12177" ry="1.46693" transform="rotate(-25.1999 635.602 33.7315)" fill="#E76BC8"/>
<path d="M637.023 36.5448C637.357 37.2536 636.117 38.9463 634.488 40.0737C632.58 40.6107 630.486 40.4868 630.152 39.778C629.819 39.0691 629.874 37.7614 632.771 36.7428C635.398 35.2557 636.69 35.836 637.023 36.5448Z" fill="#E76BC8"/>
<path d="M670.501 74.1325C686.457 84.3839 702.275 88.2061 705.832 82.6697C709.389 77.1333 705.472 64.4554 689.516 54.2041C671.666 45.4314 651.608 40.0099 648.05 45.5463C644.493 51.0827 654.545 63.8812 670.501 74.1325Z" fill="white"/>
<ellipse cx="663.776" cy="79.8945" rx="1.38064" ry="2.15725" transform="rotate(-29.2396 663.776 79.8945)" fill="white"/>
<ellipse cx="661.634" cy="80.3443" rx="0.517741" ry="1.46693" transform="rotate(-90.5062 661.634 80.3443)" fill="white"/>
<ellipse cx="662.141" cy="80.922" rx="0.517741" ry="1.46693" transform="rotate(-121.383 662.141 80.922)" fill="white"/>
<path d="M682.208 76.8396C677.643 80.5136 682.085 77.184 677.643 80.5136C675.573 81.4876 675.113 81.4184 674.479 80.4768C674.194 79.4664 674.591 78.9938 676.66 78.0198C682.208 76.8396 676.272 78.2067 682.208 76.8396Z" fill="white"/>
<path d="M655.041 82.3177C656.585 84.032 655.287 82.2435 656.585 84.032C656.708 85.1506 656.498 85.5409 655.503 86.4952C654.566 87.2139 654.304 87.1408 654.18 86.0222C655.041 82.3177 654.207 86.2304 655.041 82.3177Z" fill="white"/>
<path d="M658.636 78.3207C660.18 80.0349 658.882 78.2465 660.18 80.0349C660.304 81.1536 660.093 81.5438 659.098 82.4982C658.162 83.2168 657.9 83.1437 657.776 82.0251C658.636 78.3207 657.803 82.2333 658.636 78.3207Z" fill="white"/>
<path d="M655.886 82.5349C652.425 83.0493 655.83 82.3884 652.425 83.0493C650.748 83.7363 650.33 84.0769 649.624 85.1005C649.215 85.9456 649.492 86.0017 651.169 85.3147C655.886 82.5349 650.855 85.4412 655.886 82.5349Z" fill="white"/>
<path d="M1068.07 375.621C1113.63 491.282 1048.42 490.987 1034 489.153C1019.58 487.318 959.179 469.803 1028.09 370.535C1037.49 358.857 1037.18 348.988 1051.6 350.823C1066.02 352.658 1061.98 363.278 1068.07 375.621Z" fill="white"/>
<path d="M1023.89 408.752C1012.58 422.554 999.284 430.363 994.194 426.192C989.104 422.021 988.544 409.217 999.854 395.414C1013.39 382.47 1030.06 372.037 1035.15 376.207C1040.24 380.378 1035.2 394.949 1023.89 408.752Z" fill="white"/>
<path d="M1025.12 491.59C1020.99 507.678 1021.8 506.128 1011.83 506.513C1005.41 505.696 1001.6 504.168 1002.7 488.737C1000.24 460.85 1009.8 473.026 1015.99 473.814C1022.18 474.602 1030.22 480.235 1025.12 491.59Z" fill="white"/>
<path d="M1043.77 494.026C1043.74 510.637 1043.35 508.934 1052.9 511.802C1059.32 512.619 1063.39 512.093 1066.2 496.879C1075.56 470.495 1063.26 479.891 1057.06 479.103C1050.87 478.315 1041.68 481.755 1043.77 494.026Z" fill="white"/>
<ellipse cx="1043.31" cy="350.487" rx="2.32984" ry="2.84758" transform="rotate(-12.8252 1043.31 350.487)" fill="white"/>
<ellipse cx="2.32983" cy="2.84758" rx="2.32983" ry="2.84758" transform="matrix(-0.888395 -0.45908 -0.45908 0.888395 1062.1 350.987)" fill="white"/>
<ellipse cx="1046.63" cy="358.803" rx="1.12177" ry="1.46693" transform="rotate(7.25129 1046.63 358.803)" fill="#E76BC8"/>
<ellipse cx="1054.51" cy="359.805" rx="1.12177" ry="1.46693" transform="rotate(7.25129 1054.51 359.805)" fill="#E76BC8"/>
<path d="M1054.19 362.94C1054.09 363.717 1052.14 364.48 1050.16 364.557C1048.26 363.987 1046.56 362.758 1046.66 361.981C1046.76 361.204 1047.51 360.13 1050.5 360.825C1053.51 360.98 1054.29 362.163 1054.19 362.94Z" fill="#E76BC8"/>
<path d="M1062.28 412.622C1070.24 429.834 1081.54 441.547 1087.51 438.784C1093.48 436.021 1096.98 423.221 1089.01 406.008C1078.66 389.027 1064.64 373.689 1058.67 376.453C1052.7 379.216 1054.31 395.409 1062.28 412.622Z" fill="white"/>
<ellipse cx="1053.51" cy="413.876" rx="1.38064" ry="2.15725" transform="rotate(3.21156 1053.51 413.876)" fill="white"/>
<ellipse cx="1051.46" cy="413.106" rx="0.517741" ry="1.46693" transform="rotate(-58.055 1051.46 413.106)" fill="white"/>
<ellipse cx="1051.58" cy="413.866" rx="0.517741" ry="1.46693" transform="rotate(-88.9313 1051.58 413.866)" fill="white"/>
<path d="M1070.7 421.189C1064.88 421.84 1070.41 421.414 1064.88 421.84C1062.61 421.551 1062.26 421.246 1062.23 420.111C1062.53 419.106 1063.12 418.92 1065.39 419.208C1070.7 421.189 1064.96 419.157 1070.7 421.189Z" fill="white"/>
<path d="M1044.84 411.235C1045.22 413.51 1045.08 411.304 1045.22 413.51C1044.72 414.521 1044.34 414.737 1042.99 415.008C1041.81 415.112 1041.63 414.91 1042.12 413.9C1044.84 411.235 1042.03 414.089 1044.84 411.235Z" fill="white"/>
<path d="M1050.02 409.791C1050.4 412.066 1050.26 409.86 1050.4 412.066C1049.9 413.076 1049.52 413.292 1048.16 413.564C1046.99 413.668 1046.81 413.466 1047.3 412.455C1050.02 409.791 1047.21 412.645 1050.02 409.791Z" fill="white"/>
<path d="M1045.43 411.871C1042.24 410.448 1045.47 411.717 1042.24 410.448C1040.45 410.128 1039.92 410.191 1038.77 410.676C1037.98 411.169 1038.18 411.365 1039.96 411.685C1045.43 411.871 1039.63 411.623 1045.43 411.871Z" fill="white"/>
<path d="M1174.96 756.784C1081.65 838.925 1059.78 777.493 1056.61 763.308C1053.44 749.123 1049.39 686.362 1166.17 717.458C1180.34 722.334 1189.52 718.692 1192.69 732.877C1195.87 747.062 1184.5 746.869 1174.96 756.784Z" fill="white"/>
<path d="M1128.8 726.489C1111.97 720.539 1100.11 710.687 1102.31 704.483C1104.5 698.279 1116.35 693.402 1133.18 699.352C1149.95 707.689 1165.43 719.824 1163.23 726.028C1161.04 732.232 1145.62 732.438 1128.8 726.489Z" fill="white"/>
<path d="M1051.3 755.786C1034.77 757.362 1036.5 757.594 1032.75 748.352C1031.34 742.036 1031.48 737.936 1046.37 733.723C1071.76 721.943 1063.56 735.066 1064.92 741.158C1066.28 747.251 1063.71 756.724 1051.3 755.786Z" fill="white"/>
<path d="M1055.35 774.15C1039.71 779.768 1041.18 778.821 1041.73 788.779C1043.14 795.094 1045.02 798.742 1060.28 796.214C1088.27 796.055 1075.26 787.678 1073.9 781.585C1072.53 775.493 1066.18 768.015 1055.35 774.15Z" fill="white"/>
<ellipse cx="1190.19" cy="724.965" rx="2.32984" ry="2.84758" transform="rotate(57.3185 1190.19 724.965)" fill="white"/>
<ellipse cx="2.32983" cy="2.84758" rx="2.32983" ry="2.84758" transform="matrix(0.130033 -0.99151 -0.99151 -0.130033 1196.11 742.804)" fill="white"/>
<ellipse cx="1183.5" cy="730.911" rx="1.12177" ry="1.46693" transform="rotate(77.395 1183.5 730.911)" fill="#E76BC8"/>
<ellipse cx="1185.23" cy="738.659" rx="1.12177" ry="1.46693" transform="rotate(77.395 1185.23 738.659)" fill="#E76BC8"/>
<path d="M1182.18 739.43C1181.41 739.601 1180.03 738.022 1179.29 736.186C1179.18 734.208 1179.76 732.191 1180.52 732.02C1181.29 731.849 1182.55 732.188 1182.91 735.237C1183.79 738.126 1182.94 739.259 1182.18 739.43Z" fill="#E76BC8"/>
<path d="M1138.19 763.906C1124.71 777.243 1117.53 791.847 1122.16 796.526C1126.79 801.204 1140.01 800.146 1153.5 786.81C1165.95 771.302 1175.62 752.908 1170.99 748.229C1166.36 743.551 1151.68 750.569 1138.19 763.906Z" fill="white"/>
<ellipse cx="1134.04" cy="756.087" rx="1.38064" ry="2.15725" transform="rotate(73.3553 1134.04 756.087)" fill="white"/>
<ellipse cx="1134.07" cy="753.899" rx="0.517741" ry="1.46693" transform="rotate(12.0887 1134.07 753.899)" fill="white"/>
<ellipse cx="1133.39" cy="754.267" rx="0.517741" ry="1.46693" transform="rotate(-18.7876 1133.39 754.267)" fill="white"/>
<path d="M1133 774.743C1130.41 769.487 1132.69 774.547 1130.41 769.487C1129.91 767.254 1130.08 766.82 1131.14 766.406C1132.18 766.349 1132.56 766.839 1133.06 769.071C1133 774.743 1132.96 768.651 1133 774.743Z" fill="white"/>
<path d="M1133.58 747.035C1131.57 748.168 1133.6 747.291 1131.57 748.168C1130.45 748.044 1130.11 747.754 1129.4 746.574C1128.9 745.504 1129.03 745.264 1130.15 745.387C1133.58 747.035 1129.94 745.368 1133.58 747.035Z" fill="white"/>
<path d="M1136.69 751.415C1134.68 752.548 1136.71 751.671 1134.68 752.548C1133.57 752.424 1133.23 752.133 1132.52 750.954C1132.02 749.884 1132.15 749.644 1133.27 749.767C1136.69 751.415 1133.06 749.748 1136.69 751.415Z" fill="white"/>
<path d="M1133.18 747.811C1133.43 744.321 1133.34 747.789 1133.43 744.321C1133.13 742.535 1132.89 742.053 1132.04 741.141C1131.31 740.557 1131.19 740.815 1131.5 742.601C1133.18 747.811 1131.44 742.267 1133.18 747.811Z" fill="white"/>
<path d="M1198.17 560.139C1165.53 680.092 1113.44 640.867 1102.98 630.775C1092.52 620.683 1054.57 570.528 1169.16 532.161C1183.68 528.422 1189.34 520.327 1199.8 530.419C1210.26 540.511 1200.67 546.608 1198.17 560.139Z" fill="white"/>
<path d="M1142.95 560.283C1125.63 564.584 1110.3 562.894 1108.72 556.507C1107.13 550.121 1114.34 539.522 1131.66 535.221C1150.25 532.94 1169.85 534.544 1171.43 540.931C1173.02 547.317 1160.27 555.981 1142.95 560.283Z" fill="white"/>
<path d="M1094.41 627.422C1081.47 637.846 1083.05 637.085 1074.83 631.435C1070.17 626.942 1068.03 623.44 1078.14 611.725C1092.84 587.905 1093.22 603.378 1097.72 607.712C1102.21 612.047 1105.28 621.368 1094.41 627.422Z" fill="white"/>
<path d="M1107.9 640.522C1097.94 653.821 1098.65 652.222 1104.59 660.232C1109.25 664.725 1112.82 666.736 1124.17 656.219C1147.44 640.666 1131.97 640.843 1127.48 636.509C1122.98 632.174 1113.56 629.436 1107.9 640.522Z" fill="white"/>
<ellipse cx="1193.35" cy="525.193" rx="2.32983" ry="2.84758" transform="rotate(23.8951 1193.35 525.193)" fill="white"/>
<ellipse cx="2.32983" cy="2.84758" rx="2.32983" ry="2.84758" transform="matrix(-0.437616 -0.899162 -0.899162 0.437616 1208.11 536.825)" fill="white"/>
<ellipse cx="1191.04" cy="533.842" rx="1.12177" ry="1.46693" transform="rotate(43.9716 1191.04 533.842)" fill="#E76BC8"/>
<ellipse cx="1196.76" cy="539.354" rx="1.12177" ry="1.46693" transform="rotate(43.9716 1196.76 539.354)" fill="#E76BC8"/>
<path d="M1194.63 541.681C1194.09 542.245 1192.06 541.688 1190.43 540.566C1189.25 538.974 1188.62 536.972 1189.17 536.409C1189.71 535.845 1190.95 535.431 1192.93 537.777C1195.26 539.704 1195.17 541.117 1194.63 541.681Z" fill="#E76BC8"/>
<path d="M1171.4 586.336C1167.5 604.894 1169.55 621.038 1175.99 622.394C1182.43 623.75 1192.88 615.581 1196.79 597.023C1198.64 577.219 1196.58 556.544 1190.14 555.188C1183.7 553.832 1175.31 567.777 1171.4 586.336Z" fill="white"/>
<ellipse cx="1163.63" cy="582.1" rx="1.38064" ry="2.15725" transform="rotate(39.9319 1163.63 582.1)" fill="white"/>
<ellipse cx="1162.44" cy="580.258" rx="0.517741" ry="1.46693" transform="rotate(-21.3347 1162.44 580.258)" fill="white"/>
<ellipse cx="1162.08" cy="580.937" rx="0.517741" ry="1.46693" transform="rotate(-52.211 1162.08 580.937)" fill="white"/>
<path d="M1173.04 598.243C1167.98 595.282 1172.67 598.249 1167.98 595.282C1166.33 593.694 1166.23 593.239 1166.89 592.311C1167.73 591.686 1168.31 591.888 1169.96 593.477C1173.04 598.243 1169.65 593.18 1173.04 598.243Z" fill="white"/>
<path d="M1158.25 574.798C1157.2 576.851 1158.41 575.002 1157.2 576.851C1156.2 577.364 1155.76 577.306 1154.51 576.715C1153.51 576.096 1153.48 575.825 1154.49 575.312C1158.25 574.798 1154.3 575.41 1158.25 574.798Z" fill="white"/>
<path d="M1163.27 576.737C1162.22 578.79 1163.43 576.94 1162.22 578.79C1161.22 579.303 1160.78 579.245 1159.53 578.654C1158.53 578.034 1158.5 577.763 1159.5 577.25C1163.27 576.737 1159.32 577.349 1163.27 576.737Z" fill="white"/>
<path d="M1158.35 575.664C1156.64 572.612 1158.47 575.56 1156.64 572.612C1155.4 571.289 1154.94 571.02 1153.73 570.724C1152.79 570.642 1152.84 570.921 1154.08 572.244C1158.35 575.664 1153.85 571.995 1158.35 575.664Z" fill="white"/>
<path d="M1082.62 186.029C1174.19 101.957 1197.34 162.92 1200.81 177.035C1204.28 191.151 1209.63 253.814 1092.23 225.163C1077.96 220.584 1068.86 224.417 1065.39 210.301C1061.92 196.185 1073.29 196.141 1082.62 186.029Z" fill="white"/>
<path d="M1129.41 215.353C1146.35 220.95 1158.41 230.553 1156.35 236.801C1154.29 243.05 1142.54 248.173 1125.59 242.576C1108.65 234.591 1092.93 222.782 1094.99 216.533C1097.05 210.285 1112.46 209.756 1129.41 215.353Z" fill="white"/>
<path d="M1206.27 184.443C1222.77 182.523 1221.04 182.327 1224.98 191.489C1226.52 197.774 1226.46 201.876 1211.67 206.399C1186.52 218.706 1194.45 205.416 1192.96 199.353C1191.48 193.29 1193.84 183.765 1206.27 184.443Z" fill="white"/>
<path d="M1201.85 166.168C1217.36 160.225 1215.91 161.202 1215.16 151.258C1213.61 144.973 1211.66 141.366 1196.45 144.212C1168.47 144.956 1181.66 153.059 1183.14 159.122C1184.63 165.185 1191.15 172.528 1201.85 166.168Z" fill="white"/>
<ellipse cx="1068.06" cy="218.158" rx="2.32983" ry="2.84758" transform="rotate(-123.878 1068.06 218.158)" fill="white"/>
<ellipse cx="2.32983" cy="2.84758" rx="2.32983" ry="2.84758" transform="matrix(-0.109301 0.994009 0.994009 0.109301 1061.77 200.447)" fill="white"/>
<ellipse cx="1074.62" cy="212.074" rx="1.12177" ry="1.46693" transform="rotate(-103.801 1074.62 212.074)" fill="#E76BC8"/>
<ellipse cx="1072.73" cy="204.364" rx="1.12177" ry="1.46693" transform="rotate(-103.801 1072.73 204.364)" fill="#E76BC8"/>
<path d="M1075.77 203.529C1076.53 203.342 1077.94 204.891 1078.73 206.712C1078.88 208.688 1078.34 210.716 1077.58 210.903C1076.82 211.09 1075.55 210.778 1075.12 207.736C1074.18 204.867 1075.01 203.716 1075.77 203.529Z" fill="#E76BC8"/>
<path d="M1119.23 178.14C1132.43 164.525 1139.3 149.774 1134.58 145.193C1129.86 140.612 1116.65 141.946 1103.45 155.561C1091.32 171.326 1082.05 189.917 1086.77 194.498C1091.49 199.079 1106.03 191.755 1119.23 178.14Z" fill="white"/>
<ellipse cx="1123.55" cy="185.871" rx="1.38064" ry="2.15725" transform="rotate(-107.841 1123.55 185.871)" fill="white"/>
<ellipse cx="1123.57" cy="188.059" rx="0.517741" ry="1.46693" transform="rotate(-169.108 1123.57 188.059)" fill="white"/>
<ellipse cx="1124.23" cy="187.677" rx="0.517741" ry="1.46693" transform="rotate(160.016 1124.23 187.677)" fill="white"/>
<path d="M1124.2 167.197C1126.9 172.398 1124.51 167.387 1126.9 172.398C1127.44 174.62 1127.28 175.058 1126.24 175.493C1125.19 175.572 1124.8 175.09 1124.26 172.869C1124.2 167.197 1124.36 173.287 1124.2 167.197Z" fill="white"/>
<path d="M1124.2 194.912C1126.18 193.737 1124.18 194.656 1126.18 193.737C1127.31 193.837 1127.65 194.121 1128.39 195.285C1128.91 196.345 1128.78 196.587 1127.66 196.487C1124.2 194.912 1127.87 196.502 1124.2 194.912Z" fill="white"/>
<path d="M1120.99 190.597C1122.98 189.423 1120.97 190.342 1122.98 189.423C1124.1 189.523 1124.44 189.806 1125.18 190.97C1125.7 192.03 1125.57 192.273 1124.45 192.173C1120.99 190.597 1124.66 192.188 1120.99 190.597Z" fill="white"/>
<path d="M1124.58 194.126C1124.4 197.621 1124.42 194.152 1124.4 197.621C1124.74 199.4 1124.99 199.877 1125.86 200.772C1126.6 201.34 1126.71 201.08 1126.37 199.3C1124.58 194.126 1126.43 199.633 1124.58 194.126Z" fill="white"/>
<path d="M712.85 634.819C810.633 711.579 754.22 744.289 740.852 749.996C727.484 755.702 666.513 771.125 675.787 650.639C677.996 635.811 672.741 627.451 686.109 621.745C699.478 616.039 701.36 627.245 712.85 634.819Z" fill="white"/>
<path d="M691.484 685.735C688.703 703.362 681.179 716.82 674.679 715.795C668.179 714.769 661.222 704.005 664.003 686.378C669.141 668.366 678.249 650.937 684.749 651.962C691.25 652.988 694.265 668.108 691.484 685.735Z" fill="white"/>
<path d="M734.425 756.587C738.991 772.558 738.903 770.813 730.499 776.183C724.547 778.723 720.489 779.329 713.632 765.462C697.418 742.641 711.817 748.317 717.559 745.866C723.3 743.415 733.084 744.212 734.425 756.587Z" fill="white"/>
<path d="M751.744 749.261C760.119 763.606 758.92 762.336 768.611 759.982C774.563 757.441 777.807 754.93 772.537 740.386C767.275 712.89 761.412 727.214 755.671 729.665C749.929 732.116 743.736 739.732 751.744 749.261Z" fill="white"/>
<ellipse cx="678.786" cy="625.646" rx="2.32984" ry="2.84758" transform="rotate(-43.1912 678.786 625.646)" fill="white"/>
<ellipse cx="2.32983" cy="2.84758" rx="2.32983" ry="2.84758" transform="matrix(-0.998594 0.053003 0.053003 0.998594 695.248 616.581)" fill="white"/>
<ellipse cx="685.854" cy="631.143" rx="1.12177" ry="1.46693" transform="rotate(-23.1148 685.854 631.143)" fill="#E76BC8"/>
<ellipse cx="693.154" cy="628.027" rx="1.12177" ry="1.46693" transform="rotate(-23.1148 693.154 628.027)" fill="#E76BC8"/>
<path d="M694.471 630.889C694.778 631.61 693.478 633.256 691.809 634.324C689.883 634.791 687.795 634.591 687.487 633.87C687.179 633.15 687.282 631.845 690.215 630.933C692.894 629.542 694.163 630.169 694.471 630.889Z" fill="#E76BC8"/>
<path d="M726.558 669.67C742.131 680.495 757.8 684.891 761.556 679.487C765.312 674.084 761.859 661.272 746.286 650.447C728.767 641.031 708.919 634.883 705.163 640.286C701.407 645.689 710.986 658.845 726.558 669.67Z" fill="white"/>
<ellipse cx="719.629" cy="675.184" rx="1.38064" ry="2.15725" transform="rotate(-27.1545 719.629 675.184)" fill="white"/>
<ellipse cx="717.473" cy="675.555" rx="0.517741" ry="1.46693" transform="rotate(-88.421 717.473 675.555)" fill="white"/>
<ellipse cx="717.958" cy="676.152" rx="0.517741" ry="1.46693" transform="rotate(-119.297 717.958 676.152)" fill="white"/>
<path d="M738.162 672.802C733.466 676.307 738.025 673.141 733.466 676.307C731.362 677.205 730.904 677.119 730.305 676.155C730.057 675.135 730.471 674.677 732.574 673.779C738.162 672.802 732.179 673.952 738.162 672.802Z" fill="white"/>
<path d="M710.813 677.289C712.293 679.058 711.061 677.224 712.293 679.058C712.376 680.181 712.151 680.563 711.122 681.48C710.16 682.165 709.901 682.082 709.818 680.96C710.813 677.289 709.837 681.169 710.813 677.289Z" fill="white"/>
<path d="M714.551 673.425C716.032 675.194 714.799 673.359 716.032 675.194C716.115 676.316 715.89 676.699 714.861 677.616C713.899 678.3 713.639 678.218 713.557 677.095C714.551 673.425 713.575 677.304 714.551 673.425Z" fill="white"/>
<path d="M711.648 677.537C708.171 677.925 711.598 677.388 708.171 677.925C706.47 678.55 706.04 678.875 705.297 679.873C704.858 680.702 705.133 680.768 706.833 680.143C711.648 677.537 706.514 680.258 711.648 677.537Z" fill="white"/>
<path d="M107.116 634.308C200.731 716.1 142.678 745.801 129.028 750.797C115.379 755.793 53.6815 767.991 69.2738 648.159C72.2583 633.467 67.4502 624.844 81.0999 619.848C94.7497 614.852 96.0407 626.141 107.116 634.308Z" fill="white"/>
<path d="M83.1043 684.031C79.4011 701.488 71.1806 714.532 64.7432 713.166C58.3059 711.801 51.9246 700.686 55.6278 683.229C61.7049 665.512 71.7164 648.586 78.1537 649.951C84.5911 651.317 86.8075 666.575 83.1043 684.031Z" fill="white"/>
<path d="M122.264 757.041C125.984 773.23 125.987 771.482 117.313 776.403C111.236 778.628 107.152 779.019 101.033 764.811C86.0399 741.17 100.121 747.594 105.984 745.449C111.846 743.303 121.574 744.612 122.264 757.041Z" fill="white"/>
<path d="M139.944 750.636C147.554 765.402 146.423 764.07 156.224 762.228C162.302 760.004 165.673 757.667 161.175 742.866C157.364 715.132 150.757 729.128 144.895 731.274C139.032 733.419 132.448 740.699 139.944 750.636Z" fill="white"/>
<ellipse cx="73.5821" cy="623.358" rx="2.32983" ry="2.84758" transform="rotate(-40.1795 73.5821 623.358)" fill="white"/>
<ellipse cx="2.32983" cy="2.84758" rx="2.32983" ry="2.84758" transform="matrix(-1 0.000462433 0.000462433 1 90.498 615.171)" fill="white"/>
<ellipse cx="80.3506" cy="629.219" rx="1.12177" ry="1.46693" transform="rotate(-20.103 80.3506 629.219)" fill="#E76BC8"/>
<ellipse cx="87.8057" cy="626.49" rx="1.12177" ry="1.46693" transform="rotate(-20.103 87.8057 626.49)" fill="#E76BC8"/>
<path d="M88.9712 629.418C89.2404 630.154 87.8555 631.73 86.1322 632.708C84.1846 633.073 82.1095 632.764 81.8403 632.028C81.571 631.292 81.742 629.995 84.7185 629.238C87.4675 627.99 88.7019 628.682 88.9712 629.418Z" fill="#E76BC8"/>
<path d="M118.977 669.832C133.959 681.46 149.375 686.673 153.41 681.474C157.445 676.276 154.67 663.3 139.688 651.672C122.687 641.348 103.19 634.166 99.1551 639.364C95.1203 644.563 103.995 658.203 118.977 669.832Z" fill="white"/>
<ellipse cx="111.767" cy="674.973" rx="1.38064" ry="2.15725" transform="rotate(-24.1427 111.767 674.973)" fill="white"/>
<ellipse cx="109.594" cy="675.231" rx="0.517741" ry="1.46693" transform="rotate(-85.4093 109.594 675.231)" fill="white"/>
<ellipse cx="110.045" cy="675.852" rx="0.517741" ry="1.46693" transform="rotate(-116.286 110.045 675.852)" fill="white"/>
<path d="M130.399 673.568C125.525 676.822 130.245 673.9 125.525 676.822C123.377 677.609 122.924 677.499 122.377 676.505C122.183 675.473 122.62 675.037 124.768 674.251C130.399 673.568 124.364 674.403 130.399 673.568Z" fill="white"/>
<path d="M102.852 676.612C104.237 678.457 103.103 676.56 104.237 678.457C104.261 679.582 104.017 679.952 102.941 680.814C101.944 681.447 101.69 681.351 101.666 680.225C102.852 676.612 101.674 680.435 102.852 676.612Z" fill="white"/>
<path d="M106.787 672.95C108.173 674.795 107.039 672.898 108.173 674.795C108.197 675.92 107.952 676.29 106.876 677.152C105.88 677.785 105.625 677.688 105.601 676.563C106.787 672.95 105.609 676.773 106.787 672.95Z" fill="white"/>
<path d="M103.673 676.903C100.18 677.108 103.63 676.753 100.18 677.108C98.4483 677.644 98.0019 677.946 97.2074 678.903C96.7252 679.708 96.9958 679.789 98.727 679.253C103.673 676.903 98.4027 679.351 103.673 676.903Z" fill="white"/>
</svg>
