<svg width="2245" height="254" viewBox="0 0 2245 254" fill="none" xmlns="http://www.w3.org/2000/svg">
<rect width="748.31" height="245.48" fill="white"/>
<path d="M103.646 140.844C132.973 84.5829 124.695 97.7304 134.12 103.93C141.61 107.736 154.509 91.8799 113.489 145.845C88.146 189.864 85.5946 184.618 82.8765 183.237C80.1584 181.856 76.2436 185.996 103.646 140.844Z" fill="#00544B"/>
<path d="M80.8943 174.572C84.6478 172.354 90.1532 173.653 92.7455 176.913C95.3378 180.173 94.3965 184.615 90.643 186.833C86.8895 189.052 81.4054 188.408 78.813 185.147C76.2207 181.887 77.1408 176.791 80.8943 174.572Z" fill="#00544B"/>
<path d="M85.2326 94.278C99.7804 78.0769 115.364 66.6106 124.046 74.9633C133.5 80.7708 125.804 95.7459 111.256 111.947C92.8739 127.011 65.8833 146.743 60.8709 144.71C56.3411 140.662 59.6343 136.711 85.2326 94.278Z" fill="#00544B"/>
<path d="M139.721 65.6692C151.286 47.3603 164.679 33.5639 174.656 40.4376C184.96 44.6749 179.935 60.6864 168.37 78.9953C152.834 96.7888 129.615 120.559 124.33 119.345C119.177 116.065 121.747 111.64 139.721 65.6692Z" fill="#00544B"/>
<path d="M43.5306 155.28C82.9051 104.09 72.2906 115.855 80.5084 123.255C87.2439 128.036 102.938 114.253 52.3822 161.562C19.1972 201.28 17.6246 195.772 15.1803 194.037C12.736 192.302 8.09563 195.825 43.5306 155.28Z" fill="#00544B"/>
<path d="M9.53013 188.867C13.6593 187.21 18.8838 189.251 20.86 192.814C22.8361 196.378 21.0908 200.61 16.9616 202.267C12.8325 203.924 7.50934 202.529 5.53319 198.966C3.55705 195.403 5.40098 190.524 9.53013 188.867Z" fill="#00544B"/>
<path d="M484.07 120.68C435.809 77.9357 446.705 89.2464 455.418 82.2089C461.224 76.3068 448.866 59.9595 491.7 112.923C528.816 148.591 522.897 149.512 520.791 151.654C518.684 153.796 521.764 158.572 484.07 120.68Z" fill="#00544B"/>
<path d="M511.612 151.101C510.405 147.005 513.178 142.253 517.126 140.747C521.074 139.24 525.252 141.339 526.459 145.435C527.665 149.531 525.551 154.444 521.603 155.951C517.655 157.457 512.818 155.197 511.612 151.101Z" fill="#00544B"/>
<path d="M432.674 124.921C420.413 106.948 413.154 89.3203 423.816 83.5663C432.146 76.3934 445.021 87.6682 457.282 105.641C467.379 126.86 479.824 157.356 476.451 161.448C471.198 164.536 468.139 160.389 432.674 124.921Z" fill="#00544B"/>
<path d="M418.749 66.454C403.586 50.6677 393.415 34.43 402.948 27.0655C409.94 18.6708 424.565 27.7526 439.728 43.5388C453.312 62.8689 470.797 90.9787 468.169 95.5488C463.515 99.4266 459.79 95.8206 418.749 66.454Z" fill="#00544B"/>
<path d="M482.344 180.46C441.837 129.789 450.726 142.887 460.314 137.301C466.89 132.368 457.35 113.999 490.985 173.977C521.707 215.737 515.79 215.677 513.404 217.467C511.017 219.257 513.287 224.537 482.344 180.46Z" fill="#00544B"/>
<path d="M506.731 221.287C506.186 216.997 509.624 212.711 513.709 211.86C517.794 211.009 521.548 213.796 522.093 218.086C522.639 222.376 519.819 226.932 515.734 227.783C511.649 228.634 507.277 225.577 506.731 221.287Z" fill="#00544B"/>
<path d="M261.486 113.007C215.705 158.209 227.764 148.053 220.715 139.459C214.759 133.697 197.429 145.114 253.659 105.435C291.77 70.7531 292.552 76.4771 294.713 78.568C296.875 80.659 301.922 77.8338 261.486 113.007Z" fill="#F95500"/>
<path d="M293.87 87.3862C289.584 88.4272 284.733 85.619 283.285 81.7745C281.837 77.9299 284.138 73.9694 288.425 72.9284C292.712 71.8874 297.749 74.0658 299.197 77.9104C300.645 81.7549 298.157 86.3452 293.87 87.3862Z" fill="#F95500"/>
<path d="M264.382 162.605C245.367 173.88 226.858 180.35 221.198 169.918C213.997 161.69 226.077 149.627 245.092 138.352C267.412 129.255 299.431 118.169 303.579 121.536C306.63 126.683 302.236 129.506 264.382 162.605Z" fill="#F95500"/>
<path d="M203.287 174.294C186.457 188.427 169.304 197.741 161.94 188.348C153.432 181.372 163.287 167.56 180.117 153.427C200.579 140.918 230.269 124.911 234.935 127.575C238.824 132.169 234.972 135.649 203.287 174.294Z" fill="#F95500"/>
<path d="M323.485 116.419C269.703 153.925 283.559 145.752 278.042 136.359C273.115 129.885 253.768 138.53 317.01 107.911C361.256 79.5624 361.02 85.2567 362.808 87.6062C364.596 89.9557 370.143 87.9255 323.485 116.419Z" fill="#F95500"/>
<path d="M366.576 94.1427C362.107 94.5423 357.759 91.1071 356.996 87.1499C356.232 83.1928 359.236 79.661 363.704 79.2615C368.173 78.862 372.819 81.7099 373.583 85.667C374.346 89.6242 371.045 93.7432 366.576 94.1427Z" fill="#F95500"/>
<path d="M645.422 102.654C616.099 159.131 624.376 145.921 614.946 139.801C607.451 136.059 594.551 152.013 635.573 97.7353C660.914 53.5281 663.468 58.7513 666.187 60.1095C668.907 61.4677 672.822 57.297 645.422 102.654Z" fill="#F95500"/>
<path d="M668.172 68.7546C664.418 71.0028 658.91 69.7496 656.315 66.5119C653.721 63.2742 654.661 58.827 658.416 56.5789C662.17 54.3307 667.657 54.9294 670.251 58.1671C672.846 61.4048 671.927 66.5065 668.172 68.7546Z" fill="#F95500"/>
<path d="M663.857 149.05C649.308 165.363 633.722 176.952 625.033 168.674C615.573 162.946 623.268 147.915 637.817 131.601C656.203 116.394 683.199 96.4487 688.215 98.4402C692.748 102.449 689.454 106.425 663.857 149.05Z" fill="#F95500"/>
<path d="M609.355 178.091C597.79 196.487 584.395 210.387 574.411 203.598C564.102 199.447 569.124 183.401 580.689 165.005C596.227 147.092 619.449 123.143 624.736 124.313C629.892 127.549 627.322 131.993 609.355 178.091Z" fill="#F95500"/>
<path d="M705.558 87.7323C666.182 139.223 676.797 127.377 668.574 120.046C661.834 115.323 646.137 129.228 696.701 81.5258C729.888 41.5532 731.463 47.0465 733.909 48.7604C736.355 50.4743 740.996 46.9148 705.558 87.7323Z" fill="#F95500"/>
<path d="M739.565 53.8812C735.435 55.5716 730.208 53.5739 728.23 50.0283C726.251 46.4827 727.996 42.2381 732.127 40.5477C736.257 38.8573 741.583 40.2082 743.561 43.7538C745.539 47.2994 743.696 52.1908 739.565 53.8812Z" fill="#F95500"/>
<rect x="1496" width="748.31" height="245.48" fill="white"/>
<path d="M1599.65 140.844C1628.97 84.5829 1620.7 97.7304 1630.12 103.93C1637.61 107.736 1650.51 91.8799 1609.49 145.845C1584.15 189.864 1581.59 184.618 1578.88 183.237C1576.16 181.856 1572.24 185.996 1599.65 140.844Z" fill="#00544B"/>
<path d="M1576.89 174.572C1580.65 172.354 1586.15 173.653 1588.75 176.913C1591.34 180.173 1590.4 184.615 1586.64 186.833C1582.89 189.052 1577.41 188.408 1574.81 185.147C1572.22 181.887 1573.14 176.791 1576.89 174.572Z" fill="#00544B"/>
<path d="M1581.23 94.278C1595.78 78.0769 1611.36 66.6106 1620.05 74.9633C1629.5 80.7708 1621.8 95.7459 1607.26 111.947C1588.87 127.011 1561.88 146.743 1556.87 144.71C1552.34 140.662 1555.63 136.711 1581.23 94.278Z" fill="#00544B"/>
<path d="M1635.72 65.6692C1647.29 47.3603 1660.68 33.5639 1670.66 40.4376C1680.96 44.6749 1675.94 60.6864 1664.37 78.9953C1648.83 96.7888 1625.61 120.559 1620.33 119.345C1615.18 116.065 1617.75 111.64 1635.72 65.6692Z" fill="#00544B"/>
<path d="M1539.53 155.28C1578.91 104.09 1568.29 115.855 1576.51 123.255C1583.24 128.036 1598.94 114.253 1548.38 161.562C1515.2 201.28 1513.62 195.772 1511.18 194.037C1508.74 192.302 1504.1 195.825 1539.53 155.28Z" fill="#00544B"/>
<path d="M1505.53 188.867C1509.66 187.21 1514.88 189.251 1516.86 192.814C1518.84 196.378 1517.09 200.61 1512.96 202.267C1508.83 203.924 1503.51 202.529 1501.53 198.966C1499.56 195.403 1501.4 190.524 1505.53 188.867Z" fill="#00544B"/>
<path d="M1980.07 120.68C1931.81 77.9357 1942.7 89.2464 1951.42 82.2089C1957.22 76.3068 1944.87 59.9595 1987.7 112.923C2024.82 148.591 2018.9 149.512 2016.79 151.654C2014.68 153.796 2017.76 158.572 1980.07 120.68Z" fill="#00544B"/>
<path d="M2007.61 151.101C2006.41 147.005 2009.18 142.253 2013.13 140.747C2017.07 139.24 2021.25 141.339 2022.46 145.435C2023.66 149.531 2021.55 154.444 2017.6 155.951C2013.66 157.457 2008.82 155.197 2007.61 151.101Z" fill="#00544B"/>
<path d="M1928.67 124.921C1916.41 106.948 1909.15 89.3203 1919.82 83.5663C1928.15 76.3934 1941.02 87.6682 1953.28 105.641C1963.38 126.86 1975.82 157.356 1972.45 161.448C1967.2 164.536 1964.14 160.389 1928.67 124.921Z" fill="#00544B"/>
<path d="M1914.75 66.454C1899.59 50.6677 1889.41 34.43 1898.95 27.0655C1905.94 18.6708 1920.57 27.7526 1935.73 43.5388C1949.31 62.8689 1966.8 90.9787 1964.17 95.5488C1959.51 99.4266 1955.79 95.8206 1914.75 66.454Z" fill="#00544B"/>
<path d="M1978.34 180.46C1937.84 129.789 1946.73 142.887 1956.31 137.301C1962.89 132.368 1953.35 113.999 1986.99 173.977C2017.71 215.737 2011.79 215.677 2009.4 217.467C2007.02 219.257 2009.29 224.537 1978.34 180.46Z" fill="#00544B"/>
<path d="M2002.73 221.287C2002.19 216.997 2005.62 212.711 2009.71 211.86C2013.79 211.009 2017.55 213.796 2018.09 218.086C2018.64 222.376 2015.82 226.932 2011.73 227.783C2007.65 228.634 2003.28 225.577 2002.73 221.287Z" fill="#00544B"/>
<path d="M1757.49 113.007C1711.7 158.209 1723.76 148.053 1716.72 139.459C1710.76 133.697 1693.43 145.114 1749.66 105.435C1787.77 70.7531 1788.55 76.4771 1790.71 78.568C1792.87 80.659 1797.92 77.8338 1757.49 113.007Z" fill="#F95500"/>
<path d="M1789.87 87.3862C1785.58 88.4272 1780.73 85.619 1779.28 81.7745C1777.84 77.9299 1780.14 73.9694 1784.43 72.9284C1788.71 71.8874 1793.75 74.0658 1795.2 77.9104C1796.65 81.7549 1794.16 86.3452 1789.87 87.3862Z" fill="#F95500"/>
<path d="M1760.38 162.605C1741.37 173.88 1722.86 180.35 1717.2 169.918C1710 161.69 1722.08 149.627 1741.09 138.352C1763.41 129.255 1795.43 118.169 1799.58 121.536C1802.63 126.683 1798.24 129.506 1760.38 162.605Z" fill="#F95500"/>
<path d="M1699.29 174.294C1682.46 188.427 1665.3 197.741 1657.94 188.348C1649.43 181.372 1659.29 167.56 1676.12 153.427C1696.58 140.918 1726.27 124.911 1730.94 127.575C1734.82 132.169 1730.97 135.649 1699.29 174.294Z" fill="#F95500"/>
<path d="M1819.49 116.419C1765.7 153.925 1779.56 145.752 1774.04 136.359C1769.11 129.885 1749.77 138.53 1813.01 107.911C1857.26 79.5624 1857.02 85.2567 1858.81 87.6062C1860.6 89.9557 1866.14 87.9255 1819.49 116.419Z" fill="#F95500"/>
<path d="M1862.58 94.1427C1858.11 94.5423 1853.76 91.1071 1853 87.1499C1852.23 83.1928 1855.24 79.661 1859.7 79.2615C1864.17 78.862 1868.82 81.7099 1869.58 85.667C1870.35 89.6242 1867.04 93.7432 1862.58 94.1427Z" fill="#F95500"/>
<path d="M2141.42 102.654C2112.1 159.131 2120.38 145.921 2110.95 139.801C2103.45 136.059 2090.55 152.013 2131.57 97.7353C2156.91 53.5281 2159.47 58.7513 2162.19 60.1095C2164.91 61.4677 2168.82 57.297 2141.42 102.654Z" fill="#F95500"/>
<path d="M2164.17 68.7546C2160.42 71.0028 2154.91 69.7496 2152.32 66.5119C2149.72 63.2742 2150.66 58.827 2154.42 56.5789C2158.17 54.3307 2163.66 54.9294 2166.25 58.1671C2168.85 61.4048 2167.93 66.5065 2164.17 68.7546Z" fill="#F95500"/>
<path d="M2159.86 149.05C2145.31 165.363 2129.72 176.952 2121.03 168.674C2111.57 162.946 2119.27 147.915 2133.82 131.601C2152.2 116.394 2179.2 96.4487 2184.21 98.4402C2188.75 102.449 2185.45 106.425 2159.86 149.05Z" fill="#F95500"/>
<path d="M2105.35 178.091C2093.79 196.487 2080.4 210.387 2070.41 203.598C2060.1 199.447 2065.12 183.401 2076.69 165.005C2092.23 147.092 2115.45 123.143 2120.74 124.313C2125.89 127.549 2123.32 131.993 2105.35 178.091Z" fill="#F95500"/>
<path d="M2201.56 87.7323C2162.18 139.223 2172.8 127.377 2164.57 120.046C2157.83 115.323 2142.14 129.228 2192.7 81.5258C2225.89 41.5532 2227.46 47.0465 2229.91 48.7604C2232.35 50.4743 2237 46.9148 2201.56 87.7323Z" fill="#F95500"/>
<path d="M2235.57 53.8812C2231.44 55.5716 2226.21 53.5739 2224.23 50.0283C2222.25 46.4827 2224 42.2381 2228.13 40.5477C2232.26 38.8573 2237.58 40.2082 2239.56 43.7538C2241.54 47.2994 2239.7 52.1908 2235.57 53.8812Z" fill="#F95500"/>
<rect x="748" width="748.31" height="245.48" fill="white"/>
<path d="M851.646 140.844C880.973 84.5829 872.695 97.7304 882.12 103.93C889.61 107.736 902.509 91.8799 861.489 145.845C836.146 189.864 833.595 184.618 830.877 183.237C828.158 181.856 824.244 185.996 851.646 140.844Z" fill="#00544B"/>
<path d="M828.894 174.572C832.648 172.354 838.153 173.653 840.745 176.913C843.338 180.173 842.396 184.615 838.643 186.833C834.889 189.052 829.405 188.408 826.813 185.147C824.221 181.887 825.141 176.791 828.894 174.572Z" fill="#00544B"/>
<path d="M833.233 94.278C847.78 78.0769 863.364 66.6106 872.046 74.9633C881.5 80.7708 873.804 95.7459 859.256 111.947C840.874 127.011 813.883 146.743 808.871 144.71C804.341 140.662 807.634 136.711 833.233 94.278Z" fill="#00544B"/>
<path d="M887.721 65.6692C899.286 47.3603 912.679 33.5639 922.656 40.4376C932.96 44.6749 927.935 60.6864 916.37 78.9953C900.834 96.7888 877.615 120.559 872.33 119.345C867.177 116.065 869.747 111.64 887.721 65.6692Z" fill="#00544B"/>
<path d="M791.531 155.28C830.905 104.09 820.291 115.855 828.508 123.255C835.244 128.036 850.938 114.253 800.382 161.562C767.197 201.28 765.625 195.772 763.18 194.037C760.736 192.302 756.096 195.825 791.531 155.28Z" fill="#00544B"/>
<path d="M757.53 188.867C761.659 187.21 766.884 189.251 768.86 192.814C770.836 196.378 769.091 200.61 764.962 202.267C760.832 203.924 755.509 202.529 753.533 198.966C751.557 195.403 753.401 190.524 757.53 188.867Z" fill="#00544B"/>
<path d="M1232.07 120.68C1183.81 77.9357 1194.7 89.2464 1203.42 82.2089C1209.22 76.3068 1196.87 59.9595 1239.7 112.923C1276.82 148.591 1270.9 149.512 1268.79 151.654C1266.68 153.796 1269.76 158.572 1232.07 120.68Z" fill="#00544B"/>
<path d="M1259.61 151.101C1258.41 147.005 1261.18 142.253 1265.13 140.747C1269.07 139.24 1273.25 141.339 1274.46 145.435C1275.66 149.531 1273.55 154.444 1269.6 155.951C1265.66 157.457 1260.82 155.197 1259.61 151.101Z" fill="#00544B"/>
<path d="M1180.67 124.921C1168.41 106.948 1161.15 89.3203 1171.82 83.5663C1180.15 76.3934 1193.02 87.6682 1205.28 105.641C1215.38 126.86 1227.82 157.356 1224.45 161.448C1219.2 164.536 1216.14 160.389 1180.67 124.921Z" fill="#00544B"/>
<path d="M1166.75 66.454C1151.59 50.6677 1141.41 34.43 1150.95 27.0655C1157.94 18.6708 1172.57 27.7526 1187.73 43.5388C1201.31 62.8689 1218.8 90.9787 1216.17 95.5488C1211.51 99.4266 1207.79 95.8206 1166.75 66.454Z" fill="#00544B"/>
<path d="M1230.34 180.46C1189.84 129.789 1198.73 142.887 1208.31 137.301C1214.89 132.368 1205.35 113.999 1238.99 173.977C1269.71 215.737 1263.79 215.677 1261.4 217.467C1259.02 219.257 1261.29 224.537 1230.34 180.46Z" fill="#00544B"/>
<path d="M1254.73 221.287C1254.19 216.997 1257.62 212.711 1261.71 211.86C1265.79 211.009 1269.55 213.796 1270.09 218.086C1270.64 222.376 1267.82 226.932 1263.73 227.783C1259.65 228.634 1255.28 225.577 1254.73 221.287Z" fill="#00544B"/>
<path d="M1009.49 113.007C963.705 158.209 975.764 148.053 968.715 139.459C962.759 133.697 945.429 145.114 1001.66 105.435C1039.77 70.7531 1040.55 76.4771 1042.71 78.568C1044.87 80.659 1049.92 77.8338 1009.49 113.007Z" fill="#F95500"/>
<path d="M1041.87 87.3862C1037.58 88.4272 1032.73 85.619 1031.28 81.7745C1029.84 77.9299 1032.14 73.9694 1036.43 72.9284C1040.71 71.8874 1045.75 74.0658 1047.2 77.9104C1048.65 81.7549 1046.16 86.3452 1041.87 87.3862Z" fill="#F95500"/>
<path d="M1012.38 162.605C993.367 173.88 974.858 180.35 969.198 169.918C961.997 161.69 974.077 149.627 993.092 138.352C1015.41 129.255 1047.43 118.169 1051.58 121.536C1054.63 126.683 1050.24 129.506 1012.38 162.605Z" fill="#F95500"/>
<path d="M951.287 174.294C934.457 188.427 917.304 197.741 909.94 188.348C901.432 181.372 911.287 167.56 928.117 153.427C948.579 140.918 978.269 124.911 982.935 127.575C986.824 132.169 982.972 135.649 951.287 174.294Z" fill="#F95500"/>
<path d="M1071.49 116.419C1017.7 153.925 1031.56 145.752 1026.04 136.359C1021.11 129.885 1001.77 138.53 1065.01 107.911C1109.26 79.5624 1109.02 85.2567 1110.81 87.6062C1112.6 89.9557 1118.14 87.9255 1071.49 116.419Z" fill="#F95500"/>
<path d="M1114.58 94.1427C1110.11 94.5423 1105.76 91.1071 1105 87.1499C1104.23 83.1928 1107.24 79.661 1111.7 79.2615C1116.17 78.862 1120.82 81.7099 1121.58 85.667C1122.35 89.6242 1119.04 93.7432 1114.58 94.1427Z" fill="#F95500"/>
<path d="M1393.42 102.654C1364.1 159.131 1372.38 145.921 1362.95 139.801C1355.45 136.059 1342.55 152.013 1383.57 97.7353C1408.91 53.5281 1411.47 58.7513 1414.19 60.1095C1416.91 61.4677 1420.82 57.297 1393.42 102.654Z" fill="#F95500"/>
<path d="M1416.17 68.7546C1412.42 71.0028 1406.91 69.7496 1404.32 66.5119C1401.72 63.2742 1402.66 58.827 1406.42 56.5789C1410.17 54.3307 1415.66 54.9294 1418.25 58.1671C1420.85 61.4048 1419.93 66.5065 1416.17 68.7546Z" fill="#F95500"/>
<path d="M1411.86 149.05C1397.31 165.363 1381.72 176.952 1373.03 168.674C1363.57 162.946 1371.27 147.915 1385.82 131.601C1404.2 116.394 1431.2 96.4487 1436.21 98.4402C1440.75 102.449 1437.45 106.425 1411.86 149.05Z" fill="#F95500"/>
<path d="M1357.35 178.091C1345.79 196.487 1332.4 210.387 1322.41 203.598C1312.1 199.447 1317.12 183.401 1328.69 165.005C1344.23 147.092 1367.45 123.143 1372.74 124.313C1377.89 127.549 1375.32 131.993 1357.35 178.091Z" fill="#F95500"/>
<path d="M1453.56 87.7323C1414.18 139.223 1424.8 127.377 1416.57 120.046C1409.83 115.323 1394.14 129.228 1444.7 81.5258C1477.89 41.5532 1479.46 47.0465 1481.91 48.7604C1484.35 50.4743 1489 46.9148 1453.56 87.7323Z" fill="#F95500"/>
<path d="M1487.57 53.8812C1483.44 55.5716 1478.21 53.5739 1476.23 50.0283C1474.25 46.4827 1476 42.2381 1480.13 40.5477C1484.26 38.8573 1489.58 40.2082 1491.56 43.7538C1493.54 47.2994 1491.7 52.1908 1487.57 53.8812Z" fill="#F95500"/>
</svg>
