<svg width="748" height="259" viewBox="0 0 748 259" fill="none" xmlns="http://www.w3.org/2000/svg">
<g clip-path="url(#clip0_274_15578)">
<rect y="-2" width="747" height="259" fill="white"/>
<path d="M88.7504 148.354C110.055 85.9109 103.764 100.668 113.078 106.084C120.366 109.211 130.639 91.0769 98.3276 152.464C79.4499 201.596 76.5662 196.385 73.9215 195.251C71.2768 194.116 68.0905 198.914 88.7504 148.354Z" fill="#00544B"/>
<path d="M71.2137 186.382C74.4466 183.62 79.651 184.346 82.3707 187.468C85.0904 190.589 84.6743 195.36 81.4414 198.123C78.2084 200.885 73.0902 200.844 70.3705 197.722C67.6507 194.6 67.9807 189.145 71.2137 186.382Z" fill="#00544B"/>
<path d="M67.0526 101.609C78.8105 82.9212 92.0032 69.0833 100.851 76.8451C110.152 81.8462 104.583 98.4539 92.825 117.141C77.4186 135.079 54.5553 158.913 49.7305 157.359C45.1456 153.635 47.7785 149.107 67.0526 101.609Z" fill="#00544B"/>
<path d="M114.349 65.2777C123.145 44.7231 134.083 28.6931 143.974 34.7526C153.898 38.0074 150.895 55.3938 142.1 75.9484C129.593 96.4216 110.615 124.056 105.622 123.394C100.542 120.548 102.46 115.607 114.349 65.2777Z" fill="#00544B"/>
<path d="M34.8286 170.462C65.906 112.178 57.3215 125.754 65.6449 132.57C72.3365 136.808 85.3959 120.526 43.6224 176.03C17.0823 221.557 15.0736 215.957 12.6453 214.42C10.217 212.882 6.29945 217.116 34.8286 170.462Z" fill="#00544B"/>
<path d="M6.91329 209.647C10.5494 207.43 15.5705 208.967 17.7533 212.479C19.936 215.99 18.7579 220.634 15.1219 222.851C11.4858 225.068 6.43949 224.22 4.25671 220.709C2.07393 217.198 3.27722 211.864 6.91329 209.647Z" fill="#00544B"/>
<path d="M456.048 122.574C411.313 77.4407 421.413 89.3838 429.489 81.9529C434.871 75.7207 423.416 58.4594 463.12 114.384C497.525 152.047 492.039 153.019 490.086 155.28C488.133 157.542 490.989 162.585 456.048 122.574Z" fill="#00544B"/>
<path d="M481.579 154.695C480.461 150.37 483.031 145.353 486.69 143.762C490.35 142.171 494.223 144.388 495.341 148.713C496.459 153.038 494.5 158.225 490.84 159.816C487.181 161.407 482.697 159.02 481.579 154.695Z" fill="#00544B"/>
<path d="M408.407 127.052C397.042 108.074 390.313 89.4605 400.196 83.3848C407.918 75.8109 419.852 87.7161 431.217 106.694C440.576 129.099 452.113 161.301 448.986 165.621C444.117 168.881 441.282 164.502 408.407 127.052Z" fill="#00544B"/>
<path d="M395.499 65.3157C381.444 48.6468 372.016 31.5013 380.853 23.725C387.334 14.861 400.891 24.4505 414.946 41.1194C427.538 61.5302 443.745 91.2116 441.309 96.0372C436.995 100.132 433.542 96.3242 395.499 65.3157Z" fill="#00544B"/>
<path d="M454.449 185.696C416.902 132.193 425.142 146.023 434.029 140.125C440.124 134.916 431.281 115.52 462.459 178.851C490.937 222.946 485.452 222.883 483.24 224.773C481.028 226.663 483.132 232.238 454.449 185.696Z" fill="#00544B"/>
<path d="M477.054 228.805C476.549 224.275 479.736 219.749 483.522 218.851C487.309 217.952 490.788 220.896 491.294 225.425C491.8 229.955 489.186 234.766 485.4 235.664C481.613 236.563 477.56 233.334 477.054 228.805Z" fill="#00544B"/>
<path d="M262.152 113.197C219.715 160.926 230.893 150.202 224.359 141.128C218.838 135.044 202.774 147.099 254.897 105.202C290.223 68.5803 290.948 74.6243 292.951 76.8321C294.955 79.04 299.634 76.0568 262.152 113.197Z" fill="#F95500"/>
<path d="M292.17 86.1431C288.196 87.2423 283.699 84.2771 282.357 80.2176C281.015 76.1581 283.148 71.9761 287.122 70.8769C291.096 69.7777 295.765 72.078 297.107 76.1375C298.449 80.197 296.143 85.0439 292.17 86.1431Z" fill="#F95500"/>
<path d="M264.836 165.569C247.21 177.474 230.052 184.306 224.806 173.291C218.131 164.602 229.329 151.865 246.955 139.96C267.644 130.354 297.324 118.649 301.169 122.204C303.997 127.639 299.924 130.619 264.836 165.569Z" fill="#F95500"/>
<path d="M208.204 177.907C192.603 192.831 176.704 202.666 169.877 192.747C161.991 185.381 171.126 170.797 186.727 155.874C205.694 142.665 233.215 125.764 237.54 128.577C241.145 133.427 237.574 137.102 208.204 177.907Z" fill="#F95500"/>
<path d="M319.621 116.799C269.768 156.402 282.612 147.773 277.498 137.854C272.931 131.018 254.997 140.146 313.619 107.815C354.633 77.8821 354.414 83.8947 356.072 86.3756C357.729 88.8564 362.87 86.7128 319.621 116.799Z" fill="#F95500"/>
<path d="M359.564 93.277C355.422 93.6988 351.391 90.0716 350.683 85.8932C349.976 81.7148 352.76 77.9856 356.902 77.5637C361.044 77.1419 365.351 80.149 366.059 84.3274C366.767 88.5058 363.706 92.8552 359.564 93.277Z" fill="#F95500"/>
<path d="M623.651 105.817C596.47 165.451 604.143 151.503 595.401 145.041C588.454 141.089 576.497 157.936 614.522 100.623C638.011 53.9445 640.379 59.4597 642.9 60.8938C645.421 62.328 649.05 57.9241 623.651 105.817Z" fill="#F95500"/>
<path d="M644.74 70.0239C641.26 72.3978 636.154 71.0746 633.749 67.6558C631.344 64.2371 632.216 59.5413 635.696 57.1674C639.176 54.7936 644.262 55.4257 646.667 58.8445C649.072 62.2632 648.22 67.6501 644.74 70.0239Z" fill="#F95500"/>
<path d="M640.739 154.81C627.253 172.035 612.805 184.272 604.751 175.531C595.982 169.483 603.115 153.611 616.601 136.386C633.644 120.328 658.668 99.2678 663.317 101.371C667.519 105.603 664.466 109.802 640.739 154.81Z" fill="#F95500"/>
<path d="M590.219 185.473C579.5 204.898 567.083 219.575 557.829 212.406C548.272 208.023 552.928 191.08 563.648 171.656C578.051 152.742 599.576 127.453 604.477 128.688C609.256 132.105 606.874 136.797 590.219 185.473Z" fill="#F95500"/>
<path d="M679.394 90.0618C642.894 144.431 652.734 131.923 645.112 124.182C638.864 119.196 624.314 133.878 671.184 83.5083C701.947 41.3009 703.407 47.1013 705.674 48.911C707.941 50.7207 712.244 46.9623 679.394 90.0618Z" fill="#F95500"/>
<path d="M710.916 54.3181C707.087 56.103 702.242 53.9935 700.408 50.2497C698.575 46.5059 700.192 42.024 704.021 40.2391C707.849 38.4542 712.786 39.8807 714.62 43.6245C716.453 47.3683 714.745 52.5332 710.916 54.3181Z" fill="#F95500"/>
</g>
<defs>
<clipPath id="clip0_274_15578">
<rect width="748" height="259" fill="white"/>
</clipPath>
</defs>
</svg>
