<svg width="125" height="125" viewBox="0 0 125 125" fill="none" xmlns="http://www.w3.org/2000/svg">
<circle cx="62.4693" cy="62.4693" r="62.4693" fill="#003D37"/>
<path d="M11.9794 71.2887C9.82369 71.2887 7.98265 70.7852 7.10147 70.2187V67.166C7.80956 67.701 9.25722 68.2675 10.815 68.2675C13.1753 68.2675 14.623 67.2132 14.623 64.8057V64.6798C13.8519 66.694 12.4672 67.3549 10.7521 67.3549C7.93545 67.3549 6.33044 65.4981 6.33044 62.9332C6.33044 60.2425 7.99839 58.2598 10.8465 58.2598C12.7033 58.2598 13.9149 59.0781 14.623 60.9348V58.6847H19.5167V65.3093C19.5167 69.1644 16.7 71.2887 11.9794 71.2887ZM13.018 64.4595C14.0093 64.4595 14.623 63.8459 14.623 62.949C14.623 62.0363 14.025 61.4384 13.0337 61.4384C12.0581 61.4384 11.4287 62.052 11.4287 62.9647C11.4287 63.8616 12.0581 64.4595 13.018 64.4595ZM20.8757 68V58.6847H25.675V61.7216C26.1156 59.4242 27.0911 58.4329 28.822 58.4329C29.5144 58.4329 30.0966 58.6375 30.3798 58.7791V63.0119C30.0809 62.8388 29.4829 62.65 28.6804 62.65C26.8551 62.65 25.7851 63.5626 25.7851 65.8757V68H20.8757ZM31.2481 68V59.8019H36.1575V68H31.2481ZM33.7343 59.3613C32.1608 59.3613 31.0593 58.6375 31.0593 57.6304C31.0593 56.6391 32.1608 55.9153 33.7343 55.9153C35.2764 55.9153 36.3464 56.6391 36.3464 57.6304C36.3464 58.6375 35.2764 59.3613 33.7343 59.3613ZM37.2494 68V65.0575L42.1116 61.816H37.3596V58.6847H48.3743V61.7688L43.5908 64.8844H48.6733V68H37.2494ZM49.389 68V65.0575L54.2512 61.816H49.4991V58.6847H60.5139V61.7688L55.7303 64.8844H60.8129V68H49.389ZM61.8275 68V56.6705H66.737V68H61.8275ZM69.4968 70.7852L71.4794 67.1346L67.3725 58.6847H72.518L74.2017 63.0119L76.027 58.6847H81.1567L75.0199 70.7852H69.4968ZM86.9855 68.3462C82.6426 68.3462 80.5655 66.0488 80.5655 63.2479C80.5655 60.4313 82.7685 58.2598 87.0485 58.2598C88.9839 58.2598 90.3372 58.6532 91.3127 59.1882V62.3825C90.6991 62.0363 89.7235 61.7216 88.622 61.7216C86.7495 61.7216 85.7424 62.3825 85.7424 63.2951C85.7424 64.1606 86.6079 64.9001 88.6063 64.9001C89.6763 64.9001 90.6519 64.6012 91.3285 64.2865V67.3863C90.1641 68 88.6535 68.3462 86.9855 68.3462ZM96.2749 68.3304C93.7415 68.3304 92.4512 66.8985 92.4512 64.3651V58.6847H97.3607V63.2794C97.3607 64.3966 97.7068 64.9945 98.6667 64.9945C99.6265 64.9945 100.067 64.3966 100.067 63.2479V58.6847H104.961V68H100.067V65.8443C99.5007 67.4335 98.2261 68.3304 96.2749 68.3304ZM111.647 68.3147C109.601 68.3147 107.619 67.8269 106.124 66.9615V64.0347C107.162 64.8687 109.412 65.4666 111.049 65.4666C111.647 65.4666 111.914 65.2935 111.914 65.0732C111.914 64.8529 111.788 64.6798 111.049 64.5382L109.491 64.2235C107.036 63.7515 106.234 62.8545 106.234 61.4541C106.234 59.4872 108.374 58.2441 111.71 58.2441C113.771 58.2441 115.502 58.7004 116.478 59.2354V61.9891C115.455 61.4856 114.007 61.1079 112.591 61.1079C111.584 61.1079 111.269 61.281 111.269 61.5328C111.269 61.7688 111.505 61.8789 112.15 61.9734L113.614 62.1779C115.832 62.4454 117.013 63.1692 117.013 65.1047C117.013 67.0087 115.203 68.3147 111.647 68.3147Z" fill="white"/>
</svg>
