<svg width="601" height="597" viewBox="0 0 601 597" fill="none" xmlns="http://www.w3.org/2000/svg">
<path d="M358.696 7.64448C342.037 -0.684763 271.933 -1.37859 240.004 7.64448L289.979 242.946H312.191L358.696 7.64448Z" fill="#CB4500"/>
<path d="M467.63 54.4213C455.73 40.0935 391.83 11.2523 358.969 6.66655L310.049 242.19L330.383 251.126L467.63 54.4213Z" fill="white"/>
<path d="M552.442 143.692C547.115 125.845 496.227 70.8547 467.797 53.7488L330.428 251.218L345.628 267.413L552.442 143.692Z" fill="#003D37"/>
<path d="M578.727 394.956C588.926 379.373 598.921 302.224 593.651 269.466L354.149 291.894L351.58 313.956L578.727 394.956Z" fill="white"/>
<path d="M516.951 496.99C532.785 487.184 569.647 424.094 578.727 392.182L349.672 313.748L338.567 330.406L516.951 496.99Z" fill="#003D37"/>
<path d="M419.778 565.014C438.206 562.314 495.929 521.965 516.953 496.297L341.344 333.183L322.604 347.065L419.778 565.014Z" fill="#CB4500"/>
<path d="M304.555 589.307C322.597 593.93 391.168 579.882 420.471 564.319L322.739 344.584L300.091 350.156L304.555 589.307Z" fill="white"/>
<path d="M189.04 570.08C204.069 581.082 272.945 593.542 305.934 589.993L299.696 350.534L280.261 347.064L189.04 570.08Z" fill="#003D37"/>
<path d="M90.7708 501.154C99.7647 517.464 157.921 559.19 189.334 569.871L280.955 347.063L258.05 337.346L90.7708 501.154Z" fill="#CB4500"/>
<path d="M22.75 390.099C24.4388 408.647 65.597 479.454 90.078 501.849L259.439 335.959L244.863 313.747L22.75 390.099Z" fill="white"/>
<path d="M9.56134 258.912C2.74268 276.244 10.2234 361.714 22.0432 392.716L245.557 313.747L243.474 288.065L9.56134 258.912Z" fill="#003D37"/>
<path d="M49.1256 143.69C35.3435 156.217 12.7603 227.322 9.6464 260.355L249.027 288.758L254.528 264.452L49.1256 143.69Z" fill="#CB4500"/>
<path d="M133.897 53.8253C116.116 59.3693 65.6449 114.31 48.8866 142.946L253.942 269.683L269.182 249.966L133.897 53.8253Z" fill="white"/>
<path d="M240.002 8.33816C221.506 6.14994 159.394 35.5295 132.416 54.843L269.154 250.58L290.427 243.231L240.002 8.33816Z" fill="#003D37"/>
<path d="M593.302 268.627C595.89 250.183 571.308 170.376 552.582 142.986L345.465 265.324L352.448 291.533L593.302 268.627Z" fill="#CB4500"/>
<circle cx="327.055" cy="37.4251" r="11.4017" fill="#00544B"/>
<circle cx="223.671" cy="42.8802" r="11.4017" fill="#00544B"/>
<circle cx="171.213" cy="61.8724" r="11.4017" fill="#00544B"/>
<circle cx="126.896" cy="92.6224" r="11.4017" fill="#00544B"/>
<circle cx="84.387" cy="133.324" r="11.4017" fill="#00544B"/>
<circle cx="59.9661" cy="183.068" r="11.4017" fill="#00544B"/>
<circle cx="40.972" cy="231.908" r="11.4017" fill="#00544B"/>
<circle cx="31.0237" cy="297.933" r="11.4017" fill="#00544B"/>
<circle cx="40.972" cy="356.722" r="11.4017" fill="#00544B"/>
<circle cx="59.9661" cy="419.13" r="11.4017" fill="#00544B"/>
<circle cx="131.418" cy="502.337" r="11.4017" fill="#00544B"/>
<circle cx="225.479" cy="554.796" r="11.4017" fill="#00544B"/>
<circle cx="280.65" cy="563.839" r="11.4017" fill="#00544B"/>
<circle cx="335.823" cy="563.839" r="11.4017" fill="#00544B"/>
<circle cx="387.375" cy="551.177" r="11.4017" fill="#00544B"/>
<circle cx="432.597" cy="532.183" r="11.4017" fill="#00544B"/>
<circle cx="514.903" cy="458.925" r="11.4017" fill="#00544B"/>
<circle cx="561.933" cy="356.722" r="11.4017" fill="#00544B"/>
<circle cx="568.265" cy="298.833" r="11.4017" fill="#00544B"/>
<circle cx="561.933" cy="240.046" r="11.4017" fill="#00544B"/>
<circle cx="545.654" cy="183.068" r="11.4017" fill="#00544B"/>
<circle cx="510.379" cy="132.417" r="11.4017" fill="#00544B"/>
<circle cx="476.01" cy="94.431" r="11.4017" fill="#00544B"/>
<circle cx="428.074" cy="61.8724" r="11.4017" fill="#00544B"/>
<circle cx="377.427" cy="43.7845" r="11.4017" fill="#00544B"/>
<circle cx="475.699" cy="499.402" r="11.4017" fill="#00544B"/>
<circle cx="545.654" cy="408.275" r="11.4017" fill="#00544B"/>
<circle cx="174.83" cy="533.993" r="11.4017" fill="#00544B"/>
<circle cx="90.7171" cy="460.734" r="11.4017" fill="#00544B"/>
<circle cx="271.313" cy="37.4251" r="11.4017" fill="#00544B"/>
<path d="M226.127 319.509L223.062 311.338L213.398 312.488L211.77 324.998L204.591 327.11L211.77 285.304L219.99 286.223L233.753 317.239L226.127 319.509ZM215.97 293.626L214.151 306.424L220.887 305.623L216.134 293.606L215.97 293.626Z" fill="#CB4500"/>
<path d="M187.907 305.462L203.324 327.532L195.301 330.488L181.919 311.158L181.756 311.178L185.166 334.289L177.142 337.245L170.386 280.237L179.254 281.081L180.824 303.357L180.988 303.337L189.389 282.348L197.412 283.193L187.907 305.462Z" fill="#CB4500"/>
<path d="M144.205 278.123L156.873 279.485C163.22 278.729 168.541 286.795 170.116 300.024C171.681 313.168 168.177 322.285 161.605 323.067L156.773 323.642L158.985 343.577L151.384 346.533L144.205 278.123ZM153.018 292.105L155.37 311.864L158.626 311.476C161.82 311.096 163.292 307.415 162.525 300.971C161.763 294.57 159.468 291.338 156.315 291.713L153.018 292.105Z" fill="#CB4500"/>
<path d="M137.871 351.181L132.529 305.11L132.274 305.14L122.247 356.671L115.068 359.205L103.244 272.215L115.49 273.904L119.526 322.872L119.781 322.842L129.848 275.593L138.608 276.583L146.739 347.803L137.871 351.181Z" fill="#CB4500"/>
<path d="M109.577 360.891L99.0202 364.691L96.5627 345.979L58.3896 350.523L48.3463 265.877L61.8593 267.143L68.8201 333.996L87.5736 331.764L80.0176 269.255L92.6858 270.944L99.765 330.312L105.761 329.598L109.577 360.891Z" fill="#CB4500"/>
<path d="M272.91 363.519L265.734 361.296L260.574 368.956L267.697 376.959L264.679 383.334L241.939 355.325L247.559 349.844L276.097 356.733L272.91 363.519ZM249.906 356.804L257.099 365.103L260.696 359.764L249.994 356.674L249.906 356.804Z" fill="white"/>
<path d="M240.434 383.676L264.178 384.485L261.193 391.935L240.471 391.138L240.383 391.267L257.465 401.382L254.479 408.831L213.357 382.678L219.325 376.685L234.739 387.682L234.827 387.553L226.341 370L231.793 364.622L240.434 383.676Z" fill="white"/>
<path d="M195.985 400.58L204.611 392.104C208 387.073 216.486 387.597 226.033 393.661C235.518 399.686 239.293 407.204 235.783 412.414L233.203 416.243L247.491 425.498L244.764 432.64L195.985 400.58ZM210.444 401.787L224.703 410.844L226.441 408.264C228.147 405.733 226.658 402.655 222.008 399.701C217.388 396.767 213.888 396.675 212.204 399.175L210.444 401.787Z" fill="white"/>
<path d="M239.519 445.006L206.358 423.784L206.222 423.986L233.532 459.368L230.788 465.972L167.113 427.166L175.694 419.175L209.936 442.927L210.073 442.725L185.565 409.647L191.562 403.813L242.747 436.711L239.519 445.006Z" fill="white"/>
<path d="M228.529 470.886L224.543 480.639L210.899 472.229L190.516 502.485L129.45 463.659L138.531 454.516L186.166 485.887L196.18 471.023L151 442.453L159.838 434.155L202.689 461.36L205.891 456.608L228.529 470.886Z" fill="white"/>
<path d="M329.206 364.611L322.699 368.474L324.825 377.912L335.544 378.247L338.181 385.129L302.151 382.293L301.939 374.073L326.383 357.303L329.206 364.611ZM308.649 377.292L319.634 377.786L318.152 371.208L308.613 377.132L308.649 377.292Z" fill="#003D37"/>
<path d="M321.967 403.833L338.687 386.339L342.135 393.971L327.477 409.172L327.513 409.332L346.546 403.604L349.994 411.235L302.845 423.727L302.493 414.873L321.044 411.049L321.008 410.89L302.344 404.723L302.094 396.705L321.967 403.833Z" fill="#003D37"/>
<path d="M304.206 449.831L303.834 437.167C302.437 430.969 308.586 424.886 319.526 421.98C330.396 419.093 338.485 421.628 339.931 428.046L340.994 432.765L357.499 428.545L360.897 435.759L304.206 449.831ZM314.913 439.692L331.253 435.352L330.537 432.173C329.835 429.054 326.561 427.973 321.232 429.389C315.938 430.795 313.494 433.393 314.188 436.473L314.913 439.692Z" fill="#003D37"/>
<path d="M366.423 448.641L328.305 458.62L328.361 458.87L372.913 463.53L375.905 470.369L304.14 490.928L304.093 478.648L344.805 469.666L344.749 469.417L303.794 464.28L303.578 455.518L362.518 440.218L366.423 448.641Z" fill="#003D37"/>
<path d="M377.983 475.627L382.445 485.678L366.998 490.015L375.394 527.294L305.387 545.853L304.834 532.363L360.24 518.666L356.116 500.352L304.435 514.195L304.338 501.497L353.434 488.446L352.115 482.591L377.983 475.627Z" fill="#003D37"/>
<path d="M375.33 326.178L373.802 333.589L382.209 338.376L389.677 330.679L396.54 333.367L370.172 358.085L363.954 352.703L368.027 323.341L375.33 326.178ZM370.853 349.913L378.618 342.128L372.759 338.791L370.711 349.832L370.853 349.913Z" fill="#CB4500"/>
<path d="M399.44 357.95L397.775 333.808L405.738 336.401L407.097 357.474L407.24 357.555L415.829 339.63L423.791 342.223L401.261 385.483L394.481 379.779L404.152 363.493L404.01 363.412L386.88 373.052L380.784 367.835L399.44 357.95Z" fill="#CB4500"/>
<path d="M421.467 402.064L411.857 393.808C406.336 390.664 405.982 382.023 411.205 371.98C416.394 362.001 423.716 357.731 429.434 360.986L433.637 363.379L441.637 348.338L449.257 350.687L421.467 402.064ZM421.187 387.321L428.987 372.321L426.155 370.709C423.377 369.127 420.373 370.818 417.829 375.71C415.302 380.569 415.576 384.126 418.319 385.688L421.187 387.321Z" fill="#CB4500"/>
<path d="M462.504 355.284L444.201 390.178L444.423 390.304L477.879 360.517L484.949 362.914L451.799 429.801L442.692 421.563L463.48 385.424L463.258 385.297L431.872 412.105L425.251 406.363L453.648 352.495L462.504 355.284Z" fill="#CB4500"/>
<path d="M490.234 364.913L500.668 368.386L493.467 382.724L526.674 401.632L493.23 465.872L482.888 457.194L510.09 407.019L493.776 397.73L469.192 445.25L459.742 436.768L483.17 391.692L477.954 388.722L490.234 364.913Z" fill="#CB4500"/>
<path d="M371.541 258.399L376.114 264.427L385.251 261.249L384.373 250.56L390.914 247.164L392.166 283.283L384.022 284.422L364.598 262.029L371.541 258.399ZM386.462 277.392L385.713 266.421L379.344 268.637L386.308 277.446L386.462 277.392Z" fill="white"/>
<path d="M411.329 261.164L392.059 246.527L399.253 242.239L416.012 255.086L416.167 255.032L408.326 236.767L415.519 232.479L433.256 277.916L424.499 279.266L418.604 261.265L418.449 261.319L414.431 280.56L406.492 281.715L411.329 261.164Z" fill="white"/>
<path d="M459.038 273.61L446.497 275.41C440.496 277.497 433.758 272.076 429.635 261.533C425.539 251.059 427.144 242.735 433.358 240.574L437.926 238.985L431.869 223.062L438.653 218.871L459.038 273.61ZM447.755 264.117L441.597 248.371L438.519 249.441C435.499 250.492 434.795 253.866 436.804 259.001C438.799 264.102 441.657 266.238 444.638 265.201L447.755 264.117Z" fill="white"/>
<path d="M450.832 211.925L465.053 248.672L465.294 248.588L464.892 203.795L471.35 200.05L499.883 269.033L487.687 270.467L474.164 231.029L473.922 231.113L473.445 272.387L464.763 273.591L442.904 216.756L450.832 211.925Z" fill="white"/>
<path d="M476.338 197.394L485.82 191.825L491.874 206.684L527.966 194.13L554.314 261.593L540.973 263.666L521.105 210.162L503.374 216.329L522.966 266.115L510.361 267.645L491.847 220.338L486.178 222.31L476.338 197.394Z" fill="white"/>
<path d="M317.874 219.645L325.417 220.245L329.127 211.31L320.565 204.851L322.383 197.709L350.174 220.815L345.603 227.651L315.963 227.243L317.874 219.645ZM341.981 221.151L333.294 214.408L330.708 220.636L341.918 221.302L341.981 221.151Z" fill="#003D37"/>
<path d="M346.415 191.789L322.666 196.428L324.253 188.206L344.996 184.249L345.059 184.097L326.209 177.792L327.796 169.57L373.512 186.574L368.691 194.009L351.333 186.427L351.27 186.578L362.955 202.384L358.533 209.078L346.415 191.789Z" fill="#003D37"/>
<path d="M387.463 164.473L380.46 175.031C378.023 180.899 369.492 182.319 358.88 178.38C348.336 174.465 343.192 167.727 345.715 161.651L347.57 157.184L331.654 151.106L333.042 143.254L387.463 164.473ZM372.868 166.576L357.018 160.691L355.768 163.701C354.542 166.654 356.592 169.425 361.761 171.344C366.896 173.25 370.392 172.538 371.603 169.623L372.868 166.576Z" fill="#003D37"/>
<path d="M335.964 129.537L372.854 143.382L372.952 143.146L339.254 113.632L340.757 106.32L411.232 130.939L404.184 140.996L365.751 124.839L365.653 125.075L396.138 152.903L391.259 160.183L334.292 138.669L335.964 129.537Z" fill="#003D37"/>
<path d="M342.093 100.832L344.248 90.0484L359.367 95.4195L374.02 60.128L441.905 85.3663L434.574 96.7029L381.418 75.9187L374.219 93.2565L424.416 111.772L417.168 122.198L369.539 104.528L367.238 110.071L342.093 100.832Z" fill="#003D37"/>
<path d="M257.547 225.864L262.98 221.026L259.22 212.774L249.026 214.589L245.257 208.787L279.837 204.257L281.563 211.77L261.572 232.021L257.547 225.864ZM274.624 210.14L264.15 211.862L266.771 217.613L274.688 210.28L274.624 210.14Z" fill="#CB4500"/>
<path d="M257.11 188.391L244.552 207.777L239.877 201.447L250.911 184.576L250.847 184.436L233.92 193.469L229.245 187.139L271.491 166.322L273.467 174.389L256.642 181.576L256.706 181.716L275.491 183.686L277.216 191.005L257.11 188.391Z" fill="#CB4500"/>
<path d="M265.359 142.605L268.061 154.169C270.531 159.588 265.849 166.396 256.047 171.232C246.309 176.038 238.193 175.311 235.636 169.699L233.755 165.573L218.938 172.72L214.388 166.764L265.359 142.605ZM257.121 154.043L242.482 161.267L243.749 164.046C244.992 166.774 248.286 167.118 253.06 164.762C257.803 162.422 259.631 159.55 258.404 156.857L257.121 154.043Z" fill="#CB4500"/>
<path d="M206.776 156.017L240.952 139.298L240.853 139.08L197.879 143.621L193.782 137.929L257.797 104.824L260.12 116.1L223.307 132.416L223.406 132.634L263.068 129.243L264.899 137.252L212.029 162.985L206.776 156.017Z" fill="#CB4500"/>
<path d="M190.842 133.508L184.76 125.156L198.555 118.111L183.702 85.5174L246.426 54.5984L249.452 66.8847L199.625 90.4446L206.923 106.457L253.201 83.5012L255.648 95.1501L211.666 116.867L213.999 121.986L190.842 133.508Z" fill="#CB4500"/>
<path d="M213.078 270.726L202.48 282.344L194.035 281.499L208.111 267.685C207.406 267.152 206.74 266.47 206.114 265.637C205.494 264.777 205.064 263.749 204.823 262.551C204.59 261.327 204.679 259.924 205.091 258.344C205.794 255.648 208.2 252.007 210.503 251.095C212.814 250.155 214.727 248.139 220.286 249.828L228.239 254.473L220.286 284.877L213.882 284.033L216.919 271.728L213.078 270.726ZM217.222 258.016C216.159 257.739 215.215 257.624 214.388 257.67C213.588 257.723 212.913 257.969 212.363 258.408C211.839 258.853 211.46 259.525 211.226 260.424C210.892 261.704 211.048 262.836 211.694 263.819C212.373 264.782 213.585 265.491 215.329 265.945L218.23 266.702L220.286 258.815L217.222 258.016Z" fill="white"/>
<path d="M173.083 279.385L173.083 247.814L172.92 247.771C172.805 248.323 172.633 249.151 172.403 250.255C172.174 251.359 171.923 252.544 171.65 253.811C171.385 255.052 171.121 256.176 170.858 257.183L166.164 278.541L159.83 277.696L172.498 220.266L180.521 224.911L178.918 266.442L179.04 266.474L198.258 236.312L204.17 239.691L192.346 281.497L186.434 280.652L190.822 262.127C191.064 261.201 191.354 260.142 191.694 258.951C192.061 257.766 192.397 256.646 192.701 255.591C193.04 254.516 193.294 253.709 193.463 253.171L193.299 253.129L178.41 279.808L173.083 279.385Z" fill="white"/>
<path d="M153.917 276.856L134.914 274.322L154.761 209.713L169.541 219.425L166.163 227.448L159.611 222.381L151.805 247.296L159.611 249.847L157.717 257.008L150.116 254.914L146.738 268.832L156.028 270.099L153.917 276.856Z" fill="white"/>
<path d="M137.01 199.195C142.072 202.48 143.612 207.378 145.045 211.717C146.532 216.004 146.436 221.366 144.758 227.802C144 230.711 143.007 233.426 141.779 235.948C140.568 238.408 139.059 240.526 137.253 242.302C135.501 244.026 133.461 245.213 131.135 245.862C128.808 246.511 126.158 246.448 123.185 245.673L119.469 244.704L112.533 271.786L103.243 270.941L123.09 190.285L137.01 199.195ZM131.547 214.543L127.602 213.514L122.471 233.193L125.329 233.939C126.968 234.366 128.467 234.393 129.826 234.021C131.185 233.648 132.382 232.804 133.418 231.487C134.453 230.171 135.277 228.337 135.89 225.985C136.745 222.706 136.822 220.148 136.12 218.313C135.434 216.415 133.91 215.159 131.547 214.543Z" fill="white"/>
<path d="M99.4421 175.93C104.509 178.886 107.684 181.253 110.596 183.531C113.853 186.91 113.773 190.723 114.59 194.312C115.479 197.835 115.233 202.245 113.853 207.54C113.028 210.701 111.943 213.498 110.596 215.933C109.249 218.367 107.718 220.246 106.003 221.572C104.339 222.91 102.547 223.582 100.628 223.588L100.474 224.181C102.176 225.216 103.586 226.639 104.702 228.449C105.819 230.259 106.463 232.622 106.635 235.536C106.806 238.451 106.315 242.121 105.161 246.546C103.821 251.683 101.846 255.895 99.2364 259.181C96.6983 262.402 93.6584 264.606 90.1167 265.792C86.5957 266.9 82.4832 268.648 78.3282 267.565L48.7684 264.188L82.9997 165.373L99.4421 175.93ZM89.7707 214.174C93.1563 215.057 95.7066 214.835 97.4218 213.51C99.1882 212.198 100.484 209.962 101.308 206.801C102.153 203.56 101.991 201.028 100.823 199.205C99.6553 197.381 97.4042 196.034 94.07 195.165L87.9144 193.56L82.9996 212.408L89.7707 214.174ZM79.2903 226.634L73.5409 248.683L81.1584 250.669C84.6466 251.579 87.351 251.187 89.2718 249.493C91.2132 247.72 92.6373 245.095 93.544 241.618C94.1004 239.484 94.2769 237.547 94.0735 235.806C93.9213 234.078 93.2405 232.592 92.0309 231.348C90.8212 230.105 88.9853 229.162 86.5231 228.52L79.2903 226.634Z" fill="white"/>
<path d="M235.419 340.402L237.838 355.94L231.89 361.995L229.937 342.37C229.081 342.586 228.132 342.677 227.09 342.644C226.032 342.589 224.961 342.28 223.876 341.717C222.776 341.132 221.738 340.185 220.765 338.874C219.103 336.636 217.771 332.481 218.503 330.114C219.217 327.724 218.843 324.971 223.642 321.694L232.244 318.403L250.966 343.646L246.296 348.11L238.606 338.035L235.419 340.402ZM228.106 329.212C227.225 329.866 226.543 330.531 226.061 331.204C225.602 331.861 225.371 332.541 225.368 333.245C225.387 333.932 225.674 334.648 226.228 335.394C227.017 336.456 227.997 337.043 229.168 337.156C230.344 337.229 231.655 336.728 233.102 335.653L235.508 333.866L230.648 327.323L228.106 329.212Z" fill="#003D37"/>
<path d="M217.122 377.009L192.509 357.235L192.374 357.336C192.732 357.771 193.27 358.424 193.986 359.294C194.703 360.164 195.47 361.102 196.287 362.108C197.088 363.092 197.799 364.002 198.42 364.838L212.13 381.874L207.504 386.283L170.667 340.438L179.313 337.092L210.686 364.354L210.787 364.278L199.31 330.406L205.647 327.913L230.832 363.315L226.471 367.394L214.778 352.371C214.207 351.603 213.563 350.713 212.847 349.702C212.154 348.674 211.491 347.711 210.859 346.812C210.233 345.875 209.763 345.172 209.45 344.703L209.314 344.804L220.787 373.12L217.122 377.009Z" fill="#003D37"/>
<path d="M203.145 390.36L189.268 403.588L151.33 347.65L168.159 342.211L172.297 349.869L164.243 351.803L178.778 373.493L185.655 369.006L190.052 374.967L183.659 379.581L192.393 390.931L199.199 384.482L203.145 390.36Z" fill="#003D37"/>
<path d="M132.015 354.902C137.746 353.013 142.529 354.881 146.809 356.481C151.083 358.007 155.203 361.44 159.169 366.779C160.962 369.192 162.456 371.667 163.654 374.203C164.813 376.688 165.519 379.191 165.772 381.712C166.019 384.157 165.667 386.49 164.716 388.711C163.764 390.931 162.056 392.957 159.589 394.789L156.507 397.079L173.274 419.449L166.797 426.162L116.351 360.174L132.015 354.902ZM140.558 368.773L137.285 371.205L149.413 387.53L151.784 385.769C153.144 384.759 154.104 383.607 154.665 382.314C155.225 381.022 155.317 379.559 154.939 377.928C154.561 376.297 153.648 374.505 152.199 372.555C150.177 369.834 148.231 368.172 146.361 367.57C144.453 366.916 142.518 367.317 140.558 368.773Z" fill="#003D37"/>
<path d="M90.3467 369.614C95.8249 367.515 99.6578 366.523 103.258 365.68C107.931 365.257 110.854 367.707 114.164 369.318C117.467 370.831 120.751 373.785 124.014 378.177C125.962 380.8 127.463 383.398 128.517 385.973C129.571 388.547 130.077 390.918 130.036 393.085C130.038 395.221 129.44 397.038 128.243 398.538L128.608 399.03C130.481 398.351 132.473 398.143 134.583 398.406C136.694 398.67 138.939 399.647 141.319 401.339C143.698 403.031 146.251 405.712 148.979 409.384C152.144 413.645 154.191 417.822 155.118 421.915C156.039 425.911 155.853 429.661 154.56 433.165C153.218 436.604 152.006 440.905 148.559 443.466L127.413 464.395L71.8188 375.82L90.3467 369.614ZM114.103 401.106C116.912 399.02 118.337 396.893 118.378 394.726C118.461 392.527 117.529 390.116 115.581 387.494C113.584 384.806 111.509 383.346 109.356 383.114C107.203 382.883 104.743 383.794 101.977 385.849L96.8702 389.642L108.486 405.279L114.103 401.106ZM117.252 417.08L130.841 435.372L137.16 430.677C140.054 428.528 141.442 426.174 141.325 423.616C141.159 420.992 140.004 418.238 137.861 415.353C136.546 413.583 135.146 412.232 133.662 411.3C132.219 410.336 130.635 409.937 128.907 410.101C127.18 410.265 125.295 411.105 123.253 412.623L117.252 417.08Z" fill="#003D37"/>
<path d="M289.825 371.999L299.328 381.546L299.371 390.391L287.955 377.513C287.614 378.308 287.158 379.08 286.588 379.831C285.996 380.577 285.264 381.148 284.391 381.544C283.497 381.935 282.444 382.015 281.234 381.782C279.168 381.384 276.263 379.34 275.4 377.067C274.516 374.79 272.86 373.058 273.676 367.097L276.504 358.296L299.797 362.806L299.678 369.538L290.265 367.901L289.825 371.999ZM280.023 369.266C279.901 370.4 279.89 371.392 279.991 372.242C280.094 373.062 280.331 373.731 280.702 374.247C281.075 374.735 281.606 375.045 282.295 375.177C283.276 375.366 284.107 375.066 284.788 374.278C285.451 373.456 285.883 372.115 286.083 370.255L286.415 367.159L280.374 365.996L280.023 369.266Z" fill="#CB4500"/>
<path d="M300.148 414.424L274.795 418.048L274.777 418.222C275.232 418.278 275.914 418.361 276.823 418.473C277.732 418.585 278.709 418.709 279.754 418.846C280.776 418.979 281.705 419.124 282.541 419.281L300.158 421.7L300.11 428.369L252.731 421.816L255.663 412.959L289.174 409.856L289.187 409.725L263.054 393.248L265.179 386.726L299.927 394.196L299.837 400.427L284.524 398C283.756 397.856 282.877 397.676 281.887 397.46C280.899 397.215 279.966 396.995 279.088 396.801C278.191 396.573 277.518 396.402 277.07 396.288L277.052 396.462L299.957 408.849L300.148 414.424Z" fill="#CB4500"/>
<path d="M301.235 434.619L300.692 458.843L242.928 444.01L250.065 423.965L257.317 426.952L253.493 435.957L275.781 441.868L277.315 431.683L283.69 432.943L282.536 442.8L294.901 444.87L295.191 433.023L301.235 434.619Z" fill="#CB4500"/>
<path d="M234.417 463.92C236.725 458.33 240.854 456.252 244.504 454.34C248.102 452.376 252.826 451.957 258.676 453.083C261.319 453.592 263.82 454.364 266.177 455.399C268.478 456.423 270.513 457.79 272.281 459.5C273.997 461.159 275.274 463.169 276.111 465.53C276.948 467.891 277.196 470.658 276.856 473.83L276.43 477.795L301.029 482.403L301.351 492.163L228.181 479.283L234.417 463.92ZM248.534 468.128L248.082 472.337L265.968 475.78L266.296 472.73C266.483 470.982 266.336 469.418 265.852 468.038C265.369 466.658 264.49 465.493 263.214 464.541C261.939 463.59 260.232 462.909 258.095 462.497C255.114 461.923 252.857 462.091 251.324 462.999C249.735 463.897 248.805 465.607 248.534 468.128Z" fill="#CB4500"/>
<path d="M218.269 505.303C220.287 499.738 222.003 496.203 223.673 492.949C226.269 489.23 229.63 488.944 232.691 487.746C235.686 486.479 239.59 486.309 244.403 487.235C247.276 487.788 249.859 488.649 252.153 489.817C254.447 490.985 256.275 492.398 257.636 494.057C259.003 495.661 259.8 497.462 260.025 499.46L260.563 499.564C261.278 497.691 262.367 496.085 263.83 494.746C265.294 493.408 267.297 492.509 269.839 492.048C272.381 491.588 275.663 491.745 279.685 492.52C284.354 493.419 288.282 495.069 291.47 497.47C294.592 499.803 296.877 502.757 298.326 506.332C299.703 509.893 301.711 514.008 301.235 518.441L301.653 549.562L210.873 523.453L218.269 505.303ZM252.993 511.682C253.381 508.069 252.895 505.434 251.533 503.775C250.178 502.062 248.064 500.928 245.19 500.375C242.245 499.808 240.038 500.221 238.569 501.614C237.1 503.007 236.174 505.483 235.792 509.04L235.086 515.608L252.217 518.906L252.993 511.682ZM265.146 521.395L285.186 525.254L286.059 517.126C286.459 513.404 285.805 510.625 284.096 508.787C282.315 506.936 279.845 505.706 276.684 505.098C274.745 504.725 273.022 504.728 271.515 505.108C270.013 505.434 268.785 506.287 267.831 507.667C266.876 509.047 266.257 511.051 265.975 513.678L265.146 521.395Z" fill="#CB4500"/>
<path d="M348.346 357.725L361.81 357.336L368.287 363.36L351.084 362.864C351.43 363.656 351.681 364.518 351.837 365.447C351.977 366.389 351.891 367.314 351.582 368.221C351.255 369.141 350.592 369.962 349.594 370.685C347.89 371.918 344.411 372.636 342.163 371.709C339.899 370.795 337.502 370.815 333.716 366.14L329.238 358.053L348.473 344.163L353.298 348.859L345.66 354.599L348.346 357.725ZM339.643 362.999C340.385 363.864 341.101 364.551 341.789 365.06C342.458 365.546 343.108 365.831 343.738 365.915C344.349 365.976 344.939 365.801 345.507 365.39C346.316 364.804 346.666 363.993 346.558 362.957C346.413 361.911 345.731 360.678 344.512 359.259L342.484 356.897L337.5 360.504L339.643 362.999Z" fill="white"/>
<path d="M386.335 379.252L371.618 400.211L371.733 400.344C372.085 400.051 372.613 399.611 373.316 399.025C374.02 398.438 374.78 397.811 375.595 397.144C376.392 396.489 377.133 395.912 377.82 395.41L391.645 384.226L396.473 388.827L359.259 418.873L354.81 410.672L375.492 384.123L375.406 384.023L345.504 391.789L342.205 385.776L371.44 365.564L375.92 369.895L363.667 379.394C363.036 379.855 362.303 380.373 361.467 380.947C360.613 381.499 359.814 382.029 359.071 382.535C358.291 383.033 357.706 383.407 357.315 383.656L357.43 383.788L382.141 375.573L386.335 379.252Z" fill="white"/>
<path d="M401.8 392.282L419.083 409.263L368.723 441.21L358.999 422.284L366.143 419.043L370.087 427.996L389.655 415.797L383.282 407.707L388.565 403.922L394.96 411.513L404.935 403.917L396.498 395.595L401.8 392.282Z" fill="white"/>
<path d="M377.408 461.045C374.913 455.536 376.226 451.104 377.331 447.134C378.364 443.167 381.292 439.437 386.118 435.945C388.299 434.366 390.574 433.072 392.942 432.063C395.264 431.087 397.654 430.54 400.111 430.422C402.495 430.306 404.834 430.752 407.128 431.758C409.422 432.765 411.608 434.478 413.687 436.898L416.285 439.923L436.486 425.149L443.82 431.596L384.336 476.109L377.408 461.045ZM390.14 453.637L392.898 456.848L407.654 446.169L405.656 443.842C404.51 442.508 403.268 441.545 401.932 440.952C400.595 440.36 399.144 440.203 397.577 440.482C396.01 440.76 394.345 441.537 392.582 442.813C390.123 444.593 388.7 446.353 388.312 448.092C387.879 449.865 388.488 451.713 390.14 453.637Z" fill="white"/>
<path d="M396.518 501.151C393.844 495.87 392.442 492.198 391.213 488.754C390.28 484.315 392.373 481.67 393.595 478.618C394.723 475.568 397.272 472.606 401.242 469.732C403.612 468.017 406.008 466.723 408.43 465.851C410.852 464.978 413.133 464.614 415.274 464.757C417.379 464.859 419.237 465.512 420.848 466.716L421.293 466.394C420.416 464.591 419.991 462.698 420.018 460.715C420.044 458.732 420.76 456.656 422.165 454.488C423.57 452.32 425.932 450.036 429.25 447.634C433.102 444.847 436.994 443.113 440.927 442.434C444.764 441.756 448.482 442.112 452.079 443.504C455.618 444.939 459.992 446.292 462.897 449.675L485.866 470.677L404.683 518.967L396.518 501.151ZM424.942 480.208C422.574 477.452 420.32 476.003 418.179 475.859C416.002 475.674 413.729 476.439 411.358 478.155C408.929 479.913 407.719 481.804 407.728 483.829C407.738 485.854 408.908 488.223 411.239 490.938L415.543 495.949L429.676 485.721L424.942 480.208ZM440.342 478.001L456.875 466.036L451.549 459.835C449.11 456.996 446.636 455.57 444.127 455.557C441.558 455.588 438.97 456.546 436.363 458.433C434.763 459.591 433.586 460.849 432.831 462.208C432.041 463.525 431.822 465.004 432.174 466.645C432.526 468.286 433.563 470.109 435.285 472.113L440.342 478.001Z" fill="white"/>
<path d="M378.926 303.198L387.882 293.136L396.708 292.558L384.543 304.732C385.357 305.024 386.155 305.432 386.939 305.956C387.72 306.502 388.334 307.198 388.782 308.046C389.227 308.914 389.369 309.96 389.21 311.182C388.938 313.268 387.073 316.291 384.856 317.29C382.637 318.311 381.008 320.067 375.008 319.613L366.053 317.322L369.148 293.799L375.875 293.511L374.809 303.006L378.926 303.198ZM376.79 313.147C377.929 313.2 378.92 313.151 379.762 313C380.575 312.847 381.229 312.57 381.722 312.169C382.185 311.766 382.463 311.217 382.553 310.522C382.683 309.532 382.333 308.72 381.505 308.088C380.645 307.475 379.28 307.126 377.411 307.039L374.301 306.894L373.505 312.994L376.79 313.147Z" fill="#003D37"/>
<path d="M420.651 290.331L425.799 315.419L425.974 315.427C426.002 314.969 426.045 314.284 426.101 313.369C426.158 312.455 426.223 311.472 426.296 310.421C426.367 309.393 426.456 308.457 426.562 307.613L427.913 289.881L434.573 289.527L430.894 337.215L421.875 334.823L416.754 301.562L416.622 301.556L401.754 328.636L395.116 326.91L400.473 291.774L406.698 291.487L405.2 306.919C405.103 307.694 404.976 308.582 404.82 309.584C404.636 310.585 404.473 311.529 404.331 312.417C404.158 313.326 404.028 314.008 403.942 314.463L404.117 314.471L415.097 290.859L420.651 290.331Z" fill="#003D37"/>
<path d="M440.743 288.024L464.955 287.103L453.638 345.658L433.199 339.745L435.743 332.325L444.962 335.599L449.516 312.994L439.257 312.078L440.129 305.638L450.038 306.195L451.358 293.727L439.515 294.153L440.743 288.024Z" fill="#003D37"/>
<path d="M474.029 352.951C468.309 350.985 465.985 346.989 463.856 343.461C461.679 339.988 460.975 335.298 461.746 329.391C462.094 326.722 462.714 324.179 463.604 321.764C464.488 319.405 465.73 317.291 467.33 315.423C468.882 313.61 470.811 312.214 473.117 311.236C475.423 310.258 478.17 309.843 481.356 309.991L485.34 310.177L488.454 285.344L498.177 284.433L489.74 358.248L474.029 352.951ZM477.376 338.606L481.605 338.803L483.961 320.741L480.897 320.599C479.14 320.517 477.588 320.759 476.24 321.324C474.892 321.89 473.782 322.838 472.909 324.169C472.037 325.5 471.46 327.244 471.178 329.403C470.785 332.413 471.089 334.655 472.088 336.131C473.08 337.663 474.843 338.488 477.376 338.606Z" fill="#003D37"/>
<path d="M516.313 366.568C510.637 364.89 507.004 363.39 503.655 361.921C499.786 359.554 499.298 356.216 497.917 353.233C496.471 350.32 496.065 346.433 496.7 341.573C497.078 338.672 497.781 336.041 498.808 333.681C499.835 331.321 501.136 329.411 502.709 327.952C504.228 326.491 505.977 325.587 507.959 325.242L508.03 324.698C506.117 324.098 504.448 323.108 503.023 321.728C501.599 320.348 500.581 318.403 499.968 315.893C499.355 313.384 499.313 310.098 499.843 306.036C500.458 301.321 501.868 297.301 504.073 293.974C506.213 290.717 509.023 288.257 512.504 286.595C515.975 285.006 519.962 282.753 524.416 282.96L555.454 280.663L534.876 372.854L516.313 366.568ZM520.582 331.522C516.953 331.353 514.352 331.998 512.779 333.457C511.15 334.913 510.147 337.092 509.768 339.994C509.38 342.967 509.926 345.145 511.405 346.528C512.884 347.91 515.411 348.685 518.985 348.852L525.583 349.159L527.841 331.86L520.582 331.522ZM529.544 318.805L532.185 298.568L524.019 298.188C520.28 298.013 517.545 298.834 515.815 300.651C514.074 302.54 512.996 305.08 512.58 308.272C512.324 310.23 512.432 311.95 512.902 313.431C513.318 314.91 514.243 316.085 515.679 316.954C517.114 317.824 519.152 318.32 521.791 318.443L529.544 318.805Z" fill="#003D37"/>
<path d="M359.167 235.221L356.894 222.296L361.885 215.45L363.816 232.063C364.544 231.65 365.352 231.321 366.241 231.076C367.144 230.847 368.062 230.835 368.994 231.041C369.941 231.263 370.838 231.817 371.687 232.706C373.134 234.221 374.326 237.498 373.734 239.756C373.156 242.029 373.513 244.334 369.464 248.454L362.171 253.585L345.863 236.473L349.786 231.351L356.481 238.123L359.167 235.221ZM365.555 243.066C366.298 242.263 366.87 241.504 367.272 240.79C367.655 240.097 367.843 239.442 367.836 238.827C367.81 238.233 367.556 237.683 367.074 237.177C366.386 236.458 365.543 236.203 364.543 236.412C363.538 236.657 362.427 237.439 361.207 238.756L359.179 240.949L363.412 245.382L365.555 243.066Z" fill="#CB4500"/>
<path d="M374.915 196.463L397.515 208.509L397.629 208.385C397.292 208.076 396.787 207.612 396.114 206.994C395.441 206.376 394.72 205.708 393.951 204.991C393.198 204.29 392.528 203.635 391.941 203.024L379.042 190.846L382.871 185.731L417.532 218.518L410.123 223.632L381.21 206.41L381.125 206.503L392.933 234.506L387.505 238.292L363.598 212.192L367.212 207.439L378.239 218.274C378.779 218.835 379.389 219.488 380.069 220.235C380.73 221.002 381.361 221.717 381.961 222.381C382.559 223.082 383.007 223.607 383.306 223.958L383.419 223.834L371.901 200.875L374.915 196.463Z" fill="#CB4500"/>
<path d="M385.512 180.25L399.719 161.888L438.088 207.138L420.914 218.419L416.736 211.87L424.952 207.164L410.254 189.56L403.223 196.516L398.774 191.813L405.311 184.887L396.47 176.052L389.502 185.019L385.512 180.25Z" fill="#CB4500"/>
<path d="M456.298 196.767C451.251 199.728 446.725 198.913 442.681 198.251C438.65 197.659 434.585 195.217 430.486 190.925C428.633 188.985 427.046 186.926 425.724 184.748C424.442 182.611 423.571 180.366 423.11 178.012C422.662 175.728 422.77 173.431 423.434 171.121C424.097 168.81 425.469 166.531 427.547 164.284L430.146 161.476L412.835 143.523L418.121 135.808L470.082 188.57L456.298 196.767ZM447.253 185.259L450.011 182.278L437.477 169.153L435.478 171.313C434.332 172.552 433.563 173.845 433.17 175.191C432.778 176.538 432.828 177.952 433.321 179.432C433.813 180.912 434.809 182.437 436.307 184.005C438.396 186.192 440.319 187.385 442.077 187.581C443.875 187.819 445.6 187.045 447.253 185.259Z" fill="#CB4500"/>
<path d="M492.903 174.304C488.105 177.414 484.705 179.136 481.503 180.668C477.286 182.016 474.401 180.269 471.24 179.402C468.093 178.625 464.834 176.471 461.461 172.94C459.448 170.832 457.844 168.656 456.649 166.413C455.454 164.169 454.777 162.01 454.617 159.934C454.421 157.896 454.799 156.041 455.753 154.368L455.375 153.973C453.732 154.999 451.937 155.6 449.99 155.776C448.044 155.951 445.91 155.473 443.589 154.34C441.268 153.206 438.698 151.164 435.88 148.212C432.608 144.786 430.363 141.215 429.145 137.497C427.942 133.871 427.769 130.255 428.627 126.65C429.535 123.098 430.247 118.749 433.153 115.609L450.501 91.3652L509.209 164.637L492.903 174.304ZM468.395 149.06C466.028 151.618 464.924 153.935 465.084 156.011C465.209 158.126 466.278 160.238 468.291 162.346C470.355 164.507 472.378 165.48 474.36 165.266C476.342 165.052 478.499 163.685 480.83 161.165L485.135 156.513L473.13 143.943L468.395 149.06ZM464.07 134.455L450.027 119.75L444.7 125.506C442.261 128.142 441.211 130.669 441.552 133.086C441.942 135.556 443.245 137.95 445.459 140.269C446.818 141.692 448.216 142.698 449.654 143.287C451.055 143.915 452.534 143.976 454.092 143.471C455.651 142.965 457.29 141.782 459.012 139.921L464.07 134.455Z" fill="#CB4500"/>
<path d="M295.664 211.635L284.722 204.656L283.171 196.487L296.557 206.173C296.755 205.372 297.07 204.569 297.502 203.764C297.954 202.959 298.574 202.288 299.363 201.753C300.172 201.217 301.19 200.939 302.416 200.919C304.509 200.884 307.705 202.209 308.939 204.143C310.194 206.076 312.111 207.356 312.328 213.026L311.057 221.713L287.457 222.075L286.426 215.827L295.931 215.51L295.664 211.635ZM305.738 212.255C305.664 211.183 305.505 210.264 305.262 209.497C305.02 208.758 304.674 208.186 304.223 207.781C303.774 207.403 303.2 207.22 302.502 207.231C301.509 207.248 300.746 207.687 300.212 208.548C299.702 209.437 299.508 210.761 299.629 212.519L299.831 215.446L305.951 215.346L305.738 212.255Z" fill="white"/>
<path d="M278.312 174.417L302.545 166.135L302.533 165.97C302.077 166.007 301.395 166.062 300.484 166.136C299.574 166.209 298.595 166.285 297.548 166.361C296.523 166.437 295.588 166.484 294.742 166.501L277.061 167.692L275.971 161.516L323.528 158.357L322.165 167.118L289.848 176.506L289.857 176.63L318.281 186.78L317.311 193.224L281.978 193.077L281.003 187.299L296.427 186.564C297.204 186.548 298.096 186.543 299.104 186.55C300.114 186.584 301.066 186.606 301.959 186.615C302.877 186.651 303.566 186.678 304.025 186.696L304.013 186.531L279.45 179.535L278.312 174.417Z" fill="white"/>
<path d="M273.805 155.955L270.207 133.452L329.355 135.929L325.778 155.851L318.159 154.5L320.373 145.43L297.518 144.301L297.752 154.016L291.288 154.092L290.739 144.753L278.265 145.245L280.001 156.255L273.805 155.955Z" fill="white"/>
<path d="M334.302 115.865C332.994 121.484 329.301 124.208 326.049 126.686C322.857 129.202 318.298 130.508 312.373 130.605C309.695 130.649 307.112 130.421 304.625 129.923C302.195 129.424 299.968 128.556 297.943 127.318C295.978 126.119 294.384 124.509 293.161 122.489C291.937 120.468 291.223 117.959 291.016 114.96L290.757 111.211L265.86 111.736L263.88 102.774L337.796 100.447L334.302 115.865ZM319.748 114.721L319.474 110.742L301.355 111.038L301.554 113.921C301.668 115.575 302.079 116.992 302.788 118.174C303.497 119.356 304.558 120.262 305.97 120.894C307.383 121.525 309.172 121.823 311.337 121.788C314.357 121.738 316.54 121.144 317.888 120.006C319.292 118.867 319.912 117.105 319.748 114.721Z" fill="white"/>
<path d="M343.071 74.4569C342.042 79.9947 340.962 83.5977 339.881 86.931C337.97 90.8751 334.725 91.7929 331.928 93.4964C329.208 95.2505 325.411 96.1673 320.536 96.2469C317.625 96.2945 314.946 96.0015 312.499 95.3679C310.051 94.7344 308.019 93.7832 306.402 92.5144C304.788 91.2974 303.701 89.7868 303.139 87.9827L302.593 87.9916C302.212 89.863 301.419 91.5597 300.213 93.0818C299.006 94.6039 297.197 95.8251 294.783 96.7452C292.37 97.6654 289.126 98.1587 285.052 98.2252C280.322 98.3025 276.19 97.541 272.656 95.9409C269.199 94.3913 266.455 92.1048 264.426 89.0813C262.469 86.0565 259.799 82.6423 259.51 78.4506L253.794 49.7572L347.225 56.2367L343.071 74.4569ZM307.947 75.3149C308.183 78.7304 309.109 81.0725 310.726 82.3413C312.347 83.6618 314.613 84.2983 317.523 84.2508C320.507 84.2021 322.6 83.3908 323.802 81.8169C325.005 80.243 325.49 77.7742 325.258 74.4105L324.83 68.2005L307.476 68.4839L307.947 75.3149ZM294.379 68.6978L274.079 69.0294L274.609 76.7142C274.851 80.2332 275.967 82.6758 277.955 84.0422C280.016 85.4073 282.647 86.0638 285.848 86.0115C287.813 85.9794 289.501 85.641 290.914 84.9962C292.33 84.4032 293.388 83.3757 294.089 81.9136C294.789 80.4515 295.054 78.4785 294.882 75.9945L294.379 68.6978Z" fill="white"/>
<path d="M233.649 239.175L221.085 242.429L214.048 237.998L230.259 234.8C229.808 234.108 229.435 233.331 229.139 232.467C228.858 231.587 228.79 230.676 228.935 229.734C229.094 228.776 229.584 227.842 230.405 226.93C231.806 225.375 234.953 223.939 237.209 224.353C239.479 224.751 241.722 224.22 246.021 227.924L251.514 234.774L235.699 252.295L230.423 248.793L236.667 241.619L233.649 239.175ZM240.966 232.223C240.131 231.547 239.35 231.037 238.623 230.693C237.918 230.366 237.263 230.23 236.659 230.284C236.076 230.355 235.552 230.65 235.085 231.169C234.42 231.907 234.221 232.765 234.488 233.742C234.791 234.721 235.628 235.765 236.998 236.875L239.278 238.721L243.374 234.174L240.966 232.223Z" fill="#003D37"/>
<path d="M194.583 226.52L205.031 203.139L204.902 203.035C204.619 203.394 204.194 203.931 203.628 204.648C203.062 205.364 202.45 206.132 201.792 206.951C201.15 207.753 200.547 208.469 199.983 209.1L188.808 222.853L183.545 219.443L213.635 182.48L219.118 189.447L203.972 219.499L204.068 219.577L230.865 205.687L234.92 210.787L210.739 236.55L205.846 233.326L215.816 221.536C216.334 220.956 216.939 220.3 217.63 219.567C218.343 218.851 219.008 218.169 219.623 217.521C220.275 216.874 220.764 216.388 221.09 216.064L220.961 215.961L199.105 229.174L194.583 226.52Z" fill="#003D37"/>
<path d="M178 217.241L159.077 204.543L201.189 162.935L213.334 179.127L207.155 183.783L202.024 175.983L185.626 191.943L192.897 198.391L188.548 203.174L181.338 197.214L173.199 206.679L182.441 212.91L178 217.241Z" fill="#003D37"/>
<path d="M189.87 145.64C193.091 150.426 192.569 154.985 192.168 159.054C191.834 163.104 189.685 167.331 185.718 171.735C183.926 173.725 182 175.46 179.94 176.941C177.919 178.38 175.766 179.419 173.481 180.058C171.264 180.679 168.999 180.749 166.687 180.268C164.375 179.786 162.051 178.6 159.715 176.708L156.795 174.343L140.215 192.925L132.307 188.268L180.965 132.578L189.87 145.64ZM179.117 155.514L176.017 153.003L163.889 166.468L166.135 168.287C167.423 169.33 168.741 169.994 170.089 170.281C171.437 170.567 172.823 170.408 174.248 169.804C175.672 169.201 177.109 168.094 178.558 166.485C180.58 164.241 181.633 162.238 181.718 160.476C181.841 158.672 180.974 157.018 179.117 155.514Z" fill="#003D37"/>
<path d="M165.537 111.009C168.889 115.535 170.791 118.781 172.494 121.843C174.079 125.929 172.54 128.93 171.882 132.137C171.313 135.323 169.396 138.728 166.133 142.351C164.185 144.513 162.145 146.275 160.014 147.635C157.883 148.994 155.802 149.834 153.771 150.153C151.781 150.505 149.934 150.272 148.231 149.454L147.866 149.859C148.976 151.413 149.677 153.15 149.97 155.07C150.262 156.99 149.923 159.147 148.952 161.54C147.981 163.934 146.132 166.644 143.405 169.672C140.239 173.187 136.867 175.692 133.288 177.189C129.798 178.664 126.255 179.114 122.659 178.54C119.111 177.911 114.793 177.54 111.528 174.895L86.6304 159.53L155.031 95.5544L165.537 111.009ZM142.235 137.303C144.895 139.458 147.241 140.376 149.271 140.056C151.342 139.77 153.352 138.545 155.3 136.382C157.297 134.165 158.129 132.081 157.796 130.128C157.463 128.175 155.987 126.138 153.367 124.016L148.53 120.098L136.914 132.994L142.235 137.303ZM128.147 142.727L114.558 157.812L120.544 162.66C123.285 164.88 125.833 165.728 128.188 165.204C130.591 164.625 132.865 163.146 135.008 160.767C136.323 159.307 137.225 157.841 137.716 156.368C138.246 154.927 138.215 153.453 137.622 151.944C137.029 150.435 135.765 148.897 133.83 147.33L128.147 142.727Z" fill="#003D37"/>
</svg>
