<svg width="900" height="900" viewBox="0 0 900 900" fill="none" xmlns="http://www.w3.org/2000/svg">
<circle cx="450" cy="450" r="450" fill="#F95500"/>
<path d="M514.897 125.651C496.478 116.441 418.967 115.674 383.665 125.651L438.92 385.812H463.478L514.897 125.651Z" fill="#CB4500"/>
<path d="M635.34 177.366C622.183 161.524 551.531 129.636 515.199 124.566L461.111 384.972L483.593 394.853L635.34 177.366Z" fill="white"/>
<path d="M729.111 276.07C723.222 256.337 666.957 195.537 635.523 176.624L483.641 394.955L500.447 412.862L729.111 276.07Z" fill="#003D37"/>
<path d="M758.174 553.881C769.451 536.651 780.501 451.351 774.674 415.132L509.869 439.93L507.029 464.323L758.174 553.881Z" fill="white"/>
<path d="M689.872 666.693C707.378 655.85 748.135 586.095 758.174 550.811L504.92 464.09L492.641 482.508L689.872 666.693Z" fill="#003D37"/>
<path d="M582.432 741.903C602.807 738.918 666.628 694.306 689.873 665.927L495.711 485.579L474.991 500.928L582.432 741.903Z" fill="#CB4500"/>
<path d="M455.037 768.762C474.985 773.874 550.8 758.341 583.199 741.134L475.141 498.184L450.102 504.344L455.037 768.762Z" fill="white"/>
<path d="M327.318 747.506C343.934 759.67 420.088 773.446 456.562 769.523L449.664 504.765L428.176 500.928L327.318 747.506Z" fill="#003D37"/>
<path d="M218.666 671.297C228.61 689.33 292.911 735.464 327.642 747.274L428.944 500.926L403.618 490.182L218.666 671.297Z" fill="#CB4500"/>
<path d="M143.458 548.509C145.325 569.017 190.831 647.305 217.899 672.066L405.154 488.649L389.037 464.091L143.458 548.509Z" fill="white"/>
<path d="M128.876 403.464C121.337 422.627 129.608 517.126 142.677 551.404L389.804 464.092L387.502 435.697L128.876 403.464Z" fill="#003D37"/>
<path d="M172.62 276.067C157.382 289.918 132.413 368.535 128.97 405.058L393.642 436.461L399.723 409.588L172.62 276.067Z" fill="#CB4500"/>
<path d="M266.348 176.708C246.689 182.838 190.885 243.584 172.356 275.245L399.076 415.371L415.927 393.572L266.348 176.708Z" fill="white"/>
<g filter="url(#filter0_i_254_22)">
<path d="M383.664 126.417C363.214 123.997 294.541 156.481 264.712 177.835L415.897 394.252L439.417 386.126L383.664 126.417Z" fill="#003D37"/>
</g>
<path d="M774.29 414.206C777.152 393.813 749.973 305.574 729.269 275.29L500.27 410.554L507.99 439.531L774.29 414.206Z" fill="#CB4500"/>
<circle cx="448.897" cy="441.835" r="69.0693" fill="#003D37"/>
<path d="M472.9 109.548L447.575 160.966C440.924 146.896 427.008 117.682 424.552 113.385C421.482 108.013 419.179 74.2453 447.575 75.0129C474.029 75.728 475.458 98.8034 472.9 109.548Z" fill="white"/>
<path d="M394.512 450.761C392.128 450.761 390.093 450.204 389.118 449.578V446.203C389.901 446.794 391.502 447.421 393.224 447.421C395.834 447.421 397.434 446.255 397.434 443.593V443.454C396.582 445.681 395.051 446.412 393.155 446.412C390.04 446.412 388.266 444.359 388.266 441.523C388.266 438.548 390.11 436.356 393.259 436.356C395.312 436.356 396.651 437.26 397.434 439.313V436.825H402.845V444.15C402.845 448.412 399.731 450.761 394.512 450.761ZM395.66 443.21C396.756 443.21 397.434 442.532 397.434 441.54C397.434 440.531 396.773 439.87 395.677 439.87C394.599 439.87 393.903 440.549 393.903 441.558C393.903 442.549 394.599 443.21 395.66 443.21ZM404.348 447.125V436.825H409.654V440.183C410.141 437.643 411.22 436.547 413.134 436.547C413.899 436.547 414.543 436.773 414.856 436.93V441.61C414.525 441.419 413.864 441.21 412.977 441.21C410.959 441.21 409.776 442.219 409.776 444.776V447.125H404.348ZM415.816 447.125V438.061H421.244V447.125H415.816ZM418.565 437.574C416.825 437.574 415.607 436.773 415.607 435.66C415.607 434.564 416.825 433.763 418.565 433.763C420.27 433.763 421.453 434.564 421.453 435.66C421.453 436.773 420.27 437.574 418.565 437.574ZM422.451 447.125V443.872L427.827 440.288H422.573V436.825H434.752V440.235L429.463 443.68H435.082V447.125H422.451ZM435.873 447.125V443.872L441.249 440.288H435.995V436.825H448.174V440.235L442.885 443.68H448.504V447.125H435.873ZM449.626 447.125V434.599H455.054V447.125H449.626ZM458.106 450.204L460.298 446.168L455.757 436.825H461.446L463.308 441.61L465.326 436.825H470.997L464.212 450.204H458.106ZM477.442 447.508C472.64 447.508 470.344 444.968 470.344 441.871C470.344 438.757 472.78 436.356 477.512 436.356C479.652 436.356 481.148 436.791 482.227 437.382V440.914C481.548 440.531 480.469 440.183 479.252 440.183C477.181 440.183 476.068 440.914 476.068 441.923C476.068 442.88 477.025 443.698 479.234 443.698C480.417 443.698 481.496 443.367 482.244 443.019V446.446C480.956 447.125 479.286 447.508 477.442 447.508ZM487.713 447.49C484.912 447.49 483.485 445.907 483.485 443.106V436.825H488.913V441.906C488.913 443.141 489.296 443.802 490.357 443.802C491.419 443.802 491.906 443.141 491.906 441.871V436.825H497.317V447.125H491.906V444.742C491.28 446.499 489.87 447.49 487.713 447.49ZM504.709 447.473C502.447 447.473 500.255 446.934 498.602 445.977V442.741C499.751 443.663 502.238 444.324 504.048 444.324C504.709 444.324 505.005 444.133 505.005 443.889C505.005 443.645 504.866 443.454 504.048 443.297L502.325 442.95C499.611 442.428 498.724 441.436 498.724 439.888C498.724 437.713 501.09 436.338 504.779 436.338C507.058 436.338 508.971 436.843 510.05 437.434V440.479C508.919 439.922 507.319 439.505 505.753 439.505C504.639 439.505 504.291 439.696 504.291 439.975C504.291 440.235 504.552 440.357 505.266 440.462L506.884 440.688C509.337 440.984 510.642 441.784 510.642 443.924C510.642 446.029 508.641 447.473 504.709 447.473Z" fill="white"/>
<circle cx="479.912" cy="158.575" r="12.6063" fill="#00544B"/>
<circle cx="365.606" cy="164.606" r="12.6063" fill="#00544B"/>
<circle cx="307.606" cy="185.606" r="12.6063" fill="#00544B"/>
<circle cx="258.606" cy="219.606" r="12.6063" fill="#00544B"/>
<circle cx="211.606" cy="264.606" r="12.6063" fill="#00544B"/>
<circle cx="184.606" cy="319.606" r="12.6063" fill="#00544B"/>
<circle cx="163.606" cy="373.606" r="12.6063" fill="#00544B"/>
<circle cx="152.606" cy="446.606" r="12.6063" fill="#00544B"/>
<circle cx="163.606" cy="511.606" r="12.6063" fill="#00544B"/>
<circle cx="184.606" cy="580.606" r="12.6063" fill="#00544B"/>
<circle cx="263.606" cy="672.606" r="12.6063" fill="#00544B"/>
<circle cx="367.606" cy="730.606" r="12.6063" fill="#00544B"/>
<circle cx="428.606" cy="740.606" r="12.6063" fill="#00544B"/>
<circle cx="489.606" cy="740.606" r="12.6063" fill="#00544B"/>
<circle cx="546.606" cy="726.606" r="12.6063" fill="#00544B"/>
<circle cx="596.606" cy="705.606" r="12.6063" fill="#00544B"/>
<circle cx="687.606" cy="624.606" r="12.6063" fill="#00544B"/>
<circle cx="739.606" cy="511.606" r="12.6063" fill="#00544B"/>
<circle cx="746.606" cy="447.606" r="12.6063" fill="#00544B"/>
<circle cx="739.606" cy="382.606" r="12.6063" fill="#00544B"/>
<circle cx="721.606" cy="319.606" r="12.6063" fill="#00544B"/>
<circle cx="682.606" cy="263.606" r="12.6063" fill="#00544B"/>
<circle cx="644.606" cy="221.606" r="12.6063" fill="#00544B"/>
<circle cx="591.606" cy="185.606" r="12.6063" fill="#00544B"/>
<circle cx="535.606" cy="165.606" r="12.6063" fill="#00544B"/>
<circle cx="644.261" cy="669.36" r="12.6063" fill="#00544B"/>
<circle cx="721.606" cy="568.606" r="12.6063" fill="#00544B"/>
<circle cx="311.606" cy="707.606" r="12.6063" fill="#00544B"/>
<circle cx="218.606" cy="626.606" r="12.6063" fill="#00544B"/>
<circle cx="418.282" cy="158.575" r="12.6063" fill="#00544B"/>
<path d="M368.323 470.464L364.934 461.43L354.249 462.702L352.448 476.533L344.511 478.868L352.448 432.645L361.536 433.661L376.754 467.954L368.323 470.464ZM357.093 441.846L355.081 455.997L362.529 455.111L357.274 441.825L357.093 441.846Z" fill="#CB4500"/>
<path d="M326.065 454.933L343.111 479.335L334.24 482.604L319.445 461.232L319.264 461.253L323.034 486.806L314.163 490.074L306.693 427.043L316.498 427.977L318.234 452.606L318.415 452.584L327.703 429.377L336.574 430.311L326.065 454.933Z" fill="#CB4500"/>
<path d="M277.745 424.707L291.752 426.212C298.769 425.377 304.652 434.295 306.394 448.922C308.124 463.455 304.25 473.534 296.983 474.399L291.64 475.035L294.087 497.076L285.683 500.344L277.745 424.707ZM287.489 440.166L290.09 462.012L293.689 461.584C297.221 461.164 298.849 457.094 298 449.969C297.158 442.891 294.62 439.317 291.134 439.732L287.489 440.166Z" fill="#CB4500"/>
<path d="M270.742 505.481L264.835 454.542L264.553 454.576L253.466 511.551L245.529 514.352L232.456 418.172L245.996 420.039L250.458 474.181L250.74 474.148L261.87 421.907L271.556 423.002L280.547 501.746L270.742 505.481Z" fill="#CB4500"/>
<path d="M239.459 516.22L227.787 520.422L225.07 499.733L182.863 504.757L171.759 411.168L186.7 412.568L194.396 486.483L215.131 484.015L206.776 414.903L220.783 416.77L228.61 482.41L235.239 481.621L239.459 516.22Z" fill="#CB4500"/>
<path d="M420.044 519.119L412.111 516.661L406.406 525.13L414.281 533.979L410.944 541.027L385.801 510.059L392.015 504L423.569 511.616L420.044 519.119ZM394.611 511.694L402.564 520.871L406.541 514.968L394.708 511.551L394.611 511.694Z" fill="white"/>
<path d="M384.139 541.408L410.392 542.303L407.091 550.54L384.18 549.658L384.083 549.801L402.969 560.984L399.668 569.221L354.201 540.304L360.8 533.678L377.843 545.838L377.939 545.694L368.557 526.287L374.585 520.34L384.139 541.408Z" fill="white"/>
<path d="M334.992 560.098L344.53 550.726C348.277 545.164 357.66 545.743 368.215 552.448C378.703 559.11 382.876 567.422 378.996 573.182L376.143 577.416L391.941 587.649L388.925 595.545L334.992 560.098ZM350.98 561.433L366.745 571.447L368.667 568.594C370.553 565.795 368.907 562.392 363.765 559.126C358.657 555.882 354.787 555.781 352.926 558.544L350.98 561.433Z" fill="white"/>
<path d="M383.127 609.217L346.462 585.753L346.311 585.976L376.507 625.096L373.474 632.399L303.071 589.492L312.558 580.657L350.419 606.918L350.569 606.695L323.473 570.123L330.103 563.672L386.696 600.046L383.127 609.217Z" fill="white"/>
<path d="M370.975 637.832L366.568 648.616L351.482 639.317L328.946 672.769L261.429 629.842L271.469 619.733L324.137 654.418L335.208 637.984L285.255 606.396L295.027 597.221L342.406 627.3L345.945 622.046L370.975 637.832Z" fill="white"/>
<path d="M482.292 520.328L475.098 524.6L477.448 535.035L489.3 535.405L492.215 543.014L452.378 539.879L452.144 530.79L479.17 512.248L482.292 520.328ZM459.563 534.349L471.708 534.895L470.07 527.622L459.523 534.172L459.563 534.349Z" fill="#003D37"/>
<path d="M474.289 563.693L492.776 544.351L496.588 552.789L480.381 569.596L480.421 569.773L501.466 563.44L505.278 571.877L453.147 585.689L452.758 575.899L473.269 571.672L473.229 571.495L452.594 564.677L452.316 555.811L474.289 563.693Z" fill="#003D37"/>
<path d="M454.651 614.549L454.24 600.547C452.696 593.694 459.494 586.968 471.59 583.756C483.609 580.564 492.553 583.366 494.151 590.463L495.326 595.68L513.575 591.015L517.332 598.991L454.651 614.549ZM466.49 603.339L484.556 598.541L483.765 595.025C482.988 591.577 479.369 590.382 473.477 591.947C467.624 593.502 464.921 596.375 465.688 599.78L466.49 603.339Z" fill="#003D37"/>
<path d="M523.442 613.238L481.297 624.271L481.359 624.547L530.618 629.7L533.926 637.262L454.579 659.992L454.528 646.415L499.541 636.484L499.479 636.209L454.197 630.529L453.958 620.842L519.126 603.925L523.442 613.238Z" fill="#003D37"/>
<path d="M536.224 643.074L541.158 654.186L524.078 658.981L533.362 700.199L455.959 720.718L455.347 705.804L516.607 690.659L512.047 670.41L454.906 685.716L454.799 671.677L509.082 657.247L507.624 650.773L536.224 643.074Z" fill="#003D37"/>
<path d="M533.288 477.842L531.598 486.036L540.893 491.329L549.151 482.819L556.738 485.791L527.585 513.12L520.71 507.17L525.213 474.706L533.288 477.842ZM528.338 504.085L536.924 495.477L530.445 491.788L528.181 503.995L528.338 504.085Z" fill="#CB4500"/>
<path d="M559.945 512.969L558.104 486.277L566.908 489.144L568.411 512.443L568.569 512.533L578.065 492.714L586.869 495.58L561.959 543.412L554.462 537.105L565.155 519.098L564.997 519.008L546.058 529.666L539.318 523.899L559.945 512.969Z" fill="#CB4500"/>
<path d="M584.301 561.741L573.676 552.613C567.571 549.137 567.179 539.582 572.954 528.478C578.691 517.445 586.787 512.724 593.109 516.323L597.756 518.969L606.602 502.339L615.027 504.936L584.301 561.741ZM583.991 545.44L592.615 528.855L589.484 527.073C586.412 525.323 583.091 527.193 580.279 532.602C577.484 537.975 577.787 541.908 580.82 543.635L583.991 545.44Z" fill="#CB4500"/>
<path d="M629.674 510.017L609.437 548.597L609.682 548.737L646.674 515.803L654.491 518.452L617.838 592.406L607.769 583.298L630.753 543.341L630.507 543.201L595.806 572.841L588.485 566.492L619.883 506.934L629.674 510.017Z" fill="#CB4500"/>
<path d="M660.332 520.669L671.868 524.509L663.907 540.361L700.623 561.267L663.645 632.294L652.21 622.7L682.286 567.223L664.248 556.953L637.067 609.493L626.619 600.115L652.522 550.276L646.755 546.993L660.332 520.669Z" fill="#CB4500"/>
<path d="M529.099 402.893L534.156 409.558L544.258 406.045L543.288 394.227L550.519 390.471L551.903 430.407L542.899 431.666L521.423 406.907L529.099 402.893ZM545.597 423.893L544.768 411.763L537.727 414.213L545.426 423.953L545.597 423.893Z" fill="white"/>
<path d="M573.09 405.948L551.784 389.764L559.737 385.023L578.267 399.228L578.438 399.168L569.769 378.974L577.722 374.233L597.333 424.47L587.651 425.962L581.133 406.06L580.962 406.119L576.519 427.393L567.741 428.67L573.09 405.948Z" fill="white"/>
<path d="M625.838 419.713L611.973 421.704C605.338 424.011 597.887 418.017 593.329 406.361C588.8 394.78 590.574 385.577 597.445 383.187L602.496 381.43L595.799 363.824L603.3 359.191L625.838 419.713ZM613.363 409.217L606.555 391.808L603.152 392.991C599.813 394.153 599.035 397.883 601.255 403.561C603.461 409.201 606.621 411.562 609.917 410.416L613.363 409.217Z" fill="white"/>
<path d="M616.767 351.511L632.49 392.14L632.757 392.047L632.313 342.521L639.453 338.381L671 414.652L657.515 416.237L642.564 372.633L642.297 372.726L641.769 418.36L632.17 419.692L608.001 356.852L616.767 351.511Z" fill="white"/>
<path d="M644.966 335.443L655.45 329.285L662.144 345.714L702.049 331.834L731.18 406.424L716.43 408.717L694.463 349.559L674.859 356.378L696.521 411.424L682.584 413.116L662.115 360.811L655.847 362.991L644.966 335.443Z" fill="white"/>
<path d="M469.764 360.05L478.104 360.712L482.206 350.834L472.74 343.692L474.75 335.796L505.477 361.343L500.423 368.902L467.651 368.45L469.764 360.05ZM496.418 361.714L486.814 354.26L483.955 361.145L496.348 361.882L496.418 361.714Z" fill="#003D37"/>
<path d="M501.322 329.251L475.063 334.38L476.818 325.289L499.753 320.914L499.822 320.747L478.98 313.776L480.735 304.685L531.281 323.486L525.951 331.705L506.759 323.322L506.689 323.49L519.609 340.965L514.72 348.366L501.322 329.251Z" fill="#003D37"/>
<path d="M546.706 299.047L538.962 310.72C536.269 317.208 526.836 318.778 515.102 314.422C503.445 310.094 497.757 302.644 500.547 295.926L502.598 290.987L485.001 284.267L486.535 275.585L546.706 299.047ZM530.569 301.371L513.044 294.865L511.663 298.193C510.307 301.458 512.573 304.522 518.289 306.643C523.966 308.751 527.831 307.964 529.17 304.741L530.569 301.371Z" fill="#003D37"/>
<path d="M489.766 260.422L530.553 275.73L530.662 275.469L493.404 242.837L495.066 234.752L572.986 261.973L565.194 273.091L522.7 255.228L522.592 255.489L556.298 286.256L550.903 294.306L487.917 270.519L489.766 260.422Z" fill="#003D37"/>
<path d="M496.542 228.682L498.925 216.759L515.641 222.698L531.843 183.678L606.9 211.582L598.794 224.117L540.022 201.137L532.063 220.306L587.563 240.778L579.549 252.305L526.888 232.768L524.344 238.897L496.542 228.682Z" fill="#003D37"/>
<path d="M403.059 366.927L409.066 361.578L404.908 352.454L393.637 354.461L389.47 348.046L427.704 343.038L429.612 351.344L407.508 373.734L403.059 366.927ZM421.94 349.542L410.359 351.445L413.257 357.805L422.011 349.697L421.94 349.542Z" fill="#CB4500"/>
<path d="M402.576 325.492L388.692 346.927L383.523 339.928L395.722 321.274L395.652 321.12L376.936 331.107L371.767 324.108L418.477 301.092L420.661 310.011L402.059 317.958L402.129 318.113L422.899 320.291L424.806 328.383L402.576 325.492Z" fill="#CB4500"/>
<path d="M411.698 274.871L414.686 287.656C417.416 293.648 412.239 301.175 401.402 306.522C390.635 311.836 381.662 311.032 378.834 304.827L376.755 300.265L360.373 308.167L355.342 301.582L411.698 274.871ZM402.59 287.517L386.404 295.504L387.804 298.577C389.179 301.593 392.821 301.974 398.099 299.369C403.343 296.781 405.364 293.605 404.008 290.629L402.59 287.517Z" fill="#CB4500"/>
<path d="M346.923 289.699L384.711 271.214L384.601 270.973L337.086 275.994L332.557 269.7L403.335 233.098L405.903 245.564L365.201 263.605L365.31 263.846L409.163 260.096L411.187 268.951L352.732 297.403L346.923 289.699Z" fill="#CB4500"/>
<path d="M329.307 264.815L322.582 255.58L337.835 247.791L321.412 211.754L390.763 177.568L394.109 191.152L339.018 217.202L347.086 234.906L398.254 209.525L400.96 222.404L352.331 246.415L354.911 252.075L329.307 264.815Z" fill="#CB4500"/>
<path d="M353.895 416.529L342.178 429.373L332.84 428.44L348.403 413.167C347.623 412.577 346.887 411.822 346.195 410.902C345.51 409.951 345.034 408.814 344.768 407.49C344.51 406.136 344.609 404.586 345.064 402.839C345.842 399.857 348.501 395.832 351.048 394.823C353.603 393.785 355.718 391.555 361.864 393.422L370.658 398.558L361.865 432.175L354.783 431.241L358.142 417.636L353.895 416.529ZM358.476 402.476C357.302 402.17 356.257 402.042 355.343 402.093C354.459 402.152 353.713 402.424 353.104 402.909C352.525 403.401 352.106 404.144 351.847 405.138C351.478 406.554 351.65 407.805 352.364 408.892C353.116 409.956 354.456 410.74 356.383 411.243L359.591 412.079L361.865 403.359L358.476 402.476Z" fill="white"/>
<path d="M309.674 426.106L309.674 391.199L309.494 391.152C309.367 391.762 309.176 392.677 308.922 393.898C308.669 395.118 308.391 396.429 308.09 397.83C307.797 399.201 307.505 400.444 307.214 401.558L302.024 425.172L295.02 424.238L309.027 360.74L317.898 365.876L316.125 411.795L316.261 411.831L337.508 378.482L344.045 382.218L330.972 428.441L324.435 427.507L329.287 407.025C329.554 406 329.876 404.83 330.251 403.512C330.657 402.203 331.028 400.965 331.365 399.798C331.739 398.609 332.02 397.717 332.207 397.122L332.026 397.075L315.564 426.573L309.674 426.106Z" fill="white"/>
<path d="M288.484 423.304L267.473 420.503L289.417 349.068L305.759 359.806L302.024 368.677L294.779 363.074L286.149 390.621L294.779 393.442L292.686 401.36L284.282 399.044L280.546 414.433L290.818 415.834L288.484 423.304Z" fill="white"/>
<path d="M269.791 337.441C275.388 341.073 277.091 346.489 278.675 351.286C280.319 356.026 280.214 361.955 278.358 369.071C277.52 372.286 276.422 375.289 275.065 378.077C273.725 380.797 272.057 383.139 270.06 385.103C268.122 387.009 265.868 388.321 263.295 389.039C260.723 389.756 257.793 389.687 254.506 388.83L250.397 387.758L242.728 417.701L232.456 416.767L254.4 327.59L269.791 337.441ZM263.751 354.41L259.389 353.273L253.716 375.031L256.876 375.856C258.688 376.328 260.346 376.358 261.848 375.946C263.351 375.534 264.675 374.601 265.819 373.145C266.964 371.69 267.875 369.662 268.553 367.062C269.499 363.436 269.583 360.608 268.807 358.578C268.049 356.481 266.364 355.091 263.751 354.41Z" fill="white"/>
<path d="M228.254 311.717C233.857 314.985 237.366 317.602 240.586 320.121C244.187 323.856 244.099 328.072 245.002 332.041C245.985 335.936 245.713 340.812 244.187 346.666C243.276 350.161 242.075 353.254 240.586 355.946C239.097 358.637 237.404 360.715 235.508 362.18C233.668 363.66 231.687 364.404 229.566 364.41L229.395 365.066C231.277 366.21 232.835 367.783 234.07 369.784C235.305 371.786 236.017 374.398 236.206 377.62C236.396 380.843 235.853 384.901 234.577 389.794C233.096 395.473 230.912 400.13 228.027 403.764C225.22 407.325 221.859 409.761 217.943 411.073C214.05 412.298 209.503 414.231 204.909 413.033L172.227 409.299L210.074 300.045L228.254 311.717ZM217.561 354.001C221.304 354.977 224.124 354.733 226.02 353.267C227.973 351.817 229.406 349.344 230.317 345.849C231.251 342.266 231.072 339.467 229.781 337.45C228.49 335.434 226.001 333.945 222.314 332.984L215.508 331.209L210.074 352.049L217.561 354.001ZM205.973 367.777L199.616 392.156L208.039 394.352C211.895 395.358 214.885 394.924 217.009 393.052C219.156 391.092 220.73 388.19 221.733 384.345C222.348 381.986 222.543 379.844 222.318 377.919C222.15 376.008 221.397 374.365 220.06 372.99C218.722 371.615 216.692 370.572 213.97 369.863L205.973 367.777Z" fill="white"/>
<path d="M378.596 493.562L381.271 510.742L374.695 517.437L372.535 495.738C371.588 495.977 370.539 496.078 369.387 496.041C368.217 495.98 367.033 495.638 365.834 495.017C364.617 494.37 363.47 493.322 362.393 491.873C360.556 489.399 359.084 484.804 359.892 482.187C360.683 479.545 360.269 476.5 365.575 472.878L375.086 469.239L395.785 497.149L390.622 502.084L382.119 490.945L378.596 493.562ZM370.51 481.19C369.536 481.914 368.782 482.648 368.25 483.392C367.742 484.118 367.487 484.871 367.483 485.649C367.504 486.408 367.821 487.2 368.434 488.025C369.306 489.199 370.39 489.849 371.684 489.973C372.985 490.053 374.435 489.5 376.034 488.312L378.695 486.335L373.321 479.101L370.51 481.19Z" fill="#003D37"/>
<path d="M358.367 534.034L331.154 512.172L331.004 512.283C331.4 512.764 331.994 513.486 332.787 514.448C333.579 515.411 334.427 516.448 335.331 517.56C336.216 518.647 337.002 519.653 337.689 520.578L352.847 539.414L347.733 544.288L307.004 493.6L316.564 489.901L351.251 520.042L351.363 519.959L338.673 482.509L345.679 479.752L373.525 518.894L368.704 523.405L355.775 506.794C355.144 505.944 354.432 504.96 353.641 503.843C352.874 502.706 352.141 501.641 351.442 500.648C350.75 499.612 350.23 498.834 349.884 498.316L349.734 498.427L362.42 529.735L358.367 534.034Z" fill="#003D37"/>
<path d="M342.912 548.799L327.569 563.424L285.624 501.576L304.23 495.563L308.806 504.03L299.901 506.169L315.971 530.149L323.575 525.188L328.436 531.779L321.367 536.881L331.024 549.431L338.55 542.3L342.912 548.799Z" fill="#003D37"/>
<path d="M264.267 509.595C270.604 507.507 275.892 509.572 280.625 511.341C285.35 513.028 289.905 516.823 294.291 522.727C296.272 525.395 297.925 528.131 299.249 530.935C300.53 533.683 301.311 536.45 301.591 539.237C301.864 541.941 301.475 544.521 300.423 546.976C299.371 549.431 297.482 551.671 294.755 553.696L291.347 556.229L309.886 580.961L302.725 588.384L246.948 515.424L264.267 509.595ZM273.713 524.932L270.095 527.62L283.504 545.671L286.126 543.723C287.629 542.606 288.69 541.333 289.31 539.904C289.93 538.474 290.031 536.858 289.614 535.054C289.196 533.25 288.186 531.27 286.584 529.113C284.349 526.104 282.197 524.267 280.129 523.601C278.019 522.878 275.88 523.322 273.713 524.932Z" fill="#003D37"/>
<path d="M218.198 525.864C224.255 523.543 228.493 522.446 232.473 521.514C237.641 521.046 240.872 523.755 244.531 525.537C248.184 527.21 251.814 530.475 255.422 535.332C257.576 538.232 259.236 541.105 260.401 543.951C261.567 546.798 262.126 549.419 262.081 551.815C262.083 554.176 261.422 556.186 260.098 557.844L260.502 558.388C262.573 557.637 264.775 557.407 267.109 557.698C269.442 557.989 271.925 559.07 274.555 560.941C277.186 562.811 280.009 565.776 283.025 569.835C286.525 574.547 288.787 579.166 289.813 583.691C290.831 588.109 290.625 592.255 289.196 596.13C287.712 599.932 286.372 604.687 282.56 607.518L259.18 630.658L197.713 532.726L218.198 525.864ZM244.464 560.683C247.57 558.376 249.145 556.025 249.191 553.629C249.283 551.198 248.252 548.533 246.098 545.633C243.891 542.661 241.596 541.047 239.216 540.791C236.835 540.534 234.115 541.542 231.057 543.814L225.411 548.008L238.254 565.297L244.464 560.683ZM247.946 578.345L262.97 598.569L269.957 593.379C273.157 591.002 274.692 588.4 274.562 585.571C274.378 582.67 273.102 579.625 270.733 576.436C269.279 574.478 267.731 572.985 266.089 571.954C264.495 570.889 262.743 570.447 260.833 570.628C258.923 570.809 256.839 571.739 254.581 573.417L247.946 578.345Z" fill="#003D37"/>
<path d="M438.751 528.495L449.258 539.051L449.306 548.83L436.683 534.591C436.306 535.47 435.802 536.324 435.172 537.154C434.518 537.979 433.708 538.611 432.743 539.048C431.754 539.481 430.591 539.569 429.252 539.311C426.968 538.871 423.757 536.611 422.802 534.098C421.824 531.581 419.994 529.666 420.896 523.075L424.023 513.344L449.777 518.331L449.645 525.774L439.238 523.964L438.751 528.495ZM427.913 525.473C427.779 526.727 427.767 527.823 427.878 528.763C427.992 529.671 428.254 530.41 428.664 530.981C429.077 531.52 429.664 531.862 430.426 532.009C431.51 532.218 432.429 531.886 433.182 531.014C433.915 530.106 434.392 528.623 434.613 526.567L434.981 523.144L428.302 521.858L427.913 525.473Z" fill="#CB4500"/>
<path d="M450.165 575.403L422.133 579.409L422.113 579.602C422.616 579.664 423.37 579.756 424.375 579.88C425.38 580.003 426.461 580.14 427.616 580.292C428.746 580.439 429.773 580.599 430.697 580.773L450.176 583.448L450.123 590.821L397.738 583.576L400.98 573.783L438.031 570.352L438.045 570.207L409.152 551.989L411.501 544.779L449.92 553.038L449.821 559.927L432.89 557.244C432.041 557.084 431.069 556.885 429.974 556.646C428.882 556.376 427.85 556.133 426.88 555.918C425.888 555.666 425.144 555.477 424.648 555.351L424.628 555.544L449.953 569.238L450.165 575.403Z" fill="#CB4500"/>
<path d="M451.366 597.731L450.765 624.514L386.898 608.114L394.789 585.951L402.808 589.254L398.579 599.211L423.222 605.745L424.918 594.484L431.967 595.877L430.69 606.776L444.362 609.065L444.683 595.967L451.366 597.731Z" fill="#CB4500"/>
<path d="M377.487 630.129C380.039 623.948 384.604 621.651 388.64 619.536C392.618 617.365 397.841 616.902 404.309 618.147C407.231 618.71 409.996 619.563 412.603 620.708C415.147 621.84 417.396 623.352 419.351 625.242C421.249 627.076 422.661 629.298 423.586 631.909C424.512 634.519 424.786 637.578 424.409 641.085L423.938 645.469L451.137 650.565L451.493 661.356L370.592 647.115L377.487 630.129ZM393.095 634.781L392.595 639.435L412.371 643.242L412.734 639.87C412.941 637.937 412.778 636.207 412.244 634.682C411.709 633.156 410.737 631.868 409.327 630.816C407.916 629.764 406.029 629.011 403.666 628.556C400.37 627.921 397.875 628.106 396.18 629.111C394.423 630.104 393.395 631.994 393.095 634.781Z" fill="#CB4500"/>
<path d="M359.635 675.889C361.866 669.736 363.764 665.827 365.609 662.229C368.48 658.117 372.196 657.801 375.58 656.476C378.892 655.076 383.209 654.887 388.529 655.912C391.706 656.523 394.563 657.475 397.099 658.766C399.635 660.057 401.656 661.62 403.161 663.454C404.673 665.227 405.553 667.219 405.802 669.429L406.398 669.543C407.188 667.472 408.392 665.696 410.01 664.216C411.628 662.737 413.842 661.742 416.653 661.234C419.463 660.725 423.092 660.898 427.54 661.755C432.702 662.748 437.045 664.573 440.57 667.228C444.021 669.807 446.548 673.073 448.15 677.026C449.672 680.963 451.893 685.513 451.366 690.415L451.828 724.823L351.458 695.956L359.635 675.889ZM398.028 682.941C398.457 678.947 397.919 676.033 396.413 674.199C394.915 672.305 392.577 671.052 389.4 670.44C386.144 669.813 383.704 670.27 382.079 671.81C380.455 673.35 379.431 676.087 379.009 680.021L378.228 687.282L397.169 690.929L398.028 682.941ZM411.464 693.681L433.622 697.947L434.587 688.96C435.029 684.845 434.306 681.772 432.416 679.741C430.448 677.694 427.716 676.334 424.222 675.662C422.077 675.249 420.172 675.253 418.506 675.673C416.846 676.033 415.488 676.976 414.433 678.502C413.377 680.028 412.693 682.244 412.381 685.148L411.464 693.681Z" fill="#CB4500"/>
<path d="M503.455 512.719L518.343 512.288L525.504 518.949L506.483 518.4C506.865 519.276 507.143 520.229 507.316 521.256C507.47 522.298 507.376 523.321 507.033 524.324C506.672 525.341 505.94 526.248 504.836 527.047C502.951 528.411 499.105 529.205 496.62 528.18C494.116 527.169 491.467 527.192 487.28 522.022L482.329 513.081L503.596 497.724L508.931 502.916L500.486 509.262L503.455 512.719ZM493.833 518.55C494.654 519.506 495.445 520.265 496.206 520.828C496.946 521.366 497.664 521.681 498.361 521.773C499.037 521.841 499.688 521.648 500.317 521.193C501.211 520.546 501.599 519.649 501.479 518.503C501.319 517.347 500.565 515.984 499.217 514.414L496.974 511.803L491.464 515.791L493.833 518.55Z" fill="white"/>
<path d="M545.459 536.517L529.187 559.691L529.314 559.837C529.703 559.513 530.287 559.027 531.065 558.379C531.844 557.73 532.683 557.037 533.585 556.299C534.465 555.576 535.285 554.937 536.044 554.382L551.331 542.016L556.669 547.104L515.522 580.324L510.604 571.256L533.47 541.903L533.375 541.793L500.314 550.379L496.667 543.73L528.991 521.382L533.944 526.172L520.396 536.675C519.699 537.184 518.888 537.756 517.964 538.391C517.02 539.002 516.136 539.587 515.315 540.147C514.452 540.698 513.805 541.111 513.374 541.386L513.501 541.533L540.822 532.45L545.459 536.517Z" fill="white"/>
<path d="M562.557 550.927L581.667 569.702L525.986 605.024L515.235 584.099L523.133 580.516L527.494 590.414L549.13 576.927L542.083 567.981L547.924 563.797L554.994 572.189L566.023 563.792L556.696 554.59L562.557 550.927Z" fill="white"/>
<path d="M535.589 626.956C532.83 620.864 534.281 615.964 535.503 611.575C536.645 607.188 539.883 603.065 545.219 599.203C547.63 597.458 550.145 596.027 552.763 594.911C555.331 593.832 557.973 593.227 560.689 593.097C563.325 592.969 565.911 593.462 568.448 594.575C570.984 595.687 573.401 597.582 575.7 600.257L578.572 603.602L600.908 587.267L609.017 594.395L543.248 643.611L535.589 626.956ZM549.666 618.765L552.715 622.315L569.03 610.508L566.82 607.935C565.553 606.46 564.181 605.395 562.703 604.74C561.225 604.085 559.62 603.911 557.888 604.219C556.156 604.527 554.315 605.387 552.366 606.798C549.646 608.766 548.073 610.711 547.645 612.634C547.165 614.594 547.839 616.638 549.666 618.765Z" fill="white"/>
<path d="M556.718 671.297C553.761 665.459 552.211 661.399 550.852 657.591C549.82 652.683 552.134 649.758 553.486 646.384C554.732 643.012 557.551 639.737 561.94 636.56C564.561 634.663 567.21 633.233 569.888 632.268C572.565 631.304 575.088 630.901 577.455 631.059C579.782 631.172 581.837 631.893 583.618 633.225L584.109 632.869C583.14 630.875 582.67 628.782 582.7 626.59C582.729 624.397 583.52 622.102 585.074 619.705C586.627 617.308 589.238 614.782 592.907 612.127C597.166 609.045 601.469 607.128 605.818 606.377C610.061 605.627 614.171 606.022 618.149 607.56C622.061 609.146 626.897 610.643 630.11 614.383L655.505 637.605L565.745 690.997L556.718 671.297ZM588.144 648.143C585.526 645.096 583.034 643.493 580.667 643.334C578.26 643.129 575.746 643.975 573.126 645.872C570.439 647.816 569.101 649.907 569.112 652.146C569.122 654.385 570.416 657.004 572.994 660.005L577.752 665.546L593.378 654.237L588.144 648.143ZM605.171 645.702L623.451 632.473L617.562 625.617C614.865 622.477 612.13 620.901 609.356 620.887C606.516 620.921 603.655 621.981 600.772 624.067C599.003 625.347 597.701 626.738 596.867 628.241C595.993 629.697 595.751 631.332 596.14 633.147C596.53 634.961 597.676 636.976 599.58 639.192L605.171 645.702Z" fill="white"/>
<path d="M537.264 452.422L547.166 441.297L556.925 440.658L543.474 454.118C544.374 454.441 545.257 454.893 546.124 455.472C546.987 456.075 547.666 456.845 548.161 457.782C548.653 458.743 548.811 459.899 548.634 461.25C548.333 463.557 546.271 466.899 543.821 468.004C541.367 469.132 539.566 471.074 532.932 470.572L523.031 468.039L526.452 442.031L533.891 441.712L532.712 452.21L537.264 452.422ZM534.903 463.423C536.162 463.481 537.257 463.427 538.189 463.259C539.088 463.09 539.81 462.784 540.355 462.341C540.868 461.896 541.174 461.289 541.275 460.52C541.418 459.425 541.031 458.528 540.115 457.829C539.164 457.152 537.656 456.765 535.589 456.669L532.151 456.508L531.271 463.253L534.903 463.423Z" fill="#003D37"/>
<path d="M583.398 438.196L589.09 465.935L589.283 465.943C589.315 465.437 589.361 464.679 589.424 463.668C589.486 462.657 589.558 461.571 589.64 460.409C589.718 459.272 589.816 458.237 589.933 457.304L591.427 437.699L598.79 437.307L594.723 490.033L584.751 487.389L579.089 450.613L578.944 450.607L562.504 480.549L555.165 478.639L561.088 439.791L567.971 439.474L566.315 456.536C566.207 457.393 566.067 458.376 565.895 459.483C565.691 460.59 565.51 461.634 565.354 462.615C565.163 463.621 565.019 464.375 564.923 464.878L565.117 464.886L577.257 438.779L583.398 438.196Z" fill="#003D37"/>
<path d="M605.613 435.647L632.383 434.629L619.871 499.37L597.271 492.832L600.084 484.629L610.278 488.248L615.312 463.255L603.969 462.243L604.934 455.123L615.89 455.738L617.349 441.953L604.255 442.424L605.613 435.647Z" fill="#003D37"/>
<path d="M642.414 507.434C636.089 505.261 633.521 500.842 631.166 496.942C628.759 493.102 627.981 487.917 628.833 481.386C629.218 478.434 629.903 475.623 630.888 472.952C631.865 470.344 633.238 468.007 635.007 465.942C636.723 463.937 638.856 462.393 641.406 461.312C643.955 460.23 646.992 459.772 650.516 459.936L654.92 460.141L658.363 432.685L669.113 431.678L659.785 513.291L642.414 507.434ZM646.115 491.573L650.79 491.791L653.396 471.822L650.008 471.664C648.065 471.573 646.349 471.841 644.858 472.466C643.368 473.092 642.14 474.14 641.176 475.611C640.211 477.083 639.573 479.012 639.262 481.398C638.828 484.726 639.163 487.206 640.268 488.837C641.365 490.531 643.314 491.443 646.115 491.573Z" fill="#003D37"/>
<path d="M689.167 522.491C682.891 520.636 678.874 518.977 675.172 517.353C670.893 514.735 670.354 511.046 668.827 507.747C667.229 504.526 666.78 500.229 667.481 494.856C667.9 491.648 668.677 488.739 669.813 486.13C670.948 483.52 672.386 481.409 674.126 479.795C675.805 478.179 677.739 477.18 679.93 476.798L680.009 476.197C677.893 475.533 676.048 474.439 674.473 472.913C672.899 471.387 671.772 469.237 671.095 466.462C670.417 463.688 670.371 460.055 670.957 455.564C671.637 450.351 673.196 445.906 675.633 442.227C677.999 438.626 681.107 435.907 684.955 434.069C688.793 432.311 693.201 429.82 698.126 430.05L732.444 427.51L709.692 529.441L689.167 522.491ZM693.887 483.742C689.875 483.555 686.999 484.268 685.259 485.882C683.459 487.492 682.349 489.901 681.931 493.109C681.502 496.397 682.105 498.805 683.74 500.334C685.376 501.862 688.169 502.719 692.121 502.903L699.417 503.243L701.913 484.116L693.887 483.742ZM703.796 469.681L706.716 447.307L697.688 446.886C693.553 446.693 690.53 447.601 688.616 449.61C686.692 451.698 685.5 454.507 685.039 458.036C684.757 460.201 684.876 462.103 685.396 463.74C685.855 465.376 686.879 466.674 688.466 467.635C690.053 468.597 692.306 469.146 695.224 469.282L703.796 469.681Z" fill="#003D37"/>
<path d="M515.417 377.27L512.904 362.98L518.423 355.41L520.557 373.78C521.362 373.323 522.256 372.959 523.239 372.688C524.237 372.434 525.252 372.421 526.283 372.649C527.33 372.894 528.322 373.507 529.26 374.489C530.861 376.166 532.178 379.788 531.523 382.285C530.885 384.798 531.279 387.347 526.803 391.902L518.739 397.575L500.708 378.655L505.045 372.992L512.447 380.48L515.417 377.27ZM522.481 385.944C523.302 385.057 523.935 384.218 524.379 383.428C524.802 382.661 525.01 381.938 525.003 381.258C524.974 380.601 524.693 379.993 524.16 379.434C523.4 378.638 522.467 378.356 521.361 378.588C520.251 378.859 519.021 379.723 517.674 381.179L515.431 383.604L520.111 388.505L522.481 385.944Z" fill="#CB4500"/>
<path d="M532.831 334.416L557.818 347.735L557.944 347.598C557.572 347.256 557.013 346.743 556.269 346.06C555.525 345.376 554.727 344.638 553.878 343.845C553.045 343.07 552.304 342.345 551.655 341.671L537.394 328.206L541.627 322.551L579.95 358.801L571.758 364.456L539.791 345.414L539.697 345.517L552.752 376.478L546.75 380.664L520.318 351.806L524.314 346.552L536.506 358.532C537.103 359.152 537.777 359.874 538.529 360.699C539.26 361.547 539.957 362.338 540.621 363.072C541.282 363.847 541.777 364.428 542.107 364.816L542.233 364.679L529.498 339.294L532.831 334.416Z" fill="#CB4500"/>
<path d="M544.547 316.494L560.254 296.192L602.677 346.223L583.688 358.695L579.069 351.454L588.154 346.251L571.902 326.787L564.129 334.479L559.209 329.278L566.438 321.621L556.662 311.853L548.958 321.766L544.547 316.494Z" fill="#CB4500"/>
<path d="M622.812 334.754C617.232 338.028 612.228 337.127 607.757 336.395C603.3 335.741 598.805 333.041 594.273 328.295C592.225 326.15 590.47 323.873 589.009 321.465C587.591 319.103 586.627 316.62 586.118 314.018C585.623 311.493 585.742 308.953 586.476 306.398C587.21 303.843 588.726 301.324 591.024 298.84L593.897 295.735L574.758 275.885L580.602 267.355L638.053 325.691L622.812 334.754ZM612.811 322.03L615.861 318.734L602.003 304.223L599.793 306.611C598.526 307.981 597.675 309.41 597.241 310.899C596.807 312.388 596.862 313.951 597.407 315.588C597.952 317.224 599.053 318.91 600.709 320.644C603.019 323.062 605.145 324.38 607.089 324.598C609.077 324.861 610.984 324.005 612.811 322.03Z" fill="#CB4500"/>
<path d="M663.283 309.917C657.978 313.356 654.219 315.26 650.679 316.954C646.016 318.445 642.826 316.513 639.331 315.553C635.852 314.695 632.248 312.314 628.52 308.409C626.293 306.078 624.52 303.672 623.199 301.192C621.878 298.712 621.129 296.324 620.952 294.029C620.735 291.776 621.154 289.725 622.208 287.875L621.79 287.438C619.973 288.573 617.989 289.238 615.837 289.432C613.685 289.626 611.326 289.096 608.759 287.843C606.193 286.591 603.352 284.333 600.235 281.069C596.618 277.281 594.136 273.332 592.789 269.221C591.459 265.212 591.268 261.214 592.216 257.229C593.221 253.301 594.008 248.493 597.22 245.021L616.401 218.216L681.312 299.228L663.283 309.917ZM636.186 282.006C633.568 284.834 632.348 287.396 632.525 289.692C632.663 292.03 633.845 294.365 636.071 296.696C638.353 299.085 640.589 300.161 642.781 299.924C644.972 299.688 647.357 298.176 649.935 295.39L654.694 290.247L641.421 276.348L636.186 282.006ZM631.404 265.858L615.877 249.599L609.987 255.964C607.291 258.878 606.13 261.672 606.506 264.344C606.938 267.075 608.378 269.722 610.827 272.287C612.33 273.86 613.875 274.972 615.464 275.624C617.014 276.318 618.65 276.385 620.372 275.826C622.095 275.267 623.908 273.959 625.812 271.902L631.404 265.858Z" fill="#CB4500"/>
<path d="M445.205 351.194L433.107 343.478L431.392 334.445L446.193 345.155C446.412 344.269 446.761 343.381 447.238 342.491C447.738 341.601 448.424 340.86 449.295 340.267C450.19 339.675 451.316 339.367 452.671 339.345C454.985 339.307 458.519 340.772 459.883 342.91C461.27 345.047 463.391 346.462 463.631 352.732L462.225 362.337L436.131 362.737L434.991 355.829L445.501 355.478L445.205 351.194ZM456.344 351.879C456.262 350.694 456.086 349.678 455.817 348.83C455.551 348.013 455.168 347.381 454.669 346.933C454.172 346.515 453.538 346.312 452.767 346.325C451.668 346.343 450.824 346.828 450.235 347.781C449.671 348.764 449.456 350.227 449.59 352.172L449.813 355.408L456.579 355.297L456.344 351.879Z" fill="white"/>
<path d="M426.02 310.042L452.813 300.884L452.8 300.702C452.296 300.743 451.542 300.804 450.535 300.885C449.529 300.967 448.446 301.05 447.288 301.134C446.156 301.219 445.122 301.27 444.186 301.29L424.637 302.606L423.432 295.778L476.014 292.285L474.506 301.971L438.775 312.351L438.785 312.488L470.212 323.711L469.139 330.835L430.073 330.673L428.996 324.284L446.049 323.471C446.908 323.454 447.895 323.449 449.009 323.456C450.125 323.494 451.178 323.518 452.166 323.528C453.181 323.568 453.943 323.598 454.45 323.618L454.437 323.436L427.278 315.701L426.02 310.042Z" fill="white"/>
<path d="M421.036 289.631L417.058 264.751L482.455 267.489L478.5 289.517L470.077 288.022L472.524 277.994L447.255 276.746L447.513 287.488L440.366 287.571L439.759 277.246L425.968 277.789L427.887 289.963L421.036 289.631Z" fill="white"/>
<path d="M487.925 245.303C486.479 251.515 482.395 254.527 478.8 257.267C475.271 260.048 470.231 261.493 463.679 261.6C460.718 261.648 457.863 261.397 455.113 260.846C452.426 260.294 449.963 259.334 447.724 257.966C445.552 256.64 443.789 254.859 442.437 252.626C441.085 250.392 440.294 247.617 440.066 244.301L439.78 240.156L412.252 240.737L410.063 230.828L491.788 228.256L487.925 245.303ZM471.834 244.038L471.53 239.638L451.497 239.965L451.717 243.153C451.843 244.982 452.298 246.549 453.082 247.855C453.866 249.162 455.038 250.164 456.6 250.862C458.162 251.56 460.14 251.89 462.534 251.851C465.872 251.796 468.287 251.14 469.777 249.881C471.33 248.621 472.015 246.674 471.834 244.038Z" fill="white"/>
<path d="M497.622 199.52C496.484 205.643 495.29 209.626 494.095 213.312C491.982 217.673 488.394 218.687 485.302 220.571C482.295 222.51 478.096 223.524 472.706 223.612C469.488 223.664 466.526 223.34 463.82 222.64C461.114 221.94 458.867 220.888 457.079 219.485C455.294 218.139 454.092 216.469 453.471 214.475L452.868 214.484C452.447 216.553 451.569 218.429 450.236 220.112C448.902 221.795 446.901 223.145 444.233 224.163C441.565 225.18 437.978 225.726 433.473 225.799C428.244 225.885 423.675 225.043 419.768 223.273C415.945 221.56 412.912 219.032 410.668 215.689C408.504 212.345 405.552 208.57 405.232 203.935L398.912 172.21L502.215 179.374L497.622 199.52ZM458.788 200.468C459.048 204.245 460.072 206.834 461.86 208.237C463.652 209.697 466.157 210.401 469.375 210.348C472.674 210.294 474.988 209.397 476.317 207.657C477.647 205.917 478.184 203.187 477.927 199.468L477.454 192.602L458.267 192.916L458.788 200.468ZM443.786 193.152L421.341 193.519L421.926 202.015C422.195 205.906 423.428 208.607 425.626 210.118C427.905 211.627 430.814 212.353 434.354 212.295C436.526 212.26 438.393 211.885 439.954 211.172C441.52 210.517 442.69 209.381 443.465 207.764C444.239 206.148 444.532 203.966 444.342 201.22L443.786 193.152Z" fill="white"/>
<path d="M376.64 381.644L362.749 385.242L354.969 380.343L372.892 376.806C372.393 376.042 371.981 375.182 371.654 374.227C371.343 373.254 371.268 372.247 371.428 371.205C371.605 370.146 372.146 369.113 373.054 368.106C374.603 366.386 378.082 364.798 380.576 365.256C383.086 365.696 385.567 365.108 390.319 369.204L396.392 376.778L378.907 396.15L373.073 392.278L379.977 384.347L376.64 381.644ZM384.73 373.957C383.807 373.21 382.944 372.646 382.14 372.265C381.36 371.904 380.636 371.754 379.968 371.813C379.324 371.892 378.744 372.218 378.228 372.792C377.492 373.608 377.272 374.556 377.568 375.637C377.903 376.719 378.828 377.874 380.343 379.101L382.864 381.142L387.393 376.114L384.73 373.957Z" fill="#003D37"/>
<path d="M333.446 367.649L344.998 341.798L344.855 341.684C344.542 342.08 344.073 342.674 343.447 343.466C342.821 344.259 342.144 345.107 341.417 346.013C340.707 346.899 340.04 347.691 339.417 348.389L327.061 363.595L321.242 359.825L354.511 318.957L360.574 326.66L343.827 359.887L343.934 359.972L373.561 344.615L378.045 350.254L351.309 378.739L345.899 375.175L356.922 362.139C357.495 361.498 358.164 360.772 358.928 359.962C359.717 359.17 360.451 358.416 361.132 357.7C361.853 356.984 362.393 356.447 362.754 356.089L362.611 355.975L338.446 370.584L333.446 367.649Z" fill="#003D37"/>
<path d="M315.11 357.392L294.188 343.352L340.749 297.348L354.178 315.251L347.345 320.398L341.672 311.774L323.542 329.421L331.581 336.55L326.773 341.839L318.801 335.248L309.802 345.713L320.021 352.602L315.11 357.392Z" fill="#003D37"/>
<path d="M328.236 278.227C331.797 283.518 331.22 288.56 330.776 293.058C330.408 297.536 328.031 302.21 323.645 307.079C321.663 309.279 319.534 311.198 317.257 312.835C315.022 314.426 312.642 315.575 310.115 316.281C307.664 316.968 305.16 317.045 302.604 316.513C300.047 315.981 297.478 314.669 294.895 312.577L291.666 309.962L273.335 330.508L264.591 325.359L318.39 263.785L328.236 278.227ZM316.346 289.144L312.919 286.368L299.509 301.255L301.993 303.267C303.417 304.42 304.874 305.155 306.365 305.471C307.855 305.788 309.388 305.612 310.963 304.944C312.538 304.277 314.126 303.054 315.729 301.275C317.964 298.794 319.128 296.579 319.222 294.631C319.358 292.636 318.399 290.807 316.346 289.144Z" fill="#003D37"/>
<path d="M301.33 239.937C305.037 244.941 307.14 248.529 309.023 251.915C310.775 256.433 309.073 259.751 308.346 263.297C307.716 266.82 305.598 270.584 301.99 274.589C299.836 276.981 297.58 278.928 295.224 280.432C292.867 281.935 290.567 282.863 288.322 283.216C286.121 283.606 284.079 283.348 282.196 282.443L281.792 282.892C283.02 284.609 283.795 286.53 284.118 288.653C284.442 290.776 284.067 293.16 282.993 295.806C281.92 298.453 279.876 301.45 276.86 304.797C273.36 308.683 269.631 311.454 265.674 313.108C261.815 314.739 257.898 315.237 253.922 314.602C250 313.907 245.225 313.496 241.615 310.572L214.087 293.584L289.714 222.849L301.33 239.937ZM275.566 269.009C278.508 271.391 281.101 272.406 283.346 272.053C285.636 271.736 287.858 270.382 290.012 267.99C292.22 265.539 293.14 263.234 292.772 261.075C292.404 258.916 290.772 256.664 287.875 254.318L282.526 249.986L269.683 264.244L275.566 269.009ZM259.99 275.005L244.966 291.684L251.584 297.045C254.615 299.499 257.432 300.436 260.035 299.857C262.693 299.217 265.206 297.582 267.576 294.952C269.03 293.338 270.028 291.716 270.57 290.087C271.157 288.495 271.122 286.864 270.467 285.196C269.811 283.528 268.413 281.827 266.274 280.095L259.99 275.005Z" fill="#003D37"/>
<defs>
<filter id="filter0_i_254_22" x="264.712" y="126.289" width="174.705" height="271.698" filterUnits="userSpaceOnUse" color-interpolation-filters="sRGB">
<feFlood flood-opacity="0" result="BackgroundImageFix"/>
<feBlend mode="normal" in="SourceGraphic" in2="BackgroundImageFix" result="shape"/>
<feColorMatrix in="SourceAlpha" type="matrix" values="0 0 0 0 0 0 0 0 0 0 0 0 0 0 0 0 0 0 127 0" result="hardAlpha"/>
<feOffset dy="3.73519"/>
<feGaussianBlur stdDeviation="1.86759"/>
<feComposite in2="hardAlpha" operator="arithmetic" k2="-1" k3="1"/>
<feColorMatrix type="matrix" values="0 0 0 0 0 0 0 0 0 0 0 0 0 0 0 0 0 0 0.25 0"/>
<feBlend mode="normal" in2="shape" result="effect1_innerShadow_254_22"/>
</filter>
</defs>
</svg>
