<svg width="32" height="32" viewBox="0 0 32 32" fill="none" xmlns="http://www.w3.org/2000/svg">
<rect width="32" height="32" fill="#E76BC8"/>
<ellipse cx="4.76625" cy="7.92113" rx="3.12201" ry="3.81579" transform="rotate(-35.8918 4.76625 7.92113)" fill="white"/>
<ellipse cx="3.12201" cy="3.81579" rx="3.12201" ry="3.81579" transform="matrix(-0.810126 -0.586256 -0.586256 0.810126 31 6.98438)" fill="white"/>
<ellipse cx="15.8315" cy="17.0537" rx="14.6108" ry="12.4737" fill="white"/>
<path d="M19.2035 17.5595C19.2095 18.2542 17.5836 19.1584 15.8529 19.4627C14.1172 19.1884 12.4759 18.3123 12.4699 17.6177C12.4639 16.923 12.9929 15.8898 15.7047 16.1431C18.3725 15.9188 19.1975 16.8648 19.2035 17.5595Z" fill="black"/>
<line x1="15.7957" y1="19.2617" x2="15.7957" y2="20.0515" stroke="black" stroke-width="0.358988"/>
<path d="M9.54847 9.40039L10.5539 12.4947H13.8075L11.1753 14.4071L12.1807 17.5015L9.54847 15.5891L6.91628 17.5015L7.92169 14.4071L5.28949 12.4947H8.54306L9.54847 9.40039Z" fill="#E76BC8"/>
<path d="M12.2894 10.3366L11.1905 13.399L13.7635 15.3904L10.5114 15.2917L9.41256 18.3541L8.50152 15.2307L5.24944 15.1319L7.93847 13.3003L7.02743 10.1769L9.60038 12.1683L12.2894 10.3366Z" fill="#E76BC8"/>
<circle cx="21.3959" cy="13.8773" r="1.97085" fill="white" stroke="black" stroke-width="0.437966"/>
<circle cx="9.5492" cy="13.8773" r="1.97085" fill="white" stroke="black" stroke-width="0.437966"/>
<circle cx="22.0953" cy="13.8609" r="1.4898" fill="black"/>
<circle cx="10.2496" cy="13.8609" r="1.4898" fill="black"/>
</svg>
