<svg width="2560" height="790" viewBox="0 0 2560 790" fill="none" xmlns="http://www.w3.org/2000/svg">
<g clip-path="url(#clip0_236_97)">
<rect width="1280" height="790" fill="white"/>
<rect y="-24" width="1292" height="814" fill="#E76BC8"/>
<path d="M589.578 831.5L405.078 810.5L613.781 380.445H684.561L589.578 831.5Z" fill="#F20309"/>
<circle cx="653.675" cy="348.273" r="51.4761" fill="#F20309"/>
<path d="M238 797.5L-32.4993 797.5L620.988 347.465L661.585 405.445L238 797.5Z" fill="#F20309"/>
<path d="M1096.07 822.822L1358.57 822.821L713.158 386.398L672.561 444.377L1096.07 822.822Z" fill="#F20309"/>
<path d="M-74.4219 295.5L-58.9247 154L620.214 322.535V393.314L-74.4219 295.5Z" fill="#F20309"/>
<path d="M1345.71 303.5L1330.22 162L651.078 330.535V401.314L1345.71 303.5Z" fill="#F20309"/>
<path d="M-72.9219 449.814L-57.4247 591.314L621.714 422.78V352L-72.9219 449.814Z" fill="#F20309"/>
<path d="M1349.71 453.814L1334.22 595.314L655.078 426.78V356L1349.71 453.814Z" fill="#F20309"/>
<path d="M-76 -17.6523L220.579 -17.6523L646.917 284.215L606.32 342.194L-76 -17.6523Z" fill="#F20309"/>
<path d="M1367.57 -17.6533L1070.99 -17.6533L644.649 284.214L685.247 342.193L1367.57 -17.6533Z" fill="#F20309"/>
<path d="M571.578 -133L387.078 -112L595.781 318.055H666.561L571.578 -133Z" fill="#F20309"/>
<path d="M736.06 -115L920.56 -94L711.858 336.055H641.078L736.06 -115Z" fill="#F20309"/>
<path d="M708.06 828.055L892.56 807.055L683.858 377H613.078L708.06 828.055Z" fill="#F20309"/>
<ellipse cx="322.769" cy="163.095" rx="86.9668" ry="106.293" transform="rotate(-35.8918 322.769 163.095)" fill="white"/>
<ellipse cx="86.9668" cy="106.293" rx="86.9668" ry="106.293" transform="matrix(-0.810126 -0.586256 -0.586256 0.810126 1053.54 136.97)" fill="white"/>
<ellipse cx="631" cy="417.467" rx="407" ry="347.467" fill="white"/>
<path d="M724.929 431.58C725.097 450.93 679.805 476.12 631.595 484.595C583.246 476.954 537.526 452.55 537.359 433.2C537.192 413.849 551.928 385.069 627.467 392.125C701.78 385.877 724.762 412.229 724.929 431.58Z" fill="black"/>
<line x1="630" y1="479" x2="630" y2="501" stroke="black" stroke-width="10"/>
<path d="M456 204.256L484.007 290.452H574.638L501.316 343.724L529.323 429.92L456 376.648L382.677 429.92L410.684 343.724L337.361 290.452H427.993L456 204.256Z" fill="#E76BC8"/>
<path d="M532.351 230.352L501.742 315.658L573.414 371.131L482.824 368.38L452.214 453.687L426.836 366.68L336.246 363.93L411.151 312.907L385.774 225.901L457.446 281.374L532.351 230.352Z" fill="#E76BC8"/>
</g>
<g clip-path="url(#clip1_236_97)">
<rect width="1280" height="790" transform="translate(1280)" fill="white"/>
<rect x="1280" y="-24" width="1292" height="814" fill="#F20309"/>
<path d="M1869.58 831.5L1685.08 810.5L1893.78 380.445H1964.56L1869.58 831.5Z" fill="#E76BC8"/>
<circle cx="1933.68" cy="348.273" r="51.4761" fill="#E76BC8"/>
<path d="M1518 797.5L1247.5 797.5L1900.99 347.465L1941.59 405.445L1518 797.5Z" fill="#E76BC8"/>
<path d="M2376.07 822.822L2638.57 822.821L1993.16 386.398L1952.56 444.377L2376.07 822.822Z" fill="#E76BC8"/>
<path d="M1205.58 295.5L1221.08 154L1900.21 322.535V393.314L1205.58 295.5Z" fill="#E76BC8"/>
<path d="M2625.71 303.5L2610.22 162L1931.08 330.535V401.314L2625.71 303.5Z" fill="#E76BC8"/>
<path d="M1207.08 449.814L1222.58 591.314L1901.71 422.78V352L1207.08 449.814Z" fill="#E76BC8"/>
<path d="M2629.71 453.814L2614.22 595.314L1935.08 426.78V356L2629.71 453.814Z" fill="#E76BC8"/>
<path d="M1204 -17.6523L1500.58 -17.6523L1926.92 284.215L1886.32 342.194L1204 -17.6523Z" fill="#E76BC8"/>
<path d="M2647.57 -17.6533L2350.99 -17.6533L1924.65 284.214L1965.25 342.193L2647.57 -17.6533Z" fill="#E76BC8"/>
<path d="M1851.58 -133L1667.08 -112L1875.78 318.055H1946.56L1851.58 -133Z" fill="#E76BC8"/>
<path d="M2016.06 -115L2200.56 -94L1991.86 336.055H1921.08L2016.06 -115Z" fill="#E76BC8"/>
<path d="M1988.06 828.055L2172.56 807.055L1963.86 377H1893.08L1988.06 828.055Z" fill="#E76BC8"/>
<ellipse cx="1602.77" cy="163.095" rx="86.9668" ry="106.293" transform="rotate(-35.8918 1602.77 163.095)" fill="white"/>
<ellipse cx="86.9668" cy="106.293" rx="86.9668" ry="106.293" transform="matrix(-0.810126 -0.586256 -0.586256 0.810126 2333.54 136.97)" fill="white"/>
<ellipse cx="1911" cy="417.467" rx="407" ry="347.467" fill="white"/>
<path d="M2004.93 431.58C2005.1 450.93 1959.81 476.12 1911.6 484.595C1863.25 476.954 1817.53 452.55 1817.36 433.2C1817.19 413.849 1831.93 385.069 1907.47 392.125C1981.78 385.877 2004.76 412.229 2004.93 431.58Z" fill="black"/>
<line x1="1910" y1="479" x2="1910" y2="501" stroke="black" stroke-width="10"/>
<path d="M1736 204.256L1764.01 290.452H1854.64L1781.32 343.724L1809.32 429.92L1736 376.648L1662.68 429.92L1690.68 343.724L1617.36 290.452H1707.99L1736 204.256Z" fill="#E76BC8"/>
<path d="M1812.35 230.352L1781.74 315.658L1853.41 371.131L1762.82 368.38L1732.21 453.687L1706.84 366.68L1616.25 363.93L1691.15 312.907L1665.77 225.901L1737.45 281.374L1812.35 230.352Z" fill="#E76BC8"/>
</g>
<defs>
<clipPath id="clip0_236_97">
<rect width="1280" height="790" fill="white"/>
</clipPath>
<clipPath id="clip1_236_97">
<rect width="1280" height="790" fill="white" transform="translate(1280)"/>
</clipPath>
</defs>
</svg>
