<svg width="2584" height="790" viewBox="0 0 2584 790" fill="none" xmlns="http://www.w3.org/2000/svg">
<g clip-path="url(#clip0_234_96)">
<rect width="1292" height="790" fill="white"/>
<rect y="-24" width="1292" height="814" fill="#E76BC8"/>
<path d="M589.578 831.5L405.078 810.5L613.781 380.445H684.561L589.578 831.5Z" fill="#F20309"/>
<circle cx="653.675" cy="348.273" r="51.4761" fill="#F20309"/>
<path d="M238 797.5L-32.4993 797.5L620.988 347.465L661.585 405.445L238 797.5Z" fill="#F20309"/>
<path d="M1096.07 822.822L1358.57 822.821L713.158 386.398L672.561 444.377L1096.07 822.822Z" fill="#F20309"/>
<path d="M-74.4219 295.5L-58.9247 154L620.214 322.535V393.314L-74.4219 295.5Z" fill="#F20309"/>
<path d="M1345.71 303.5L1330.22 162L651.078 330.535V401.314L1345.71 303.5Z" fill="#F20309"/>
<path d="M-72.9219 449.814L-57.4247 591.314L621.714 422.78V352L-72.9219 449.814Z" fill="#F20309"/>
<path d="M1349.71 453.814L1334.22 595.314L655.078 426.78V356L1349.71 453.814Z" fill="#F20309"/>
<path d="M-76 -17.6523L220.579 -17.6523L646.917 284.215L606.32 342.194L-76 -17.6523Z" fill="#F20309"/>
<path d="M1367.57 -17.6533L1070.99 -17.6533L644.649 284.214L685.247 342.193L1367.57 -17.6533Z" fill="#F20309"/>
<path d="M571.578 -133L387.078 -112L595.781 318.055H666.561L571.578 -133Z" fill="#F20309"/>
<path d="M736.06 -115L920.56 -94L711.858 336.055H641.078L736.06 -115Z" fill="#F20309"/>
<path d="M708.06 828.055L892.56 807.055L683.858 377H613.078L708.06 828.055Z" fill="#F20309"/>
<ellipse cx="322.769" cy="163.095" rx="86.9668" ry="106.293" transform="rotate(-35.8918 322.769 163.095)" fill="white"/>
<ellipse cx="86.9668" cy="106.293" rx="86.9668" ry="106.293" transform="matrix(-0.810126 -0.586256 -0.586256 0.810126 1053.54 136.97)" fill="white"/>
<ellipse cx="631" cy="417.467" rx="407" ry="347.467" fill="white"/>
<path d="M724.929 431.58C725.097 450.93 679.805 476.12 631.595 484.595C583.246 476.954 537.526 452.55 537.359 433.2C537.192 413.849 551.928 385.069 627.467 392.125C701.78 385.877 724.762 412.229 724.929 431.58Z" fill="black"/>
<line x1="630" y1="479" x2="630" y2="501" stroke="black" stroke-width="10"/>
<path d="M456 204.256L484.007 290.452H574.638L501.316 343.724L529.323 429.92L456 376.648L382.677 429.92L410.684 343.724L337.361 290.452H427.993L456 204.256Z" fill="#E76BC8"/>
<path d="M532.351 230.352L501.742 315.658L573.414 371.131L482.824 368.38L452.214 453.687L426.836 366.68L336.246 363.93L411.151 312.907L385.774 225.901L457.446 281.374L532.351 230.352Z" fill="#E76BC8"/>
</g>
<g clip-path="url(#clip1_234_96)">
<rect width="1292" height="790" transform="translate(1292)" fill="white"/>
<rect x="1292" y="-24" width="1292" height="814" fill="#F20309"/>
<path d="M1881.58 831.5L1697.08 810.5L1905.78 380.445H1976.56L1881.58 831.5Z" fill="#E76BC8"/>
<circle cx="1945.68" cy="348.273" r="51.4761" fill="#E76BC8"/>
<path d="M1530 797.5L1259.5 797.5L1912.99 347.465L1953.59 405.445L1530 797.5Z" fill="#E76BC8"/>
<path d="M2388.07 822.822L2650.57 822.821L2005.16 386.398L1964.56 444.377L2388.07 822.822Z" fill="#E76BC8"/>
<path d="M1217.58 295.5L1233.08 154L1912.21 322.535V393.314L1217.58 295.5Z" fill="#E76BC8"/>
<path d="M2637.71 303.5L2622.22 162L1943.08 330.535V401.314L2637.71 303.5Z" fill="#E76BC8"/>
<path d="M1219.08 449.814L1234.58 591.314L1913.71 422.78V352L1219.08 449.814Z" fill="#E76BC8"/>
<path d="M2641.71 453.814L2626.22 595.314L1947.08 426.78V356L2641.71 453.814Z" fill="#E76BC8"/>
<path d="M1216 -17.6523L1512.58 -17.6523L1938.92 284.215L1898.32 342.194L1216 -17.6523Z" fill="#E76BC8"/>
<path d="M2659.57 -17.6533L2362.99 -17.6533L1936.65 284.214L1977.25 342.193L2659.57 -17.6533Z" fill="#E76BC8"/>
<path d="M1863.58 -133L1679.08 -112L1887.78 318.055H1958.56L1863.58 -133Z" fill="#E76BC8"/>
<path d="M2028.06 -115L2212.56 -94L2003.86 336.055H1933.08L2028.06 -115Z" fill="#E76BC8"/>
<path d="M2000.06 828.055L2184.56 807.055L1975.86 377H1905.08L2000.06 828.055Z" fill="#E76BC8"/>
<ellipse cx="1614.77" cy="163.095" rx="86.9668" ry="106.293" transform="rotate(-35.8918 1614.77 163.095)" fill="white"/>
<ellipse cx="86.9668" cy="106.293" rx="86.9668" ry="106.293" transform="matrix(-0.810126 -0.586256 -0.586256 0.810126 2345.54 136.97)" fill="white"/>
<ellipse cx="1923" cy="417.467" rx="407" ry="347.467" fill="white"/>
<path d="M2016.93 431.58C2017.1 450.93 1971.81 476.12 1923.6 484.595C1875.25 476.954 1829.53 452.55 1829.36 433.2C1829.19 413.849 1843.93 385.069 1919.47 392.125C1993.78 385.877 2016.76 412.229 2016.93 431.58Z" fill="black"/>
<line x1="1922" y1="479" x2="1922" y2="501" stroke="black" stroke-width="10"/>
<path d="M1748 204.256L1776.01 290.452H1866.64L1793.32 343.724L1821.32 429.92L1748 376.648L1674.68 429.92L1702.68 343.724L1629.36 290.452H1719.99L1748 204.256Z" fill="#E76BC8"/>
<path d="M1824.35 230.352L1793.74 315.658L1865.41 371.131L1774.82 368.38L1744.21 453.687L1718.84 366.68L1628.25 363.93L1703.15 312.907L1677.77 225.901L1749.45 281.374L1824.35 230.352Z" fill="#E76BC8"/>
</g>
<defs>
<clipPath id="clip0_234_96">
<rect width="1292" height="790" fill="white"/>
</clipPath>
<clipPath id="clip1_234_96">
<rect width="1292" height="790" fill="white" transform="translate(1292)"/>
</clipPath>
</defs>
</svg>
