<svg width="1997" height="467" viewBox="0 0 1997 467" fill="none" xmlns="http://www.w3.org/2000/svg">
<g clip-path="url(#clip0_315_223)">
<rect x="-6" y="3" width="256" height="467" fill="#F95500"/>
<path d="M248.095 353.003C248.095 368.335 244.887 383.516 238.653 397.681C232.419 411.846 223.282 424.717 211.763 435.558C200.244 446.399 186.569 454.999 171.519 460.866C156.469 466.734 140.338 469.754 124.048 469.754C107.758 469.754 91.6269 466.734 76.5767 460.866C61.5265 454.999 47.8516 446.399 36.3327 435.558C24.8138 424.717 15.6765 411.846 9.44257 397.681C3.20859 383.516 -1.42413e-06 368.335 0 353.003L124.048 353.003H248.095Z" fill="white"/>
<path d="M249.92 235.341C249.92 250.553 246.711 265.616 240.477 279.67C234.243 293.724 225.106 306.494 213.587 317.251C202.068 328.008 188.393 336.54 173.343 342.362C158.293 348.183 142.162 351.179 125.872 351.179C109.582 351.179 93.4511 348.183 78.4009 342.362C63.3508 336.54 49.6758 328.008 38.1569 317.251C26.6381 306.494 17.5008 293.724 11.2668 279.67C5.0328 265.616 1.82422 250.553 1.82422 235.341L125.872 235.341H249.92Z" fill="white"/>
<path d="M249.92 117.677C249.92 133.008 246.711 148.19 240.477 162.355C234.243 176.52 225.106 189.391 213.587 200.232C202.068 211.073 188.393 219.673 173.343 225.54C158.293 231.407 142.162 234.427 125.872 234.427C109.582 234.427 93.4511 231.407 78.4009 225.54C63.3508 219.673 49.6758 211.073 38.1569 200.232C26.6381 189.391 17.5008 176.52 11.2668 162.355C5.0328 148.19 1.82422 133.008 1.82422 117.677L125.872 117.677H249.92Z" fill="white"/>
<path d="M249.92 1.83866C249.92 17.0508 246.711 32.114 240.477 46.1682C234.243 60.2224 225.106 72.9924 213.587 83.749C202.068 94.5056 188.393 103.038 173.343 108.86C158.293 114.681 142.162 117.677 125.872 117.677C109.582 117.677 93.4511 114.681 78.4009 108.86C63.3508 103.038 49.6758 94.5056 38.1569 83.749C26.6381 72.9923 17.5008 60.2224 11.2668 46.1682C5.0328 32.114 1.82422 17.0508 1.82422 1.83865L125.872 1.83866H249.92Z" fill="white"/>
</g>
<g clip-path="url(#clip1_315_223)">
<rect x="244" y="3" width="256" height="467" fill="#F95500"/>
<path d="M498 339.5C498 356.638 494.793 373.607 488.561 389.44C482.329 405.273 473.196 419.659 461.681 431.777C450.167 443.895 436.497 453.508 421.453 460.066C406.408 466.625 390.284 470 374 470C357.716 470 341.592 466.625 326.547 460.066C311.503 453.508 297.833 443.895 286.319 431.777C274.804 419.659 265.671 405.273 259.439 389.44C253.207 373.607 250 356.637 250 339.5L374 339.5H498Z" fill="white"/>
<path d="M500 222.5C500 239.244 496.793 255.823 490.561 271.292C484.329 286.761 475.196 300.817 463.681 312.656C452.167 324.496 438.497 333.887 423.453 340.295C408.408 346.702 392.284 350 376 350C359.716 350 343.592 346.702 328.547 340.295C313.503 333.887 299.833 324.496 288.319 312.656C276.804 300.817 267.671 286.761 261.439 271.292C255.207 255.823 252 239.244 252 222.5L376 222.5H500Z" fill="white"/>
<path d="M500 109C500 125.415 496.793 141.67 490.561 156.835C484.329 172.001 475.196 185.781 463.681 197.388C452.167 208.996 438.497 218.203 423.453 224.485C408.408 230.767 392.284 234 376 234C359.716 234 343.592 230.767 328.547 224.485C313.503 218.203 299.833 208.996 288.319 197.388C276.804 185.781 267.671 172.001 261.439 156.835C255.207 141.67 252 125.415 252 109L376 109H500Z" fill="white"/>
<path d="M500 -22.5C500 -4.70589 496.793 12.914 490.561 29.3536C484.329 45.7932 475.196 60.7306 463.681 73.313C452.167 85.8953 438.497 95.8762 423.453 102.686C408.408 109.495 392.284 113 376 113C359.716 113 343.592 109.495 328.547 102.686C313.503 95.8762 299.833 85.8953 288.319 73.313C276.804 60.7306 267.671 45.7932 261.439 29.3536C255.207 12.914 252 -4.7059 252 -22.5L376 -22.5H500Z" fill="white"/>
</g>
<g clip-path="url(#clip2_315_223)">
<rect x="1741" y="3" width="256" height="467" fill="#F95500"/>
<path d="M1995 339.5C1995 356.638 1991.79 373.607 1985.56 389.44C1979.33 405.273 1970.2 419.659 1958.68 431.777C1947.17 443.895 1933.5 453.508 1918.45 460.066C1903.41 466.625 1887.28 470 1871 470C1854.72 470 1838.59 466.625 1823.55 460.066C1808.5 453.508 1794.83 443.895 1783.32 431.777C1771.8 419.659 1762.67 405.273 1756.44 389.44C1750.21 373.607 1747 356.637 1747 339.5L1871 339.5H1995Z" fill="white"/>
<path d="M1997 222.5C1997 239.244 1993.79 255.823 1987.56 271.292C1981.33 286.761 1972.2 300.817 1960.68 312.656C1949.17 324.496 1935.5 333.887 1920.45 340.295C1905.41 346.702 1889.28 350 1873 350C1856.72 350 1840.59 346.702 1825.55 340.295C1810.5 333.887 1796.83 324.496 1785.32 312.656C1773.8 300.817 1764.67 286.761 1758.44 271.292C1752.21 255.823 1749 239.244 1749 222.5L1873 222.5H1997Z" fill="white"/>
<path d="M1997 109C1997 125.415 1993.79 141.67 1987.56 156.835C1981.33 172.001 1972.2 185.781 1960.68 197.388C1949.17 208.996 1935.5 218.203 1920.45 224.485C1905.41 230.767 1889.28 234 1873 234C1856.72 234 1840.59 230.767 1825.55 224.485C1810.5 218.203 1796.83 208.996 1785.32 197.388C1773.8 185.781 1764.67 172.001 1758.44 156.835C1752.21 141.67 1749 125.415 1749 109L1873 109H1997Z" fill="white"/>
<path d="M1997 -22.5C1997 -4.70589 1993.79 12.914 1987.56 29.3536C1981.33 45.7932 1972.2 60.7306 1960.68 73.313C1949.17 85.8953 1935.5 95.8762 1920.45 102.686C1905.41 109.495 1889.28 113 1873 113C1856.72 113 1840.59 109.495 1825.55 102.686C1810.5 95.8762 1796.83 85.8953 1785.32 73.313C1773.8 60.7306 1764.67 45.7932 1758.44 29.3536C1752.21 12.914 1749 -4.7059 1749 -22.5L1873 -22.5H1997Z" fill="white"/>
</g>
<g clip-path="url(#clip3_315_223)">
<rect x="1491" y="3" width="256" height="467" fill="#F95500"/>
<path d="M1745 329.5C1745 347.951 1741.79 366.221 1735.56 383.267C1729.33 400.313 1720.2 415.802 1708.68 428.849C1697.17 441.895 1683.5 452.244 1668.45 459.305C1653.41 466.366 1637.28 470 1621 470C1604.72 470 1588.59 466.366 1573.55 459.305C1558.5 452.244 1544.83 441.895 1533.32 428.848C1521.8 415.802 1512.67 400.313 1506.44 383.267C1500.21 366.221 1497 347.951 1497 329.5L1621 329.5H1745Z" fill="white"/>
<path d="M1747 208C1747 225.334 1743.79 242.499 1737.56 258.514C1731.33 274.529 1722.2 289.081 1710.68 301.338C1699.17 313.595 1685.5 323.318 1670.45 329.952C1655.41 336.586 1639.28 340 1623 340C1606.72 340 1590.59 336.586 1575.55 329.952C1560.5 323.318 1546.83 313.595 1535.32 301.338C1523.8 289.081 1514.67 274.529 1508.44 258.514C1502.21 242.499 1499 225.334 1499 208L1623 208L1747 208Z" fill="white"/>
<path d="M1745 93.5C1745 109.85 1741.79 126.039 1735.56 141.144C1729.33 156.249 1720.2 169.974 1708.68 181.535C1697.17 193.096 1683.5 202.266 1668.45 208.523C1653.41 214.78 1637.28 218 1621 218C1604.72 218 1588.59 214.78 1573.55 208.523C1558.5 202.266 1544.83 193.096 1533.32 181.535C1521.8 169.974 1512.67 156.249 1506.44 141.144C1500.21 126.039 1497 109.85 1497 93.5L1621 93.5L1745 93.5Z" fill="white"/>
<path d="M1745 -26C1745 -8.53419 1741.79 8.76059 1735.56 24.8969C1729.33 41.0332 1720.2 55.695 1708.68 68.0452C1697.17 80.3954 1683.5 90.1921 1668.45 96.876C1653.41 103.56 1637.28 107 1621 107C1604.72 107 1588.59 103.56 1573.55 96.876C1558.5 90.1921 1544.83 80.3954 1533.32 68.0452C1521.8 55.695 1512.67 41.0332 1506.44 24.8969C1500.21 8.76058 1497 -8.5342 1497 -26L1621 -26H1745Z" fill="white"/>
</g>
<g clip-path="url(#clip4_315_223)">
<rect x="491" y="3" width="256" height="467" fill="#F95500"/>
<path d="M745 329.5C745 347.951 741.793 366.221 735.561 383.267C729.329 400.313 720.196 415.802 708.681 428.849C697.167 441.895 683.497 452.244 668.453 459.305C653.408 466.366 637.284 470 621 470C604.716 470 588.592 466.366 573.547 459.305C558.503 452.244 544.833 441.895 533.319 428.848C521.804 415.802 512.671 400.313 506.439 383.267C500.207 366.221 497 347.951 497 329.5L621 329.5H745Z" fill="white"/>
<path d="M747 208C747 225.334 743.793 242.499 737.561 258.514C731.329 274.529 722.196 289.081 710.681 301.338C699.167 313.595 685.497 323.318 670.453 329.952C655.408 336.586 639.284 340 623 340C606.716 340 590.592 336.586 575.547 329.952C560.503 323.318 546.833 313.595 535.319 301.338C523.804 289.081 514.671 274.529 508.439 258.514C502.207 242.499 499 225.334 499 208L623 208L747 208Z" fill="white"/>
<path d="M745 93.5C745 109.85 741.793 126.039 735.561 141.144C729.329 156.249 720.196 169.974 708.681 181.535C697.167 193.096 683.497 202.266 668.453 208.523C653.408 214.78 637.284 218 621 218C604.716 218 588.592 214.78 573.547 208.523C558.503 202.266 544.833 193.096 533.319 181.535C521.804 169.974 512.671 156.249 506.439 141.144C500.207 126.039 497 109.85 497 93.5L621 93.5L745 93.5Z" fill="white"/>
<path d="M745 -26C745 -8.53419 741.793 8.76059 735.561 24.8969C729.329 41.0332 720.196 55.695 708.681 68.0452C697.167 80.3954 683.497 90.1921 668.453 96.876C653.408 103.56 637.284 107 621 107C604.716 107 588.592 103.56 573.547 96.876C558.503 90.1921 544.833 80.3954 533.319 68.0452C521.804 55.695 512.671 41.0332 506.439 24.8969C500.207 8.76058 497 -8.5342 497 -26L621 -26H745Z" fill="white"/>
</g>
<g clip-path="url(#clip5_315_223)">
<rect x="741" y="3" width="256" height="467" fill="#F95500"/>
<path d="M995 316.5C995 336.658 991.793 356.618 985.561 375.242C979.329 393.865 970.196 410.787 958.681 425.041C947.167 439.295 933.497 450.601 918.453 458.316C903.408 466.03 887.284 470 871 470C854.716 470 838.592 466.03 823.547 458.316C808.503 450.601 794.833 439.295 783.319 425.041C771.804 410.787 762.671 393.865 756.439 375.242C750.207 356.618 747 336.658 747 316.5L871 316.5H995Z" fill="white"/>
<path d="M997 192C997 212.224 993.793 232.249 987.561 250.933C981.329 269.617 972.196 286.594 960.681 300.894C949.167 315.195 935.497 326.538 920.453 334.277C905.408 342.017 889.284 346 873 346C856.716 346 840.592 342.017 825.547 334.277C810.503 326.538 796.833 315.195 785.319 300.894C773.804 286.594 764.671 269.617 758.439 250.933C752.207 232.249 749 212.224 749 192L873 192H997Z" fill="white"/>
<path d="M995 68.5C995 86.5568 991.793 104.437 985.561 121.119C979.329 137.801 970.196 152.959 958.681 165.727C947.167 178.495 933.497 188.623 918.453 195.533C903.408 202.443 887.284 206 871 206C854.716 206 838.592 202.443 823.547 195.533C808.503 188.623 794.833 178.495 783.319 165.727C771.804 152.959 762.671 137.801 756.439 121.119C750.207 104.437 747 86.5567 747 68.5L871 68.5H995Z" fill="white"/>
<path d="M995 -53.5C995 -35.0493 991.793 -16.7792 985.561 0.267024C979.329 17.3133 970.196 32.8019 958.681 45.8485C947.167 58.8951 933.497 69.2443 918.453 76.3051C903.408 83.3659 887.284 87 871 87C854.716 87 838.592 83.3659 823.547 76.3051C808.503 69.2443 794.833 58.8951 783.319 45.8485C771.804 32.8019 762.671 17.3133 756.439 0.267012C750.207 -16.7792 747 -35.0493 747 -53.5L871 -53.5H995Z" fill="white"/>
</g>
<g clip-path="url(#clip6_315_223)">
<rect x="1241" y="3" width="256" height="467" fill="#F95500"/>
<path d="M1495 316.5C1495 336.658 1491.79 356.618 1485.56 375.242C1479.33 393.865 1470.2 410.787 1458.68 425.041C1447.17 439.295 1433.5 450.601 1418.45 458.316C1403.41 466.03 1387.28 470 1371 470C1354.72 470 1338.59 466.03 1323.55 458.316C1308.5 450.601 1294.83 439.295 1283.32 425.041C1271.8 410.787 1262.67 393.865 1256.44 375.242C1250.21 356.618 1247 336.658 1247 316.5L1371 316.5H1495Z" fill="white"/>
<path d="M1497 192C1497 212.224 1493.79 232.249 1487.56 250.933C1481.33 269.617 1472.2 286.594 1460.68 300.894C1449.17 315.195 1435.5 326.538 1420.45 334.277C1405.41 342.017 1389.28 346 1373 346C1356.72 346 1340.59 342.017 1325.55 334.277C1310.5 326.538 1296.83 315.195 1285.32 300.894C1273.8 286.594 1264.67 269.617 1258.44 250.933C1252.21 232.249 1249 212.224 1249 192L1373 192H1497Z" fill="white"/>
<path d="M1495 68.5C1495 86.5568 1491.79 104.437 1485.56 121.119C1479.33 137.801 1470.2 152.959 1458.68 165.727C1447.17 178.495 1433.5 188.623 1418.45 195.533C1403.41 202.443 1387.28 206 1371 206C1354.72 206 1338.59 202.443 1323.55 195.533C1308.5 188.623 1294.83 178.495 1283.32 165.727C1271.8 152.959 1262.67 137.801 1256.44 121.119C1250.21 104.437 1247 86.5567 1247 68.5L1371 68.5H1495Z" fill="white"/>
<path d="M1495 -53.5C1495 -35.0493 1491.79 -16.7792 1485.56 0.267024C1479.33 17.3133 1470.2 32.8019 1458.68 45.8485C1447.17 58.8951 1433.5 69.2443 1418.45 76.3051C1403.41 83.3659 1387.28 87 1371 87C1354.72 87 1338.59 83.3659 1323.55 76.3051C1308.5 69.2443 1294.83 58.8951 1283.32 45.8485C1271.8 32.8019 1262.67 17.3133 1256.44 0.267012C1250.21 -16.7792 1247 -35.0493 1247 -53.5L1371 -53.5H1495Z" fill="white"/>
</g>
<g clip-path="url(#clip7_315_223)">
<rect x="1241" y="3" width="256" height="467" fill="#F95500"/>
<path d="M1495 316.5C1495 336.658 1491.79 356.618 1485.56 375.242C1479.33 393.865 1470.2 410.787 1458.68 425.041C1447.17 439.295 1433.5 450.601 1418.45 458.316C1403.41 466.03 1387.28 470 1371 470C1354.72 470 1338.59 466.03 1323.55 458.316C1308.5 450.601 1294.83 439.295 1283.32 425.041C1271.8 410.787 1262.67 393.865 1256.44 375.242C1250.21 356.618 1247 336.658 1247 316.5L1371 316.5H1495Z" fill="white"/>
<path d="M1497 192C1497 212.224 1493.79 232.249 1487.56 250.933C1481.33 269.617 1472.2 286.594 1460.68 300.894C1449.17 315.195 1435.5 326.538 1420.45 334.277C1405.41 342.017 1389.28 346 1373 346C1356.72 346 1340.59 342.017 1325.55 334.277C1310.5 326.538 1296.83 315.195 1285.32 300.894C1273.8 286.594 1264.67 269.617 1258.44 250.933C1252.21 232.249 1249 212.224 1249 192L1373 192H1497Z" fill="white"/>
<path d="M1495 68.5C1495 86.5568 1491.79 104.437 1485.56 121.119C1479.33 137.801 1470.2 152.959 1458.68 165.727C1447.17 178.495 1433.5 188.623 1418.45 195.533C1403.41 202.443 1387.28 206 1371 206C1354.72 206 1338.59 202.443 1323.55 195.533C1308.5 188.623 1294.83 178.495 1283.32 165.727C1271.8 152.959 1262.67 137.801 1256.44 121.119C1250.21 104.437 1247 86.5567 1247 68.5L1371 68.5H1495Z" fill="white"/>
<path d="M1495 -53.5C1495 -35.0493 1491.79 -16.7792 1485.56 0.267024C1479.33 17.3133 1470.2 32.8019 1458.68 45.8485C1447.17 58.8951 1433.5 69.2443 1418.45 76.3051C1403.41 83.3659 1387.28 87 1371 87C1354.72 87 1338.59 83.3659 1323.55 76.3051C1308.5 69.2443 1294.83 58.8951 1283.32 45.8485C1271.8 32.8019 1262.67 17.3133 1256.44 0.267012C1250.21 -16.7792 1247 -35.0493 1247 -53.5L1371 -53.5H1495Z" fill="white"/>
</g>
<g clip-path="url(#clip8_315_223)">
<rect x="991" y="3" width="256" height="467" fill="#F95500"/>
<path d="M1245 305.5C1245 327.102 1241.79 348.493 1235.56 368.451C1229.33 388.409 1220.2 406.544 1208.68 421.819C1197.17 437.094 1183.5 449.211 1168.45 457.478C1153.41 465.745 1137.28 470 1121 470C1104.72 470 1088.59 465.745 1073.55 457.478C1058.5 449.211 1044.83 437.094 1033.32 421.819C1021.8 406.544 1012.67 388.409 1006.44 368.451C1000.21 348.493 997 327.102 997 305.5L1121 305.5H1245Z" fill="white"/>
<path d="M1247 -99.5C1247 -77.8976 1243.79 -56.5066 1237.56 -36.5486C1231.33 -16.5905 1222.2 1.54383 1210.68 16.8191C1199.17 32.0943 1185.5 44.2113 1170.45 52.4782C1155.41 60.7451 1139.28 65 1123 65C1106.72 65 1090.59 60.7451 1075.55 52.4782C1060.5 44.2113 1046.83 32.0943 1035.32 16.8191C1023.8 1.54382 1014.67 -16.5905 1008.44 -36.5486C1002.21 -56.5066 999 -77.8976 999 -99.5L1123 -99.5H1247Z" fill="white"/>
<path d="M1247 36.5C1247 58.1024 1243.79 79.4934 1237.56 99.4514C1231.33 119.409 1222.2 137.544 1210.68 152.819C1199.17 168.094 1185.5 180.211 1170.45 188.478C1155.41 196.745 1139.28 201 1123 201C1106.72 201 1090.59 196.745 1075.55 188.478C1060.5 180.211 1046.83 168.094 1035.32 152.819C1023.8 137.544 1014.67 119.409 1008.44 99.4514C1002.21 79.4934 999 58.1024 999 36.5L1123 36.5H1247Z" fill="white"/>
<path d="M1246 179.5C1246 201.102 1242.79 222.493 1236.56 242.451C1230.33 262.409 1221.2 280.544 1209.68 295.819C1198.17 311.094 1184.5 323.211 1169.45 331.478C1154.41 339.745 1138.28 344 1122 344C1105.72 344 1089.59 339.745 1074.55 331.478C1059.5 323.211 1045.83 311.094 1034.32 295.819C1022.8 280.544 1013.67 262.409 1007.44 242.451C1001.21 222.493 998 201.102 998 179.5L1122 179.5H1246Z" fill="white"/>
</g>
<defs>
<clipPath id="clip0_315_223">
<rect width="250" height="467" fill="white"/>
</clipPath>
<clipPath id="clip1_315_223">
<rect width="250" height="467" fill="white" transform="translate(250)"/>
</clipPath>
<clipPath id="clip2_315_223">
<rect width="250" height="467" fill="white" transform="translate(1747)"/>
</clipPath>
<clipPath id="clip3_315_223">
<rect width="250" height="467" fill="white" transform="translate(1497)"/>
</clipPath>
<clipPath id="clip4_315_223">
<rect width="250" height="467" fill="white" transform="translate(497)"/>
</clipPath>
<clipPath id="clip5_315_223">
<rect width="250" height="467" fill="white" transform="translate(747)"/>
</clipPath>
<clipPath id="clip6_315_223">
<rect width="250" height="467" fill="white" transform="translate(1247)"/>
</clipPath>
<clipPath id="clip7_315_223">
<rect width="250" height="467" fill="white" transform="translate(1247)"/>
</clipPath>
<clipPath id="clip8_315_223">
<rect width="250" height="467" fill="white" transform="translate(997)"/>
</clipPath>
</defs>
</svg>
