<svg width="249" height="467" viewBox="0 0 249 467" fill="none" xmlns="http://www.w3.org/2000/svg">
<g clip-path="url(#clip0_274_15520)">
<rect x="-7" y="3" width="256" height="467" fill="#F95500"/>
<path d="M247.095 353.003C247.095 368.335 243.887 383.516 237.653 397.681C231.419 411.846 222.282 424.717 210.763 435.558C199.244 446.399 185.569 454.999 170.519 460.866C155.469 466.734 139.338 469.754 123.048 469.754C106.758 469.754 90.6269 466.734 75.5767 460.866C60.5265 454.999 46.8516 446.399 35.3327 435.558C23.8138 424.717 14.6765 411.846 8.44257 397.681C2.20859 383.516 -1 368.335 -1 353.003L123.048 353.003H247.095Z" fill="white"/>
<path d="M248.92 235.341C248.92 250.553 245.711 265.616 239.477 279.67C233.243 293.724 224.106 306.494 212.587 317.251C201.068 328.008 187.393 336.54 172.343 342.362C157.293 348.183 141.162 351.179 124.872 351.179C108.582 351.179 92.4511 348.183 77.4009 342.362C62.3508 336.54 48.6758 328.008 37.1569 317.251C25.6381 306.494 16.5008 293.724 10.2668 279.67C4.0328 265.616 0.824217 250.553 0.824219 235.341L124.872 235.341H248.92Z" fill="white"/>
<path d="M248.92 117.677C248.92 133.008 245.711 148.19 239.477 162.355C233.243 176.52 224.106 189.391 212.587 200.232C201.068 211.073 187.393 219.673 172.343 225.54C157.293 231.407 141.162 234.427 124.872 234.427C108.582 234.427 92.4511 231.407 77.4009 225.54C62.3508 219.673 48.6758 211.073 37.1569 200.232C25.6381 189.391 16.5008 176.52 10.2668 162.355C4.0328 148.19 0.824217 133.008 0.824219 117.677L124.872 117.677H248.92Z" fill="white"/>
<path d="M248.92 1.83866C248.92 17.0508 245.711 32.114 239.477 46.1682C233.243 60.2224 224.106 72.9924 212.587 83.749C201.068 94.5056 187.393 103.038 172.343 108.86C157.293 114.681 141.162 117.677 124.872 117.677C108.582 117.677 92.4511 114.681 77.4009 108.86C62.3508 103.038 48.6758 94.5056 37.1569 83.749C25.6381 72.9923 16.5008 60.2224 10.2668 46.1682C4.0328 32.114 0.824217 17.0508 0.824219 1.83865L124.872 1.83866H248.92Z" fill="white"/>
</g>
<defs>
<clipPath id="clip0_274_15520">
<rect width="250" height="467" fill="white" transform="translate(-1)"/>
</clipPath>
</defs>
</svg>
