<svg width="500" height="467" viewBox="0 0 500 467" fill="none" xmlns="http://www.w3.org/2000/svg">
<rect width="500" height="467" fill="#00544B"/>
<circle cx="388.975" cy="164.395" r="69.395" fill="white"/>
<circle cx="388.975" cy="164.395" r="69.395" fill="white"/>
<circle cx="388.975" cy="303.184" r="69.395" fill="white"/>
<circle cx="388.975" cy="303.184" r="69.395" fill="white"/>
<circle cx="250.185" cy="303.184" r="69.395" fill="white"/>
<circle cx="250.185" cy="303.184" r="69.395" fill="white"/>
<circle cx="250.185" cy="164.395" r="69.395" fill="white"/>
<circle cx="250.185" cy="164.395" r="69.395" fill="white"/>
<ellipse cx="306.506" cy="232.784" rx="81.4637" ry="83.4751" fill="white"/>
<circle cx="111.395" cy="164.395" r="69.395" fill="white"/>
<circle cx="111.395" cy="164.395" r="69.395" fill="white"/>
<circle cx="111.395" cy="303.184" r="69.395" fill="white"/>
<circle cx="111.395" cy="303.184" r="69.395" fill="white"/>
<circle cx="169.727" cy="234.795" r="69.395" fill="white"/>
<circle cx="169.727" cy="234.795" r="69.395" fill="white"/>
<path d="M134.288 220H120.261V178.813H140.63L147.681 200.824H147.942L154.956 178.813H175.288V220H161.298V194.034H161L152.83 216.68H142.719L134.549 194.034H134.288V220ZM195.976 220H181.053V178.813H195.976V199.929H196.274L208.697 178.813H223.583V220H208.697V198.287H208.399L195.976 220ZM229.31 220V178.813H244.606V208.883H252.59V178.813H267.885V208.883H275.869V178.813H291.165V220H229.31ZM325.544 197.467L340.728 220H322.783L312.487 204.368H312.188V220H296.892V178.813H312.188V193.848H312.487L322.522 178.813H339.385L325.544 197.467ZM358.132 220H343.21V178.813H358.132V199.929H358.431L370.854 178.813H385.739V220H370.854V198.287H370.555L358.132 220ZM204.565 265.616L217.697 288H200.163L191.396 272.368H191.097V288H176.063V272.368H175.764L166.96 288H149.612L162.632 265.914L150.209 246.813H167.221L175.764 261.848H176.063V246.813H191.097V261.848H191.396L199.902 246.813H216.727L204.565 265.616ZM247.973 276.883V257.856H238.534L237.974 266.772C237.713 270.503 237.079 273.637 235.288 276.584V276.883H247.973ZM231.446 298.446H217.679V276.883H220.552C223.574 275.465 224.432 271.1 224.768 265.541L225.887 246.813H263.194V276.883H268.902V298.446H255.135V288H231.446V298.446ZM279.18 303.109H273.734V291.731H276.681C281.009 291.731 282.948 290.947 282.948 289.119C282.948 288.783 282.874 288.336 282.762 288L269.257 246.813H286.231L292.499 277.032H292.797L299.028 246.813H315.182L302.908 287.03C299.401 298.483 292.574 303.109 279.18 303.109ZM354.522 246.813V257.931H343.218V288H327.923V257.931H316.619V246.813H354.522Z" fill="#E76BC8"/>
</svg>
