<svg width="259" height="264" viewBox="0 0 259 264" fill="none" xmlns="http://www.w3.org/2000/svg">
<rect width="258.875" height="263.161" fill="#003D37"/>
<path d="M42.7456 240.547V203.488H52.1709V232.971H61.1853V203.488H70.585V232.971H79.5994V203.488H88.999V240.547H42.7456ZM119.535 240.547V217.844H119.278L104.151 240.547H95.137V203.488H104.537V226.216H104.794L119.92 203.488H128.935V240.547H119.535ZM135.047 240.547V203.488H144.472V232.971H153.487V203.488H162.886V232.971H171.901V203.488H181.3V240.547H135.047ZM211.811 240.547L209.474 232.406H197.352L194.989 240.547H185.384L197.84 203.488H209.371L221.827 240.547H211.811ZM203.31 211.346L199.175 225.626H207.625L203.515 211.346H203.31Z" fill="#E76BC8"/>
<path d="M187.622 68.4056C192.527 73.2457 184.115 96.4362 172.334 108.376C160.553 120.315 149.865 116.483 144.96 111.642C140.055 106.802 142.495 96.5806 157.409 81.2602C187.622 50.2247 182.928 61.2899 187.622 68.4056Z" fill="white"/>
<path d="M187.588 72.7678C182.494 74.7344 176.276 70.9203 173.701 64.2488C162.681 56.8187 171.477 46.0722 176.571 44.1056C181.666 42.139 187.588 44.1056 193.758 56.8187C196.333 63.4902 192.683 70.8011 187.588 72.7678Z" fill="#E76BC8"/>
<path d="M145.024 79.2193C145.024 85.4605 140.857 88.1656 135.136 88.1656C129.415 88.1656 128.309 85.4605 128.309 79.2193C128.309 72.9782 129.415 65.5645 135.136 65.5645C140.857 65.5645 145.024 72.9782 145.024 79.2193Z" fill="white"/>
<path d="M173.982 134.04C171.644 159.122 173.314 173.439 145.298 180.655C124.214 186.085 83.5768 149.107 88.05 131.45C84.0477 111.439 122.423 86.4832 140.315 81.0684C175.394 102.022 176.572 106.259 173.982 134.04Z" fill="white"/>
<path d="M162.213 129.288L162.196 129.387L162.256 129.468C164.897 133.049 165.505 135.517 164.851 137.25C164.197 138.987 162.23 140.109 159.383 140.873C156.551 141.631 152.937 142.013 149.116 142.337C148.361 142.401 147.599 142.463 146.833 142.525C143.742 142.775 140.601 143.029 137.722 143.452C130.073 142.51 123.009 141.511 117.853 138.802C115.278 137.449 113.187 135.674 111.739 133.272C110.295 130.877 109.479 127.842 109.474 123.949C110.581 120.356 112.161 118.277 114.107 117.15C116.063 116.017 118.43 115.822 121.157 116.085C123.268 116.288 125.566 116.763 128.03 117.271C128.753 117.42 129.49 117.573 130.241 117.722C133.542 118.377 137.089 118.97 140.786 118.97C145.921 118.97 150.099 118.186 153.412 117.374C154.533 117.099 155.558 116.82 156.484 116.568C156.924 116.448 157.342 116.335 157.737 116.23C158.971 115.905 159.983 115.671 160.798 115.614C161.613 115.557 162.188 115.68 162.589 116.017C162.991 116.356 163.27 116.954 163.39 117.967C163.631 120.001 163.216 123.511 162.213 129.288Z" fill="#003D37" stroke="#003D37" stroke-width="0.470858"/>
<path d="M138.231 97.7411L139.654 92.6234C139.753 92.2659 139.936 91.9369 140.187 91.6634L142.075 89.603C142.286 89.3729 142.541 89.187 142.824 89.0562L144.986 88.0585C145.295 87.9158 145.632 87.8419 145.973 87.8419L146.943 87.8419C147.641 87.8419 148.304 88.1522 148.751 88.689L150.271 90.5129C150.357 90.6154 150.433 90.725 150.5 90.8405L152.989 95.1401" stroke="#003D37" stroke-width="2.35429"/>
<path d="M109.945 123.444L113.712 130.743L118.421 123.444L122.423 135.216L127.602 125.798L132.782 136.157L138.668 124.857L144.553 136.157L148.32 125.798L154.912 135.216L156.56 122.738L160.798 132.391V122.738L161.975 114.969L163.388 115.44V129.801L166.213 136.157" stroke="white" stroke-width="1.88343"/>
<path d="M171.55 103.223C171.855 103.087 171.829 102.548 171.872 102.274C172.031 101.265 172.702 100.498 173.325 99.7244C174.168 98.6786 175.26 97.2148 176.632 96.8351C178.345 96.3611 180.514 96.8889 182.184 97.1484C183.918 97.4178 185.645 97.8122 187.389 98.0187C189.496 98.2682 190.378 97.4946 191.844 96.0084C192.811 95.0283 193.764 94.1603 194.298 92.8667C194.791 91.6747 195.293 90.4977 195.673 89.2812" stroke="#003D37" stroke-width="4.70858" stroke-linecap="round"/>
<path d="M163.09 107.765C160.83 107.678 158.475 107.059 156.276 107.887C155.16 108.307 154.42 109.067 153.552 109.836C152.371 110.882 151.002 111.813 149.531 112.395C147.107 113.355 144.725 112.931 142.186 112.76C141.007 112.681 139.866 112.559 138.949 111.751C138.625 111.465 138.451 111.296 138.026 111.211" stroke="#003D37" stroke-width="4.70858" stroke-linecap="round"/>
<ellipse cx="67.8239" cy="78.3397" rx="7.98091" ry="6.43609" transform="rotate(-8.198 67.8239 78.3397)" fill="#E76BC8"/>
<ellipse cx="65.0251" cy="85.5467" rx="7.98091" ry="6.43609" transform="rotate(-8.198 65.0251 85.5467)" fill="#E76BC8"/>
<ellipse cx="66.9196" cy="64.2421" rx="7.98091" ry="6.43609" transform="rotate(-8.198 66.9196 64.2421)" fill="#E76BC8"/>
<ellipse cx="64.2116" cy="71.7967" rx="7.98091" ry="6.43609" transform="rotate(-8.198 64.2116 71.7967)" fill="#E76BC8"/>
<ellipse cx="105.335" cy="70.3369" rx="35.8001" ry="22.7051" transform="rotate(-8.198 105.335 70.3369)" fill="#E76BC8"/>
<ellipse cx="139.288" cy="75.7401" rx="7.98091" ry="6.43609" transform="rotate(-8.198 139.288 75.7401)" fill="#E76BC8"/>
<ellipse cx="147.625" cy="79.2382" rx="7.98091" ry="6.43609" transform="rotate(-8.198 147.625 79.2382)" fill="#E76BC8"/>
<ellipse cx="155.195" cy="55.0253" rx="7.98091" ry="6.43609" transform="rotate(-8.198 155.195 55.0253)" fill="#E76BC8"/>
<ellipse cx="144.914" cy="46.0315" rx="11.8574" ry="8.58146" transform="rotate(-8.198 144.914 46.0315)" fill="#E76BC8"/>
<ellipse cx="117.982" cy="39.7967" rx="7.98091" ry="6.43609" transform="rotate(-8.198 117.982 39.7967)" fill="#E76BC8"/>
<ellipse cx="103.259" cy="39.9296" rx="9.80512" ry="7.68755" transform="rotate(-8.198 103.259 39.9296)" fill="#E76BC8"/>
<ellipse cx="143.983" cy="66.7578" rx="12.5414" ry="8.22389" transform="rotate(-8.198 143.983 66.7578)" fill="#E76BC8"/>
<ellipse cx="139.449" cy="57.6581" rx="7.98091" ry="6.43609" transform="rotate(-8.198 139.449 57.6581)" fill="#E76BC8"/>
<ellipse cx="132.808" cy="49.9432" rx="7.98091" ry="6.43609" transform="rotate(-8.198 132.808 49.9432)" fill="#E76BC8"/>
<ellipse cx="147.071" cy="56.1991" rx="7.98091" ry="6.43609" transform="rotate(-8.198 147.071 56.1991)" fill="#E76BC8"/>
<ellipse cx="120.153" cy="45.2635" rx="7.98091" ry="6.43609" transform="rotate(-8.198 120.153 45.2635)" fill="#E76BC8"/>
<ellipse cx="108.869" cy="46.8885" rx="7.98091" ry="6.43609" transform="rotate(-8.198 108.869 46.8885)" fill="#E76BC8"/>
<ellipse cx="97.3284" cy="46.7452" rx="7.06881" ry="6.43609" transform="rotate(-8.198 97.3284 46.7452)" fill="#E76BC8"/>
<ellipse cx="87.9597" cy="52.0702" rx="7.98091" ry="6.43609" transform="rotate(-8.198 87.9597 52.0702)" fill="#E76BC8"/>
<ellipse cx="79.2726" cy="49.348" rx="10.7172" ry="8.22389" transform="rotate(-8.198 79.2726 49.348)" fill="#E76BC8"/>
<ellipse cx="75.03" cy="58.2674" rx="7.98091" ry="6.43609" transform="rotate(-8.198 75.03 58.2674)" fill="#E76BC8"/>
<ellipse cx="69.6862" cy="69.1522" rx="7.98091" ry="6.43609" transform="rotate(-8.198 69.6862 69.1522)" fill="#E76BC8"/>
<ellipse cx="91.5173" cy="103.898" rx="7.98091" ry="6.43609" transform="rotate(-8.198 91.5173 103.898)" fill="#E76BC8"/>
<ellipse cx="88.0769" cy="110.088" rx="7.98091" ry="6.43609" transform="rotate(-8.198 88.0769 110.088)" fill="#E76BC8"/>
<ellipse cx="71.5671" cy="99.7714" rx="7.98091" ry="6.43609" transform="rotate(-8.198 71.5671 99.7714)" fill="#E76BC8"/>
<ellipse cx="86.0134" cy="114.217" rx="7.98091" ry="6.43609" transform="rotate(-8.198 86.0134 114.217)" fill="#E76BC8"/>
<ellipse cx="71.5671" cy="111.465" rx="7.98091" ry="6.43609" transform="rotate(-8.198 71.5671 111.465)" fill="#E76BC8"/>
<ellipse cx="62.6257" cy="95.6424" rx="7.98091" ry="6.43609" transform="rotate(-8.198 62.6257 95.6424)" fill="#E76BC8"/>
<ellipse cx="79.1355" cy="104.586" rx="7.98091" ry="6.43609" transform="rotate(-8.198 79.1355 104.586)" fill="#E76BC8"/>
<ellipse cx="78.2917" cy="80.9159" rx="7.98091" ry="6.43609" transform="rotate(-8.198 78.2917 80.9159)" fill="#E76BC8"/>
<ellipse cx="82.4284" cy="90.4374" rx="7.98091" ry="6.43609" transform="rotate(-8.198 82.4284 90.4374)" fill="#E76BC8"/>
<ellipse cx="127.115" cy="83.9966" rx="12.9975" ry="9.29657" transform="rotate(-8.198 127.115 83.9966)" fill="#E76BC8"/>
<ellipse cx="123.017" cy="90.7303" rx="7.98091" ry="6.43609" transform="rotate(-8.198 123.017 90.7303)" fill="#E76BC8"/>
<ellipse cx="131.904" cy="38.8744" rx="10.0331" ry="7.50877" transform="rotate(-8.198 131.904 38.8744)" fill="#E76BC8"/>
<ellipse cx="114.885" cy="88.6503" rx="7.98091" ry="6.43609" transform="rotate(-8.198 114.885 88.6503)" fill="#E76BC8"/>
<ellipse cx="107.073" cy="95.1952" rx="7.98091" ry="6.43609" transform="rotate(-8.198 107.073 95.1952)" fill="#E76BC8"/>
<ellipse cx="92.7663" cy="91.8358" rx="7.98091" ry="6.43609" transform="rotate(-8.198 92.7663 91.8358)" fill="#E76BC8"/>
<ellipse cx="85.5183" cy="97.2147" rx="7.98091" ry="6.43609" transform="rotate(-8.198 85.5183 97.2147)" fill="#E76BC8"/>
<ellipse cx="72.7331" cy="91.5643" rx="7.98091" ry="6.43609" transform="rotate(-8.198 72.7331 91.5643)" fill="#E76BC8"/>
<ellipse cx="108.445" cy="87.828" rx="7.98091" ry="6.43609" transform="rotate(-8.198 108.445 87.828)" fill="#E76BC8"/>
<ellipse cx="120.564" cy="87.3905" rx="7.98091" ry="6.43609" transform="rotate(-8.198 120.564 87.3905)" fill="#E76BC8"/>
<ellipse cx="134.486" cy="77.7635" rx="7.98091" ry="6.43609" transform="rotate(-8.198 134.486 77.7635)" fill="#E76BC8"/>
<ellipse cx="130.429" cy="83.7792" rx="7.98091" ry="6.43609" transform="rotate(-8.198 130.429 83.7792)" fill="#E76BC8"/>
<path d="M112.306 100.324C112.306 106.565 108.374 114.214 102.653 114.214C96.9323 114.214 93.707 106.565 93.707 100.324C93.707 94.0825 96.9323 81.2539 102.653 81.2539C112.306 81.2539 112.306 94.0825 112.306 100.324Z" fill="white"/>
<ellipse cx="103.353" cy="95.4304" rx="4.0023" ry="8.00459" fill="#003D37"/>
<path d="M116.141 106.975L117.564 101.858C117.664 101.5 117.846 101.171 118.097 100.898L119.986 98.8374C120.196 98.6073 120.451 98.4214 120.734 98.2906L122.896 97.2929C123.205 97.1502 123.542 97.0762 123.883 97.0762L124.853 97.0762C125.551 97.0762 126.214 97.3866 126.661 97.9233L128.181 99.7473C128.267 99.8498 128.343 99.9594 128.41 100.075L130.899 104.374" stroke="#003D37" stroke-width="2.35429"/>
</svg>
