<svg width="259" height="264" viewBox="0 0 259 264" fill="none" xmlns="http://www.w3.org/2000/svg">
<g clip-path="url(#clip0_335_1710)">
<rect width="258.875" height="263.161" transform="translate(0 0.515625)" fill="#003D37"/>
<path d="M102.685 182.445C101.487 185.244 99.8785 189.741 94.1132 193.172C88.3478 196.603 80.2491 198.676 80.429 195.369C79.0446 196.07 82.688 188.612 88.4534 185.181C94.2187 181.75 99.0479 181.589 102.685 182.445Z" fill="#E76BC8"/>
<path d="M78.7155 192.696C80.3753 193.298 82.1245 194.966 81.742 196.021C81.5012 196.685 78.8038 197.671 77.2262 196.238C75.5664 195.636 73.629 192.99 73.8698 192.326C74.1105 191.662 77.0557 192.094 78.7155 192.696Z" fill="#E76BC8"/>
<path d="M82.6604 199.233C82.9434 197.49 82.339 195.15 81.2315 194.97C80.5344 194.857 78.3593 196.732 78.842 198.808C78.559 200.551 79.926 203.532 80.6231 203.645C81.3202 203.759 82.3774 200.976 82.6604 199.233Z" fill="#E76BC8"/>
<ellipse cx="195.962" cy="263.836" rx="8.44445" ry="10.9993" transform="rotate(38.4433 195.962 263.836)" fill="#E76BC8"/>
<ellipse cx="195.778" cy="254.311" rx="2.34432" ry="3.62304" transform="rotate(-13.5883 195.778 254.311)" fill="#E76BC8"/>
<ellipse cx="80.7022" cy="266.219" rx="1.75468" ry="4.9716" transform="rotate(17.1465 80.7022 266.219)" fill="#E76BC8"/>
<ellipse cx="76.9089" cy="266.577" rx="1.75468" ry="4.9716" transform="rotate(-13.7299 76.9089 266.577)" fill="#E76BC8"/>
<path d="M57.0799 271.118C49.8378 267.234 56.3458 271.663 49.8378 267.234C48.0742 263.635 48.3101 262.072 50.4938 257.674C52.7654 254.136 53.7318 254.065 55.4954 257.665C57.0799 271.118 55.1555 256.999 57.0799 271.118Z" fill="#E76BC8"/>
<path d="M53.989 271.409C64.968 265.51 54.353 271.832 64.968 265.51C69.7592 261.186 70.7488 259.54 71.8815 255.258C72.232 251.933 71.2372 252.078 66.446 256.403C53.989 271.409 67.347 255.6 53.989 271.409Z" fill="#E76BC8"/>
<path d="M37.9317 343.757L41.241 324.521L45.2869 310.037L48.4318 295.339L53.0612 280.422L57.8493 265.828L64.2354 244.75" stroke="#E76BC8" stroke-width="1.32849"/>
<path d="M83.3939 213.48C84.8469 216.155 87.3786 220.205 86.4961 226.856C85.6137 233.506 82.2191 241.146 79.7358 238.954C79.4272 240.475 75.835 232.993 76.7175 226.342C77.5999 219.692 80.4674 215.803 83.3939 213.48Z" fill="#E76BC8"/>
<path d="M76.0619 238.389C77.5632 237.46 79.9563 237.122 80.5468 238.076C80.9184 238.677 80.0197 241.404 77.9173 241.754C76.416 242.683 73.1386 242.562 72.767 241.962C72.3953 241.361 74.5606 239.319 76.0619 238.389Z" fill="#E76BC8"/>
<path d="M84.3703 239.123C83.1784 237.82 80.9677 236.843 80.1399 237.601C79.6189 238.078 79.7417 240.947 81.6697 241.855C82.8616 243.158 86.0482 243.933 86.5692 243.457C87.0902 242.98 85.5622 240.425 84.3703 239.123Z" fill="#E76BC8"/>
<path d="M217.432 262.515C220.166 265.709 224.754 270.449 225.481 279.687C226.209 288.925 223.828 300.223 219.842 297.979C219.863 300.122 212.853 291.053 212.126 281.815C211.398 272.577 214.149 266.497 217.432 262.515Z" fill="#E76BC8"/>
<ellipse cx="167.516" cy="233.121" rx="6.53417" ry="15.8726" transform="rotate(33.8394 167.516 233.121)" fill="#E76BC8"/>
<ellipse cx="167.516" cy="233.121" rx="6.53417" ry="15.8726" transform="rotate(33.8394 167.516 233.121)" fill="#E76BC8"/>
<ellipse cx="158.178" cy="234.624" rx="8.13673" ry="13.3365" transform="rotate(-23.5353 158.178 234.624)" fill="#E76BC8"/>
<ellipse cx="158.178" cy="234.624" rx="8.13673" ry="13.3365" transform="rotate(-23.5353 158.178 234.624)" fill="#E76BC8"/>
<path d="M154.919 196.568C159.546 198.205 163.32 200.738 161.089 206.583C160.143 209.062 155.113 213.653 148.685 210.236C141.998 207.871 135.929 200.498 136.875 198.019C137.821 195.539 148.233 194.203 154.919 196.568Z" fill="#E76BC8"/>
<path d="M154.919 196.568C159.546 198.205 163.32 200.738 161.089 206.583C160.143 209.062 155.113 213.653 148.685 210.236C141.998 207.871 135.929 200.498 136.875 198.019C137.821 195.539 148.233 194.203 154.919 196.568Z" fill="#E76BC8"/>
<line y1="-0.426239" x2="9.60576" y2="-0.426239" transform="matrix(0.911316 0.411708 -0.4368 0.899558 158.806 206.34)" stroke="#E76BC8" stroke-width="0.852479"/>
<rect width="22.8728" height="1.30449" transform="matrix(-0.273546 0.961859 -0.973102 -0.230374 107.184 253.404)" fill="#E76BC8"/>
<ellipse cx="6.19925" cy="7.33196" rx="6.19925" ry="7.33196" transform="matrix(-0.342621 0.939474 -0.962286 -0.27204 116.655 245.422)" fill="#E76BC8"/>
<path d="M107.33 249.834C103.365 248.713 99.2939 248.415 99.4996 247.272C100.06 246.461 99.8259 246.666 107.766 248.639C115.707 250.613 116.249 250.572 115.176 251.199C115.055 251.529 115.469 252.135 107.33 249.834Z" fill="#E76BC8"/>
<path d="M193.757 238.81C191.4 241.479 187.686 242.45 184.774 239.184C181.48 236.836 181.677 232.893 184.033 230.224C187.874 226.752 189.428 226.201 193.254 229.58C197.081 232.959 197.05 234.294 193.757 238.81Z" fill="#E76BC8"/>
<path d="M199.546 232.464C198.031 234.179 193.779 236.211 191.746 231.104C186.252 229.644 188.172 225.473 189.687 223.758C191.202 222.042 193.621 221.57 197.205 224.922C201.629 228.108 201.061 230.748 199.546 232.464Z" fill="#E76BC8"/>
<path d="M197.723 230.988C195.434 232.946 194.608 230.802 193.15 229.514C191.691 228.226 189.647 227.703 191.375 225.383C192.524 223.842 194.235 225.345 195.694 226.633C197.152 227.921 199.184 229.739 197.723 230.988Z" fill="white"/>
<path d="M195.745 234.063C194.849 235.077 192.806 234.197 191.163 231.821C189.091 229.992 186.546 229.459 188.533 227.694C189.652 226.427 190.691 228.18 192.763 230.009C194.835 231.839 197.233 232.377 195.745 234.063Z" fill="#E76BC8"/>
<path d="M101.563 237.025L102.134 237.259L100.811 240.495L100.24 240.261L101.563 237.025Z" fill="#E76BC8"/>
<path d="M107.67 224.753C107.443 238.802 103.013 237.942 101.651 237.786C99.5395 237.545 99.9393 234.686 103.097 224.92C103.647 220.106 105.715 217.492 106.693 217.604C107.671 217.716 108.22 219.939 107.67 224.753Z" fill="#E76BC8"/>
<path d="M131.716 218.895C135.12 221.817 138.816 225.622 136.072 226.293C131.817 228.197 131.483 226.104 128.1 223.109C120.684 216.542 122.746 216.875 123.744 215.711C124.743 214.548 123.755 210.436 131.716 218.895Z" fill="#E76BC8"/>
<path d="M100.179 204.303C100.282 203.616 100.741 203.036 101.385 202.778L108.739 199.836C109.005 199.729 109.282 199.657 109.566 199.62L117.848 198.532C118.805 198.406 119.751 198.827 120.299 199.622L120.454 199.848C120.467 199.865 120.481 199.882 120.497 199.896L121.33 200.641C121.407 200.71 121.328 200.833 121.233 200.793L120.974 200.682C120.915 200.657 120.869 200.736 120.919 200.775V200.775C120.933 200.786 120.941 200.802 120.94 200.819L120.939 200.863C120.938 200.908 120.959 200.951 120.995 200.978L121.362 201.255C121.377 201.266 121.393 201.274 121.411 201.279L121.62 201.336C121.728 201.366 121.717 201.523 121.606 201.537V201.537C121.543 201.544 121.503 201.606 121.52 201.666L121.527 201.692C121.537 201.726 121.56 201.755 121.592 201.771L122.595 202.272C122.63 202.29 122.659 202.316 122.679 202.349V202.349C122.785 202.52 122.607 202.726 122.422 202.647L121.864 202.408V202.408C122.293 202.642 122.645 202.996 122.879 203.424V203.424L123.186 204.014C123.21 204.06 123.156 204.108 123.112 204.078V204.078C123.063 204.044 123.006 204.109 123.046 204.153L123.81 205.013C123.875 205.086 123.805 205.199 123.711 205.173V205.173C123.61 205.146 123.542 205.274 123.621 205.343L124.511 206.115C124.622 206.211 124.564 206.393 124.418 206.407V206.407C124.272 206.421 124.215 206.604 124.326 206.7L125.085 207.352C125.151 207.408 125.179 207.498 125.156 207.582V207.582C125.139 207.643 125.149 207.709 125.183 207.763L126.703 210.14L127.091 210.775C128.194 212.581 127.414 214.944 125.453 215.738L124.003 216.326L105.142 221.142C104.491 221.309 103.806 221.28 103.171 221.06L102.412 220.797C100.995 220.306 100.062 218.951 100.109 217.452L100.245 213.096L100.224 212.728C100.216 212.589 100.041 212.532 99.9533 212.641V212.641C99.85 212.77 99.6441 212.666 99.6876 212.506L99.9045 211.711L100.015 211.307C100.026 211.265 100.045 211.225 100.071 211.19L100.212 210.994C100.292 210.882 100.237 210.725 100.104 210.688V210.688C99.9989 210.66 99.937 210.551 99.9657 210.446L100.103 209.944C100.129 209.849 100.042 209.762 99.9469 209.787L99.9365 209.79C99.9049 209.798 99.8789 209.821 99.8663 209.851L99.8439 209.905C99.8006 210.008 99.646 209.968 99.6577 209.857V209.857C99.6583 209.852 99.6592 209.846 99.6606 209.841L99.8854 209.017C99.8861 209.015 99.8869 209.012 99.888 209.01L100.148 208.415C100.151 208.407 100.162 208.411 100.16 208.419V208.419C100.158 208.424 100.15 208.425 100.148 208.419L100.049 208.183C100.026 208.126 99.9556 208.107 99.9064 208.143L99.801 208.221C99.6486 208.334 99.4407 208.187 99.4954 208.006L99.6737 207.414C99.6937 207.348 99.7313 207.287 99.7815 207.239V207.239C99.9706 207.058 99.9551 206.747 99.7455 206.591L99.4739 206.388L100.014 205.765C100.122 205.641 100.193 205.49 100.222 205.328V205.328C100.237 205.242 100.265 205.159 100.304 205.08L100.324 205.04L99.4739 206.388L100.087 204.67C100.13 204.551 100.16 204.428 100.179 204.303V204.303Z" fill="#E76BC8"/>
<path d="M127.697 210.556C128.616 214.155 132.928 216.302 115.396 219.363C101.194 222.989 101.194 222.989 99.5983 216.74C98.6794 213.142 104.981 206.584 110.948 205.06C116.915 203.537 126.778 206.958 127.697 210.556Z" fill="#E76BC8"/>
<path d="M112.356 209.383L113.442 211.39L116.043 211.042L114.113 212.63L115.199 214.637L112.921 213.611L110.992 215.199L111.513 212.978L109.234 211.952L111.835 211.605L112.356 209.383Z" fill="white"/>
<rect x="133.996" y="226.502" width="0.65913" height="4.79838" transform="rotate(-41.5348 133.996 226.502)" fill="#E76BC8"/>
<path d="M163.833 312.671C157.11 310.643 147.247 311.826 143.156 312.671C143.156 312.671 141.956 313.338 141.956 312.671C141.956 311.603 143.052 310.731 142.623 310.403C140.355 308.669 139.555 305.5 139.555 304.4C139.555 303.066 140.413 299.025 143.557 296.93C145.157 295.862 149.426 291.06 151.16 288.525C151.699 287.738 152.494 282.834 152.628 280.255C152.139 280.077 151.827 279.321 151.827 278.654C151.827 277.647 153.028 277.498 153.295 277.453C153.028 277.453 153.562 274.785 153.295 274.118C153.171 273.81 153.755 274.11 154.459 274.556L153.428 273.851V266.381H148.759L153.295 266.364L153.428 266.381V273.851L154.459 274.556C154.972 274.882 155.55 275.285 155.963 275.586L154.459 274.556C153.755 274.11 153.171 273.81 153.295 274.118C153.562 274.785 153.028 277.453 153.295 277.453C153.562 277.453 154.896 277.587 154.762 279.054C154.629 280.521 154.179 279.854 154.095 280.655C153.828 283.189 155.963 287.992 155.963 289.059C155.963 290.126 160.632 295.462 161.165 295.862C161.699 296.263 166.501 299.998 166.501 303.333C166.501 306.567 163.992 310.303 163.841 310.404C163.925 310.54 164.719 312.938 163.833 312.671Z" fill="#E76BC8"/>
<path d="M153.295 277.453C153.562 277.453 154.896 277.587 154.762 279.054C154.629 280.521 154.179 279.854 154.095 280.655C153.828 283.189 155.963 287.992 155.963 289.059C155.963 290.126 160.632 295.462 161.165 295.862C161.699 296.263 166.501 299.998 166.501 303.333C166.501 306.668 163.833 310.536 163.833 310.403C163.833 310.269 164.767 312.952 163.833 312.671C157.11 310.643 147.247 311.826 143.156 312.671C143.156 312.671 141.956 313.338 141.956 312.671C141.956 311.603 143.052 310.731 142.623 310.403C140.355 308.669 139.555 305.5 139.555 304.4C139.555 303.066 140.413 299.025 143.557 296.93C145.157 295.862 149.426 291.06 151.16 288.525C151.699 287.738 152.494 282.834 152.628 280.255C152.139 280.077 151.827 279.321 151.827 278.654C151.827 277.647 153.028 277.498 153.295 277.453ZM153.295 277.453C153.028 277.453 153.562 274.785 153.295 274.118C153.081 273.585 154.985 274.874 155.963 275.586L153.428 273.851M150.894 272.117L153.428 273.851M153.428 273.851V266.381M153.295 266.364L157.83 266.346M153.295 266.364L153.428 266.381M153.295 266.364L148.759 266.381M153.295 266.364L153.428 263.313M158.497 266.381L157.83 266.346M157.83 266.346V265.447M157.83 266.346V267.315M148.759 266.381V265.447M148.759 266.381V267.315M148.759 266.381H147.692H153.428M153.295 260.111V260.778H152.628H153.362M154.095 260.778H153.362M153.362 260.778L153.428 263.313M153.428 263.313H155.429M153.428 263.313H151.16M155.963 263.313H155.429M155.429 263.313V262.112M155.429 263.313V264.113M155.429 263.313H151.16M150.36 263.313H151.16M151.16 263.313V262.112M151.16 263.313V264.113" stroke="#E76BC8" stroke-width="0.800395"/>
<path d="M131.819 314.268C125.095 312.241 115.233 313.423 111.142 314.268C111.142 314.268 109.941 314.935 109.941 314.268C109.941 313.201 111.038 312.329 110.608 312C108.34 310.266 107.54 307.098 107.54 305.998C107.54 304.664 108.399 300.623 111.542 298.527C113.143 297.46 117.412 292.658 119.146 290.123C119.685 289.335 120.48 284.431 120.613 281.852C120.124 281.674 119.813 280.918 119.813 280.251C119.813 279.245 121.013 279.095 121.28 279.051C121.013 279.051 121.547 276.383 121.28 275.716C121.157 275.408 121.74 275.708 122.444 276.154L121.414 275.449V267.979H116.745L121.28 267.961L121.414 267.979V275.449L122.444 276.154C122.958 276.48 123.535 276.883 123.948 277.183L122.444 276.154C121.74 275.708 121.157 275.408 121.28 275.716C121.547 276.383 121.013 279.051 121.28 279.051C121.547 279.051 122.881 279.184 122.748 280.652C122.614 282.119 122.165 281.452 122.081 282.252C121.814 284.787 123.948 289.589 123.948 290.657C123.948 291.724 128.617 297.06 129.151 297.46C129.684 297.86 134.487 301.595 134.487 304.93C134.487 308.164 131.978 311.9 131.826 312.002C131.911 312.138 132.704 314.535 131.819 314.268Z" fill="#E76BC8"/>
<path d="M121.28 279.051C121.547 279.051 122.881 279.184 122.748 280.652C122.614 282.119 122.165 281.452 122.081 282.252C121.814 284.787 123.948 289.589 123.948 290.657C123.948 291.724 128.617 297.06 129.151 297.46C129.684 297.86 134.487 301.595 134.487 304.93C134.487 308.265 131.819 312.134 131.819 312C131.819 311.867 132.753 314.55 131.819 314.268C125.095 312.241 115.233 313.423 111.142 314.268C111.142 314.268 109.941 314.935 109.941 314.268C109.941 313.201 111.038 312.329 110.608 312C108.34 310.266 107.54 307.098 107.54 305.998C107.54 304.664 108.399 300.623 111.542 298.527C113.143 297.46 117.412 292.658 119.146 290.123C119.685 289.335 120.48 284.431 120.613 281.852C120.124 281.674 119.813 280.918 119.813 280.251C119.813 279.245 121.013 279.095 121.28 279.051ZM121.28 279.051C121.013 279.051 121.547 276.383 121.28 275.716C121.067 275.182 122.97 276.472 123.948 277.183L121.414 275.449M118.879 273.715L121.414 275.449M121.414 275.449V267.979M121.28 267.961L125.816 267.944M121.28 267.961L121.414 267.979M121.28 267.961L116.745 267.979M121.28 267.961L121.414 264.911M126.483 267.979L125.816 267.944M125.816 267.944V267.045M125.816 267.944V268.913M116.745 267.979V267.045M116.745 267.979V268.913M116.745 267.979H115.677H121.414M121.28 261.709V262.376H120.613H121.347M122.081 262.376H121.347M121.347 262.376L121.414 264.911M121.414 264.911H123.415M121.414 264.911H119.146M123.948 264.911H123.415M123.415 264.911V263.71M123.415 264.911V265.711M123.415 264.911H119.146M118.345 264.911H119.146M119.146 264.911V263.71M119.146 264.911V265.711" stroke="#E76BC8" stroke-width="0.800395"/>
<path d="M152.157 317.368C143.57 314.779 130.973 316.289 125.748 317.368C125.748 317.368 124.214 318.22 124.214 317.368C124.214 316.005 125.615 314.892 125.066 314.472C122.17 312.257 121.147 308.21 121.147 306.805C121.148 305.101 122.244 299.94 126.259 297.263C128.303 295.9 133.756 289.767 135.971 286.529C136.659 285.523 137.674 279.26 137.845 275.966C137.22 275.739 136.823 274.773 136.823 273.921C136.823 272.635 138.356 272.445 138.697 272.388C138.356 272.388 139.037 268.98 138.697 268.128C138.539 267.734 139.285 268.118 140.183 268.688L138.867 267.788V258.246H132.904L138.697 258.224L138.867 258.246V267.788L140.183 268.688C140.839 269.104 141.577 269.619 142.104 270.003L140.183 268.688C139.285 268.118 138.539 267.734 138.697 268.128C139.037 268.98 138.356 272.388 138.697 272.388C139.037 272.388 140.741 272.558 140.571 274.432C140.401 276.307 139.827 275.455 139.719 276.477C139.378 279.714 142.104 285.848 142.104 287.211C142.104 288.574 148.068 295.389 148.749 295.9C149.431 296.412 155.564 301.182 155.564 305.442C155.564 309.572 152.36 314.344 152.166 314.474C152.274 314.648 153.288 317.709 152.157 317.368Z" fill="#E76BC8"/>
<path d="M138.697 272.388C139.037 272.388 140.741 272.558 140.571 274.432C140.401 276.307 139.827 275.455 139.719 276.477C139.378 279.714 142.104 285.848 142.104 287.211C142.104 288.574 148.068 295.389 148.749 295.9C149.431 296.412 155.564 301.182 155.564 305.442C155.564 309.701 152.157 314.642 152.157 314.472C152.157 314.302 153.35 317.728 152.157 317.368C143.57 314.779 130.973 316.289 125.748 317.368C125.748 317.368 124.214 318.22 124.214 317.368C124.214 316.005 125.615 314.892 125.066 314.472C122.17 312.257 121.147 308.21 121.147 306.805C121.148 305.101 122.244 299.94 126.259 297.263C128.303 295.9 133.756 289.767 135.971 286.529C136.659 285.523 137.674 279.26 137.845 275.966C137.22 275.739 136.823 274.773 136.823 273.921C136.823 272.635 138.356 272.445 138.697 272.388ZM138.697 272.388C138.356 272.388 139.037 268.98 138.697 268.128C138.424 267.447 140.855 269.094 142.104 270.003L138.867 267.788M135.63 265.573L138.867 267.788M138.867 267.788V258.246M138.697 258.224L144.49 258.201M138.697 258.224L138.867 258.246M138.697 258.224L132.904 258.246M138.697 258.224L138.867 254.327M145.342 258.246L144.49 258.201M144.49 258.201V257.054M144.49 258.201V259.439M132.904 258.246V257.054M132.904 258.246V259.439M132.904 258.246H131.541H138.867M138.697 250.238V251.09H137.845H138.782M139.719 251.09H138.782M138.782 251.09L138.867 254.327M138.867 254.327H141.423M138.867 254.327H135.971M142.104 254.327H141.423M141.423 254.327V252.794M141.423 254.327V255.35M141.423 254.327H135.971M134.948 254.327H135.971M135.971 254.327V252.794M135.971 254.327V255.35" stroke="#E76BC8" stroke-width="1.02229"/>
<path d="M188.764 155.526L166.655 141.656C158.553 121.607 144.96 107.463 132.738 107.463C119.709 107.463 108.43 123.942 101.289 141.656L76.8459 157.86C50.2052 107.875 92.5023 63.1074 106.233 51.2976C116.467 42.4956 125.672 29.4633 130.541 15.1816C135.759 28.914 135.347 27.5407 158.553 51.2976C185.195 78.5717 207.578 115.428 188.764 155.526Z" fill="#E76BC8"/>
<path d="M183.18 162.322C333.191 430.206 173.509 451.193 137.611 451.503C101.713 451.813 -51.9408 429.057 83.6565 163.181C102.777 131.473 98.7383 107.425 134.636 107.115C170.534 106.805 164.181 134.14 183.18 162.322Z" fill="white"/>
<ellipse cx="113.758" cy="108.383" rx="5.75423" ry="7.03295" transform="rotate(-20.5713 113.758 108.383)" fill="white"/>
<ellipse cx="5.75423" cy="7.03295" rx="5.75423" ry="7.03295" transform="matrix(-0.942165 -0.33515 -0.33515 0.942165 159.896 103.355)" fill="white"/>
<ellipse cx="124.646" cy="127.63" rx="2.77056" ry="3.62304" transform="rotate(-0.494838 124.646 127.63)" fill="#00544B"/>
<ellipse cx="144.254" cy="127.462" rx="2.77056" ry="3.62304" transform="rotate(-0.494838 144.254 127.462)" fill="#00544B"/>
<path d="M144.532 135.237C144.549 137.172 140.02 139.691 135.2 140.538C130.366 139.774 125.795 137.334 125.778 135.399C125.761 133.465 127.235 130.587 134.787 131.293C142.217 130.668 144.515 133.303 144.532 135.237Z" fill="#00544B"/>
<path d="M151.785 152.102L151.778 152.166L151.818 152.215C153.607 154.414 154.068 155.967 153.705 157.089C153.341 158.214 152.123 158.987 150.334 159.559C148.555 160.128 146.267 160.48 143.846 160.801C143.367 160.865 142.884 160.927 142.398 160.99C140.44 161.242 138.448 161.499 136.629 161.855C131.733 161.487 127.208 161.065 123.845 159.497C122.166 158.714 120.782 157.647 119.788 156.163C118.796 154.682 118.185 152.776 118.065 150.299C118.66 147.979 119.603 146.608 120.807 145.832C122.018 145.052 123.518 144.856 125.261 144.941C126.61 145.007 128.087 145.239 129.671 145.489C130.135 145.562 130.609 145.636 131.091 145.708C133.211 146.026 135.486 146.296 137.839 146.184C141.106 146.029 143.741 145.404 145.825 144.787C146.53 144.578 147.173 144.37 147.755 144.181C148.032 144.092 148.294 144.007 148.542 143.928C149.318 143.684 149.954 143.505 150.471 143.444C150.988 143.383 151.358 143.444 151.623 143.646C151.89 143.85 152.085 144.222 152.192 144.863C152.407 146.15 152.249 148.396 151.785 152.102Z" fill="#00544B" stroke="#003D37" stroke-width="0.299957"/>
<path d="M117.893 150.286L120.51 154.816L123.286 150.03L126.189 157.399L129.2 151.25L132.809 157.685L136.212 150.316L140.299 157.329L142.383 150.624L146.862 156.417L147.534 148.427L150.522 154.442L150.23 148.299L150.745 143.32L151.658 143.577L152.092 152.715L154.082 156.675" stroke="white" stroke-width="1.19983"/>
<path d="M110.789 113.917C117.517 114.467 118.799 110.026 119.852 109.111C127.084 105.724 142.757 100.762 145.943 107.463C149.129 114.164 153.954 113.414 156.105 112.544C159.813 111.045 173.17 133.229 167.915 128.885C145.943 110.724 123.422 113.231 99.8027 128.885C101.725 124.079 106.085 113.533 110.789 113.917Z" fill="#E76BC8"/>
<path d="M185.08 162.668C142.236 219.245 91.5658 186.013 80.8546 162.668C59.2945 136.073 33.0649 300.54 21.2551 366.043C9.44527 431.546 84.7078 462.17 135.92 462.17C195.792 462.17 234.243 414.793 245.504 389.938C266.781 342.973 215.99 121.851 185.08 162.668Z" fill="#003D37"/>
<path d="M33.1885 238.475H23.7632V201.415H48.6748V208.992H33.1885V238.475ZM53.2976 201.415H69.3489C77.3103 201.415 82.7036 206.577 82.7036 214.539C82.7036 222.449 77.0278 227.611 68.7839 227.611H62.7229V238.475H53.2976V201.415ZM62.7229 208.632V220.523H66.8064C70.8128 220.523 73.1755 218.443 73.1755 214.565C73.1755 210.712 70.8128 208.632 66.8577 208.632H62.7229ZM112.212 238.475V215.772H111.955L96.8287 238.475H87.8143V201.415H97.2139V224.144H97.4707L112.597 201.415H121.612V238.475H112.212ZM136.816 223.065V216.028H141.67C144.957 216.028 147.14 214.333 147.14 211.714C147.14 209.094 145.06 207.476 141.644 207.476C138.203 207.476 135.917 209.377 135.814 212.279H127.236C127.39 205.037 133.066 200.414 141.849 200.414C150.324 200.414 155.975 204.472 155.975 210.533C155.975 214.77 153.124 218.134 148.938 218.931V219.136C153.971 219.675 157.207 223.168 157.207 228.099C157.207 234.802 150.812 239.476 141.618 239.476C132.809 239.476 126.825 234.751 126.491 227.483H135.48C135.609 230.308 138.048 232.054 141.798 232.054C145.239 232.054 147.551 230.154 147.551 227.38C147.551 224.683 145.342 223.065 141.67 223.065H136.816ZM194.266 238.475H184.867V208.992H175.493L174.748 223.425C174.26 232.876 171.101 238.834 162.96 238.834C161.419 238.834 160.186 238.629 159.647 238.475V230.282C160.058 230.359 160.751 230.513 161.548 230.513C164.963 230.513 165.913 227.483 166.145 222.731L167.121 201.415H194.266V238.475ZM224.802 238.475V215.772H224.546L209.419 238.475H200.404V201.415H209.804V224.144H210.061L225.188 201.415H234.202V238.475H224.802Z" fill="#E76BC8"/>
</g>
<defs>
<clipPath id="clip0_335_1710">
<rect width="258.875" height="263.161" fill="white" transform="translate(0 0.515625)"/>
</clipPath>
</defs>
</svg>
