<svg width="259" height="265" viewBox="0 0 259 265" fill="none" xmlns="http://www.w3.org/2000/svg">
<g clip-path="url(#clip0_335_1712)">
<rect width="258.875" height="263.161" transform="translate(0 0.933594)" fill="#003D37"/>
<path d="M92.7257 228.333C91.2577 231.762 89.2872 237.272 82.2231 241.476C75.1589 245.68 65.2358 248.22 65.4564 244.168C63.76 245.026 68.2242 235.889 75.2883 231.686C82.3524 227.482 88.2694 227.284 92.7257 228.333Z" fill="#E76BC8"/>
<path d="M63.3579 240.89C65.3916 241.627 67.5348 243.671 67.0661 244.963C66.7712 245.777 63.4661 246.985 61.5331 245.229C59.4995 244.492 57.1256 241.249 57.4206 240.436C57.7156 239.623 61.3243 240.152 63.3579 240.89Z" fill="#E76BC8"/>
<path d="M68.1922 248.9C68.5389 246.765 67.7985 243.898 66.4415 243.677C65.5873 243.539 62.9222 245.837 63.5137 248.38C63.1669 250.515 64.8419 254.168 65.696 254.307C66.5501 254.445 67.8454 251.036 68.1922 248.9Z" fill="#E76BC8"/>
<path d="M156.728 245.632C162.397 247.637 167.021 250.741 164.288 257.903C163.129 260.941 156.966 266.566 149.089 262.379C140.896 259.481 133.46 250.447 134.619 247.41C135.779 244.372 148.535 242.735 156.728 245.632Z" fill="#E76BC8"/>
<path d="M156.728 245.632C162.397 247.637 167.021 250.741 164.288 257.903C163.129 260.941 156.966 266.566 149.089 262.379C140.896 259.481 133.46 250.447 134.619 247.41C135.779 244.372 148.535 242.735 156.728 245.632Z" fill="#E76BC8"/>
<line y1="-0.522257" x2="11.7696" y2="-0.522257" transform="matrix(0.911316 0.411708 -0.4368 0.899558 161.49 257.609)" stroke="#E76BC8" stroke-width="1.04451"/>
<path d="M128.302 272.994C132.473 276.574 137.001 281.236 133.639 282.058C128.427 284.391 128.016 281.827 123.871 278.157C114.785 270.111 117.311 270.519 118.535 269.093C119.758 267.668 118.548 262.63 128.302 272.994Z" fill="#E76BC8"/>
<path d="M89.6596 255.112C89.7855 254.271 90.348 253.561 91.1372 253.245L100.148 249.639C100.473 249.509 100.813 249.42 101.161 249.374L111.308 248.042C112.481 247.888 113.641 248.403 114.312 249.377L114.502 249.654C114.517 249.676 114.535 249.696 114.555 249.713L115.575 250.626C115.669 250.71 115.573 250.861 115.457 250.812L115.139 250.676C115.067 250.645 115.01 250.742 115.072 250.79V250.79C115.088 250.803 115.098 250.823 115.097 250.844L115.096 250.897C115.095 250.953 115.121 251.005 115.165 251.039L115.614 251.378C115.632 251.392 115.653 251.402 115.675 251.408L115.93 251.478C116.063 251.514 116.049 251.706 115.913 251.723V251.723C115.837 251.733 115.787 251.808 115.808 251.882L115.817 251.914C115.828 251.956 115.857 251.991 115.896 252.01L117.126 252.625C117.168 252.646 117.203 252.678 117.228 252.718V252.718C117.357 252.928 117.14 253.18 116.913 253.083L116.23 252.791V252.791C116.754 253.078 117.187 253.511 117.474 254.036V254.036L117.849 254.758C117.879 254.815 117.812 254.874 117.759 254.837V254.837C117.699 254.796 117.629 254.875 117.677 254.929L118.614 255.983C118.693 256.073 118.608 256.211 118.492 256.179V256.179C118.369 256.146 118.285 256.302 118.382 256.386L119.473 257.333C119.609 257.451 119.538 257.673 119.359 257.691V257.691C119.18 257.708 119.109 257.932 119.246 258.049L120.176 258.848C120.257 258.918 120.291 259.028 120.262 259.13V259.13C120.242 259.206 120.254 259.286 120.296 259.352L122.159 262.265L122.634 263.043C123.985 265.255 123.029 268.151 120.627 269.124L118.85 269.844L95.7401 275.746C94.9429 275.949 94.1034 275.914 93.3259 275.645L92.3959 275.322C90.6598 274.721 89.5164 273.06 89.5736 271.224L89.7398 265.887L89.7148 265.436C89.7053 265.265 89.4899 265.196 89.3829 265.33V265.33C89.2564 265.488 89.004 265.359 89.0573 265.164L89.3231 264.19L89.4581 263.694C89.4722 263.643 89.4955 263.594 89.5268 263.551L89.6998 263.311C89.7985 263.174 89.7302 262.981 89.5675 262.937V262.937C89.4388 262.902 89.3629 262.769 89.398 262.64L89.5659 262.025C89.5976 261.908 89.4914 261.801 89.375 261.832L89.3623 261.836C89.3236 261.846 89.2918 261.874 89.2763 261.911L89.2488 261.976C89.1958 262.102 89.0064 262.054 89.0207 261.918V261.918C89.0214 261.911 89.0226 261.905 89.0243 261.899L89.2997 260.889C89.3005 260.886 89.3016 260.883 89.3028 260.88L89.6215 260.15C89.6253 260.142 89.6384 260.146 89.6359 260.155V260.155C89.634 260.163 89.6243 260.163 89.6215 260.156L89.5006 259.866C89.4718 259.797 89.3857 259.773 89.3255 259.818L89.1963 259.913C89.0096 260.051 88.7549 259.872 88.8218 259.65L89.0403 258.925C89.0648 258.843 89.1109 258.768 89.1724 258.71V258.71C89.404 258.488 89.3851 258.108 89.1283 257.916L88.7955 257.668L89.4573 256.903C89.589 256.752 89.677 256.567 89.7122 256.369V256.369C89.7309 256.263 89.7647 256.161 89.8126 256.065L89.8372 256.016L88.7955 257.668L89.5468 255.562C89.5988 255.416 89.6366 255.265 89.6596 255.112V255.112Z" fill="#E76BC8"/>
<path d="M123.381 262.776C124.506 267.185 129.79 269.817 108.309 273.566C90.9077 278.01 90.9077 278.01 88.9524 270.353C87.8265 265.944 95.5473 257.909 102.859 256.042C110.17 254.175 122.255 258.367 123.381 262.776Z" fill="#E76BC8"/>
<path d="M104.581 261.338L105.912 263.797L109.098 263.371L106.734 265.316L108.065 267.775L105.273 266.519L102.91 268.464L103.548 265.742L100.756 264.486L103.943 264.06L104.581 261.338Z" fill="white"/>
<path d="M193.684 204.095C141.187 273.417 79.1033 232.698 65.9792 204.095C39.5624 171.509 7.42412 373.025 -7.04603 453.284C-21.5162 533.543 70.7005 571.064 133.449 571.064C206.808 571.064 253.921 513.016 267.718 482.561C293.788 425.017 231.557 154.083 193.684 204.095Z" fill="white"/>
<ellipse cx="14.6249" cy="5.8583" rx="14.6249" ry="5.8583" transform="matrix(0.87972 0.475491 -0.478076 0.878319 84.624 95.6406)" fill="white"/>
<ellipse cx="10.3405" cy="5.85506" rx="10.3405" ry="5.85506" transform="matrix(-0.221772 0.975098 -0.975815 -0.2186 91.5625 85.1191)" fill="white"/>
<path d="M83.728 82.352C81.5276 79.9896 84.1659 73.9676 89.621 68.9014C95.076 63.8353 99.8055 60.0582 103.483 64.0058C105.683 66.3681 103.045 72.3901 97.5896 77.4563C92.1345 82.5224 85.9285 84.7143 83.728 82.352Z" fill="white"/>
<path d="M86.5894 85.7992C84.3889 83.4369 87.0273 77.4149 92.4823 72.3487C97.9374 67.2826 102.667 63.5055 106.344 67.453C108.544 69.8154 105.906 75.8374 100.451 80.9036C94.9959 85.9697 88.7898 88.1616 86.5894 85.7992Z" fill="white"/>
<path d="M104.297 113.872C102.338 111.769 104.359 106.419 108.579 102.5C112.798 98.5811 116.126 95.9753 119.578 99.6805C123.753 104.164 120.335 106.935 116.115 110.854C111.896 114.773 106.255 115.975 104.297 113.872Z" fill="white"/>
<path d="M86.225 85.3035C84.6119 88.6608 78.1697 88.9348 71.8359 85.9154C65.5022 82.896 60.8743 78.8047 63.2885 74.3694C66.4799 68.5062 71.3438 70.7382 77.6776 73.7576C84.0113 76.7769 87.8381 81.9462 86.225 85.3035Z" fill="white"/>
<ellipse cx="17.6361" cy="7.19411" rx="17.6361" ry="7.19411" transform="matrix(-0.0584108 0.998293 -0.998462 -0.0554429 107.232 111.898)" fill="white"/>
<ellipse cx="18.5151" cy="7.68408" rx="18.5151" ry="7.68408" transform="matrix(0.0164098 0.999865 -0.999817 0.0191469 113.579 113.383)" fill="white"/>
<ellipse cx="18.5592" cy="7.66582" rx="18.5592" ry="7.66582" transform="matrix(-0.746044 0.665897 -0.666913 -0.745136 88.7715 106.631)" fill="white"/>
<ellipse cx="18.5571" cy="7.66668" rx="18.5571" ry="7.66668" transform="matrix(-0.697148 0.716927 -0.718159 -0.695879 90.7568 110.334)" fill="white"/>
<ellipse cx="1.67004" cy="4.66823" rx="1.67004" ry="4.66823" transform="matrix(0.6356 0.772018 -0.772726 0.63474 124.671 94.0703)" fill="white"/>
<ellipse cx="0.752136" cy="2.09225" rx="0.752136" ry="2.09225" transform="matrix(0.87972 0.475491 -0.478076 0.878319 62.1807 69.0508)" fill="white"/>
<path d="M63.0944 72.7989C60.5482 72.9207 61.3545 71.4511 61.5484 71.0831C61.7423 70.7151 62.3886 69.5395 63.7967 71.4663C64.5665 71.8691 65.0334 72.4939 64.8394 72.8619C64.6455 73.2299 63.8642 73.2017 63.0944 72.7989Z" fill="white"/>
<path d="M193.185 91.9051C195.701 86.21 197.626 78.4379 198.323 72.3635C199.021 66.2892 198.735 60.3858 197.484 55.0669C196.232 49.7479 194.047 45.1421 191.081 41.572C188.114 38.002 184.438 35.554 180.311 34.3997C176.183 33.2453 171.703 33.4125 167.185 34.8894C162.667 36.3664 158.22 39.1175 154.156 42.9499C150.092 46.7823 146.508 51.6034 143.657 57.0754C140.805 62.5474 138.524 67.2863 137.418 73.3759L167.7 75.421L193.185 91.9051Z" fill="white"/>
<path d="M165.941 58.7697C168.806 67.3661 161.476 69.8427 158.061 68.708C154.646 67.5733 152.913 61.8146 155.253 54.7726C159.049 47.6543 160.989 46.1193 164.987 43.5594C165.193 49.8275 163.362 51.033 165.941 58.7697Z" fill="#E76BC8"/>
<path d="M180.227 62.4148C172.787 67.587 177.177 73.9578 180.592 75.0925C184.007 76.2272 188.842 72.6505 191.182 65.6086C192.401 57.6342 191.765 55.2431 190.094 50.7999C186.178 55.6983 186.924 57.7598 180.227 62.4148Z" fill="#E76BC8"/>
<ellipse cx="14.6249" cy="5.8583" rx="14.6249" ry="5.8583" transform="matrix(0.892084 -0.451869 0.449244 0.893409 -26.6182 204.092)" fill="white"/>
<path d="M-0.426035 198.314C-3.27007 198.725 -6.51477 194.015 -7.32998 188.315C-8.14519 182.614 -8.38962 178.394 -3.37817 177.67C2.68534 176.794 3.01482 181.183 3.83003 186.884C4.64524 192.584 2.418 197.903 -0.426035 198.314Z" fill="white"/>
<ellipse cx="17.6361" cy="7.19411" rx="17.6361" ry="7.19411" transform="matrix(0.787004 0.616948 -0.614605 0.788835 -0.376953 194.781)" fill="white"/>
<ellipse cx="18.5151" cy="7.68408" rx="18.5151" ry="7.68408" transform="matrix(0.830939 0.556364 -0.554087 0.832458 4.46094 190.412)" fill="white"/>
<ellipse cx="14.6249" cy="5.8583" rx="14.6249" ry="5.8583" transform="matrix(0.87972 0.475491 -0.478076 0.878319 244.567 238.912)" fill="white"/>
<ellipse cx="10.3405" cy="5.85506" rx="10.3405" ry="5.85506" transform="matrix(-0.221772 0.975098 -0.975815 -0.2186 251.506 228.391)" fill="white"/>
<path d="M243.671 225.623C241.471 223.261 244.109 217.239 249.564 212.173C255.019 207.107 259.749 203.33 263.426 207.277C265.626 209.64 262.988 215.662 257.533 220.728C252.078 225.794 245.872 227.986 243.671 225.623Z" fill="white"/>
<path d="M246.533 229.071C244.332 226.708 246.971 220.686 252.426 215.62C257.881 210.554 262.61 206.777 266.287 210.725C268.488 213.087 265.849 219.109 260.394 224.175C254.939 229.241 248.733 231.433 246.533 229.071Z" fill="white"/>
<path d="M246.167 228.575C244.554 231.932 238.112 232.206 231.778 229.187C225.445 226.168 220.817 222.076 223.231 217.641C226.422 211.778 231.286 214.01 237.62 217.029C243.954 220.048 247.781 225.218 246.167 228.575Z" fill="white"/>
<ellipse cx="17.6361" cy="7.19411" rx="17.6361" ry="7.19411" transform="matrix(-0.0584108 0.998293 -0.998462 -0.0554429 267.176 255.172)" fill="white"/>
<ellipse cx="18.5151" cy="7.68408" rx="18.5151" ry="7.68408" transform="matrix(0.0164098 0.999865 -0.999817 0.0191469 273.524 256.652)" fill="white"/>
<ellipse cx="18.5592" cy="7.66582" rx="18.5592" ry="7.66582" transform="matrix(-0.746044 0.665897 -0.666913 -0.745136 248.716 249.902)" fill="white"/>
<ellipse cx="18.5571" cy="7.66668" rx="18.5571" ry="7.66668" transform="matrix(-0.697148 0.716927 -0.718159 -0.695879 250.701 253.604)" fill="white"/>
<ellipse cx="0.752136" cy="2.09225" rx="0.752136" ry="2.09225" transform="matrix(0.87972 0.475491 -0.478076 0.878319 222.127 212.32)" fill="white"/>
<path d="M223.038 216.07C220.492 216.192 221.298 214.723 221.492 214.355C221.686 213.987 222.332 212.811 223.74 214.738C224.51 215.141 224.977 215.765 224.783 216.133C224.589 216.501 223.808 216.473 223.038 216.07Z" fill="white"/>
<path d="M186.59 225.093C187.152 219.15 186.559 211.497 185.37 205.759C184.182 200.021 182.158 194.737 179.441 190.276C176.723 185.814 173.378 182.284 169.64 179.933C165.902 177.581 161.86 176.465 157.799 176.663C153.738 176.861 149.755 178.367 146.129 181.077C142.504 183.786 139.324 187.634 136.811 192.349C134.299 197.065 132.515 202.535 131.584 208.376C130.654 214.216 130.018 219.218 130.844 225.093L158.717 217.799L186.59 225.093Z" fill="white"/>
<path d="M152.344 203.091C157.554 209.983 151.629 214.411 148.176 214.411C144.723 214.411 141.403 209.738 141.403 202.689C142.706 195.134 144.008 193.169 146.874 189.664C148.958 195.253 147.655 196.888 152.344 203.091Z" fill="#E76BC8"/>
<path d="M165.864 202.048C160.654 208.94 166.579 213.368 170.032 213.368C173.485 213.368 176.805 208.695 176.805 201.646C175.502 194.091 174.2 192.126 171.334 188.621C169.25 194.21 170.553 195.846 165.864 202.048Z" fill="#E76BC8"/>
<rect x="68.9788" y="240.687" width="49.9407" height="1.34229" rx="0.671146" transform="rotate(44.5097 68.9788 240.687)" fill="white" stroke="white" stroke-width="1.34229"/>
<path d="M71.1031 245.029C68.8428 246.824 66.413 247.905 64.3395 248.229C62.2395 248.558 60.6832 248.099 59.8783 247.085C59.0733 246.072 58.9782 244.452 59.7741 242.481C60.56 240.535 62.1626 238.413 64.4229 236.618C66.6832 234.823 69.113 233.742 71.1865 233.417C73.2865 233.088 74.8428 233.548 75.6477 234.562C76.4527 235.575 76.5478 237.195 75.7519 239.166C74.966 241.112 73.3634 243.234 71.1031 245.029Z" fill="white" stroke="white" stroke-width="1.56296"/>
<path d="M24.0428 303.239C24.6048 297.297 24.0122 289.643 22.8236 283.906C21.6349 278.168 19.6111 272.883 16.8938 268.422C14.1765 263.961 10.8315 260.431 7.09312 258.079C3.35473 255.728 -0.686622 254.612 -4.74784 254.809C-8.80906 255.007 -12.7919 256.513 -16.4174 259.223C-20.0429 261.933 -23.2233 265.78 -25.7358 270.496C-28.2484 275.211 -30.0323 280.681 -30.9626 286.522C-31.8929 292.363 -32.5287 297.364 -31.703 303.239L-3.8301 295.945L24.0428 303.239Z" fill="white"/>
<path d="M190.579 313.327C193.096 307.632 195.02 299.86 195.718 293.785C196.416 287.711 196.129 281.808 194.878 276.489C193.627 271.17 191.442 266.564 188.475 262.994C185.509 259.424 181.833 256.976 177.705 255.822C173.578 254.667 169.098 254.834 164.58 256.311C160.062 257.788 155.615 260.539 151.551 264.372C147.486 268.204 143.903 273.025 141.051 278.497C138.2 283.969 135.919 288.708 134.813 294.798L165.095 296.843L190.579 313.327Z" fill="white"/>
<path d="M163.335 280.19C166.201 288.786 158.871 291.263 155.456 290.128C152.041 288.993 150.308 283.235 152.648 276.193C156.443 269.074 158.384 267.539 162.381 264.979C162.587 271.247 160.756 272.453 163.335 280.19Z" fill="#E76BC8"/>
<path d="M306.296 213.111C310.464 331.375 264.096 406.397 129.942 400.406C-17.3509 393.828 -56.3113 331.375 -46.1521 213.111C-46.1521 109.67 36.6851 17.74 129.942 25.8154C216.838 25.8154 306.296 109.67 306.296 213.111Z" fill="white"/>
<path d="M26.2663 249.58C39.812 334.24 66.9034 353.257 29.9133 373.836C9.91575 373.836 -5.25352 373.836 -48.235 249.58C-55.2684 161.272 -15.6126 101.619 4.38487 101.619C24.3824 101.619 53.0972 131.055 26.2663 249.58Z" fill="white"/>
<path d="M237.527 231.083C259.294 313.976 188.732 334.76 225.723 355.339C245.72 355.339 284.073 367.322 303.871 231.083C310.904 142.776 257.524 104.223 237.527 104.223C217.529 104.223 218.511 158.666 237.527 231.083Z" fill="white"/>
<path d="M157.293 94.324V94.5656L157.43 94.7651C162.591 102.314 165.009 108.792 165.395 114.254C165.78 119.694 164.153 124.176 161.123 127.783C155.021 135.049 143.127 138.869 130.186 139.389C117.808 139.386 105.846 135.38 99.6424 127.885C96.5579 124.159 94.8772 119.552 95.2654 114.071C95.6549 108.571 98.1327 102.131 103.482 94.784L103.632 94.5784V94.324C103.632 83.0812 106.592 71.3585 111.44 62.469C116.311 53.5347 122.946 47.6955 130.202 47.6955C137.463 47.6955 144.228 53.5416 149.229 62.4766C154.206 71.3669 157.293 83.0872 157.293 94.324Z" fill="white" stroke="#E76BC8" stroke-width="1.56296"/>
<path d="M158.074 94.5847C158.636 88.6422 158.043 80.989 156.855 75.2512C155.666 69.5135 153.642 64.2289 150.925 59.7677C148.208 55.3065 144.863 51.7765 141.124 49.425C137.386 47.0736 133.345 45.9576 129.283 46.1551C125.222 46.3527 121.239 47.8591 117.614 50.5687C113.988 53.2784 110.808 57.1258 108.295 61.8415C105.783 66.5571 103.999 72.0269 103.069 77.8677C102.138 83.7085 101.503 88.7097 102.328 94.5847L130.201 87.2909L158.074 94.5847Z" fill="#E76BC8"/>
<path d="M112.489 57.1711C112.489 59.322 111.716 61.744 110.381 63.6156C109.046 65.487 107.229 66.7089 105.159 66.7089C103.105 66.7089 101.442 65.5052 100.255 63.6486C99.0646 61.7859 98.4221 59.355 98.4221 57.1711C98.4221 54.9657 99.0753 51.529 100.314 48.6584C100.933 47.2254 101.677 45.9814 102.519 45.1076C103.357 44.2373 104.237 43.7854 105.159 43.7854C107.021 43.7854 108.358 44.3274 109.343 45.1619C110.342 46.0079 111.039 47.2048 111.517 48.6018C112.482 51.4204 112.489 54.8293 112.489 57.1711Z" fill="white" stroke="white" stroke-width="1.56296"/>
<path d="M162.183 58.214C162.183 60.365 161.411 62.787 160.076 64.6586C158.741 66.5299 156.923 67.7518 154.853 67.7518C152.8 67.7518 151.136 66.5482 149.95 64.6915C148.759 62.8289 148.116 60.398 148.116 58.214C148.116 56.0087 148.77 52.5719 150.009 49.7014C150.627 48.2684 151.371 47.0244 152.213 46.1505C153.051 45.2803 153.932 44.8284 154.853 44.8284C156.715 44.8284 158.052 45.3703 159.038 46.2049C160.037 47.0509 160.733 48.2477 161.211 49.6448C162.176 52.4633 162.183 55.8723 162.183 58.214Z" fill="white" stroke="white" stroke-width="1.56296"/>
<path d="M108.32 57.0731C108.32 59.0503 107.862 60.8275 107.134 62.1014C106.402 63.3826 105.43 64.1065 104.413 64.1065C103.396 64.1065 102.424 63.3826 101.692 62.1014C100.964 60.8275 100.506 59.0503 100.506 57.0731C100.506 55.0959 100.964 53.3187 101.692 52.0449C102.424 50.7636 103.396 50.0398 104.413 50.0398C105.43 50.0398 106.402 50.7636 107.134 52.0449C107.862 53.3187 108.32 55.0959 108.32 57.0731Z" fill="white" stroke="white" stroke-width="0.520988"/>
<ellipse cx="155.991" cy="58.1161" rx="4.16791" ry="7.29384" fill="white"/>
<path d="M120.563 77.5343C125.773 84.426 119.848 88.8544 116.395 88.8544C112.942 88.8544 109.622 84.1817 109.622 77.1322C110.925 69.5778 112.227 67.6126 115.092 64.1074C117.176 69.6966 115.874 71.3318 120.563 77.5343Z" fill="white"/>
<path d="M139.814 77.7921C134.604 84.6838 140.529 89.1122 143.982 89.1122C147.435 89.1122 150.755 84.4395 150.755 77.39C149.452 69.8356 148.15 67.8705 145.285 64.3652C143.201 69.9544 144.503 71.5896 139.814 77.7921Z" fill="white"/>
<circle cx="115.874" cy="82.0796" r="2.60494" fill="#00544B"/>
<circle cx="144.008" cy="82.0796" r="2.60494" fill="#00544B"/>
<path d="M33.3308 281.916C38.2462 317.836 50.3455 353.741 31.5724 362.503C12.7993 371.264 -12.2755 348.893 -27.3643 316.562C-41.1706 283.219 -63.7968 251.009 -23.069 245.42C64.0691 233.464 26.5579 232.422 33.3308 281.916Z" fill="#E76BC8"/>
<path d="M228.455 267.61C220.176 302.742 216.508 340.168 236.264 347.899C256.02 355.63 279.013 338.22 292.8 298.91C303.763 226.862 317.237 216.859 283.115 228.178C214.177 251.046 238.975 222.968 228.455 267.61Z" fill="#E76BC8"/>
<path d="M86.3648 30.5022L97.3056 27.6367L85.5834 50.0392L76.7266 71.6602L68.6512 92.63L62.1389 114.642L60.5759 127.927L65.7858 138.868L72.5587 150.329L85.5834 162.833L102.776 176.118L131.17 180.807L158.782 178.463L177.798 171.169L187.176 160.228L193.949 146.683L198.898 129.75L196.293 103.18L187.176 77.9121L175.193 55.2491L163.732 30.5022L175.193 33.6281L185.353 52.1232L196.293 72.4417L205.671 93.5417L209.318 103.18L212.704 114.642L222.343 144.078L224.557 159.447L228.074 173.774L237.191 233.688L210.621 248.796L186.395 254.788L158.782 258.435H131.17H117.364L102.776 256.611L89.4908 255.048L76.7266 252.183L62.9204 249.838L50.4167 245.149L38.6944 240.721L28.5352 232.906L35.829 171.169L38.5642 156.451L41.2994 141.733L49.1142 112.037L60.5759 82.08L71.5167 57.854L78.029 44.9596L86.3648 30.5022Z" fill="#E76BC8"/>
<path d="M137.236 89.5342C137.236 91.7916 133.317 94.6843 129.16 95.6243C125.003 94.6843 121.085 91.7916 121.085 89.5342C121.085 87.2768 122.375 83.9344 128.874 84.8336C135.276 84.1797 137.236 87.2768 137.236 89.5342Z" fill="#00544B"/>
<path d="M148.074 231.572H145.469L140.207 229.748C139.06 230.582 137.758 231.155 136.403 231.52C135.049 231.936 133.538 232.093 131.975 232.093C127.182 232.093 123.327 230.321 120.357 226.727C117.335 223.184 115.876 218.599 115.876 213.077C115.876 207.606 117.596 203.074 121.034 199.479C124.473 195.884 128.953 194.061 134.424 194.061C136.403 194.061 138.123 194.269 139.529 194.686C140.936 195.103 142.03 195.676 142.864 196.509L144.948 194.582H146.771V206.564H144.166C144.166 203.959 143.437 201.771 142.03 199.948C140.623 198.124 138.852 197.187 136.664 197.187C133.746 197.187 131.61 198.489 130.308 200.99C129.005 203.491 128.38 207.554 128.38 213.077C128.38 219.068 128.797 223.236 129.631 225.528C130.464 227.821 131.923 228.967 134.059 228.967C134.632 228.967 135.153 228.915 135.674 228.706C136.195 228.55 136.664 228.29 137.133 227.873V216.203H134.007V213.598H150.157V216.203H148.074V231.572Z" fill="white"/>
<path d="M5.81949 170.725C-1.39021 172.472 5.49187 171.052 -1.39021 172.472C-4.28612 172.472 -4.77664 172.145 -4.99512 170.725C-4.77664 169.414 -4.06774 169.086 -1.17184 169.086C5.81949 170.725 -1.71793 169.09 5.81949 170.725Z" fill="#E76BC8"/>
<path d="M-6.3185 161.362C-0.45102 156.823 -5.85795 161.311 -0.45102 156.823C1.35743 154.561 1.4078 153.973 0.435073 152.916C-0.725204 152.268 -1.42386 152.617 -3.23231 154.879C-6.3185 161.362 -2.88778 154.455 -6.3185 161.362Z" fill="#E76BC8"/>
<path d="M-0.989231 166.149C4.25612 160.903 -0.538876 166.04 4.25612 160.903C5.76358 158.431 5.7391 157.841 4.64029 156.915C3.4073 156.42 2.75847 156.854 1.25101 159.327C-0.989231 166.149 1.53911 158.863 -0.989231 166.149Z" fill="#E76BC8"/>
<path d="M4.62193 171.78C10.4894 167.241 5.08248 171.729 10.4894 167.241C12.2979 164.979 12.3482 164.391 11.3755 163.334C10.2152 162.686 9.51657 163.035 7.70812 165.297C4.62193 171.78 8.05265 164.873 4.62193 171.78Z" fill="#E76BC8"/>
<path d="M8.03141 173.774L2.30053 169.606L-0.825397 165.959L-4.73281 162.572L-7.59825 158.665L-10.2032 154.757L-14.3711 149.287" stroke="#E76BC8" stroke-width="1.04198"/>
<path d="M243.127 132.598C245.057 135.779 248.385 140.576 247.696 148.748C247.007 156.919 243.308 166.444 240.148 163.914C239.86 165.788 235.038 156.863 235.727 148.692C236.416 140.52 239.69 135.605 243.127 132.598Z" fill="#E76BC8"/>
<path d="M245.355 164.755C244.446 162.797 242.231 160.844 240.986 161.421C240.203 161.784 239.288 165.173 241.2 166.943C242.108 168.9 245.535 170.98 246.318 170.616C247.101 170.253 246.263 166.712 245.355 164.755Z" fill="#E76BC8"/>
<path d="M235.291 164.623C236.314 162.723 238.642 160.905 239.85 161.555C240.61 161.964 241.322 165.402 239.309 167.054C238.286 168.954 234.741 170.826 233.981 170.417C233.221 170.008 234.268 166.523 235.291 164.623Z" fill="#E76BC8"/>
<path d="M257.071 152.645C260.071 154.846 264.98 158.006 267.468 165.82C269.956 173.634 270.181 183.85 266.294 182.72C266.744 184.562 258.876 178.159 256.388 170.345C253.9 162.531 255.045 156.738 257.071 152.645Z" fill="#E76BC8"/>
<path d="M250.42 186.26C252.35 189.441 255.678 194.238 254.989 202.41C254.3 210.581 250.601 220.107 247.441 217.576C247.153 219.45 242.331 210.525 243.02 202.354C243.709 194.183 246.983 189.267 250.42 186.26Z" fill="#E76BC8"/>
<path d="M252.649 218.415C251.74 216.458 249.524 214.504 248.28 215.081C247.497 215.444 246.582 218.833 248.494 220.603C249.402 222.56 252.829 224.64 253.612 224.277C254.395 223.913 253.557 220.373 252.649 218.415Z" fill="#E76BC8"/>
<path d="M242.585 218.285C243.608 216.385 245.936 214.567 247.144 215.217C247.904 215.626 248.616 219.064 246.603 220.716C245.58 222.617 242.035 224.489 241.275 224.079C240.515 223.67 241.562 220.185 242.585 218.285Z" fill="#E76BC8"/>
<path d="M241.551 100.985C244.891 102.625 250.279 104.873 254.101 112.129C257.923 119.384 259.939 129.401 255.914 128.972C256.681 130.706 247.81 125.785 243.988 118.53C240.166 111.275 240.276 105.37 241.551 100.985Z" fill="#E76BC8"/>
<path d="M260.75 126.873C258.93 125.714 256.01 125.262 255.273 126.418C254.809 127.146 255.864 130.494 258.428 130.955C260.248 132.115 264.255 132.02 264.719 131.293C265.183 130.565 262.569 128.033 260.75 126.873Z" fill="#E76BC8"/>
<path d="M252.204 132.185C252.042 130.033 253.024 127.247 254.391 127.144C255.252 127.079 257.704 129.591 256.898 132.068C257.06 134.22 255.082 137.707 254.222 137.772C253.361 137.837 252.366 134.337 252.204 132.185Z" fill="#E76BC8"/>
<path d="M240.604 80.2908C241.075 83.9818 242.166 89.717 238.216 96.9034C234.267 104.09 227.017 111.291 225.158 107.694C224.133 109.29 223.353 99.1755 227.303 91.9891C231.253 84.8027 236.242 81.6415 240.604 80.2908Z" fill="#E76BC8"/>
<path d="M229.573 110.576C229.539 108.418 228.308 105.733 226.936 105.755C226.073 105.769 223.86 108.493 224.887 110.887C224.922 113.045 227.208 116.337 228.072 116.323C228.935 116.31 229.608 112.734 229.573 110.576Z" fill="#E76BC8"/>
<path d="M220.431 106.366C222.138 105.046 225.004 104.33 225.843 105.415C226.372 106.098 225.626 109.528 223.114 110.22C221.407 111.54 217.408 111.81 216.88 111.128C216.352 110.445 218.724 107.686 220.431 106.366Z" fill="#E76BC8"/>
<path d="M38.633 122.446C35.4156 130.897 30.171 137.884 17.2201 134.331C11.7268 132.824 1.30052 124.137 8.26953 112.306C12.9193 100.094 28.565 88.5984 34.0583 90.1054C39.5516 91.6124 43.2828 110.234 38.633 122.446Z" fill="#E76BC8"/>
<line y1="-0.520988" x2="17.9227" y2="-0.520988" transform="matrix(-0.444367 0.895845 -0.941663 -0.336558 17.2275 132.166)" stroke="#E76BC8" stroke-width="1.04198"/>
<path d="M8.13612 213.991C9.9987 219.183 10.2254 224.462 2.17394 227.743C-1.24121 229.134 -10.1346 229.043 -11.4898 220.833C-14.1816 213.33 -10.989 201.964 -7.57383 200.572C-4.15868 199.181 5.44435 206.488 8.13612 213.991Z" fill="#E76BC8"/>
<line y1="-0.520988" x2="10.886" y2="-0.520988" transform="matrix(0.238675 0.971099 -0.950555 0.310556 1.28125 226.723)" stroke="#E76BC8" stroke-width="1.04198"/>
<path d="M29.9742 191.07C29.4537 196.562 27.4151 201.437 18.7327 200.985C15.05 200.793 7.03846 196.931 9.30091 188.923C10.0531 180.987 17.7739 172.055 21.4567 172.247C25.1394 172.439 30.7264 183.135 29.9742 191.07Z" fill="#E76BC8"/>
<line y1="-0.520988" x2="10.886" y2="-0.520988" transform="matrix(-0.196667 0.98047 -0.992423 -0.12287 18.3564 199.684)" stroke="#E76BC8" stroke-width="1.04198"/>
<path d="M218.237 69.1655C219.596 73.4221 219.855 77.5846 214.502 79.354C212.232 80.1046 206.244 79.1462 205.167 72.5736C203.204 66.422 205.123 57.8275 207.394 57.077C209.664 56.3265 216.274 63.0138 218.237 69.1655Z" fill="#E76BC8"/>
<line y1="-0.520988" x2="8.77047" y2="-0.520988" transform="matrix(0.223684 0.974662 -0.973528 0.228567 213.881 78.4648)" stroke="#E76BC8" stroke-width="1.04198"/>
<ellipse cx="-6.04069" cy="126.573" rx="3.92592" ry="9.5367" transform="rotate(58.4037 -6.04069 126.573)" fill="#E76BC8"/>
<ellipse cx="-6.04069" cy="126.573" rx="3.92592" ry="9.5367" transform="rotate(58.4037 -6.04069 126.573)" fill="#E76BC8"/>
<ellipse cx="7.26054" cy="14.2485" rx="7.26054" ry="14.2485" transform="matrix(0.986088 -0.166226 0.260097 0.965583 35.249 54.7988)" fill="#E76BC8"/>
<ellipse cx="7.26054" cy="14.2485" rx="7.26054" ry="14.2485" transform="matrix(0.986088 -0.166226 0.260097 0.965583 35.249 54.7988)" fill="#E76BC8"/>
<ellipse cx="7.47319" cy="14.5909" rx="7.47319" ry="14.5909" transform="matrix(0.429089 -0.903262 0.95854 0.284958 22.6182 77.4102)" fill="#E76BC8"/>
<ellipse cx="7.47319" cy="14.5909" rx="7.47319" ry="14.5909" transform="matrix(0.429089 -0.903262 0.95854 0.284958 22.6182 77.4102)" fill="#E76BC8"/>
<path d="M149.157 114.291C149.157 117.6 140.177 123.929 129.099 123.929C118.021 123.929 108.78 117.6 108.78 114.291C108.78 110.982 118.021 114.291 129.099 114.291C140.177 114.291 149.157 110.982 149.157 114.291Z" fill="#00544B"/>
<line x1="144.233" y1="111.024" x2="147.365" y2="121.081" stroke="white" stroke-width="1.56296"/>
<line x1="139.56" y1="112.648" x2="141.887" y2="122.921" stroke="white" stroke-width="1.56296"/>
<line x1="135.077" y1="113.282" x2="136.23" y2="123.752" stroke="white" stroke-width="1.56296"/>
<line x1="130.363" y1="113.845" x2="130.165" y2="124.376" stroke="white" stroke-width="1.56296"/>
<line x1="125.632" y1="113.946" x2="124.467" y2="124.415" stroke="white" stroke-width="1.56296"/>
<line x1="120.813" y1="113.468" x2="119.25" y2="122.846" stroke="white" stroke-width="1.56296"/>
<line x1="115.589" y1="112.5" x2="113.505" y2="120.315" stroke="white" stroke-width="1.56296"/>
<path d="M107.208 73.121C94.378 108.212 84.0005 102.183 80.7151 100.603C75.6227 98.1545 79.1223 91.3222 95.576 69.5499C101.16 57.9373 108.635 53.1772 110.994 54.3116C113.353 55.4459 112.792 61.5083 107.208 73.121Z" fill="#E76BC8"/>
<path d="M172.724 79.3937C178.725 89.704 184.686 102.485 177.208 101.775C164.861 102.845 165.847 97.2964 159.964 86.8201C147.067 63.8547 151.956 66.4892 155.479 64.4384C159.003 62.3877 160.111 51.1979 172.724 79.3937Z" fill="#E76BC8"/>
<path d="M82.2568 100.002L83.5193 101.05L77.5829 108.203L76.3205 107.156L82.2568 100.002Z" fill="#E76BC8"/>
<path d="M106.245 15.2109C107.102 13.577 108.762 12.5205 110.605 12.4352L131.644 11.4618C132.404 11.4267 133.165 11.4868 133.91 11.6408L155.661 16.1368C158.174 16.6564 160.185 18.5402 160.867 21.0146L161.061 21.7167C161.076 21.7725 161.098 21.8262 161.126 21.8768L162.567 24.4744C162.7 24.714 162.395 24.9552 162.192 24.7707L161.638 24.2657C161.512 24.1511 161.326 24.3092 161.418 24.452V24.452C161.443 24.4905 161.449 24.5385 161.433 24.5815L161.393 24.6896C161.351 24.8023 161.365 24.9284 161.432 25.0283L162.112 26.044C162.139 26.0849 162.174 26.1201 162.214 26.1479L162.689 26.473C162.935 26.6416 162.77 27.0262 162.478 26.964V26.964C162.315 26.9292 162.16 27.0476 162.149 27.2139L162.145 27.2862C162.139 27.3803 162.174 27.4725 162.24 27.54L164.322 29.6762C164.393 29.7491 164.443 29.8404 164.465 29.9399V29.9399C164.581 30.4629 163.956 30.8255 163.56 30.4648L162.367 29.3783V29.3783C163.239 30.3401 163.816 31.5359 164.03 32.8162V32.8162L164.285 34.5648C164.305 34.7033 164.127 34.7763 164.044 34.6633V34.6633C163.95 34.5351 163.751 34.647 163.812 34.7937L164.981 37.6208C165.08 37.861 164.806 38.0833 164.592 37.9363V37.9363C164.362 37.7792 164.079 38.0412 164.217 38.2822L165.781 41.0002C165.975 41.3378 165.671 41.7437 165.292 41.6524V41.6524C164.913 41.5608 164.608 41.9689 164.805 42.3064L166.142 44.6072C166.259 44.8072 166.249 45.0563 166.119 45.2472V45.2472C166.023 45.3868 165.991 45.5604 166.03 45.7251L167.773 53.024L168.193 54.9573C169.387 60.4542 165.365 65.7098 159.747 65.9941L155.591 66.2044L104.013 61.8404C102.233 61.6898 100.537 61.0199 99.1355 59.9137L97.4585 58.5905C94.3281 56.1203 93.167 51.902 94.5925 48.1779L98.7347 37.3559L99.0046 36.4137C99.1069 36.0565 98.7144 35.7617 98.3999 35.9594V35.9594C98.0279 36.1932 97.6021 35.7502 97.8505 35.3877L99.0893 33.5797L99.7188 32.6611C99.7845 32.5652 99.8668 32.482 99.962 32.4153L100.487 32.047C100.787 31.837 100.785 31.3922 100.483 31.1853V31.1853C100.244 31.0217 100.183 30.6954 100.347 30.4566L101.129 29.3144C101.277 29.0987 101.136 28.804 100.875 28.7847L100.846 28.7825C100.76 28.7761 100.675 28.8102 100.617 28.875L100.514 28.9893C100.315 29.2105 99.9614 28.9759 100.088 28.7068V28.7068C100.094 28.6942 100.101 28.6821 100.109 28.6707L101.392 26.7972C101.396 26.7915 101.401 26.786 101.405 26.781L102.578 25.5121C102.592 25.497 102.616 25.5158 102.604 25.5328V25.5328C102.595 25.5458 102.575 25.5402 102.574 25.5244L102.533 24.8438C102.523 24.6814 102.363 24.5713 102.208 24.6196L101.875 24.7233C101.394 24.8731 101 24.3239 101.296 23.916L102.26 22.585C102.368 22.4354 102.516 22.3154 102.684 22.2386V22.2386C103.316 21.9495 103.549 21.1564 103.159 20.5804L102.654 19.8338L104.555 18.739C104.933 18.5212 105.245 18.2052 105.458 17.8244V17.8244C105.571 17.6215 105.713 17.4361 105.88 17.2738L105.965 17.1907L102.654 19.8338L105.693 16.0525C105.904 15.7905 106.089 15.5086 106.245 15.2109V15.2109Z" fill="#E76BC8"/>
<path d="M169.912 54.9422C169.079 64.7823 178.037 73.9406 131.33 66.3265C92.4913 63.0404 92.4913 63.0404 93.9373 45.9505C94.7698 36.1103 116.321 25.1387 132.639 26.5194C148.957 27.9001 170.745 45.102 169.912 54.9422Z" fill="#E76BC8"/>
<path d="M132.398 38.6021L133.375 44.5909L140.211 45.9876L133.979 48.2922L134.956 54.281L130.127 49.7165L123.896 52.0211L127.143 46.8955L122.315 42.331L129.151 43.7277L132.398 38.6021Z" fill="white"/>
<rect x="171.812" y="100.48" width="1.75269" height="12.7594" transform="rotate(-22.3739 171.812 100.48)" fill="#E76BC8"/>
<path d="M218.261 46.1649C332.483 235.588 -58.0393 230.862 40.5269 46.1649C-14.3428 41.8955 -69.0549 216.467 -69.8455 247.143C-70.478 271.684 -40.8029 330.95 -25.8862 357.515C-31.1044 371.641 -43.0587 407.863 -49.1308 439.741C-56.7208 479.589 -40.7501 514.377 -25.8862 525.287C-11.0223 536.198 7.3203 522.757 26.4536 514.377C41.7602 507.672 24.5033 484.491 13.9616 473.738L95.3966 416.496L212.41 431.36C214.36 436.368 222.404 457.325 238.975 501.094C255.547 544.863 289.101 510.476 303.807 487.811C294.636 452.128 282.618 361.658 307.918 285.252C339.543 189.743 294.636 176.619 296.217 143.413C297.482 116.847 246.817 57.1649 218.261 46.1649Z" fill="#003D37"/>
<path d="M72.783 226.985C72.783 234.253 67.3898 238.953 59.454 238.953H43.3257V201.894H69.5214V209.47H52.751V215.377H59.0688C67.21 215.377 72.783 219.974 72.783 226.985ZM52.751 231.685H57.1427C60.9179 231.685 63.1779 230.067 63.1779 226.96C63.1779 223.852 60.9179 222.208 57.0913 222.208H52.751V231.685ZM94.8696 201.252C106.093 201.252 113.155 208.623 113.155 220.436C113.155 232.25 106.093 239.595 94.8696 239.595C83.6209 239.595 76.5583 232.25 76.5583 220.436C76.5583 208.623 83.6466 201.252 94.8696 201.252ZM94.8696 208.905C89.6048 208.905 86.1634 213.374 86.1634 220.436C86.1634 227.473 89.5791 231.942 94.8696 231.942C100.134 231.942 103.576 227.473 103.576 220.436C103.576 213.374 100.134 208.905 94.8696 208.905ZM118.266 201.894H134.317C142.279 201.894 147.672 207.056 147.672 215.017C147.672 222.928 141.996 228.09 133.752 228.09H127.691V238.953H118.266V201.894ZM127.691 209.111V221.001H131.775C135.781 221.001 138.144 218.921 138.144 215.043C138.144 211.191 135.781 209.111 131.826 209.111H127.691ZM177.181 238.953V216.25H176.924L161.797 238.953H152.783V201.894H162.182V224.623H162.439L177.566 201.894H186.58V238.953H177.181ZM209.668 239.878C198.574 239.878 191.665 232.533 191.665 220.411C191.665 208.314 198.625 200.969 209.668 200.969C218.709 200.969 225.617 206.825 226.388 215.12H217.245C216.449 211.268 213.495 208.802 209.668 208.802C204.532 208.802 201.27 213.194 201.27 220.385C201.27 227.653 204.506 232.045 209.694 232.045C213.572 232.045 216.423 229.708 217.27 225.881H226.439C225.566 234.279 218.914 239.878 209.668 239.878Z" fill="#E76BC8"/>
</g>
<defs>
<clipPath id="clip0_335_1712">
<rect width="258.875" height="263.161" fill="white" transform="translate(0 0.933594)"/>
</clipPath>
</defs>
</svg>
