<svg width="301" height="301" viewBox="0 0 301 301" fill="none" xmlns="http://www.w3.org/2000/svg">
<g clip-path="url(#clip0_222_616)">
<rect width="300.074" height="301" fill="#E76BC8"/>
<path d="M106.843 262.009C105.152 265.96 102.881 272.31 94.7417 277.154C86.6022 281.997 75.1685 284.924 75.4226 280.255C73.468 281.244 78.6118 270.716 86.7513 265.872C94.8908 261.029 101.709 260.801 106.843 262.009Z" fill="#F95500"/>
<path d="M73.0031 276.48C75.3463 277.329 77.8158 279.684 77.2758 281.173C76.9359 282.11 73.1277 283.502 70.9005 281.479C68.5572 280.63 65.822 276.894 66.1619 275.957C66.5018 275.019 70.6598 275.63 73.0031 276.48Z" fill="#F95500"/>
<path d="M78.5737 285.709C78.9732 283.249 78.12 279.945 76.5565 279.691C75.5723 279.531 72.5014 282.179 73.183 285.109C72.7834 287.57 74.7134 291.778 75.6975 291.938C76.6816 292.098 78.1742 288.169 78.5737 285.709Z" fill="#F95500"/>
<path d="M180.586 281.947C187.118 284.257 192.446 287.834 189.297 296.086C187.961 299.586 180.86 306.067 171.784 301.243C162.344 297.904 153.776 287.495 155.112 283.995C156.448 280.494 171.146 278.608 180.586 281.947Z" fill="#F95500"/>
<path d="M180.586 281.947C187.118 284.257 192.446 287.834 189.297 296.086C187.961 299.586 180.86 306.067 171.784 301.243C162.344 297.904 153.776 287.495 155.112 283.995C156.448 280.494 171.146 278.608 180.586 281.947Z" fill="#F95500"/>
<line y1="-0.60176" x2="13.5613" y2="-0.60176" transform="matrix(0.911316 0.411708 -0.4368 0.899558 186.072 295.742)" stroke="#F95500" stroke-width="1.20352"/>
<path d="M103.305 292.864C103.45 291.895 104.098 291.076 105.008 290.712L115.39 286.557C115.765 286.407 116.157 286.305 116.558 286.252L128.249 284.717C129.6 284.539 130.937 285.134 131.71 286.256L131.93 286.574C131.947 286.599 131.968 286.622 131.99 286.643L133.166 287.695C133.274 287.792 133.163 287.966 133.03 287.908L132.663 287.752C132.58 287.716 132.515 287.828 132.586 287.883C132.605 287.898 132.616 287.922 132.616 287.946L132.614 288.007C132.613 288.071 132.642 288.132 132.693 288.17L133.211 288.561C133.232 288.577 133.255 288.588 133.281 288.595L133.575 288.676C133.728 288.717 133.712 288.939 133.555 288.959C133.467 288.97 133.41 289.056 133.434 289.141L133.444 289.178C133.458 289.226 133.491 289.267 133.536 289.289L134.952 289.997C135.001 290.022 135.041 290.059 135.07 290.105C135.219 290.347 134.969 290.638 134.708 290.526L133.92 290.189C134.525 290.519 135.023 291.018 135.353 291.623L135.786 292.456C135.82 292.522 135.743 292.589 135.682 292.547C135.613 292.499 135.532 292.59 135.588 292.653L136.667 293.867C136.759 293.97 136.66 294.129 136.527 294.093C136.385 294.054 136.288 294.235 136.4 294.332L137.657 295.422C137.813 295.558 137.732 295.815 137.526 295.835C137.32 295.855 137.238 296.113 137.395 296.248L138.467 297.168C138.56 297.248 138.599 297.375 138.567 297.493C138.543 297.58 138.557 297.673 138.606 297.749L140.752 301.105L141.299 302.002C142.856 304.55 141.755 307.887 138.987 309.009L136.939 309.838L110.311 316.638C109.393 316.872 108.426 316.832 107.53 316.522L106.458 316.15C104.458 315.457 103.14 313.544 103.206 311.428L103.398 305.278L103.369 304.759C103.358 304.562 103.11 304.482 102.986 304.636C102.841 304.818 102.55 304.67 102.611 304.445L102.918 303.323L103.073 302.752C103.089 302.693 103.116 302.637 103.152 302.587L103.352 302.31C103.465 302.153 103.387 301.93 103.199 301.879C103.051 301.839 102.963 301.686 103.004 301.537L103.197 300.828C103.234 300.694 103.112 300.571 102.977 300.607L102.963 300.611C102.918 300.623 102.881 300.655 102.864 300.697L102.832 300.772C102.771 300.918 102.553 300.862 102.569 300.705C102.57 300.698 102.571 300.69 102.573 300.683L102.891 299.52C102.892 299.516 102.893 299.513 102.894 299.51L103.261 298.669C103.266 298.659 103.281 298.664 103.278 298.675C103.276 298.683 103.265 298.683 103.261 298.676L103.122 298.341C103.089 298.262 102.99 298.234 102.92 298.286L102.771 298.396C102.556 298.555 102.263 298.348 102.34 298.092L102.592 297.256C102.62 297.162 102.673 297.076 102.744 297.009C103.011 296.753 102.989 296.315 102.693 296.094L102.31 295.808L103.072 294.928C103.224 294.752 103.325 294.54 103.366 294.311C103.387 294.19 103.426 294.072 103.482 293.962L103.51 293.905L102.31 295.808L103.175 293.382C103.235 293.214 103.279 293.04 103.305 292.864Z" fill="#F95500"/>
<path d="M142.157 301.697C143.454 306.777 149.542 309.809 124.791 314.129C104.741 319.25 104.741 319.25 102.488 310.427C101.19 305.347 110.086 296.089 118.511 293.938C126.935 291.786 140.86 296.617 142.157 301.697Z" fill="#F95500"/>
<path d="M120.497 300.038L122.03 302.872L125.702 302.381L122.978 304.623L124.511 307.456L121.295 306.008L118.571 308.25L119.306 305.113L116.09 303.666L119.761 303.175L120.497 300.038Z" fill="white"/>
<path d="M228.37 224.004L197.156 204.423C185.718 176.117 166.527 156.149 149.272 156.149C130.879 156.149 114.955 179.413 104.874 204.423L70.3647 227.3C32.7537 156.73 92.4681 93.5283 111.853 76.8554C126.301 64.4287 139.296 46.0298 146.17 25.8672C153.537 45.2543 152.956 43.3156 185.718 76.8554C223.331 115.361 254.93 167.393 228.37 224.004Z" fill="#F95500"/>
<path d="M220.486 233.597C432.27 611.794 206.833 641.423 156.153 641.861C105.472 642.298 -111.454 610.171 79.9806 234.811C106.975 190.046 101.273 156.094 151.953 155.657C202.634 155.219 193.664 193.81 220.486 233.597Z" fill="white"/>
<ellipse cx="122.479" cy="157.448" rx="8.12376" ry="9.92904" transform="rotate(-20.5713 122.479 157.448)" fill="white"/>
<ellipse cx="8.12376" cy="9.92904" rx="8.12376" ry="9.92904" transform="matrix(-0.942165 -0.33515 -0.33515 0.942165 187.615 150.35)" fill="white"/>
<ellipse cx="137.85" cy="184.62" rx="3.91144" ry="5.11496" transform="rotate(-0.494838 137.85 184.62)" fill="#00544B"/>
<ellipse cx="165.532" cy="184.382" rx="3.91144" ry="5.11496" transform="rotate(-0.494838 165.532 184.382)" fill="#00544B"/>
<path d="M165.926 195.36C165.949 198.092 159.556 201.647 152.751 202.844C145.926 201.765 139.473 198.32 139.449 195.589C139.426 192.857 141.506 188.795 152.168 189.791C162.658 188.909 165.902 192.629 165.926 195.36Z" fill="#00544B"/>
<path d="M176.165 219.171L176.154 219.261L176.211 219.331C178.737 222.435 179.388 224.627 178.875 226.211C178.361 227.799 176.642 228.892 174.116 229.699C171.605 230.502 168.374 230.998 164.956 231.452C164.281 231.542 163.598 231.63 162.913 231.718C160.147 232.075 157.336 232.438 154.768 232.94C147.855 232.421 141.467 231.825 136.719 229.611C134.348 228.505 132.395 227 130.991 224.904C129.591 222.814 128.729 220.122 128.558 216.625C129.399 213.35 130.731 211.415 132.43 210.32C134.139 209.218 136.258 208.941 138.719 209.061C140.623 209.154 142.708 209.482 144.943 209.834C145.599 209.937 146.268 210.043 146.949 210.145C149.942 210.593 153.154 210.973 156.475 210.816C161.088 210.597 164.808 209.714 167.75 208.843C168.745 208.549 169.654 208.254 170.475 207.988C170.865 207.862 171.236 207.742 171.586 207.632C172.682 207.286 173.58 207.033 174.31 206.947C175.04 206.861 175.561 206.947 175.936 207.233C176.312 207.521 176.588 208.046 176.739 208.951C177.043 210.768 176.819 213.938 176.165 219.171Z" fill="#00544B" stroke="#E76BC8" stroke-width="0.423476"/>
<path d="M128.315 216.603L132.01 222.999L135.929 216.242L140.027 226.646L144.278 217.965L149.373 227.05L154.178 216.647L159.948 226.548L162.89 217.081L169.213 225.259L170.162 213.98L174.38 222.47L173.969 213.799L174.695 206.769L175.984 207.132L176.596 220.033L179.406 225.623" stroke="white" stroke-width="1.6939"/>
<path d="M118.285 165.261C127.785 166.036 129.594 159.768 131.081 158.475C141.291 153.693 163.418 146.688 167.916 156.149C172.414 165.61 179.225 164.55 182.263 163.322C187.497 161.206 206.355 192.525 198.936 186.393C167.916 160.752 136.121 164.291 102.775 186.393C105.49 179.607 111.645 164.719 118.285 165.261Z" fill="#F95500"/>
<path d="M223.168 234.085C162.68 313.96 91.1452 267.043 76.0232 234.085C45.5849 196.538 8.5542 428.732 -8.11874 521.208C-24.7917 613.685 81.4632 656.918 153.764 656.918C238.29 656.918 292.576 590.033 308.473 554.942C338.512 488.638 266.807 176.46 223.168 234.085Z" fill="#E76BC8"/>
</g>
<defs>
<clipPath id="clip0_222_616">
<rect width="300.074" height="301" fill="white"/>
</clipPath>
</defs>
</svg>
