<svg width="301" height="301" viewBox="0 0 301 301" fill="none" xmlns="http://www.w3.org/2000/svg">
<rect width="300.074" height="301" fill="#E76BC8"/>
<path d="M240.061 102.77C247.02 109.636 235.087 142.533 218.375 159.471C201.663 176.408 186.501 170.971 179.542 164.105C172.584 157.239 176.045 142.738 197.202 121.005C240.061 76.9785 233.404 92.6753 240.061 102.77Z" fill="white"/>
<path d="M240.014 108.956C232.787 111.746 223.966 106.335 220.313 96.871C204.681 86.3308 217.158 71.086 224.385 68.2962C231.612 65.5064 240.014 68.2962 248.766 86.3308C252.419 95.795 247.241 106.166 240.014 108.956Z" fill="#003D37"/>
<path d="M179.634 118.108C179.634 126.962 173.723 130.799 165.607 130.799C157.491 130.799 155.922 126.962 155.922 118.108C155.922 109.254 157.491 98.7373 165.607 98.7373C173.723 98.7373 179.634 109.254 179.634 118.108Z" fill="white"/>
<path d="M220.713 195.875C217.396 231.457 219.765 251.766 180.022 262.003C150.113 269.706 92.4654 217.25 98.8109 192.202C93.1332 163.813 147.571 128.412 172.954 120.73C222.716 150.454 224.386 156.466 220.713 195.875Z" fill="white"/>
<path d="M204.018 189.139L203.993 189.279L204.078 189.394C207.825 194.474 208.687 197.975 207.76 200.433C206.832 202.897 204.042 204.489 200.002 205.572C195.985 206.649 190.858 207.19 185.439 207.649C184.368 207.74 183.286 207.828 182.199 207.915C177.815 208.27 173.359 208.631 169.275 209.231C158.424 207.895 148.403 206.478 141.088 202.635C137.436 200.716 134.47 198.197 132.416 194.79C130.367 191.392 129.209 187.087 129.202 181.564C130.773 176.467 133.015 173.518 135.774 171.92C138.55 170.312 141.908 170.035 145.776 170.408C148.77 170.697 152.031 171.37 155.526 172.091C156.552 172.303 157.597 172.519 158.663 172.731C163.345 173.66 168.377 174.501 173.621 174.501C180.905 174.501 186.833 173.389 191.532 172.237C193.122 171.847 194.576 171.451 195.89 171.094C196.514 170.924 197.107 170.763 197.667 170.615C199.419 170.153 200.853 169.822 202.01 169.741C203.166 169.66 203.981 169.834 204.55 170.313C205.122 170.794 205.517 171.642 205.687 173.079C206.029 175.964 205.44 180.943 204.018 189.139Z" fill="#003D37" stroke="#003D37" stroke-width="0.667954"/>
<path d="M169.997 144.384L172.016 137.124C172.157 136.617 172.416 136.15 172.772 135.762L175.451 132.839C175.75 132.513 176.111 132.249 176.513 132.063L179.58 130.648C180.019 130.446 180.496 130.341 180.979 130.341L182.355 130.341C183.347 130.341 184.287 130.781 184.921 131.542L187.077 134.13C187.198 134.275 187.307 134.431 187.402 134.594L190.933 140.694" stroke="#003D37" stroke-width="3.33977"/>
<path d="M129.871 180.847L135.215 191.201L141.894 180.847L147.572 197.546L154.919 184.187L162.267 198.882L170.616 182.851L178.966 198.882L184.309 184.187L193.661 197.546L195.999 179.845L202.01 193.539V179.845L203.68 168.824L205.684 169.492V189.865L209.692 198.882" stroke="white" stroke-width="2.67181"/>
<path d="M217.262 152.16C217.695 151.967 217.657 151.203 217.718 150.815C217.945 149.383 218.896 148.295 219.78 147.197C220.975 145.714 222.525 143.637 224.471 143.099C226.902 142.426 229.979 143.175 232.348 143.543C234.807 143.925 237.257 144.485 239.73 144.778C242.72 145.132 243.971 144.034 246.051 141.926C247.423 140.536 248.774 139.304 249.533 137.469C250.231 135.778 250.944 134.108 251.483 132.383" stroke="#003D37" stroke-width="6.67954" stroke-linecap="round"/>
<path d="M205.262 158.604C202.056 158.481 198.715 157.602 195.595 158.777C194.013 159.373 192.963 160.451 191.731 161.542C190.056 163.026 188.114 164.346 186.028 165.172C182.588 166.533 179.209 165.933 175.608 165.69C173.936 165.578 172.317 165.405 171.016 164.258C170.556 163.853 170.31 163.614 169.707 163.493" stroke="#003D37" stroke-width="6.67954" stroke-linecap="round"/>
<ellipse cx="70.1192" cy="116.859" rx="11.3216" ry="9.13016" transform="rotate(-8.198 70.1192 116.859)" fill="#FF6000"/>
<ellipse cx="66.1485" cy="127.082" rx="11.3216" ry="9.13016" transform="rotate(-8.198 66.1485 127.082)" fill="#FF6000"/>
<ellipse cx="68.8369" cy="96.8609" rx="11.3216" ry="9.13016" transform="rotate(-8.198 68.8369 96.8609)" fill="#FF6000"/>
<ellipse cx="64.9951" cy="107.576" rx="11.3216" ry="9.13016" transform="rotate(-8.198 64.9951 107.576)" fill="#FF6000"/>
<ellipse cx="123.331" cy="105.507" rx="50.7855" ry="32.2092" transform="rotate(-8.198 123.331 105.507)" fill="#FF6000"/>
<ellipse cx="171.497" cy="113.172" rx="11.3216" ry="9.13016" transform="rotate(-8.198 171.497 113.172)" fill="#FF6000"/>
<ellipse cx="183.322" cy="118.132" rx="11.3216" ry="9.13016" transform="rotate(-8.198 183.322 118.132)" fill="#FF6000"/>
<ellipse cx="194.063" cy="83.7877" rx="11.3216" ry="9.13016" transform="rotate(-8.198 194.063 83.7877)" fill="#FF6000"/>
<ellipse cx="179.478" cy="71.0266" rx="16.8207" ry="12.1735" transform="rotate(-8.198 179.478 71.0266)" fill="#FF6000"/>
<ellipse cx="141.273" cy="62.1822" rx="11.3216" ry="9.13016" transform="rotate(-8.198 141.273 62.1822)" fill="#FF6000"/>
<ellipse cx="120.386" cy="62.3721" rx="13.9094" ry="10.9055" transform="rotate(-8.198 120.386 62.3721)" fill="#FF6000"/>
<ellipse cx="178.158" cy="100.428" rx="17.7911" ry="11.6663" transform="rotate(-8.198 178.158 100.428)" fill="#FF6000"/>
<ellipse cx="171.724" cy="87.5191" rx="11.3216" ry="9.13016" transform="rotate(-8.198 171.724 87.5191)" fill="#FF6000"/>
<ellipse cx="162.303" cy="76.5758" rx="11.3216" ry="9.13016" transform="rotate(-8.198 162.303 76.5758)" fill="#FF6000"/>
<ellipse cx="182.536" cy="85.4479" rx="11.3216" ry="9.13016" transform="rotate(-8.198 182.536 85.4479)" fill="#FF6000"/>
<ellipse cx="144.353" cy="69.9381" rx="11.3216" ry="9.13016" transform="rotate(-8.198 144.353 69.9381)" fill="#FF6000"/>
<ellipse cx="128.344" cy="72.2428" rx="11.3216" ry="9.13016" transform="rotate(-8.198 128.344 72.2428)" fill="#FF6000"/>
<ellipse cx="111.973" cy="72.0386" rx="10.0277" ry="9.13016" transform="rotate(-8.198 111.973 72.0386)" fill="#FF6000"/>
<ellipse cx="98.6817" cy="79.5924" rx="11.3216" ry="9.13016" transform="rotate(-8.198 98.6817 79.5924)" fill="#FF6000"/>
<ellipse cx="86.3599" cy="75.7288" rx="15.2033" ry="11.6663" transform="rotate(-8.198 86.3599 75.7288)" fill="#FF6000"/>
<ellipse cx="80.3399" cy="88.3844" rx="11.3216" ry="9.13016" transform="rotate(-8.198 80.3399 88.3844)" fill="#FF6000"/>
<ellipse cx="72.7598" cy="103.826" rx="11.3216" ry="9.13016" transform="rotate(-8.198 72.7598 103.826)" fill="#FF6000"/>
<ellipse cx="103.73" cy="153.115" rx="11.3216" ry="9.13016" transform="rotate(-8.198 103.73 153.115)" fill="#FF6000"/>
<ellipse cx="98.8496" cy="161.896" rx="11.3216" ry="9.13016" transform="rotate(-8.198 98.8496 161.896)" fill="#FF6000"/>
<ellipse cx="75.4297" cy="147.26" rx="11.3216" ry="9.13016" transform="rotate(-8.198 75.4297 147.26)" fill="#FF6000"/>
<ellipse cx="95.9219" cy="167.752" rx="11.3216" ry="9.13016" transform="rotate(-8.198 95.9219 167.752)" fill="#FF6000"/>
<ellipse cx="75.4297" cy="163.849" rx="11.3216" ry="9.13016" transform="rotate(-8.198 75.4297 163.849)" fill="#FF6000"/>
<ellipse cx="62.7432" cy="141.405" rx="11.3216" ry="9.13016" transform="rotate(-8.198 62.7432 141.405)" fill="#FF6000"/>
<ellipse cx="86.1641" cy="154.09" rx="11.3216" ry="9.13016" transform="rotate(-8.198 86.1641 154.09)" fill="#FF6000"/>
<ellipse cx="84.9688" cy="120.515" rx="11.3216" ry="9.13016" transform="rotate(-8.198 84.9688 120.515)" fill="#FF6000"/>
<ellipse cx="90.836" cy="134.019" rx="11.3216" ry="9.13016" transform="rotate(-8.198 90.836 134.019)" fill="#FF6000"/>
<ellipse cx="154.229" cy="124.886" rx="18.4381" ry="13.188" transform="rotate(-8.198 154.229 124.886)" fill="#FF6000"/>
<ellipse cx="148.415" cy="134.435" rx="11.3216" ry="9.13016" transform="rotate(-8.198 148.415 134.435)" fill="#FF6000"/>
<ellipse cx="161.021" cy="60.8738" rx="14.2329" ry="10.6518" transform="rotate(-8.198 161.021 60.8738)" fill="#FF6000"/>
<ellipse cx="136.879" cy="131.485" rx="11.3216" ry="9.13016" transform="rotate(-8.198 136.879 131.485)" fill="#FF6000"/>
<ellipse cx="125.797" cy="140.768" rx="11.3216" ry="9.13016" transform="rotate(-8.198 125.797 140.768)" fill="#FF6000"/>
<ellipse cx="105.502" cy="136.005" rx="11.3216" ry="9.13016" transform="rotate(-8.198 105.502 136.005)" fill="#FF6000"/>
<ellipse cx="95.2207" cy="143.632" rx="11.3216" ry="9.13016" transform="rotate(-8.198 95.2207 143.632)" fill="#FF6000"/>
<ellipse cx="77.083" cy="135.621" rx="11.3216" ry="9.13016" transform="rotate(-8.198 77.083 135.621)" fill="#FF6000"/>
<ellipse cx="127.744" cy="130.319" rx="11.3216" ry="9.13016" transform="rotate(-8.198 127.744 130.319)" fill="#FF6000"/>
<ellipse cx="144.935" cy="129.697" rx="11.3216" ry="9.13016" transform="rotate(-8.198 144.935 129.697)" fill="#FF6000"/>
<ellipse cx="164.685" cy="116.042" rx="11.3216" ry="9.13016" transform="rotate(-8.198 164.685 116.042)" fill="#FF6000"/>
<ellipse cx="158.931" cy="124.573" rx="11.3216" ry="9.13016" transform="rotate(-8.198 158.931 124.573)" fill="#FF6000"/>
<path d="M133.219 148.047C133.219 156.901 127.642 167.752 119.526 167.752C111.41 167.752 106.835 156.901 106.835 148.047C106.835 139.194 111.41 120.995 119.526 120.995C133.219 120.995 133.219 139.194 133.219 148.047Z" fill="white"/>
<ellipse cx="120.519" cy="141.103" rx="5.67761" ry="11.3552" fill="#003D37"/>
<path d="M138.659 157.484L140.678 150.224C140.819 149.717 141.078 149.25 141.434 148.862L144.113 145.94C144.412 145.613 144.773 145.349 145.175 145.164L148.242 143.749C148.681 143.546 149.158 143.441 149.642 143.441L151.017 143.441C152.009 143.441 152.949 143.881 153.583 144.643L155.739 147.23C155.861 147.376 155.969 147.531 156.064 147.695L159.595 153.794" stroke="#003D37" stroke-width="3.33977"/>
</svg>
