<svg width="301" height="305" viewBox="0 0 301 305" fill="none" xmlns="http://www.w3.org/2000/svg">
<g clip-path="url(#clip0_222_1413)">
<rect width="300.033" height="305" fill="#E76BC8"/>
<path d="M107.469 263.55C105.768 267.525 103.484 273.911 95.2965 278.784C87.1093 283.656 75.6086 286.6 75.8641 281.903C73.8981 282.898 79.072 272.308 87.2592 267.436C95.4464 262.564 102.304 262.335 107.469 263.55Z" fill="#FF6000"/>
<path d="M73.4317 278.104C75.7887 278.959 78.2727 281.327 77.7295 282.825C77.3876 283.768 73.5571 285.168 71.3168 283.133C68.9598 282.278 66.2085 278.521 66.5504 277.578C66.8923 276.635 71.0747 277.249 73.4317 278.104Z" fill="#FF6000"/>
<path d="M79.0328 287.388C79.4347 284.913 78.5765 281.59 77.0038 281.335C76.0139 281.174 72.925 283.837 73.6105 286.785C73.2086 289.26 75.1499 293.493 76.1398 293.654C77.1297 293.814 78.6309 289.863 79.0328 287.388Z" fill="#FF6000"/>
<path d="M181.645 283.602C188.215 285.925 193.574 289.523 190.407 297.823C189.063 301.344 181.92 307.863 172.791 303.011C163.296 299.653 154.678 289.182 156.021 285.662C157.365 282.141 172.15 280.243 181.645 283.602Z" fill="#FF6000"/>
<path d="M181.645 283.602C188.215 285.925 193.574 289.523 190.407 297.823C189.063 301.344 181.92 307.863 172.791 303.011C163.296 299.653 154.678 289.182 156.021 285.662C157.365 282.141 172.15 280.243 181.645 283.602Z" fill="#FF6000"/>
<line y1="-0.605288" x2="13.6408" y2="-0.605288" transform="matrix(0.911316 0.411708 -0.4368 0.899558 187.164 297.48)" stroke="#FF6000" stroke-width="1.21058"/>
<path d="M148.7 315.309C153.534 319.458 158.782 324.861 154.886 325.814C148.844 328.518 148.369 325.546 143.565 321.292C133.033 311.968 135.962 312.44 137.38 310.788C138.798 309.135 137.395 303.296 148.7 315.309Z" fill="#FF6000"/>
<path d="M103.912 294.584C104.058 293.61 104.71 292.786 105.625 292.42L116.068 288.241C116.445 288.09 116.84 287.987 117.242 287.934L129.003 286.39C130.362 286.211 131.706 286.809 132.484 287.938L132.705 288.258C132.722 288.283 132.743 288.307 132.766 288.327L133.948 289.385C134.057 289.483 133.945 289.658 133.811 289.6L133.443 289.443C133.359 289.407 133.293 289.519 133.365 289.575C133.384 289.59 133.395 289.614 133.395 289.638L133.393 289.7C133.392 289.764 133.421 289.825 133.473 289.863L133.993 290.257C134.014 290.273 134.038 290.284 134.063 290.291L134.36 290.372C134.513 290.414 134.498 290.637 134.34 290.657C134.251 290.668 134.193 290.755 134.218 290.84L134.228 290.877C134.242 290.926 134.275 290.966 134.32 290.989L135.745 291.702C135.794 291.726 135.835 291.763 135.863 291.81C136.014 292.053 135.762 292.346 135.499 292.233L134.707 291.894C135.315 292.226 135.816 292.728 136.148 293.337L136.583 294.174C136.618 294.24 136.541 294.309 136.479 294.266C136.409 294.218 136.328 294.309 136.385 294.373L137.47 295.594C137.562 295.698 137.463 295.858 137.329 295.821C137.186 295.782 137.089 295.964 137.201 296.061L138.466 297.158C138.623 297.295 138.541 297.553 138.334 297.573C138.126 297.593 138.044 297.852 138.202 297.988L139.281 298.914C139.374 298.995 139.413 299.122 139.381 299.241C139.357 299.329 139.371 299.422 139.42 299.498L141.578 302.875L142.129 303.776C143.695 306.34 142.587 309.696 139.803 310.824L137.744 311.659L110.96 318.498C110.036 318.734 109.063 318.693 108.162 318.381L107.084 318.008C105.072 317.31 103.747 315.386 103.813 313.257L104.005 307.072L103.976 306.549C103.965 306.351 103.716 306.271 103.592 306.426C103.445 306.609 103.153 306.461 103.214 306.234L103.522 305.105L103.679 304.531C103.695 304.471 103.722 304.415 103.759 304.365L103.959 304.087C104.073 303.928 103.994 303.704 103.806 303.653C103.657 303.612 103.569 303.458 103.609 303.309L103.804 302.596C103.841 302.461 103.718 302.337 103.583 302.373L103.568 302.377C103.523 302.389 103.486 302.421 103.468 302.464L103.436 302.54C103.375 302.686 103.155 302.63 103.172 302.472C103.173 302.464 103.174 302.457 103.176 302.45L103.495 301.28C103.496 301.276 103.498 301.273 103.499 301.269L103.868 300.424C103.873 300.414 103.888 300.419 103.885 300.43C103.883 300.438 103.872 300.438 103.868 300.431L103.728 300.094C103.695 300.014 103.595 299.987 103.525 300.038L103.375 300.149C103.159 300.309 102.864 300.101 102.941 299.843L103.195 299.003C103.223 298.908 103.277 298.822 103.348 298.754C103.616 298.497 103.594 298.056 103.297 297.834L102.911 297.546L103.678 296.66C103.831 296.484 103.933 296.27 103.973 296.041C103.995 295.919 104.034 295.8 104.09 295.689L104.118 295.632L102.911 297.546L103.782 295.106C103.842 294.937 103.886 294.762 103.912 294.584Z" fill="#FF6000"/>
<path d="M142.995 303.469C144.3 308.578 150.424 311.628 125.527 315.974C105.359 321.124 105.359 321.124 103.093 312.25C101.788 307.14 110.736 297.828 119.21 295.664C127.684 293.5 141.69 298.359 142.995 303.469Z" fill="#FF6000"/>
<path d="M121.208 301.8L122.75 304.65L126.443 304.156L123.704 306.411L125.246 309.261L122.01 307.805L119.271 310.06L120.011 306.905L116.775 305.449L120.468 304.955L121.208 301.8Z" fill="white"/>
<path d="M224.477 235.459C163.634 315.802 91.6797 268.611 76.4691 235.459C45.8524 197.692 8.60458 431.247 -8.16611 524.266C-24.9368 617.285 81.941 660.772 154.665 660.772C239.687 660.772 294.291 593.494 310.282 558.197C340.496 491.504 268.371 177.496 224.477 235.459Z" fill="white"/>
<ellipse cx="16.95" cy="6.78968" rx="16.95" ry="6.78968" transform="matrix(0.87972 0.475491 -0.478076 0.878319 97.0391 146.814)" fill="white"/>
<ellipse cx="11.9845" cy="6.78593" rx="11.9845" ry="6.78593" transform="matrix(-0.221772 0.975098 -0.975815 -0.2186 105.082 134.622)" fill="white"/>
<path d="M96.0008 131.414C93.4505 128.676 96.5083 121.697 102.831 115.825C109.153 109.953 114.634 105.576 118.896 110.151C121.446 112.889 118.388 119.868 112.066 125.74C105.744 131.611 98.5511 134.152 96.0008 131.414Z" fill="white"/>
<path d="M99.3172 135.41C96.7669 132.672 99.8247 125.693 106.147 119.821C112.469 113.949 117.951 109.572 122.212 114.147C124.763 116.885 121.705 123.864 115.383 129.736C109.06 135.608 101.868 138.148 99.3172 135.41Z" fill="white"/>
<path d="M119.84 167.944C117.57 165.507 119.912 159.305 124.802 154.764C129.693 150.222 133.55 147.202 137.55 151.496C142.389 156.692 138.428 159.904 133.537 164.446C128.647 168.988 122.11 170.381 119.84 167.944Z" fill="white"/>
<path d="M98.8957 134.836C97.0261 138.727 89.5597 139.045 82.2189 135.545C74.8782 132.046 69.5146 127.304 72.3126 122.164C76.0114 115.368 81.6486 117.955 88.9893 121.454C96.33 124.954 100.765 130.945 98.8957 134.836Z" fill="white"/>
<ellipse cx="20.4399" cy="8.33786" rx="20.4399" ry="8.33786" transform="matrix(-0.0584108 0.998293 -0.998462 -0.0554429 123.242 165.657)" fill="white"/>
<ellipse cx="21.4587" cy="8.90574" rx="21.4587" ry="8.90574" transform="matrix(0.0164098 0.999865 -0.999817 0.0191469 130.598 167.378)" fill="white"/>
<ellipse cx="21.5098" cy="8.88457" rx="21.5098" ry="8.88457" transform="matrix(-0.746044 0.665897 -0.666913 -0.745136 101.848 159.553)" fill="white"/>
<ellipse cx="21.5074" cy="8.88557" rx="21.5074" ry="8.88557" transform="matrix(-0.697148 0.716927 -0.718159 -0.695879 104.148 163.841)" fill="white"/>
<ellipse cx="1.93555" cy="5.41041" rx="1.93555" ry="5.41041" transform="matrix(0.6356 0.772018 -0.772726 0.63474 143.453 144.997)" fill="white"/>
<ellipse cx="0.871715" cy="2.42489" rx="0.871715" ry="2.42489" transform="matrix(0.87972 0.475491 -0.478076 0.878319 71.0273 115.996)" fill="white"/>
<path d="M72.0873 120.342C69.1362 120.483 70.0707 118.78 70.2955 118.353C70.5203 117.927 71.2693 116.564 72.9013 118.798C73.7935 119.264 74.3345 119.989 74.1097 120.415C73.885 120.842 72.9795 120.809 72.0873 120.342Z" fill="white"/>
<path d="M222.859 142.485C225.776 135.884 228.006 126.877 228.815 119.837C229.624 112.797 229.292 105.955 227.842 99.79C226.392 93.6255 223.859 88.2874 220.421 84.1497C216.983 80.0121 212.723 77.1749 207.939 75.8371C203.155 74.4992 197.963 74.6929 192.726 76.4047C187.49 78.1165 182.336 81.3049 177.626 85.7466C172.915 90.1883 168.762 95.7759 165.457 102.118C162.152 108.46 159.509 113.952 158.227 121.01L193.323 123.38L222.859 142.485Z" fill="white"/>
<path d="M191.284 104.08C194.605 114.043 186.11 116.914 182.152 115.599C178.194 114.283 176.186 107.609 178.898 99.4476C183.297 91.1976 185.546 89.4185 190.179 86.4517C190.418 93.7163 188.296 95.1134 191.284 104.08Z" fill="#FF6000"/>
<path d="M207.841 108.309C199.217 114.303 204.306 121.687 208.264 123.002C212.221 124.317 217.825 120.172 220.537 112.01C221.95 102.768 221.212 99.9967 219.276 94.8471C214.737 100.524 215.601 102.914 207.841 108.309Z" fill="#FF6000"/>
<ellipse cx="16.95" cy="6.78968" rx="16.95" ry="6.78968" transform="matrix(0.892084 -0.451869 0.449244 0.893409 -31.8887 272.506)" fill="white"/>
<path d="M-1.53184 265.813C-4.82804 266.289 -8.5886 260.831 -9.53341 254.224C-10.4782 247.617 -10.7615 242.726 -4.95333 241.887C2.07419 240.871 2.45605 245.958 3.40087 252.565C4.34568 259.172 1.76435 265.337 -1.53184 265.813Z" fill="white"/>
<ellipse cx="20.4399" cy="8.33786" rx="20.4399" ry="8.33786" transform="matrix(0.787004 0.616948 -0.614605 0.788835 -1.47461 261.715)" fill="white"/>
<ellipse cx="21.4587" cy="8.90574" rx="21.4587" ry="8.90574" transform="matrix(0.830939 0.556364 -0.554087 0.832458 4.13086 256.651)" fill="white"/>
<ellipse cx="11.9845" cy="6.78593" rx="11.9845" ry="6.78593" transform="matrix(-0.221772 0.975098 -0.975815 -0.2186 290.453 300.671)" fill="white"/>
<path d="M281.374 297.462C278.824 294.724 281.881 287.744 288.204 281.873C294.526 276.001 300.007 271.624 304.269 276.199C306.819 278.937 303.761 285.916 297.439 291.788C291.117 297.659 283.924 300.2 281.374 297.462Z" fill="white"/>
<path d="M284.688 301.459C282.138 298.721 285.196 291.741 291.518 285.87C297.84 279.998 303.322 275.621 307.583 280.196C310.134 282.934 307.076 289.913 300.754 295.785C294.431 301.656 287.239 304.197 284.688 301.459Z" fill="white"/>
<path d="M284.267 300.885C282.397 304.776 274.931 305.093 267.59 301.594C260.249 298.095 254.886 293.353 257.684 288.212C261.382 281.417 267.02 284.004 274.36 287.503C281.701 291.003 286.136 296.994 284.267 300.885Z" fill="white"/>
<ellipse cx="0.871715" cy="2.42489" rx="0.871715" ry="2.42489" transform="matrix(0.87972 0.475491 -0.478076 0.878319 256.402 282.045)" fill="white"/>
<path d="M257.458 286.393C254.507 286.534 255.442 284.831 255.667 284.404C255.891 283.978 256.64 282.615 258.272 284.848C259.165 285.315 259.706 286.039 259.481 286.466C259.256 286.892 258.351 286.86 257.458 286.393Z" fill="white"/>
<path d="M215.217 296.845C215.869 289.958 215.182 281.088 213.804 274.438C212.427 267.788 210.081 261.664 206.932 256.493C203.782 251.323 199.906 247.231 195.573 244.506C191.24 241.781 186.556 240.487 181.849 240.716C177.142 240.945 172.526 242.691 168.325 245.832C164.123 248.972 160.437 253.431 157.525 258.897C154.613 264.362 152.545 270.701 151.467 277.471C150.389 284.24 149.652 290.036 150.609 296.845L182.913 288.392L215.217 296.845Z" fill="white"/>
<path d="M175.526 271.347C181.564 279.334 174.697 284.466 170.695 284.466C166.694 284.466 162.846 279.051 162.846 270.881C164.355 262.125 165.865 259.848 169.186 255.785C171.601 262.263 170.092 264.158 175.526 271.347Z" fill="#FF6000"/>
<path d="M191.195 270.14C185.157 278.127 192.024 283.259 196.025 283.259C200.027 283.259 203.875 277.844 203.875 269.674C202.365 260.918 200.856 258.641 197.535 254.578C195.12 261.056 196.629 262.951 191.195 270.14Z" fill="#FF6000"/>
<path d="M81.3681 319.953C78.7485 322.034 75.9324 323.286 73.5292 323.663C71.0954 324.044 69.2917 323.511 68.3588 322.336C67.4258 321.162 67.3155 319.284 68.238 317C69.1489 314.745 71.0062 312.285 73.6259 310.205C76.2456 308.124 79.0616 306.872 81.4648 306.496C83.8987 306.114 85.7023 306.647 86.6353 307.822C87.5682 308.996 87.6785 310.874 86.756 313.158C85.8452 315.414 83.9878 317.873 81.3681 319.953Z" fill="white" stroke="white" stroke-width="1.81145"/>
<path d="M353.955 282.958C358.786 420.024 305.046 506.974 149.563 500.03C-21.1472 492.406 -66.3017 420.024 -54.5273 282.958C-54.5273 163.072 41.4797 56.526 149.563 65.8853C250.274 65.8853 353.955 163.072 353.955 282.958Z" fill="white"/>
<path d="M29.4033 325.225C45.1026 423.346 76.5011 445.385 33.6301 469.236C10.4532 469.236 -7.12772 469.236 -56.9426 325.225C-65.0942 222.878 -19.1338 153.741 4.04302 153.741C27.2198 153.741 60.4998 187.857 29.4033 325.225Z" fill="white"/>
<path d="M274.25 303.79C299.478 399.861 217.698 423.95 260.569 447.801C283.746 447.801 328.197 461.689 351.142 303.79C359.294 201.443 297.427 156.761 274.25 156.761C251.074 156.761 252.211 219.86 274.25 303.79Z" fill="white"/>
<path d="M181.264 145.287V145.567L181.422 145.798C187.404 154.547 190.206 162.055 190.653 168.386C191.099 174.691 189.214 179.885 185.702 184.066C178.63 192.488 164.844 196.914 149.847 197.517C135.5 197.514 121.637 192.871 114.447 184.184C110.872 179.865 108.924 174.527 109.374 168.174C109.825 161.799 112.697 154.336 118.897 145.82L119.07 145.582V145.287C119.07 132.257 122.501 118.671 128.12 108.368C133.766 98.0131 141.455 91.2456 149.865 91.2456C158.281 91.2456 166.121 98.0211 171.917 108.377C177.685 118.68 181.264 132.264 181.264 145.287Z" fill="white" stroke="#FF6000" stroke-width="1.81145"/>
<path d="M182.166 145.59C182.818 138.702 182.131 129.832 180.753 123.182C179.376 116.532 177.03 110.408 173.881 105.237C170.732 100.067 166.855 95.9755 162.522 93.2502C158.189 90.5249 153.505 89.2315 148.799 89.4604C144.092 89.6894 139.476 91.4353 135.274 94.5757C131.072 97.7162 127.386 102.175 124.474 107.641C121.562 113.106 119.494 119.445 118.416 126.215C117.338 132.984 116.601 138.781 117.558 145.59L149.862 137.136L182.166 145.59Z" fill="#FF6000"/>
<path d="M129.334 102.23C129.334 104.723 128.439 107.53 126.891 109.699C125.344 111.868 123.237 113.284 120.838 113.284C118.458 113.284 116.531 111.889 115.155 109.737C113.775 107.579 113.031 104.761 113.031 102.23C113.031 99.6741 113.788 95.6909 115.224 92.3641C115.941 90.7032 116.803 89.2615 117.779 88.2487C118.75 87.24 119.771 86.7163 120.838 86.7163C122.997 86.7163 124.546 87.3444 125.688 88.3116C126.846 89.2922 127.653 90.6793 128.207 92.2985C129.326 95.5651 129.334 99.516 129.334 102.23Z" fill="white" stroke="white" stroke-width="1.81145"/>
<path d="M186.928 103.437C186.928 105.93 186.032 108.737 184.485 110.906C182.938 113.075 180.831 114.491 178.432 114.491C176.052 114.491 174.124 113.096 172.749 110.944C171.369 108.786 170.624 105.968 170.624 103.437C170.624 100.881 171.382 96.898 172.817 93.5711C173.534 91.9102 174.397 90.4685 175.372 89.4557C176.344 88.447 177.364 87.9233 178.432 87.9233C180.59 87.9233 182.14 88.5514 183.282 89.5186C184.44 90.4992 185.247 91.8863 185.801 93.5055C186.919 96.7721 186.928 100.723 186.928 103.437Z" fill="white" stroke="white" stroke-width="1.81145"/>
<path d="M124.504 102.116C124.504 104.407 123.972 106.467 123.129 107.943C122.28 109.428 121.154 110.267 119.975 110.267C118.796 110.267 117.67 109.428 116.821 107.943C115.978 106.467 115.446 104.407 115.446 102.116C115.446 99.824 115.978 97.7642 116.821 96.2879C117.67 94.8029 118.796 93.964 119.975 93.964C121.154 93.964 122.28 94.8029 123.129 96.2879C123.972 97.7642 124.504 99.824 124.504 102.116Z" fill="white" stroke="white" stroke-width="0.603818"/>
<ellipse cx="179.752" cy="103.323" rx="4.83054" ry="8.45345" fill="white"/>
<path d="M138.694 125.826C144.732 133.814 137.865 138.946 133.863 138.946C129.862 138.946 126.014 133.53 126.014 125.36C127.523 116.605 129.033 114.327 132.354 110.265C134.769 116.742 133.259 118.638 138.694 125.826Z" fill="white"/>
<path d="M161.005 126.128C154.967 134.115 161.834 139.248 165.836 139.248C169.838 139.248 173.686 133.832 173.686 125.662C172.176 116.906 170.666 114.629 167.345 110.566C164.93 117.044 166.44 118.939 161.005 126.128Z" fill="white"/>
<circle cx="133.259" cy="131.097" r="3.01909" fill="#00544B"/>
<circle cx="165.865" cy="131.097" r="3.01909" fill="#00544B"/>
<path d="M37.5911 362.706C43.2879 404.336 57.3108 445.95 35.5531 456.104C13.7954 466.258 -15.2659 440.331 -32.7536 402.86C-48.7549 364.215 -74.9784 326.884 -27.7754 320.408C73.2163 306.551 29.7414 305.343 37.5911 362.706Z" fill="#FF6000"/>
<path d="M263.739 346.124C254.144 386.841 249.893 430.217 272.79 439.178C295.687 448.138 322.336 427.96 338.314 382.4C351.02 298.898 366.636 287.304 327.09 300.422C247.191 326.927 275.932 294.385 263.739 346.124Z" fill="#FF6000"/>
<path d="M99.0569 71.319L111.737 67.998L98.1512 93.9622L87.8863 119.021L78.5272 143.324L70.9794 168.836L69.168 184.233L75.2062 196.913L83.0558 210.197L98.1512 224.689L118.077 240.086L150.985 245.52L182.988 242.803L205.027 234.35L215.896 221.67L223.745 205.97L229.482 186.346L226.462 155.552L215.896 126.266L202.008 100L188.724 71.319L202.008 74.9419L213.782 96.3775L226.462 119.926L237.331 144.381L241.558 155.552L245.483 168.836L256.653 202.951L259.22 220.764L263.295 237.369L273.862 306.808L243.067 324.319L214.99 331.263L182.988 335.489H150.985H134.984L118.077 333.376L102.68 331.564L87.8863 328.243L71.8852 325.526L57.3935 320.092L43.8076 314.959L32.0332 305.902L40.4866 234.35L43.6567 217.292L46.8267 200.234L55.884 165.816L69.168 131.097L81.8481 103.019L89.3959 88.075L99.0569 71.319Z" fill="#FF6000"/>
<path d="M158.015 139.738C158.015 142.354 153.474 145.707 148.656 146.796C143.838 145.707 139.297 142.354 139.297 139.738C139.297 137.122 140.792 133.248 148.324 134.29C155.745 133.532 158.015 137.122 158.015 139.738Z" fill="#00544B"/>
<path d="M170.577 304.316H167.558L161.459 302.202C160.131 303.168 158.621 303.833 157.051 304.255C155.481 304.738 153.73 304.92 151.919 304.92C146.364 304.92 141.895 302.867 138.454 298.7C134.951 294.594 133.261 289.281 133.261 282.88C133.261 276.54 135.253 271.287 139.238 267.121C143.224 262.954 148.416 260.841 154.757 260.841C157.051 260.841 159.044 261.082 160.674 261.565C162.304 262.048 163.572 262.713 164.538 263.679L166.954 261.445H169.067V275.332H166.048C166.048 272.313 165.203 269.777 163.572 267.664C161.942 265.551 159.889 264.464 157.353 264.464C153.972 264.464 151.496 265.973 149.986 268.872C148.477 271.77 147.752 276.48 147.752 282.88C147.752 289.824 148.235 294.655 149.201 297.311C150.168 299.968 151.858 301.297 154.334 301.297C154.998 301.297 155.602 301.236 156.206 300.995C156.81 300.814 157.353 300.512 157.896 300.029V286.503H154.274V283.484H172.992V286.503H170.577V304.316Z" fill="white"/>
<path d="M5.70584 233.834C-2.6501 235.859 5.32614 234.213 -2.6501 235.859C-6.0064 235.859 -6.57491 235.48 -6.82812 233.834C-6.57491 232.314 -5.75331 231.935 -2.39701 231.935C5.70584 233.834 -3.02992 231.94 5.70584 233.834Z" fill="#FF6000"/>
<path d="M-8.3616 222.985C-1.56128 217.724 -7.82783 222.926 -1.56128 217.724C0.534689 215.103 0.593061 214.421 -0.53431 213.196C-1.87905 212.445 -2.68878 212.849 -4.78475 215.471C-8.3616 222.985 -4.38545 214.98 -8.3616 222.985Z" fill="#FF6000"/>
<path d="M-2.18427 228.532C3.89502 222.452 -1.66231 228.406 3.89502 222.452C5.64214 219.586 5.61377 218.903 4.34027 217.83C2.91124 217.256 2.15926 217.76 0.412138 220.625C-2.18427 228.532 0.746037 220.088 -2.18427 228.532Z" fill="#FF6000"/>
<path d="M4.31809 235.06C11.1184 229.799 4.85186 235.001 11.1184 229.799C13.2144 227.178 13.2727 226.497 12.1454 225.271C10.8006 224.52 9.9909 224.924 7.89494 227.546C4.31809 235.06 8.29424 227.055 4.31809 235.06Z" fill="#FF6000"/>
<path d="M8.26982 237.37L1.62783 232.539L-1.99508 228.312L-6.52371 224.388L-9.84471 219.859L-12.8638 215.33L-17.6943 208.99" stroke="#FF6000" stroke-width="1.20764"/>
<path d="M280.741 189.65C282.978 193.337 286.834 198.897 286.036 208.367C285.237 217.838 280.951 228.877 277.289 225.944C276.955 228.117 271.366 217.773 272.164 208.302C272.963 198.832 276.757 193.135 280.741 189.65Z" fill="#FF6000"/>
<path d="M283.323 226.915C282.27 224.646 279.702 222.382 278.261 223.051C277.353 223.472 276.292 227.4 278.508 229.45C279.56 231.719 283.532 234.129 284.44 233.708C285.347 233.287 284.376 229.183 283.323 226.915Z" fill="#FF6000"/>
<path d="M271.66 226.765C272.846 224.563 275.545 222.455 276.944 223.209C277.825 223.683 278.65 227.667 276.317 229.582C275.131 231.784 271.023 233.954 270.142 233.48C269.261 233.005 270.475 228.967 271.66 226.765Z" fill="#FF6000"/>
<path d="M296.904 212.88C300.381 215.432 306.07 219.094 308.953 228.15C311.837 237.207 312.098 249.046 307.592 247.737C308.114 249.872 298.995 242.451 296.111 233.395C293.228 224.339 294.555 217.624 296.904 212.88Z" fill="#FF6000"/>
<path d="M289.194 251.842C291.431 255.529 295.288 261.089 294.489 270.56C293.69 280.03 289.404 291.07 285.742 288.137C285.408 290.309 279.819 279.965 280.618 270.495C281.416 261.024 285.21 255.327 289.194 251.842Z" fill="#FF6000"/>
<path d="M291.776 289.109C290.724 286.84 288.155 284.576 286.714 285.245C285.806 285.666 284.745 289.594 286.961 291.645C288.013 293.914 291.985 296.324 292.893 295.903C293.8 295.481 292.829 291.378 291.776 289.109Z" fill="#FF6000"/>
<path d="M280.114 288.959C281.299 286.757 283.998 284.649 285.397 285.403C286.278 285.877 287.104 289.861 284.77 291.777C283.584 293.979 279.476 296.148 278.595 295.674C277.714 295.2 278.928 291.161 280.114 288.959Z" fill="#FF6000"/>
<path d="M278.916 153.009C282.787 154.91 289.032 157.516 293.461 165.925C297.891 174.334 300.227 185.944 295.562 185.446C296.451 187.456 286.17 181.753 281.74 173.344C277.31 164.935 277.438 158.091 278.916 153.009Z" fill="#FF6000"/>
<path d="M301.167 183.012C299.058 181.668 295.674 181.144 294.82 182.484C294.282 183.328 295.504 187.208 298.476 187.743C300.585 189.087 305.23 188.977 305.767 188.133C306.305 187.29 303.276 184.356 301.167 183.012Z" fill="#FF6000"/>
<path d="M291.261 189.169C291.074 186.675 292.212 183.446 293.797 183.327C294.794 183.252 297.636 186.163 296.702 189.034C296.89 191.529 294.597 195.57 293.6 195.645C292.602 195.72 291.449 191.663 291.261 189.169Z" fill="#FF6000"/>
<path d="M277.819 129.025C278.365 133.303 279.629 139.95 275.051 148.279C270.473 156.608 262.071 164.953 259.917 160.785C258.729 162.634 257.825 150.912 262.403 142.583C266.981 134.254 272.763 130.59 277.819 129.025Z" fill="#FF6000"/>
<path d="M265.034 164.124C264.994 161.623 263.567 158.51 261.978 158.536C260.977 158.552 258.412 161.709 259.603 164.484C259.643 166.984 262.293 170.801 263.293 170.785C264.294 170.769 265.074 166.624 265.034 164.124Z" fill="#FF6000"/>
<path d="M254.437 159.246C256.416 157.716 259.737 156.887 260.71 158.144C261.322 158.935 260.458 162.911 257.547 163.713C255.569 165.243 250.933 165.556 250.321 164.765C249.709 163.974 252.459 160.776 254.437 159.246Z" fill="#FF6000"/>
<path d="M43.7369 177.882C40.0079 187.676 33.9295 195.773 18.9197 191.656C12.553 189.909 0.469049 179.841 8.54603 166.13C13.935 151.976 32.0682 138.653 38.4348 140.399C44.8015 142.146 49.1258 163.728 43.7369 177.882Z" fill="#FF6000"/>
<line y1="-0.603818" x2="20.7721" y2="-0.603818" transform="matrix(-0.444367 0.895845 -0.941663 -0.336558 18.9297 189.146)" stroke="#FF6000" stroke-width="1.20764"/>
<path d="M8.3911 283.98C10.5498 289.997 10.8126 296.116 1.48102 299.918C-2.47709 301.531 -12.7844 301.425 -14.3551 291.91C-17.4748 283.214 -13.7746 270.04 -9.8165 268.427C-5.85839 266.815 5.27138 275.284 8.3911 283.98Z" fill="#FF6000"/>
<line y1="-0.603818" x2="12.6167" y2="-0.603818" transform="matrix(0.238675 0.971099 -0.950555 0.310556 0.447266 298.736)" stroke="#FF6000" stroke-width="1.20764"/>
<path d="M33.7015 257.415C33.0983 263.78 30.7355 269.43 20.6728 268.906C16.4045 268.684 7.11933 264.207 9.74147 254.927C10.6133 245.729 19.5615 235.377 23.8298 235.599C28.098 235.822 34.5733 248.218 33.7015 257.415Z" fill="#FF6000"/>
<line y1="-0.603818" x2="12.6167" y2="-0.603818" transform="matrix(-0.196667 0.98047 -0.992423 -0.12287 20.2383 267.398)" stroke="#FF6000" stroke-width="1.20764"/>
<path d="M251.895 116.131C253.469 121.065 253.769 125.889 247.566 127.94C244.934 128.81 237.995 127.699 236.746 120.081C234.471 112.952 236.696 102.991 239.327 102.121C241.959 101.251 249.62 109.002 251.895 116.131Z" fill="#FF6000"/>
<line y1="-0.603818" x2="10.1648" y2="-0.603818" transform="matrix(0.223684 0.974662 -0.973528 0.228567 246.846 126.908)" stroke="#FF6000" stroke-width="1.20764"/>
<ellipse cx="-8.03831" cy="182.666" rx="4.55009" ry="11.0529" transform="rotate(58.4037 -8.03831 182.666)" fill="#FF6000"/>
<ellipse cx="-8.03831" cy="182.666" rx="4.55009" ry="11.0529" transform="rotate(58.4037 -8.03831 182.666)" fill="#FF6000"/>
<ellipse cx="8.41486" cy="16.5138" rx="8.41486" ry="16.5138" transform="matrix(0.986088 -0.166226 0.260097 0.965583 39.8145 99.4785)" fill="#FF6000"/>
<ellipse cx="8.41486" cy="16.5138" rx="8.41486" ry="16.5138" transform="matrix(0.986088 -0.166226 0.260097 0.965583 39.8145 99.4785)" fill="#FF6000"/>
<ellipse cx="8.66132" cy="16.9106" rx="8.66132" ry="16.9106" transform="matrix(0.429089 -0.903262 0.95854 0.284958 25.1758 125.687)" fill="#FF6000"/>
<ellipse cx="8.66132" cy="16.9106" rx="8.66132" ry="16.9106" transform="matrix(0.429089 -0.903262 0.95854 0.284958 25.1758 125.687)" fill="#FF6000"/>
<path d="M171.831 168.428C171.831 172.263 161.423 179.599 148.584 179.599C135.745 179.599 125.035 172.263 125.035 168.428C125.035 164.593 135.745 168.428 148.584 168.428C161.423 168.428 171.831 164.593 171.831 168.428Z" fill="#00544B"/>
<line x1="166.127" y1="164.642" x2="169.755" y2="176.298" stroke="white" stroke-width="1.81145"/>
<line x1="160.71" y1="166.524" x2="163.406" y2="178.43" stroke="white" stroke-width="1.81145"/>
<line x1="155.514" y1="167.258" x2="156.851" y2="179.393" stroke="white" stroke-width="1.81145"/>
<line x1="150.05" y1="167.911" x2="149.82" y2="180.117" stroke="white" stroke-width="1.81145"/>
<line x1="144.568" y1="168.031" x2="143.217" y2="180.164" stroke="white" stroke-width="1.81145"/>
<line x1="138.983" y1="167.477" x2="137.172" y2="178.346" stroke="white" stroke-width="1.81145"/>
<line x1="132.928" y1="166.353" x2="130.513" y2="175.41" stroke="white" stroke-width="1.81145"/>
<path d="M123.214 120.714C108.344 161.384 96.3168 154.397 92.5091 152.566C86.6071 149.728 90.6631 141.809 109.733 116.575C116.205 103.117 124.868 97.5997 127.602 98.9144C130.336 100.229 129.686 107.255 123.214 120.714Z" fill="#FF6000"/>
<path d="M199.146 127.984C206.1 139.933 213.01 154.746 204.343 153.924C190.032 155.164 191.175 148.732 184.356 136.591C169.409 109.974 175.075 113.027 179.159 110.651C183.243 108.274 184.527 95.305 199.146 127.984Z" fill="#FF6000"/>
<path d="M94.2949 151.868L95.7581 153.082L88.8779 161.373L87.4148 160.159L94.2949 151.868Z" fill="#FF6000"/>
<path d="M122.098 53.5979C123.092 51.7043 125.015 50.4798 127.151 50.381L151.535 49.2528C152.416 49.2121 153.298 49.2818 154.162 49.4602L179.371 54.6711C182.284 55.2733 184.614 57.4565 185.405 60.3243L185.629 61.1381C185.647 61.2027 185.672 61.265 185.705 61.3236L187.375 64.3343C187.529 64.6119 187.175 64.8914 186.94 64.6776L186.298 64.0924C186.152 63.9596 185.936 64.1428 186.043 64.3083C186.072 64.3529 186.078 64.4085 186.06 64.4584L186.013 64.5836C185.965 64.7143 185.982 64.8603 186.059 64.9762L186.847 66.1534C186.879 66.2007 186.919 66.2416 186.966 66.2737L187.516 66.6505C187.801 66.8459 187.61 67.2917 187.272 67.2196C187.083 67.1793 186.902 67.3165 186.891 67.5092L186.886 67.593C186.879 67.7021 186.919 67.8089 186.995 67.8872L189.409 70.363C189.491 70.4475 189.548 70.5534 189.574 70.6686C189.709 71.2747 188.984 71.6951 188.525 71.277L187.143 70.0178C188.153 71.1325 188.823 72.5184 189.071 74.0022L189.366 76.0289C189.389 76.1894 189.182 76.274 189.086 76.143C188.978 75.9944 188.747 76.1241 188.817 76.2941L190.172 79.5707C190.288 79.8491 189.97 80.1067 189.721 79.9364C189.455 79.7542 189.127 80.058 189.287 80.3373L191.099 83.4874C191.324 83.8786 190.972 84.3491 190.533 84.2433C190.093 84.1371 189.741 84.6101 189.968 85.0012L191.518 87.6678C191.653 87.8996 191.642 88.1883 191.491 88.4095C191.38 88.5714 191.343 88.7726 191.388 88.9634L193.408 97.4228L193.895 99.6634C195.279 106.034 190.618 112.125 184.107 112.455L179.29 112.699L119.511 107.641C117.449 107.466 115.483 106.69 113.858 105.408L111.915 103.874C108.287 101.011 106.941 96.1223 108.593 91.8062L113.394 79.2637L113.707 78.1716C113.825 77.7577 113.37 77.416 113.006 77.6451C112.575 77.9161 112.081 77.4027 112.369 76.9826L113.805 74.8872L114.534 73.8224C114.611 73.7113 114.706 73.6149 114.816 73.5376L115.425 73.1108C115.773 72.8673 115.77 72.3519 115.42 72.1121C115.143 71.9224 115.073 71.5443 115.262 71.2675L116.169 69.9437C116.341 69.6938 116.176 69.3522 115.874 69.3297L115.841 69.3273C115.741 69.3198 115.642 69.3594 115.575 69.4344L115.456 69.5669C115.225 69.8233 114.816 69.5514 114.962 69.2395C114.969 69.2249 114.977 69.2109 114.986 69.1976L116.474 67.0262C116.479 67.0196 116.484 67.0134 116.489 67.0075L117.849 65.5369C117.865 65.5194 117.892 65.5412 117.879 65.5608C117.868 65.576 117.845 65.5694 117.843 65.5511L117.796 64.7623C117.784 64.5741 117.6 64.4465 117.42 64.5025L117.034 64.6227C116.476 64.7962 116.019 64.1598 116.362 63.687L117.48 62.1445C117.605 61.9711 117.776 61.832 117.971 61.743C118.704 61.4079 118.973 60.4887 118.521 59.8211L117.936 58.9558L120.139 57.6869C120.577 57.4345 120.939 57.0683 121.186 56.627C121.317 56.3918 121.482 56.1769 121.675 55.9888L121.774 55.8925L117.936 58.9558L121.459 54.5734C121.703 54.2697 121.917 53.943 122.098 53.5979Z" fill="#FF6000"/>
<path d="M195.886 99.6463C194.921 111.051 205.302 121.665 151.17 112.841C106.156 109.032 106.156 109.032 107.832 89.2251C108.797 77.8205 133.774 65.1046 152.687 66.7048C171.6 68.3049 196.851 88.2417 195.886 99.6463Z" fill="#FF6000"/>
<path d="M152.408 80.7065L153.54 87.6475L161.462 89.2662L154.24 91.9372L155.372 98.8781L149.776 93.588L142.553 96.2589L146.317 90.3184L140.722 85.0283L148.644 86.647L152.408 80.7065Z" fill="white"/>
<rect x="198.088" y="152.426" width="2.03134" height="14.7879" transform="rotate(-22.3739 198.088 152.426)" fill="#FF6000"/>
<path d="M251.923 89.4721C384.305 309.011 -68.3053 303.533 45.9315 89.4721C-17.6616 84.5239 -81.0721 286.849 -81.9885 322.403C-82.7215 350.846 -48.3285 419.534 -31.0403 450.323C-37.0881 466.694 -50.943 508.675 -57.9804 545.621C-66.7771 591.804 -48.2673 632.122 -31.0403 644.768C-13.8133 657.413 7.44556 641.836 29.6207 632.122C47.3609 624.352 27.3605 597.485 15.1427 585.023L109.525 518.681L245.141 535.908C247.402 541.711 256.724 566 275.93 616.728C295.136 667.456 334.025 627.602 351.069 601.334C340.44 559.977 326.512 455.124 355.834 366.57C392.487 255.877 340.44 240.666 342.272 202.181C343.738 171.392 285.018 102.221 251.923 89.4721Z" fill="#E76BC8"/>
</g>
<defs>
<clipPath id="clip0_222_1413">
<rect width="300.033" height="305" fill="white"/>
</clipPath>
</defs>
</svg>
