<svg width="2560" height="426" viewBox="0 0 2560 426" fill="none" xmlns="http://www.w3.org/2000/svg">
<g clip-path="url(#clip0_319_292)">
<rect width="1280" height="426" fill="white"/>
<g clip-path="url(#clip1_319_292)">
<rect width="1281.94" height="427" fill="#E76BC8"/>
<g clip-path="url(#clip2_319_292)">
<rect width="1281.94" height="426.645" fill="#00544B"/>
<rect x="-2.00195" width="1284.18" height="426.388" fill="#00544B"/>
<path d="M795.923 86.912C796.416 86.5059 797.128 86.5059 797.622 86.912L823.632 108.32L849.712 128.939C850.388 129.475 850.388 130.501 849.712 131.036L823.632 151.655L797.622 173.064C797.128 173.47 796.416 173.47 795.923 173.064L769.912 151.655L743.833 131.036C743.156 130.501 743.156 129.475 743.833 128.939L769.912 108.32L795.923 86.912Z" fill="#F95500"/>
<path d="M52.751 4.03897C53.2444 3.63283 53.9564 3.63283 54.4498 4.03897L80.4604 25.4473L106.54 46.0663C107.217 46.6015 107.217 47.6282 106.54 48.1633L80.4604 68.7823L54.4498 90.1907C53.9564 90.5968 53.2444 90.5968 52.751 90.1907L26.7404 68.7823L0.661144 48.1634C-0.0157264 47.6282 -0.0157289 46.6015 0.661142 46.0663L26.7404 25.4473L52.751 4.03897Z" fill="#F95500"/>
<path d="M159.014 4.03897C159.507 3.63283 160.219 3.63283 160.713 4.03897L186.723 25.4473L212.802 46.0663C213.479 46.6015 213.479 47.6282 212.802 48.1633L186.723 68.7823L160.713 90.1907C160.219 90.5968 159.507 90.5968 159.014 90.1907L133.003 68.7823L106.924 48.1634C106.247 47.6282 106.247 46.6015 106.924 46.0663L133.003 25.4473L159.014 4.03897Z" fill="#F95500"/>
<path d="M265.276 4.03897C265.77 3.63283 266.482 3.63283 266.975 4.03897L292.986 25.4473L319.065 46.0663C319.742 46.6015 319.742 47.6282 319.065 48.1633L292.986 68.7823L266.975 90.1907C266.482 90.5968 265.77 90.5968 265.276 90.1907L239.266 68.7823L213.187 48.1634C212.51 47.6282 212.51 46.6015 213.187 46.0663L239.266 25.4473L265.276 4.03897Z" fill="#F95500"/>
<path d="M371.538 4.03897C372.032 3.63283 372.743 3.63283 373.237 4.03897L399.248 25.4473L425.327 46.0663C426.004 46.6015 426.004 47.6282 425.327 48.1633L399.248 68.7823L373.237 90.1907C372.743 90.5968 372.032 90.5968 371.538 90.1907L345.527 68.7823L319.448 48.1634C318.771 47.6282 318.771 46.6015 319.448 46.0663L345.527 25.4473L371.538 4.03897Z" fill="#F95500"/>
<path d="M477.801 4.03897C478.294 3.63283 479.006 3.63283 479.5 4.03897L505.51 25.4473L531.589 46.0663C532.266 46.6015 532.266 47.6282 531.589 48.1633L505.51 68.7823L479.5 90.1907C479.006 90.5968 478.294 90.5968 477.801 90.1907L451.79 68.7823L425.711 48.1634C425.034 47.6282 425.034 46.6015 425.711 46.0663L451.79 25.4473L477.801 4.03897Z" fill="#F95500"/>
<path d="M583.398 4.03897C583.892 3.63283 584.604 3.63283 585.097 4.03897L611.108 25.4473L637.187 46.0663C637.864 46.6015 637.864 47.6282 637.187 48.1633L611.108 68.7823L585.097 90.1907C584.604 90.5968 583.892 90.5968 583.398 90.1907L557.388 68.7823L531.309 48.1634C530.632 47.6282 530.632 46.6015 531.309 46.0663L557.388 25.4473L583.398 4.03897Z" fill="#F95500"/>
<path d="M689.66 4.03897C690.154 3.63283 690.866 3.63283 691.359 4.03897L717.37 25.4473L743.449 46.0663C744.126 46.6015 744.126 47.6282 743.449 48.1633L717.37 68.7823L691.359 90.1907C690.866 90.5968 690.154 90.5968 689.66 90.1907L663.65 68.7823L637.57 48.1634C636.893 47.6282 636.893 46.6015 637.57 46.0663L663.65 25.4473L689.66 4.03897Z" fill="#F95500"/>
<path d="M795.923 4.03897C796.416 3.63283 797.128 3.63283 797.622 4.03897L823.632 25.4473L849.712 46.0663C850.388 46.6015 850.388 47.6282 849.712 48.1633L823.632 68.7823L797.622 90.1907C797.128 90.5968 796.416 90.5968 795.923 90.1907L769.912 68.7823L743.833 48.1634C743.156 47.6282 743.156 46.6015 743.833 46.0663L769.912 25.4473L795.923 4.03897Z" fill="#F95500"/>
<path d="M52.751 86.912C53.2444 86.5059 53.9564 86.5059 54.4498 86.912L80.4604 108.32L106.54 128.939C107.217 129.475 107.217 130.501 106.54 131.036L80.4604 151.655L54.4498 173.064C53.9564 173.47 53.2444 173.47 52.751 173.064L26.7404 151.655L0.661144 131.036C-0.0157264 130.501 -0.0157289 129.475 0.661142 128.939L26.7404 108.32L52.751 86.912Z" fill="#F95500"/>
<path d="M583.398 86.912C583.892 86.5059 584.604 86.5059 585.097 86.912L611.108 108.32L637.187 128.939C637.864 129.475 637.864 130.501 637.187 131.036L611.108 151.655L585.097 173.064C584.604 173.47 583.892 173.47 583.398 173.064L557.388 151.655L531.309 131.036C530.632 130.501 530.632 129.475 531.309 128.939L557.388 108.32L583.398 86.912Z" fill="#F95500"/>
<path d="M689.66 86.912C690.154 86.5059 690.866 86.5059 691.359 86.912L717.37 108.32L743.449 128.939C744.126 129.475 744.126 130.501 743.449 131.036L717.37 151.655L691.359 173.064C690.866 173.47 690.154 173.47 689.66 173.064L663.65 151.655L637.57 131.036C636.893 130.501 636.893 129.475 637.57 128.939L663.65 108.32L689.66 86.912Z" fill="#F95500"/>
<path d="M54.0869 170.451C54.5804 170.045 55.2923 170.045 55.7858 170.451L81.7964 191.859L107.876 212.478C108.552 213.014 108.552 214.04 107.876 214.575L81.7964 235.194L55.7858 256.603C55.2923 257.009 54.5804 257.009 54.0869 256.603L28.0763 235.194L1.99708 214.575C1.32021 214.04 1.32021 213.014 1.99708 212.478L28.0763 191.859L54.0869 170.451Z" fill="#F95500"/>
<path d="M584.732 170.451C585.226 170.045 585.938 170.045 586.431 170.451L612.442 191.859L638.521 212.478C639.198 213.014 639.198 214.04 638.521 214.575L612.442 235.194L586.431 256.603C585.938 257.009 585.226 257.009 584.732 256.603L558.722 235.194L532.643 214.575C531.966 214.04 531.966 213.014 532.643 212.478L558.722 191.859L584.732 170.451Z" fill="#F95500"/>
<path d="M690.997 170.451C691.491 170.045 692.202 170.045 692.696 170.451L718.707 191.859L744.786 212.478C745.463 213.014 745.463 214.04 744.786 214.575L718.707 235.194L692.696 256.603C692.202 257.009 691.491 257.009 690.997 256.603L664.986 235.194L638.907 214.575C638.23 214.04 638.23 213.014 638.907 212.478L664.986 191.859L690.997 170.451Z" fill="#F95500"/>
<path d="M797.259 170.451C797.752 170.045 798.464 170.045 798.958 170.451L824.968 191.859L851.047 212.478C851.724 213.014 851.724 214.04 851.047 214.575L824.968 235.194L798.958 256.603C798.464 257.009 797.752 257.009 797.259 256.603L771.248 235.194L745.169 214.575C744.492 214.04 744.492 213.014 745.169 212.478L771.248 191.859L797.259 170.451Z" fill="#F95500"/>
<path d="M54.0869 255.328C54.5804 254.922 55.2923 254.922 55.7858 255.328L81.7964 276.736L107.876 297.355C108.552 297.891 108.552 298.917 107.876 299.452L81.7964 320.071L55.7858 341.48C55.2923 341.886 54.5804 341.886 54.0869 341.48L28.0763 320.071L1.99708 299.452C1.32021 298.917 1.32021 297.891 1.99708 297.355L28.0763 276.736L54.0869 255.328Z" fill="#F95500"/>
<path d="M584.732 255.328C585.226 254.922 585.938 254.922 586.431 255.328L612.442 276.736L638.521 297.355C639.198 297.891 639.198 298.917 638.521 299.452L612.442 320.071L586.431 341.48C585.938 341.886 585.226 341.886 584.732 341.48L558.722 320.071L532.643 299.452C531.966 298.917 531.966 297.891 532.643 297.355L558.722 276.736L584.732 255.328Z" fill="#F95500"/>
<path d="M690.997 255.328C691.491 254.922 692.202 254.922 692.696 255.328L718.707 276.736L744.786 297.355C745.463 297.891 745.463 298.917 744.786 299.452L718.707 320.071L692.696 341.48C692.202 341.886 691.491 341.886 690.997 341.48L664.986 320.071L638.907 299.452C638.23 298.917 638.23 297.891 638.907 297.355L664.986 276.736L690.997 255.328Z" fill="#F95500"/>
<path d="M797.259 255.328C797.752 254.922 798.464 254.922 798.958 255.328L824.968 276.736L851.047 297.355C851.724 297.891 851.724 298.917 851.047 299.452L824.968 320.071L798.958 341.48C798.464 341.886 797.752 341.886 797.259 341.48L771.248 320.071L745.169 299.452C744.492 298.917 744.492 297.891 745.169 297.355L771.248 276.736L797.259 255.328Z" fill="#F95500"/>
<path d="M54.0869 339.537C54.5804 339.131 55.2923 339.131 55.7858 339.537L81.7964 360.945L107.876 381.564C108.552 382.1 108.552 383.126 107.876 383.661L81.7964 404.28L55.7858 425.689C55.2923 426.095 54.5804 426.095 54.0869 425.689L28.0763 404.28L1.99708 383.661C1.32021 383.126 1.32021 382.1 1.99708 381.564L28.0763 360.945L54.0869 339.537Z" fill="#F95500"/>
<path d="M160.35 339.537C160.843 339.131 161.555 339.131 162.048 339.537L188.059 360.945L214.138 381.564C214.815 382.1 214.815 383.126 214.138 383.661L188.059 404.28L162.048 425.689C161.555 426.095 160.843 426.095 160.35 425.689L134.339 404.28L108.26 383.661C107.583 383.126 107.583 382.1 108.26 381.564L134.339 360.945L160.35 339.537Z" fill="#F95500"/>
<path d="M266.612 339.537C267.106 339.131 267.818 339.131 268.311 339.537L294.322 360.945L320.401 381.564C321.078 382.1 321.078 383.126 320.401 383.661L294.322 404.28L268.311 425.689C267.818 426.095 267.106 426.095 266.612 425.689L240.602 404.28L214.522 383.661C213.846 383.126 213.846 382.1 214.522 381.564L240.602 360.945L266.612 339.537Z" fill="#F95500"/>
<path d="M372.877 339.537C373.37 339.131 374.082 339.131 374.576 339.537L400.586 360.945L426.666 381.564C427.342 382.1 427.343 383.126 426.666 383.661L400.586 404.28L374.576 425.689C374.082 426.095 373.37 426.095 372.877 425.689L346.866 404.28L320.787 383.661C320.11 383.126 320.11 382.1 320.787 381.564L346.866 360.945L372.877 339.537Z" fill="#F95500"/>
<path d="M479.139 339.537C479.632 339.131 480.344 339.131 480.838 339.537L506.848 360.945L532.927 381.564C533.604 382.1 533.604 383.126 532.927 383.661L506.848 404.28L480.838 425.689C480.344 426.095 479.632 426.095 479.139 425.689L453.128 404.28L427.049 383.661C426.372 383.126 426.372 382.1 427.049 381.564L453.128 360.945L479.139 339.537Z" fill="#F95500"/>
<path d="M584.732 339.537C585.226 339.131 585.938 339.131 586.431 339.537L612.442 360.945L638.521 381.564C639.198 382.1 639.198 383.126 638.521 383.661L612.442 404.28L586.431 425.689C585.938 426.095 585.226 426.095 584.732 425.689L558.722 404.28L532.643 383.661C531.966 383.126 531.966 382.1 532.643 381.564L558.722 360.945L584.732 339.537Z" fill="#F95500"/>
<path d="M690.997 339.537C691.491 339.131 692.202 339.131 692.696 339.537L718.707 360.945L744.786 381.564C745.463 382.1 745.463 383.126 744.786 383.661L718.707 404.28L692.696 425.689C692.202 426.095 691.491 426.095 690.997 425.689L664.986 404.28L638.907 383.661C638.23 383.126 638.23 382.1 638.907 381.564L664.986 360.945L690.997 339.537Z" fill="#F95500"/>
<path d="M797.259 339.537C797.752 339.131 798.464 339.131 798.958 339.537L824.968 360.945L851.047 381.564C851.724 382.1 851.724 383.126 851.047 383.661L824.968 404.28L798.958 425.689C798.464 426.095 797.752 426.095 797.259 425.689L771.248 404.28L745.169 383.661C744.492 383.126 744.492 382.1 745.169 381.564L771.248 360.945L797.259 339.537Z" fill="#F95500"/>
<path d="M1117.62 86.912C1118.11 86.5059 1118.83 86.5059 1119.32 86.912L1145.33 108.32L1171.41 128.939C1172.09 129.475 1172.09 130.501 1171.41 131.036L1145.33 151.655L1119.32 173.064C1118.83 173.47 1118.11 173.47 1117.62 173.064L1091.61 151.655L1065.53 131.036C1064.85 130.501 1064.85 129.475 1065.53 128.939L1091.61 108.32L1117.62 86.912Z" fill="#F95500"/>
<path d="M905.096 4.03897C905.589 3.63283 906.301 3.63283 906.795 4.03897L932.805 25.4473L958.884 46.0663C959.561 46.6015 959.561 47.6282 958.884 48.1633L932.805 68.7823L906.795 90.1907C906.301 90.5968 905.589 90.5968 905.096 90.1907L879.085 68.7823L853.006 48.1634C852.329 47.6282 852.329 46.6015 853.006 46.0663L879.085 25.4473L905.096 4.03897Z" fill="#F95500"/>
<path d="M1011.36 4.03897C1011.85 3.63283 1012.56 3.63283 1013.06 4.03897L1039.07 25.4473L1065.15 46.0663C1065.82 46.6015 1065.82 47.6282 1065.15 48.1633L1039.07 68.7823L1013.06 90.1907C1012.56 90.5968 1011.85 90.5968 1011.36 90.1907L985.348 68.7823L959.269 48.1634C958.592 47.6282 958.592 46.6015 959.269 46.0663L985.348 25.4473L1011.36 4.03897Z" fill="#F95500"/>
<path d="M1117.62 4.03897C1118.11 3.63283 1118.83 3.63283 1119.32 4.03897L1145.33 25.4473L1171.41 46.0663C1172.09 46.6015 1172.09 47.6282 1171.41 48.1633L1145.33 68.7823L1119.32 90.1907C1118.83 90.5968 1118.11 90.5968 1117.62 90.1907L1091.61 68.7823L1065.53 48.1634C1064.85 47.6282 1064.85 46.6015 1065.53 46.0663L1091.61 25.4473L1117.62 4.03897Z" fill="#F95500"/>
<path d="M905.096 86.912C905.589 86.5059 906.301 86.5059 906.795 86.912L932.805 108.32L958.884 128.939C959.561 129.475 959.561 130.501 958.884 131.036L932.805 151.655L906.795 173.064C906.301 173.47 905.589 173.47 905.096 173.064L879.085 151.655L853.006 131.036C852.329 130.501 852.329 129.475 853.006 128.939L879.085 108.32L905.096 86.912Z" fill="#F95500"/>
<path d="M1011.36 86.912C1011.85 86.5059 1012.56 86.5059 1013.06 86.912L1039.07 108.32L1065.15 128.939C1065.82 129.475 1065.82 130.501 1065.15 131.036L1039.07 151.655L1013.06 173.064C1012.56 173.47 1011.85 173.47 1011.36 173.064L985.348 151.655L959.269 131.036C958.592 130.501 958.592 129.475 959.269 128.939L985.348 108.32L1011.36 86.912Z" fill="#F95500"/>
<path d="M906.433 170.451C906.926 170.045 907.638 170.045 908.131 170.451L934.142 191.859L960.221 212.478C960.898 213.014 960.898 214.04 960.221 214.575L934.142 235.194L908.131 256.603C907.638 257.009 906.926 257.009 906.433 256.603L880.422 235.194L854.343 214.575C853.666 214.04 853.666 213.014 854.343 212.478L880.422 191.859L906.433 170.451Z" fill="#F95500"/>
<path d="M1012.69 170.451C1013.19 170.045 1013.9 170.045 1014.39 170.451L1040.4 191.859L1066.48 212.478C1067.16 213.014 1067.16 214.04 1066.48 214.575L1040.4 235.194L1014.39 256.603C1013.9 257.009 1013.19 257.009 1012.69 256.603L986.684 235.194L960.605 214.575C959.928 214.04 959.928 213.014 960.605 212.478L986.684 191.859L1012.69 170.451Z" fill="#F95500"/>
<path d="M1118.96 170.451C1119.45 170.045 1120.16 170.045 1120.66 170.451L1146.67 191.859L1172.75 212.478C1173.42 213.014 1173.42 214.04 1172.75 214.575L1146.67 235.194L1120.66 256.603C1120.16 257.009 1119.45 257.009 1118.96 256.603L1092.95 235.194L1066.87 214.575C1066.19 214.04 1066.19 213.014 1066.87 212.478L1092.95 191.859L1118.96 170.451Z" fill="#F95500"/>
<path d="M906.433 255.328C906.926 254.922 907.638 254.922 908.131 255.328L934.142 276.736L960.221 297.355C960.898 297.891 960.898 298.917 960.221 299.452L934.142 320.071L908.131 341.48C907.638 341.886 906.926 341.886 906.433 341.48L880.422 320.071L854.343 299.452C853.666 298.917 853.666 297.891 854.343 297.355L880.422 276.736L906.433 255.328Z" fill="#F95500"/>
<path d="M1012.69 255.328C1013.19 254.922 1013.9 254.922 1014.39 255.328L1040.4 276.736L1066.48 297.355C1067.16 297.891 1067.16 298.917 1066.48 299.452L1040.4 320.071L1014.39 341.48C1013.9 341.886 1013.19 341.886 1012.69 341.48L986.684 320.071L960.605 299.452C959.928 298.917 959.928 297.891 960.605 297.355L986.684 276.736L1012.69 255.328Z" fill="#F95500"/>
<path d="M1118.96 255.328C1119.45 254.922 1120.16 254.922 1120.66 255.328L1146.67 276.736L1172.75 297.355C1173.42 297.891 1173.42 298.917 1172.75 299.452L1146.67 320.071L1120.66 341.48C1120.16 341.886 1119.45 341.886 1118.96 341.48L1092.95 320.071L1066.87 299.452C1066.19 298.917 1066.19 297.891 1066.87 297.355L1092.95 276.736L1118.96 255.328Z" fill="#F95500"/>
<path d="M906.433 339.537C906.926 339.131 907.638 339.131 908.131 339.537L934.142 360.945L960.221 381.564C960.898 382.1 960.898 383.126 960.221 383.661L934.142 404.28L908.131 425.689C907.638 426.095 906.926 426.095 906.433 425.689L880.422 404.28L854.343 383.661C853.666 383.126 853.666 382.1 854.343 381.564L880.422 360.945L906.433 339.537Z" fill="#F95500"/>
<path d="M1012.69 339.537C1013.19 339.131 1013.9 339.131 1014.39 339.537L1040.4 360.945L1066.48 381.564C1067.16 382.1 1067.16 383.126 1066.48 383.661L1040.4 404.28L1014.39 425.689C1013.9 426.095 1013.19 426.095 1012.69 425.689L986.684 404.28L960.605 383.661C959.928 383.126 959.928 382.1 960.605 381.564L986.684 360.945L1012.69 339.537Z" fill="#F95500"/>
<path d="M1118.96 339.537C1119.45 339.131 1120.16 339.131 1120.66 339.537L1146.67 360.945L1172.75 381.564C1173.42 382.1 1173.42 383.126 1172.75 383.661L1146.67 404.28L1120.66 425.689C1120.16 426.095 1119.45 426.095 1118.96 425.689L1092.95 404.28L1066.87 383.661C1066.19 383.126 1066.19 382.1 1066.87 381.564L1092.95 360.945L1118.96 339.537Z" fill="#F95500"/>
<path d="M1224.43 3.8046C1224.92 3.39845 1225.63 3.39845 1226.12 3.8046L1252.14 25.2129L1278.21 45.8319C1278.89 46.3671 1278.89 47.3938 1278.21 47.929L1252.14 68.548L1226.12 89.9563C1225.63 90.3625 1224.92 90.3625 1224.43 89.9563L1198.42 68.548L1172.34 47.929C1171.66 47.3938 1171.66 46.3671 1172.34 45.8319L1198.42 25.2129L1224.43 3.8046Z" fill="#F95500"/>
<path d="M1224.43 86.6737C1224.92 86.2676 1225.63 86.2676 1226.12 86.6737L1252.14 108.082L1278.21 128.701C1278.89 129.236 1278.89 130.263 1278.21 130.798L1252.14 151.417L1226.12 172.825C1225.63 173.232 1224.92 173.232 1224.43 172.825L1198.42 151.417L1172.34 130.798C1171.66 130.263 1171.66 129.236 1172.34 128.701L1198.42 108.082L1224.43 86.6737Z" fill="#F95500"/>
<path d="M1225.76 170.213C1226.26 169.807 1226.97 169.807 1227.46 170.213L1253.47 191.621L1279.55 212.24C1280.23 212.775 1280.23 213.802 1279.55 214.337L1253.47 234.956L1227.46 256.365C1226.97 256.771 1226.26 256.771 1225.76 256.365L1199.75 234.956L1173.67 214.337C1173 213.802 1173 212.775 1173.67 212.24L1199.75 191.621L1225.76 170.213Z" fill="#F95500"/>
<path d="M1225.76 255.094C1226.26 254.688 1226.97 254.688 1227.46 255.094L1253.47 276.502L1279.55 297.121C1280.23 297.656 1280.23 298.683 1279.55 299.218L1253.47 319.837L1227.46 341.245C1226.97 341.652 1226.26 341.652 1225.76 341.245L1199.75 319.837L1173.67 299.218C1173 298.683 1173 297.656 1173.67 297.121L1199.75 276.502L1225.76 255.094Z" fill="#F95500"/>
<path d="M1225.76 339.299C1226.26 338.893 1226.97 338.893 1227.46 339.299L1253.47 360.707L1279.55 381.326C1280.23 381.861 1280.23 382.888 1279.55 383.423L1253.47 404.042L1227.46 425.45C1226.97 425.857 1226.26 425.857 1225.76 425.45L1199.75 404.042L1173.67 383.423C1173 382.888 1173 381.861 1173.67 381.326L1199.75 360.707L1225.76 339.299Z" fill="#F95500"/>
<path d="M461.798 213.712C461.798 256.715 396.846 291.576 316.724 291.576C236.603 291.576 171.651 256.715 171.651 213.712C171.651 178.885 214.252 149.398 273.011 139.445C286.806 137.108 301.491 135.848 316.724 135.848C331.958 135.848 352.38 137.108 366.175 139.445C424.934 149.398 461.798 178.885 461.798 213.712Z" fill="#F95500"/>
<path d="M320.118 382.6C312.468 346.444 297.593 293.068 258.524 280.634H383.107C342.672 291.538 325.309 345.679 320.118 382.6Z" fill="#F95500"/>
<path d="M319.732 46.7832C312.083 82.9385 293.778 133.25 254.709 145.684H379.292C338.857 134.78 324.923 83.7037 319.732 46.7832Z" fill="#F95500"/>
<path d="M478.518 89.8904C455.48 118.786 392.468 144.149 351.969 137.762L397.322 169.453L459.523 191.566C428.259 163.701 466.617 125.224 478.518 89.8904Z" fill="#F95500"/>
<path d="M160.065 90.559C183.103 119.455 232.515 145.242 273.014 138.854L240.159 165.234L177.958 187.346C209.221 159.482 171.966 125.892 160.065 90.559Z" fill="#F95500"/>
<path d="M161.058 340.498C183.232 310.934 238.893 286.923 279.563 292.11L239.992 251.534L170.553 227.907C202.627 254.835 171.91 304.828 161.058 340.498Z" fill="#F95500"/>
<path d="M480.515 340.163C458.341 310.599 369.136 283.371 328.465 288.559L391.269 257.274L460.708 233.647C428.634 260.575 469.664 304.494 480.515 340.163Z" fill="#F95500"/>
<path d="M533.989 213.529C497.834 205.88 446.773 192.676 431.2 165.082L425.736 263.983C445.134 239.941 497.069 218.72 533.989 213.529Z" fill="#F95500"/>
<path d="M101.251 213.195C137.406 220.845 192.689 234.476 208.262 262.07L212.634 160.984C193.236 185.026 138.171 208.004 101.251 213.195Z" fill="#F95500"/>
<path d="M205.246 208.634L211.907 217.633H205.951L201.005 210.972H200.911V217.633H195.93V200.681H200.911V207.236H201.005L206.245 200.681H211.59L205.246 208.634ZM218.662 217.962C214.433 217.962 211.848 215.518 211.848 211.136C211.848 206.872 214.503 204.334 218.662 204.334C222.844 204.334 225.487 206.848 225.487 211.136C225.487 215.53 222.903 217.962 218.662 217.962ZM218.662 214.52C219.86 214.52 220.6 213.321 220.6 211.148C220.6 209.033 219.849 207.776 218.662 207.776C217.487 207.776 216.735 209.033 216.735 211.148C216.735 213.321 217.452 214.52 218.662 214.52ZM238.445 204.663V208.164H234.886V217.633H230.069V208.164H226.51V204.663H238.445ZM246.211 207.647C245.118 207.647 244.284 208.446 244.19 209.562H248.231C248.149 208.399 247.338 207.647 246.211 207.647ZM248.372 213.427H252.66C252.261 216.223 249.817 217.962 246.258 217.962C242.005 217.962 239.479 215.436 239.479 211.219C239.479 206.978 242.028 204.334 246.105 204.334C250.123 204.334 252.719 206.895 252.719 210.866V212.17H244.12V212.476C244.12 213.744 245.036 214.661 246.328 214.661C247.303 214.661 248.09 214.202 248.372 213.427ZM259.991 210.948C259.791 215.048 258.569 217.821 254.904 217.821C254.199 217.821 253.659 217.703 253.447 217.645V213.709C253.623 213.744 253.917 213.78 254.305 213.78C255.503 213.78 255.773 212.276 255.832 210.561L256.067 204.663H267.169V217.633H262.352V208.164H260.12L259.991 210.948ZM275.545 211.43H274.041V214.191H275.545C276.45 214.191 277.025 213.615 277.025 212.804C277.025 212.006 276.45 211.43 275.545 211.43ZM269.225 217.633V204.663H274.041V208.047H276.649C279.798 208.047 281.807 209.914 281.807 212.84C281.807 215.765 279.798 217.633 276.649 217.633H269.225ZM291.886 217.633V212.816H288.233V217.633H283.416V204.663H288.233V209.315H291.886V204.663H296.703V217.633H291.886ZM303.458 217.633H298.759V204.663H303.458V211.312H303.552L307.464 204.663H312.151V217.633H307.464V210.796H307.37L303.458 217.633ZM323.218 210.537L327.999 217.633H322.348L319.106 212.71H319.012V217.633H314.195V204.663H319.012V209.398H319.106L322.266 204.663H327.576L323.218 210.537ZM334.918 217.962C330.689 217.962 328.105 215.518 328.105 211.136C328.105 206.872 330.76 204.334 334.918 204.334C339.101 204.334 341.744 206.848 341.744 211.136C341.744 215.53 339.159 217.962 334.918 217.962ZM334.918 214.52C336.117 214.52 336.857 213.321 336.857 211.148C336.857 209.033 336.105 207.776 334.918 207.776C333.744 207.776 332.992 209.033 332.992 211.148C332.992 213.321 333.708 214.52 334.918 214.52ZM349.286 207.353H348.146V209.785H349.251C350.226 209.785 350.837 209.304 350.837 208.575C350.837 207.812 350.261 207.353 349.286 207.353ZM349.427 212.111H348.146V214.943H349.38C350.578 214.943 351.26 214.437 351.26 213.486C351.26 212.616 350.555 212.111 349.427 212.111ZM343.447 217.633V204.663H350.837C353.797 204.663 355.548 205.861 355.548 207.894C355.548 209.339 354.455 210.537 352.998 210.702V210.796C354.819 210.995 356.123 212.217 356.123 213.862C356.123 216.117 354.15 217.633 351.048 217.633H343.447ZM363.583 214.602C364.652 214.602 365.639 214.003 365.639 213.051V212.205L363.595 212.346C362.678 212.417 362.162 212.851 362.162 213.486C362.162 214.191 362.737 214.602 363.583 214.602ZM361.786 217.821C359.424 217.821 357.415 216.2 357.415 213.862C357.415 211.371 359.33 210.02 362.796 209.809L365.639 209.633V208.998C365.639 208.129 364.981 207.659 364.076 207.659C363.09 207.659 362.455 208.199 362.385 208.857H358.085C358.203 206.085 360.552 204.334 364.335 204.334C367.93 204.334 370.338 206.132 370.338 208.763V217.633H365.639V215.894H365.545C364.864 217.163 363.289 217.821 361.786 217.821ZM388.43 217.633L387.549 214.261H382.38L381.498 217.633H376.423L381.957 200.681H388.206L393.74 217.633H388.43ZM384.917 204.593L383.284 210.749H386.644L385.011 204.593H384.917ZM403.702 217.633V212.816H400.048V217.633H395.232V204.663H400.048V209.315H403.702V204.663H408.518V217.633H403.702ZM419.045 217.633V212.816H415.391V217.633H410.574V204.663H415.391V209.315H419.045V204.663H423.861V217.633H419.045ZM431.603 214.602C432.672 214.602 433.659 214.003 433.659 213.051V212.205L431.615 212.346C430.698 212.417 430.181 212.851 430.181 213.486C430.181 214.191 430.757 214.602 431.603 214.602ZM429.806 217.821C427.444 217.821 425.435 216.2 425.435 213.862C425.435 211.371 427.35 210.02 430.816 209.809L433.659 209.633V208.998C433.659 208.129 433.001 207.659 432.096 207.659C431.11 207.659 430.475 208.199 430.405 208.857H426.105C426.222 206.085 428.572 204.334 432.355 204.334C435.95 204.334 438.358 206.132 438.358 208.763V217.633H433.659V215.894H433.565C432.883 217.163 431.309 217.821 429.806 217.821Z" fill="white"/>
<path d="M260.621 237.955C260.621 241.374 258.083 243.547 254.312 243.547H246.571V226.595H259.188V230.542H251.552V232.574H254.089C257.978 232.574 260.621 234.677 260.621 237.955ZM251.552 239.788H253.102C254.618 239.788 255.546 239.165 255.546 237.943C255.546 236.71 254.618 236.087 253.067 236.087H251.552V239.788ZM261.937 231.917C261.937 228.451 264.662 226.125 268.856 226.125C272.968 226.125 275.494 228.204 275.494 231.282C275.494 233.608 273.544 235.37 272.639 236.169L268.656 239.694V239.788H275.693V243.547H262.23V240.234L269.044 234.207C270.184 233.185 270.701 232.375 270.701 231.435C270.701 230.519 269.96 229.802 268.68 229.802C267.388 229.802 266.471 230.671 266.471 231.905V232.011H261.937V231.917ZM285.738 243.547V241.033H277.397V236.909C278.912 233.949 280.604 231.094 283.553 226.595H290.437V237.215H292.458V241.033H290.437V243.547H285.738ZM281.532 237.274V237.415H285.879V229.861H285.785C284.058 232.516 282.93 234.313 281.532 237.274ZM298.014 243.735C296.945 243.735 296.029 243.547 296.029 243.547V239.67C296.029 239.67 296.311 239.788 297.157 239.788C297.956 239.788 298.649 239.694 299.166 239.083L293.703 226.595H298.978L301.832 234.454H301.926L304.534 226.595H309.809L304.617 238.695C303.266 241.832 301.562 243.735 298.014 243.735ZM320.899 234.548L327.56 243.547H321.604L316.658 236.886H316.564V243.547H311.583V226.595H316.564V233.15H316.658L321.898 226.595H327.243L320.899 234.548ZM340.107 243.547V234.113H340.013L333.786 243.547H329.04V226.595H334.021V236.028H334.115L340.342 226.595H345.088V243.547H340.107ZM355.72 238.683H347.978V234.595H355.72V238.683ZM365.693 244.017C361.112 244.017 358.222 240.633 358.222 235.03C358.222 229.391 361.147 226.113 365.693 226.113C370.24 226.113 373.153 229.379 373.153 235.018C373.153 240.61 370.275 244.017 365.693 244.017ZM365.693 240.187C367.08 240.187 368.078 238.519 368.078 235.03C368.078 231.529 367.08 229.943 365.693 229.943C364.307 229.943 363.297 231.529 363.297 235.03C363.297 238.519 364.307 240.187 365.693 240.187ZM374.786 231.917C374.786 228.451 377.512 226.125 381.706 226.125C385.817 226.125 388.343 228.204 388.343 231.282C388.343 233.608 386.393 235.37 385.489 236.169L381.506 239.694V239.788H388.543V243.547H375.08V240.234L381.894 234.207C383.033 233.185 383.55 232.375 383.55 231.435C383.55 230.519 382.81 229.802 381.53 229.802C380.237 229.802 379.321 230.671 379.321 231.905V232.011H374.786V231.917Z" fill="white"/>
</g>
</g>
</g>
<g clip-path="url(#clip3_319_292)">
<rect width="1280" height="426" transform="translate(1280)" fill="white"/>
<g clip-path="url(#clip4_319_292)">
<rect width="1281.94" height="427" transform="translate(1280)" fill="#E76BC8"/>
<g clip-path="url(#clip5_319_292)">
<rect width="1281.94" height="426.645" transform="translate(1280)" fill="#F95500"/>
<rect x="1278" width="1284.18" height="426.388" fill="#F95500"/>
<path d="M2075.92 86.912C2076.42 86.5059 2077.13 86.5059 2077.62 86.912L2103.63 108.32L2129.71 128.939C2130.39 129.475 2130.39 130.501 2129.71 131.036L2103.63 151.655L2077.62 173.064C2077.13 173.47 2076.42 173.47 2075.92 173.064L2049.91 151.655L2023.83 131.036C2023.16 130.501 2023.16 129.475 2023.83 128.939L2049.91 108.32L2075.92 86.912Z" fill="#00544B"/>
<path d="M1332.75 4.03897C1333.24 3.63283 1333.96 3.63283 1334.45 4.03897L1360.46 25.4473L1386.54 46.0663C1387.22 46.6015 1387.22 47.6282 1386.54 48.1634L1360.46 68.7823L1334.45 90.1907C1333.96 90.5968 1333.24 90.5968 1332.75 90.1907L1306.74 68.7823L1280.66 48.1634C1279.98 47.6282 1279.98 46.6015 1280.66 46.0663L1306.74 25.4473L1332.75 4.03897Z" fill="#00544B"/>
<path d="M1439.01 4.03897C1439.51 3.63283 1440.22 3.63283 1440.71 4.03897L1466.72 25.4473L1492.8 46.0663C1493.48 46.6015 1493.48 47.6282 1492.8 48.1634L1466.72 68.7823L1440.71 90.1907C1440.22 90.5968 1439.51 90.5968 1439.01 90.1907L1413 68.7823L1386.92 48.1634C1386.25 47.6282 1386.25 46.6015 1386.92 46.0663L1413 25.4473L1439.01 4.03897Z" fill="#00544B"/>
<path d="M1545.28 4.03897C1545.77 3.63283 1546.48 3.63283 1546.98 4.03897L1572.99 25.4473L1599.07 46.0663C1599.74 46.6015 1599.74 47.6282 1599.07 48.1634L1572.99 68.7823L1546.98 90.1907C1546.48 90.5968 1545.77 90.5968 1545.28 90.1907L1519.27 68.7823L1493.19 48.1634C1492.51 47.6282 1492.51 46.6015 1493.19 46.0663L1519.27 25.4473L1545.28 4.03897Z" fill="#00544B"/>
<path d="M1651.54 4.03897C1652.03 3.63283 1652.74 3.63283 1653.24 4.03897L1679.25 25.4473L1705.33 46.0663C1706 46.6015 1706 47.6282 1705.33 48.1634L1679.25 68.7823L1653.24 90.1907C1652.74 90.5968 1652.03 90.5968 1651.54 90.1907L1625.53 68.7823L1599.45 48.1634C1598.77 47.6282 1598.77 46.6015 1599.45 46.0663L1625.53 25.4473L1651.54 4.03897Z" fill="#00544B"/>
<path d="M1757.8 4.03897C1758.29 3.63283 1759.01 3.63283 1759.5 4.03897L1785.51 25.4473L1811.59 46.0663C1812.27 46.6015 1812.27 47.6282 1811.59 48.1634L1785.51 68.7823L1759.5 90.1907C1759.01 90.5968 1758.29 90.5968 1757.8 90.1907L1731.79 68.7823L1705.71 48.1634C1705.03 47.6282 1705.03 46.6015 1705.71 46.0663L1731.79 25.4473L1757.8 4.03897Z" fill="#00544B"/>
<path d="M1863.4 4.03897C1863.89 3.63283 1864.6 3.63283 1865.1 4.03897L1891.11 25.4473L1917.19 46.0663C1917.86 46.6015 1917.86 47.6282 1917.19 48.1634L1891.11 68.7823L1865.1 90.1907C1864.6 90.5968 1863.89 90.5968 1863.4 90.1907L1837.39 68.7823L1811.31 48.1634C1810.63 47.6282 1810.63 46.6015 1811.31 46.0663L1837.39 25.4473L1863.4 4.03897Z" fill="#00544B"/>
<path d="M1969.66 4.03897C1970.15 3.63283 1970.87 3.63283 1971.36 4.03897L1997.37 25.4473L2023.45 46.0663C2024.13 46.6015 2024.13 47.6282 2023.45 48.1634L1997.37 68.7823L1971.36 90.1907C1970.87 90.5968 1970.15 90.5968 1969.66 90.1907L1943.65 68.7823L1917.57 48.1634C1916.89 47.6282 1916.89 46.6015 1917.57 46.0663L1943.65 25.4473L1969.66 4.03897Z" fill="#00544B"/>
<path d="M2075.92 4.03897C2076.42 3.63283 2077.13 3.63283 2077.62 4.03897L2103.63 25.4473L2129.71 46.0663C2130.39 46.6015 2130.39 47.6282 2129.71 48.1634L2103.63 68.7823L2077.62 90.1907C2077.13 90.5968 2076.42 90.5968 2075.92 90.1907L2049.91 68.7823L2023.83 48.1634C2023.16 47.6282 2023.16 46.6015 2023.83 46.0663L2049.91 25.4473L2075.92 4.03897Z" fill="#00544B"/>
<path d="M1332.75 86.912C1333.24 86.5059 1333.96 86.5059 1334.45 86.912L1360.46 108.32L1386.54 128.939C1387.22 129.475 1387.22 130.501 1386.54 131.036L1360.46 151.655L1334.45 173.064C1333.96 173.47 1333.24 173.47 1332.75 173.064L1306.74 151.655L1280.66 131.036C1279.98 130.501 1279.98 129.475 1280.66 128.939L1306.74 108.32L1332.75 86.912Z" fill="#00544B"/>
<path d="M1863.4 86.912C1863.89 86.5059 1864.6 86.5059 1865.1 86.912L1891.11 108.32L1917.19 128.939C1917.86 129.475 1917.86 130.501 1917.19 131.036L1891.11 151.655L1865.1 173.064C1864.6 173.47 1863.89 173.47 1863.4 173.064L1837.39 151.655L1811.31 131.036C1810.63 130.501 1810.63 129.475 1811.31 128.939L1837.39 108.32L1863.4 86.912Z" fill="#00544B"/>
<path d="M1969.66 86.912C1970.15 86.5059 1970.87 86.5059 1971.36 86.912L1997.37 108.32L2023.45 128.939C2024.13 129.475 2024.13 130.501 2023.45 131.036L1997.37 151.655L1971.36 173.064C1970.87 173.47 1970.15 173.47 1969.66 173.064L1943.65 151.655L1917.57 131.036C1916.89 130.501 1916.89 129.475 1917.57 128.939L1943.65 108.32L1969.66 86.912Z" fill="#00544B"/>
<path d="M1334.09 170.451C1334.58 170.045 1335.29 170.045 1335.79 170.451L1361.8 191.859L1387.88 212.478C1388.55 213.014 1388.55 214.04 1387.88 214.575L1361.8 235.194L1335.79 256.603C1335.29 257.009 1334.58 257.009 1334.09 256.603L1308.08 235.194L1282 214.575C1281.32 214.04 1281.32 213.014 1282 212.478L1308.08 191.859L1334.09 170.451Z" fill="#00544B"/>
<path d="M1864.73 170.451C1865.23 170.045 1865.94 170.045 1866.43 170.451L1892.44 191.859L1918.52 212.478C1919.2 213.014 1919.2 214.04 1918.52 214.575L1892.44 235.194L1866.43 256.603C1865.94 257.009 1865.23 257.009 1864.73 256.603L1838.72 235.194L1812.64 214.575C1811.97 214.04 1811.97 213.014 1812.64 212.478L1838.72 191.859L1864.73 170.451Z" fill="#00544B"/>
<path d="M1971 170.451C1971.49 170.045 1972.2 170.045 1972.7 170.451L1998.71 191.859L2024.79 212.478C2025.46 213.014 2025.46 214.04 2024.79 214.575L1998.71 235.194L1972.7 256.603C1972.2 257.009 1971.49 257.009 1971 256.603L1944.99 235.194L1918.91 214.575C1918.23 214.04 1918.23 213.014 1918.91 212.478L1944.99 191.859L1971 170.451Z" fill="#00544B"/>
<path d="M2077.26 170.451C2077.75 170.045 2078.46 170.045 2078.96 170.451L2104.97 191.859L2131.05 212.478C2131.72 213.014 2131.72 214.04 2131.05 214.575L2104.97 235.194L2078.96 256.603C2078.46 257.009 2077.75 257.009 2077.26 256.603L2051.25 235.194L2025.17 214.575C2024.49 214.04 2024.49 213.014 2025.17 212.478L2051.25 191.859L2077.26 170.451Z" fill="#00544B"/>
<path d="M1334.09 255.328C1334.58 254.922 1335.29 254.922 1335.79 255.328L1361.8 276.736L1387.88 297.355C1388.55 297.891 1388.55 298.917 1387.88 299.452L1361.8 320.071L1335.79 341.48C1335.29 341.886 1334.58 341.886 1334.09 341.48L1308.08 320.071L1282 299.452C1281.32 298.917 1281.32 297.891 1282 297.355L1308.08 276.736L1334.09 255.328Z" fill="#00544B"/>
<path d="M1864.73 255.328C1865.23 254.922 1865.94 254.922 1866.43 255.328L1892.44 276.736L1918.52 297.355C1919.2 297.891 1919.2 298.917 1918.52 299.452L1892.44 320.071L1866.43 341.48C1865.94 341.886 1865.23 341.886 1864.73 341.48L1838.72 320.071L1812.64 299.452C1811.97 298.917 1811.97 297.891 1812.64 297.355L1838.72 276.736L1864.73 255.328Z" fill="#00544B"/>
<path d="M1971 255.328C1971.49 254.922 1972.2 254.922 1972.7 255.328L1998.71 276.736L2024.79 297.355C2025.46 297.891 2025.46 298.917 2024.79 299.452L1998.71 320.071L1972.7 341.48C1972.2 341.886 1971.49 341.886 1971 341.48L1944.99 320.071L1918.91 299.452C1918.23 298.917 1918.23 297.891 1918.91 297.355L1944.99 276.736L1971 255.328Z" fill="#00544B"/>
<path d="M2077.26 255.328C2077.75 254.922 2078.46 254.922 2078.96 255.328L2104.97 276.736L2131.05 297.355C2131.72 297.891 2131.72 298.917 2131.05 299.452L2104.97 320.071L2078.96 341.48C2078.46 341.886 2077.75 341.886 2077.26 341.48L2051.25 320.071L2025.17 299.452C2024.49 298.917 2024.49 297.891 2025.17 297.355L2051.25 276.736L2077.26 255.328Z" fill="#00544B"/>
<path d="M1334.09 339.537C1334.58 339.131 1335.29 339.131 1335.79 339.537L1361.8 360.945L1387.88 381.564C1388.55 382.1 1388.55 383.126 1387.88 383.661L1361.8 404.28L1335.79 425.689C1335.29 426.095 1334.58 426.095 1334.09 425.689L1308.08 404.28L1282 383.661C1281.32 383.126 1281.32 382.1 1282 381.564L1308.08 360.945L1334.09 339.537Z" fill="#00544B"/>
<path d="M1440.35 339.537C1440.84 339.131 1441.55 339.131 1442.05 339.537L1468.06 360.945L1494.14 381.564C1494.82 382.1 1494.82 383.126 1494.14 383.661L1468.06 404.28L1442.05 425.689C1441.55 426.095 1440.84 426.095 1440.35 425.689L1414.34 404.28L1388.26 383.661C1387.58 383.126 1387.58 382.1 1388.26 381.564L1414.34 360.945L1440.35 339.537Z" fill="#00544B"/>
<path d="M1546.61 339.537C1547.11 339.131 1547.82 339.131 1548.31 339.537L1574.32 360.945L1600.4 381.564C1601.08 382.1 1601.08 383.126 1600.4 383.661L1574.32 404.28L1548.31 425.689C1547.82 426.095 1547.11 426.095 1546.61 425.689L1520.6 404.28L1494.52 383.661C1493.85 383.126 1493.85 382.1 1494.52 381.564L1520.6 360.945L1546.61 339.537Z" fill="#00544B"/>
<path d="M1652.88 339.537C1653.37 339.131 1654.08 339.131 1654.58 339.537L1680.59 360.945L1706.67 381.564C1707.34 382.1 1707.34 383.126 1706.67 383.661L1680.59 404.28L1654.58 425.689C1654.08 426.095 1653.37 426.095 1652.88 425.689L1626.87 404.28L1600.79 383.661C1600.11 383.126 1600.11 382.1 1600.79 381.564L1626.87 360.945L1652.88 339.537Z" fill="#00544B"/>
<path d="M1759.14 339.537C1759.63 339.131 1760.34 339.131 1760.84 339.537L1786.85 360.945L1812.93 381.564C1813.6 382.1 1813.6 383.126 1812.93 383.661L1786.85 404.28L1760.84 425.689C1760.34 426.095 1759.63 426.095 1759.14 425.689L1733.13 404.28L1707.05 383.661C1706.37 383.126 1706.37 382.1 1707.05 381.564L1733.13 360.945L1759.14 339.537Z" fill="#00544B"/>
<path d="M1864.73 339.537C1865.23 339.131 1865.94 339.131 1866.43 339.537L1892.44 360.945L1918.52 381.564C1919.2 382.1 1919.2 383.126 1918.52 383.661L1892.44 404.28L1866.43 425.689C1865.94 426.095 1865.23 426.095 1864.73 425.689L1838.72 404.28L1812.64 383.661C1811.97 383.126 1811.97 382.1 1812.64 381.564L1838.72 360.945L1864.73 339.537Z" fill="#00544B"/>
<path d="M1971 339.537C1971.49 339.131 1972.2 339.131 1972.7 339.537L1998.71 360.945L2024.79 381.564C2025.46 382.1 2025.46 383.126 2024.79 383.661L1998.71 404.28L1972.7 425.689C1972.2 426.095 1971.49 426.095 1971 425.689L1944.99 404.28L1918.91 383.661C1918.23 383.126 1918.23 382.1 1918.91 381.564L1944.99 360.945L1971 339.537Z" fill="#00544B"/>
<path d="M2077.26 339.537C2077.75 339.131 2078.46 339.131 2078.96 339.537L2104.97 360.945L2131.05 381.564C2131.72 382.1 2131.72 383.126 2131.05 383.661L2104.97 404.28L2078.96 425.689C2078.46 426.095 2077.75 426.095 2077.26 425.689L2051.25 404.28L2025.17 383.661C2024.49 383.126 2024.49 382.1 2025.17 381.564L2051.25 360.945L2077.26 339.537Z" fill="#00544B"/>
<path d="M2397.62 86.912C2398.11 86.5059 2398.83 86.5059 2399.32 86.912L2425.33 108.32L2451.41 128.939C2452.09 129.475 2452.09 130.501 2451.41 131.036L2425.33 151.655L2399.32 173.064C2398.83 173.47 2398.11 173.47 2397.62 173.064L2371.61 151.655L2345.53 131.036C2344.85 130.501 2344.85 129.475 2345.53 128.939L2371.61 108.32L2397.62 86.912Z" fill="#00544B"/>
<path d="M2185.1 4.03897C2185.59 3.63283 2186.3 3.63283 2186.79 4.03897L2212.81 25.4473L2238.88 46.0663C2239.56 46.6015 2239.56 47.6282 2238.88 48.1634L2212.81 68.7823L2186.79 90.1907C2186.3 90.5968 2185.59 90.5968 2185.1 90.1907L2159.09 68.7823L2133.01 48.1634C2132.33 47.6282 2132.33 46.6015 2133.01 46.0663L2159.09 25.4473L2185.1 4.03897Z" fill="#00544B"/>
<path d="M2291.36 4.03897C2291.85 3.63283 2292.56 3.63283 2293.06 4.03897L2319.07 25.4473L2345.15 46.0663C2345.82 46.6015 2345.82 47.6282 2345.15 48.1634L2319.07 68.7823L2293.06 90.1907C2292.56 90.5968 2291.85 90.5968 2291.36 90.1907L2265.35 68.7823L2239.27 48.1634C2238.59 47.6282 2238.59 46.6015 2239.27 46.0663L2265.35 25.4473L2291.36 4.03897Z" fill="#00544B"/>
<path d="M2397.62 4.03897C2398.11 3.63283 2398.83 3.63283 2399.32 4.03897L2425.33 25.4473L2451.41 46.0663C2452.09 46.6015 2452.09 47.6282 2451.41 48.1634L2425.33 68.7823L2399.32 90.1907C2398.83 90.5968 2398.11 90.5968 2397.62 90.1907L2371.61 68.7823L2345.53 48.1634C2344.85 47.6282 2344.85 46.6015 2345.53 46.0663L2371.61 25.4473L2397.62 4.03897Z" fill="#00544B"/>
<path d="M2185.1 86.912C2185.59 86.5059 2186.3 86.5059 2186.79 86.912L2212.81 108.32L2238.88 128.939C2239.56 129.475 2239.56 130.501 2238.88 131.036L2212.81 151.655L2186.79 173.064C2186.3 173.47 2185.59 173.47 2185.1 173.064L2159.09 151.655L2133.01 131.036C2132.33 130.501 2132.33 129.475 2133.01 128.939L2159.09 108.32L2185.1 86.912Z" fill="#00544B"/>
<path d="M2291.36 86.912C2291.85 86.5059 2292.56 86.5059 2293.06 86.912L2319.07 108.32L2345.15 128.939C2345.82 129.475 2345.82 130.501 2345.15 131.036L2319.07 151.655L2293.06 173.064C2292.56 173.47 2291.85 173.47 2291.36 173.064L2265.35 151.655L2239.27 131.036C2238.59 130.501 2238.59 129.475 2239.27 128.939L2265.35 108.32L2291.36 86.912Z" fill="#00544B"/>
<path d="M2186.43 170.451C2186.93 170.045 2187.64 170.045 2188.13 170.451L2214.14 191.859L2240.22 212.478C2240.9 213.014 2240.9 214.04 2240.22 214.575L2214.14 235.194L2188.13 256.603C2187.64 257.009 2186.93 257.009 2186.43 256.603L2160.42 235.194L2134.34 214.575C2133.67 214.04 2133.67 213.014 2134.34 212.478L2160.42 191.859L2186.43 170.451Z" fill="#00544B"/>
<path d="M2292.69 170.451C2293.19 170.045 2293.9 170.045 2294.39 170.451L2320.4 191.859L2346.48 212.478C2347.16 213.014 2347.16 214.04 2346.48 214.575L2320.4 235.194L2294.39 256.603C2293.9 257.009 2293.19 257.009 2292.69 256.603L2266.68 235.194L2240.6 214.575C2239.93 214.04 2239.93 213.014 2240.6 212.478L2266.68 191.859L2292.69 170.451Z" fill="#00544B"/>
<path d="M2398.96 170.451C2399.45 170.045 2400.16 170.045 2400.66 170.451L2426.67 191.859L2452.75 212.478C2453.42 213.014 2453.42 214.04 2452.75 214.575L2426.67 235.194L2400.66 256.603C2400.16 257.009 2399.45 257.009 2398.96 256.603L2372.95 235.194L2346.87 214.575C2346.19 214.04 2346.19 213.014 2346.87 212.478L2372.95 191.859L2398.96 170.451Z" fill="#00544B"/>
<path d="M2186.43 255.328C2186.93 254.922 2187.64 254.922 2188.13 255.328L2214.14 276.736L2240.22 297.355C2240.9 297.891 2240.9 298.917 2240.22 299.452L2214.14 320.071L2188.13 341.48C2187.64 341.886 2186.93 341.886 2186.43 341.48L2160.42 320.071L2134.34 299.452C2133.67 298.917 2133.67 297.891 2134.34 297.355L2160.42 276.736L2186.43 255.328Z" fill="#00544B"/>
<path d="M2292.69 255.328C2293.19 254.922 2293.9 254.922 2294.39 255.328L2320.4 276.736L2346.48 297.355C2347.16 297.891 2347.16 298.917 2346.48 299.452L2320.4 320.071L2294.39 341.48C2293.9 341.886 2293.19 341.886 2292.69 341.48L2266.68 320.071L2240.6 299.452C2239.93 298.917 2239.93 297.891 2240.6 297.355L2266.68 276.736L2292.69 255.328Z" fill="#00544B"/>
<path d="M2398.96 255.328C2399.45 254.922 2400.16 254.922 2400.66 255.328L2426.67 276.736L2452.75 297.355C2453.42 297.891 2453.42 298.917 2452.75 299.452L2426.67 320.071L2400.66 341.48C2400.16 341.886 2399.45 341.886 2398.96 341.48L2372.95 320.071L2346.87 299.452C2346.19 298.917 2346.19 297.891 2346.87 297.355L2372.95 276.736L2398.96 255.328Z" fill="#00544B"/>
<path d="M2186.43 339.537C2186.93 339.131 2187.64 339.131 2188.13 339.537L2214.14 360.945L2240.22 381.564C2240.9 382.1 2240.9 383.126 2240.22 383.661L2214.14 404.28L2188.13 425.689C2187.64 426.095 2186.93 426.095 2186.43 425.689L2160.42 404.28L2134.34 383.661C2133.67 383.126 2133.67 382.1 2134.34 381.564L2160.42 360.945L2186.43 339.537Z" fill="#00544B"/>
<path d="M2292.69 339.537C2293.19 339.131 2293.9 339.131 2294.39 339.537L2320.4 360.945L2346.48 381.564C2347.16 382.1 2347.16 383.126 2346.48 383.661L2320.4 404.28L2294.39 425.689C2293.9 426.095 2293.19 426.095 2292.69 425.689L2266.68 404.28L2240.6 383.661C2239.93 383.126 2239.93 382.1 2240.6 381.564L2266.68 360.945L2292.69 339.537Z" fill="#00544B"/>
<path d="M2398.96 339.537C2399.45 339.131 2400.16 339.131 2400.66 339.537L2426.67 360.945L2452.75 381.564C2453.42 382.1 2453.42 383.126 2452.75 383.661L2426.67 404.28L2400.66 425.689C2400.16 426.095 2399.45 426.095 2398.96 425.689L2372.95 404.28L2346.87 383.661C2346.19 383.126 2346.19 382.1 2346.87 381.564L2372.95 360.945L2398.96 339.537Z" fill="#00544B"/>
<path d="M2504.43 3.8046C2504.92 3.39845 2505.63 3.39845 2506.12 3.8046L2532.14 25.2129L2558.21 45.8319C2558.89 46.3671 2558.89 47.3938 2558.21 47.929L2532.14 68.548L2506.12 89.9563C2505.63 90.3625 2504.92 90.3625 2504.43 89.9563L2478.42 68.548L2452.34 47.929C2451.66 47.3938 2451.66 46.3671 2452.34 45.8319L2478.42 25.2129L2504.43 3.8046Z" fill="#00544B"/>
<path d="M2504.43 86.6737C2504.92 86.2676 2505.63 86.2676 2506.12 86.6737L2532.14 108.082L2558.21 128.701C2558.89 129.236 2558.89 130.263 2558.21 130.798L2532.14 151.417L2506.12 172.825C2505.63 173.232 2504.92 173.232 2504.43 172.825L2478.42 151.417L2452.34 130.798C2451.66 130.263 2451.66 129.236 2452.34 128.701L2478.42 108.082L2504.43 86.6737Z" fill="#00544B"/>
<path d="M2505.76 170.213C2506.26 169.807 2506.97 169.807 2507.46 170.213L2533.47 191.621L2559.55 212.24C2560.23 212.775 2560.23 213.802 2559.55 214.337L2533.47 234.956L2507.46 256.365C2506.97 256.771 2506.26 256.771 2505.76 256.365L2479.75 234.956L2453.67 214.337C2453 213.802 2453 212.775 2453.67 212.24L2479.75 191.621L2505.76 170.213Z" fill="#00544B"/>
<path d="M2505.76 255.094C2506.26 254.688 2506.97 254.688 2507.46 255.094L2533.47 276.502L2559.55 297.121C2560.23 297.656 2560.23 298.683 2559.55 299.218L2533.47 319.837L2507.46 341.245C2506.97 341.652 2506.26 341.652 2505.76 341.245L2479.75 319.837L2453.67 299.218C2453 298.683 2453 297.656 2453.67 297.121L2479.75 276.502L2505.76 255.094Z" fill="#00544B"/>
<path d="M2505.76 339.299C2506.26 338.893 2506.97 338.893 2507.46 339.299L2533.47 360.707L2559.55 381.326C2560.23 381.861 2560.23 382.888 2559.55 383.423L2533.47 404.042L2507.46 425.45C2506.97 425.857 2506.26 425.857 2505.76 425.45L2479.75 404.042L2453.67 383.423C2453 382.888 2453 381.861 2453.67 381.326L2479.75 360.707L2505.76 339.299Z" fill="#00544B"/>
<path d="M1741.8 213.712C1741.8 256.715 1676.85 291.576 1596.72 291.576C1516.6 291.576 1451.65 256.715 1451.65 213.712C1451.65 178.885 1494.25 149.398 1553.01 139.445C1566.81 137.108 1581.49 135.848 1596.72 135.848C1611.96 135.848 1632.38 137.108 1646.18 139.445C1704.93 149.398 1741.8 178.885 1741.8 213.712Z" fill="#00544B"/>
<path d="M1600.12 382.6C1592.47 346.444 1577.59 293.068 1538.52 280.634H1663.11C1622.67 291.538 1605.31 345.679 1600.12 382.6Z" fill="#00544B"/>
<path d="M1599.73 46.7832C1592.08 82.9385 1573.78 133.25 1534.71 145.684H1659.29C1618.86 134.78 1604.92 83.7037 1599.73 46.7832Z" fill="#00544B"/>
<path d="M1758.52 89.8904C1735.48 118.786 1672.47 144.149 1631.97 137.762L1677.32 169.453L1739.52 191.566C1708.26 163.701 1746.62 125.224 1758.52 89.8904Z" fill="#00544B"/>
<path d="M1440.06 90.559C1463.1 119.455 1512.51 145.242 1553.01 138.854L1520.16 165.234L1457.96 187.346C1489.22 159.482 1451.97 125.892 1440.06 90.559Z" fill="#00544B"/>
<path d="M1441.06 340.498C1463.23 310.934 1518.89 286.923 1559.56 292.11L1519.99 251.534L1450.55 227.907C1482.63 254.835 1451.91 304.828 1441.06 340.498Z" fill="#00544B"/>
<path d="M1760.52 340.163C1738.34 310.599 1649.14 283.371 1608.47 288.559L1671.27 257.274L1740.71 233.647C1708.63 260.575 1749.66 304.494 1760.52 340.163Z" fill="#00544B"/>
<path d="M1813.99 213.529C1777.83 205.88 1726.77 192.676 1711.2 165.082L1705.74 263.983C1725.13 239.941 1777.07 218.72 1813.99 213.529Z" fill="#00544B"/>
<path d="M1381.25 213.195C1417.41 220.845 1472.69 234.476 1488.26 262.07L1492.63 160.984C1473.24 185.026 1418.17 208.004 1381.25 213.195Z" fill="#00544B"/>
<path d="M1485.25 208.634L1491.91 217.633H1485.95L1481.01 210.972H1480.91V217.633H1475.93V200.681H1480.91V207.236H1481.01L1486.24 200.681H1491.59L1485.25 208.634ZM1498.66 217.962C1494.43 217.962 1491.85 215.518 1491.85 211.136C1491.85 206.872 1494.5 204.334 1498.66 204.334C1502.84 204.334 1505.49 206.848 1505.49 211.136C1505.49 215.53 1502.9 217.962 1498.66 217.962ZM1498.66 214.52C1499.86 214.52 1500.6 213.321 1500.6 211.148C1500.6 209.033 1499.85 207.776 1498.66 207.776C1497.49 207.776 1496.74 209.033 1496.74 211.148C1496.74 213.321 1497.45 214.52 1498.66 214.52ZM1518.45 204.663V208.164H1514.89V217.633H1510.07V208.164H1506.51V204.663H1518.45ZM1526.21 207.647C1525.12 207.647 1524.28 208.446 1524.19 209.562H1528.23C1528.15 208.399 1527.34 207.647 1526.21 207.647ZM1528.37 213.427H1532.66C1532.26 216.223 1529.82 217.962 1526.26 217.962C1522 217.962 1519.48 215.436 1519.48 211.219C1519.48 206.978 1522.03 204.334 1526.1 204.334C1530.12 204.334 1532.72 206.895 1532.72 210.866V212.17H1524.12V212.476C1524.12 213.744 1525.04 214.661 1526.33 214.661C1527.3 214.661 1528.09 214.202 1528.37 213.427ZM1539.99 210.948C1539.79 215.048 1538.57 217.821 1534.9 217.821C1534.2 217.821 1533.66 217.703 1533.45 217.645V213.709C1533.62 213.744 1533.92 213.78 1534.3 213.78C1535.5 213.78 1535.77 212.276 1535.83 210.561L1536.07 204.663H1547.17V217.633H1542.35V208.164H1540.12L1539.99 210.948ZM1555.54 211.43H1554.04V214.191H1555.54C1556.45 214.191 1557.03 213.615 1557.03 212.804C1557.03 212.006 1556.45 211.43 1555.54 211.43ZM1549.22 217.633V204.663H1554.04V208.047H1556.65C1559.8 208.047 1561.81 209.914 1561.81 212.84C1561.81 215.765 1559.8 217.633 1556.65 217.633H1549.22ZM1571.89 217.633V212.816H1568.23V217.633H1563.42V204.663H1568.23V209.315H1571.89V204.663H1576.7V217.633H1571.89ZM1583.46 217.633H1578.76V204.663H1583.46V211.312H1583.55L1587.46 204.663H1592.15V217.633H1587.46V210.796H1587.37L1583.46 217.633ZM1603.22 210.537L1608 217.633H1602.35L1599.11 212.71H1599.01V217.633H1594.2V204.663H1599.01V209.398H1599.11L1602.27 204.663H1607.58L1603.22 210.537ZM1614.92 217.962C1610.69 217.962 1608.1 215.518 1608.1 211.136C1608.1 206.872 1610.76 204.334 1614.92 204.334C1619.1 204.334 1621.74 206.848 1621.74 211.136C1621.74 215.53 1619.16 217.962 1614.92 217.962ZM1614.92 214.52C1616.12 214.52 1616.86 213.321 1616.86 211.148C1616.86 209.033 1616.1 207.776 1614.92 207.776C1613.74 207.776 1612.99 209.033 1612.99 211.148C1612.99 213.321 1613.71 214.52 1614.92 214.52ZM1629.29 207.353H1628.15V209.785H1629.25C1630.23 209.785 1630.84 209.304 1630.84 208.575C1630.84 207.812 1630.26 207.353 1629.29 207.353ZM1629.43 212.111H1628.15V214.943H1629.38C1630.58 214.943 1631.26 214.437 1631.26 213.486C1631.26 212.616 1630.55 212.111 1629.43 212.111ZM1623.45 217.633V204.663H1630.84C1633.8 204.663 1635.55 205.861 1635.55 207.894C1635.55 209.339 1634.46 210.537 1633 210.702V210.796C1634.82 210.995 1636.12 212.217 1636.12 213.862C1636.12 216.117 1634.15 217.633 1631.05 217.633H1623.45ZM1643.58 214.602C1644.65 214.602 1645.64 214.003 1645.64 213.051V212.205L1643.59 212.346C1642.68 212.417 1642.16 212.851 1642.16 213.486C1642.16 214.191 1642.74 214.602 1643.58 214.602ZM1641.79 217.821C1639.42 217.821 1637.42 216.2 1637.42 213.862C1637.42 211.371 1639.33 210.02 1642.8 209.809L1645.64 209.633V208.998C1645.64 208.129 1644.98 207.659 1644.08 207.659C1643.09 207.659 1642.46 208.199 1642.38 208.857H1638.09C1638.2 206.085 1640.55 204.334 1644.33 204.334C1647.93 204.334 1650.34 206.132 1650.34 208.763V217.633H1645.64V215.894H1645.54C1644.86 217.163 1643.29 217.821 1641.79 217.821ZM1668.43 217.633L1667.55 214.261H1662.38L1661.5 217.633H1656.42L1661.96 200.681H1668.21L1673.74 217.633H1668.43ZM1664.92 204.593L1663.28 210.749H1666.64L1665.01 204.593H1664.92ZM1683.7 217.633V212.816H1680.05V217.633H1675.23V204.663H1680.05V209.315H1683.7V204.663H1688.52V217.633H1683.7ZM1699.04 217.633V212.816H1695.39V217.633H1690.57V204.663H1695.39V209.315H1699.04V204.663H1703.86V217.633H1699.04ZM1711.6 214.602C1712.67 214.602 1713.66 214.003 1713.66 213.051V212.205L1711.61 212.346C1710.7 212.417 1710.18 212.851 1710.18 213.486C1710.18 214.191 1710.76 214.602 1711.6 214.602ZM1709.81 217.821C1707.44 217.821 1705.44 216.2 1705.44 213.862C1705.44 211.371 1707.35 210.02 1710.82 209.809L1713.66 209.633V208.998C1713.66 208.129 1713 207.659 1712.1 207.659C1711.11 207.659 1710.48 208.199 1710.4 208.857H1706.1C1706.22 206.085 1708.57 204.334 1712.35 204.334C1715.95 204.334 1718.36 206.132 1718.36 208.763V217.633H1713.66V215.894H1713.56C1712.88 217.163 1711.31 217.821 1709.81 217.821Z" fill="white"/>
<path d="M1540.62 237.955C1540.62 241.374 1538.08 243.547 1534.31 243.547H1526.57V226.595H1539.19V230.542H1531.55V232.574H1534.09C1537.98 232.574 1540.62 234.677 1540.62 237.955ZM1531.55 239.788H1533.1C1534.62 239.788 1535.55 239.165 1535.55 237.943C1535.55 236.71 1534.62 236.087 1533.07 236.087H1531.55V239.788ZM1541.94 231.917C1541.94 228.451 1544.66 226.125 1548.86 226.125C1552.97 226.125 1555.49 228.204 1555.49 231.282C1555.49 233.608 1553.54 235.37 1552.64 236.169L1548.66 239.694V239.788H1555.69V243.547H1542.23V240.234L1549.04 234.207C1550.18 233.185 1550.7 232.375 1550.7 231.435C1550.7 230.519 1549.96 229.802 1548.68 229.802C1547.39 229.802 1546.47 230.671 1546.47 231.905V232.011H1541.94V231.917ZM1565.74 243.547V241.033H1557.4V236.909C1558.91 233.949 1560.6 231.094 1563.55 226.595H1570.44V237.215H1572.46V241.033H1570.44V243.547H1565.74ZM1561.53 237.274V237.415H1565.88V229.861H1565.78C1564.06 232.516 1562.93 234.313 1561.53 237.274ZM1578.01 243.735C1576.95 243.735 1576.03 243.547 1576.03 243.547V239.67C1576.03 239.67 1576.31 239.788 1577.16 239.788C1577.96 239.788 1578.65 239.694 1579.17 239.083L1573.7 226.595H1578.98L1581.83 234.454H1581.93L1584.53 226.595H1589.81L1584.62 238.695C1583.27 241.832 1581.56 243.735 1578.01 243.735ZM1600.9 234.548L1607.56 243.547H1601.6L1596.66 236.886H1596.56V243.547H1591.58V226.595H1596.56V233.15H1596.66L1601.9 226.595H1607.24L1600.9 234.548ZM1620.11 243.547V234.113H1620.01L1613.79 243.547H1609.04V226.595H1614.02V236.028H1614.12L1620.34 226.595H1625.09V243.547H1620.11ZM1635.72 238.683H1627.98V234.595H1635.72V238.683ZM1645.69 244.017C1641.11 244.017 1638.22 240.633 1638.22 235.03C1638.22 229.391 1641.15 226.113 1645.69 226.113C1650.24 226.113 1653.15 229.379 1653.15 235.018C1653.15 240.61 1650.28 244.017 1645.69 244.017ZM1645.69 240.187C1647.08 240.187 1648.08 238.519 1648.08 235.03C1648.08 231.529 1647.08 229.943 1645.69 229.943C1644.31 229.943 1643.3 231.529 1643.3 235.03C1643.3 238.519 1644.31 240.187 1645.69 240.187ZM1654.79 231.917C1654.79 228.451 1657.51 226.125 1661.71 226.125C1665.82 226.125 1668.34 228.204 1668.34 231.282C1668.34 233.608 1666.39 235.37 1665.49 236.169L1661.51 239.694V239.788H1668.54V243.547H1655.08V240.234L1661.89 234.207C1663.03 233.185 1663.55 232.375 1663.55 231.435C1663.55 230.519 1662.81 229.802 1661.53 229.802C1660.24 229.802 1659.32 230.671 1659.32 231.905V232.011H1654.79V231.917Z" fill="white"/>
</g>
</g>
</g>
<defs>
<clipPath id="clip0_319_292">
<rect width="1280" height="426" fill="white"/>
</clipPath>
<clipPath id="clip1_319_292">
<rect width="1281.94" height="427" fill="white"/>
</clipPath>
<clipPath id="clip2_319_292">
<rect width="1281.94" height="426.645" fill="white"/>
</clipPath>
<clipPath id="clip3_319_292">
<rect width="1280" height="426" fill="white" transform="translate(1280)"/>
</clipPath>
<clipPath id="clip4_319_292">
<rect width="1281.94" height="427" fill="white" transform="translate(1280)"/>
</clipPath>
<clipPath id="clip5_319_292">
<rect width="1281.94" height="426.645" fill="white" transform="translate(1280)"/>
</clipPath>
</defs>
</svg>
