<svg width="326" height="398" viewBox="0 0 326 398" fill="none" xmlns="http://www.w3.org/2000/svg">
<path d="M5.79402 395.216L157.25 397.364L178.734 380.178C189.905 367.718 187.327 356.725 184.641 352.787L167.455 332.378C183.746 317.877 218.263 286.833 225.997 278.67C233.73 270.506 242.467 256.65 245.868 250.742C253.388 239.463 253.925 230.333 256.073 212.072C257.792 197.464 247.122 172.328 241.572 161.587L253.925 175.014C263.377 182.318 273.976 178.057 278.093 175.014L301.725 153.53C308.707 108.595 322.993 17.1124 324.282 10.6674C325.571 4.22247 321.239 3.32734 318.911 3.6854L169.603 1C165.486 4.75955 154.995 14.3196 145.972 22.4832C136.949 30.6468 140.064 41.997 142.749 46.6517L159.399 67.0607C135.767 89.081 75.6144 132.584 72.3919 172.328C70.3575 197.42 74.5402 215.832 84.7447 235.704L72.3919 222.814C60.791 211.642 35.6915 232.481 24.5919 244.297C18.3259 287.8 5.04211 376.955 2.03446 385.548C-0.97318 394.142 3.28765 395.574 5.79402 395.216Z" fill="#E76BC8" stroke="#E76BC8" stroke-width="1.07416"/>
<path d="M107.302 183.069C109.88 193.381 123.773 209.923 130.397 216.905L252.851 114.322C258.221 120.767 271.219 136.343 280.242 147.084C289.265 157.826 291.162 151.56 290.983 147.084C296.891 106.803 309.136 25.0599 310.855 20.3337C312.574 15.6074 307.633 14.4258 304.947 14.4258H178.734C170.57 14.4258 172.11 18.3644 173.9 20.3337L202.365 54.7067C182.135 70.461 137.916 106.266 122.878 123.453C104.08 144.936 104.08 170.179 107.302 183.069Z" fill="white" stroke="#E76BC8" stroke-width="1.07416"/>
<path d="M213.644 165.346L96.024 265.78C88.3258 258.44 73.4667 241.611 66.4847 232.481C60.172 224.226 58.9656 228.721 58.4285 232.481C52.8787 269.897 40.8122 347.093 36.9453 356.546C33.0783 365.998 38.5565 367.287 41.779 366.75H169.604C178.197 366.75 176.765 362.454 174.975 360.305L147.046 325.932C172.468 305.881 224.601 263.631 229.757 255.038C236.202 244.296 244.258 220.665 243.721 207.775C243.184 194.885 227.608 172.328 223.312 165.346C219.874 159.76 215.435 163.018 213.644 165.346Z" fill="white" stroke="#E76BC8" stroke-width="1.07416"/>
</svg>
